<svg width="24" height="24" viewBox="0 0 24 24" fill="none" xmlns="http://www.w3.org/2000/svg">
<path fill-rule="evenodd" clip-rule="evenodd" d="M6.0727 3.26996C7.5261 1.81657 9.49731 1 11.5527 1C13.6082 1 15.5794 1.81657 17.0329 3.26995L17.0329 3.26997C18.4862 4.72338 19.3027 6.69456 19.3027 8.75C19.3027 9.16421 18.9669 9.5 18.5527 9.5C18.1385 9.5 17.8027 9.16421 17.8027 8.75C17.8027 7.0924 17.1443 5.50272 15.9722 4.33061C14.8001 3.15851 13.2103 2.5 11.5527 2.5C9.89516 2.5 8.30548 3.15851 7.13336 4.33062C7.13336 4.33062 7.13335 4.33062 7.13335 4.33062M7.13335 4.33062C5.96124 5.50274 5.30273 7.09241 5.30273 8.75V15.75C5.30273 16.1642 4.96695 16.5 4.55273 16.5C4.13852 16.5 3.80273 16.1642 3.80273 15.75V8.75C3.80273 6.69455 4.6193 4.72336 6.07269 3.26996L6.0727 3.26996M18.5527 11C18.9669 11 19.3027 11.3358 19.3027 11.75V14.75C19.3027 16.8054 18.4862 18.7768 17.0329 20.2301C15.5794 21.6836 13.6081 22.4999 11.5527 22.4999C9.49738 22.4999 7.52615 21.6836 6.0727 20.2301C5.62212 19.7796 5.2327 19.2792 4.90987 18.7419C4.69652 18.3868 4.8114 17.9261 5.16644 17.7127C5.52149 17.4994 5.98226 17.6143 6.1956 17.9693C6.45593 18.4025 6.76993 18.8061 7.13334 19.1695L7.13336 19.1695C8.30543 20.3416 9.8951 20.9999 11.5527 20.9999C13.2104 20.9999 14.8001 20.3416 15.9722 19.1695C17.1442 17.9974 17.8027 16.4076 17.8027 14.75V11.75C17.8027 11.3358 18.1385 11 18.5527 11Z" fill="#646464"/>
<path d="M11.5527 4.75V9.75" stroke="#646464" stroke-width="1.5" stroke-linecap="round" stroke-linejoin="round"/>
<path d="M13.5527 7.75L11.5527 9.75L9.55273 7.75" stroke="#646464" stroke-width="1.5" stroke-linecap="round" stroke-linejoin="round"/>
<path d="M23 6.64453L1 17.6445" stroke="#646464" stroke-width="1.5" stroke-linecap="round"/>
</svg>
