<svg width="22" height="6" viewBox="0 0 22 6" fill="none" xmlns="http://www.w3.org/2000/svg">
    <path
        d="M11.002 0.434569C11.5211 0.434569 12.0286 0.588523 12.4603 0.876962C12.892 1.1654 13.2285 1.57537 13.4271 2.05503C13.6258 2.53468 13.6778 3.06248 13.5765 3.57168C13.4752 4.08088 13.2252 4.54861 12.8581 4.91572C12.491 5.28284 12.0233 5.53284 11.5141 5.63413C11.0049 5.73542 10.4771 5.68343 9.99741 5.48475C9.51775 5.28607 9.10778 4.94962 8.81935 4.51794C8.53091 4.08626 8.37695 3.57874 8.37695 3.05957C8.37695 2.36338 8.65352 1.6957 9.1458 1.20341C9.63808 0.71113 10.3058 0.434569 11.002 0.434569ZM6.12695 3.05957C6.12695 2.54039 5.973 2.03288 5.68456 1.6012C5.39612 1.16952 4.98615 0.833066 4.5065 0.634386C4.02684 0.435706 3.49904 0.383721 2.98984 0.485007C2.48064 0.586294 2.01291 0.8363 1.6458 1.20341C1.27869 1.57053 1.02868 2.03826 0.927393 2.54746C0.826107 3.05666 0.878091 3.58446 1.07677 4.06411C1.27545 4.54377 1.6119 4.95374 2.04358 5.24218C2.47526 5.53062 2.98278 5.68457 3.50195 5.68457C4.19815 5.68457 4.86583 5.40801 5.35811 4.91572C5.85039 4.42344 6.12695 3.75576 6.12695 3.05957ZM15.877 3.05957C15.877 3.57875 16.0309 4.08626 16.3193 4.51794C16.6078 4.94962 17.0178 5.28607 17.4974 5.48475C17.9771 5.68343 18.5049 5.73542 19.0141 5.63413C19.5233 5.53284 19.991 5.28284 20.3581 4.91572C20.7252 4.54861 20.9752 4.08088 21.0765 3.57168C21.1778 3.06248 21.1258 2.53468 20.9271 2.05503C20.7285 1.57537 20.392 1.1654 19.9603 0.876962C19.5286 0.588523 19.0211 0.434569 18.502 0.434569C17.8058 0.434569 17.1381 0.71113 16.6458 1.20341C16.1535 1.6957 15.877 2.36338 15.877 3.05957Z"
        fill="#646464" />
</svg>