<svg width="20" height="20" viewBox="0 0 20 20" fill="none" xmlns="http://www.w3.org/2000/svg">
<g id="close 1" clip-path="url(#clip0_6366_62836)">
<g id="Group">
<g id="close_1_">
<path id="Vector" d="M1.8959 19.8749C1.40556 19.9034 0.923326 19.7404 0.550889 19.4202C-0.18363 18.6813 -0.18363 17.488 0.550889 16.7491L16.6344 0.665488C17.3984 -0.0493789 18.5972 -0.00963983 19.3121 0.754324C19.9585 1.44517 19.9962 2.50703 19.4003 3.24192L3.22196 19.4202C2.85432 19.7358 2.37982 19.8985 1.8959 19.8749Z" fill="white"/>
<path id="Vector_2" d="M17.959 19.8749C17.462 19.8728 16.9857 19.6755 16.6329 19.3256L0.549271 3.2419C-0.131222 2.44724 -0.0387055 1.25132 0.755952 0.570768C1.4652 -0.0366102 2.51121 -0.0366102 3.2204 0.570768L19.3987 16.6544C20.1625 17.3694 20.202 18.5683 19.4869 19.3321C19.4585 19.3624 19.4291 19.3918 19.3987 19.4203C19.0026 19.7648 18.4812 19.9294 17.959 19.8749Z" fill="white"/>
</g>
</g>
</g>
<defs>
<clipPath id="clip0_6366_62836">
<rect width="20" height="20" fill="white"/>
</clipPath>
</defs>
</svg>
