<svg width="24" height="6" viewBox="0 0 24 6" fill="none" xmlns="http://www.w3.org/2000/svg">
<g id="Group">
<path id="Vector" d="M2.62039 5.62087C1.17535 5.62087 0 4.44609 0 3.00086C0 1.5564 1.17535 0.380859 2.62039 0.380859C4.06542 0.380859 5.24078 1.55634 5.24078 3.00086C5.24071 4.44609 4.06542 5.62087 2.62039 5.62087ZM11.8527 5.62087C10.4077 5.62087 9.23234 4.44609 9.23234 3.00086C9.23234 1.5564 10.4077 0.380859 11.8527 0.380859C13.2975 0.380859 14.4731 1.55634 14.4731 3.00086C14.4731 4.44609 13.2975 5.62087 11.8527 5.62087ZM21.3796 5.62087C19.9348 5.62087 18.7592 4.44609 18.7592 3.00086C18.7592 1.5564 19.9348 0.380859 21.3796 0.380859C22.8245 0.380859 24 1.55634 24 3.00086C24 4.44609 22.8245 5.62087 21.3796 5.62087Z" fill="white"/>
</g>
</svg>
