<svg width="33" height="32" viewBox="0 0 33 32" fill="none" xmlns="http://www.w3.org/2000/svg">
<defs>
<linearGradient id="paint0_linear_904_767" x1="14.7944" y1="0" x2="14.7944" y2="30" gradientUnits="userSpaceOnUse">
<stop stop-color="#641A92"/>
<stop offset="1" stop-color="#4280D8"/>
</linearGradient>
</defs>
<path fill-rule="evenodd" clip-rule="evenodd" d="M16.1541 1.33374C20.1045 1.33374 23.817 2.82307 26.6055 5.52841C32.3695 11.1177 32.3695 20.2111 26.6055 25.8004C23.7799 28.5417 19.9752 29.9924 16.1211 29.9924C14.0201 29.9924 11.9054 29.5618 9.92673 28.6737C9.34373 28.4471 8.79785 28.2337 8.40598 28.2337C7.95498 28.2364 7.3486 28.4391 6.76285 28.6351C5.5611 29.0351 4.0651 29.5338 2.95823 28.4644C1.85548 27.3937 2.36423 25.9471 2.77398 24.7831C2.9761 24.2097 3.18373 23.6177 3.18373 23.1697C3.18373 22.8017 3.00085 22.3324 2.72035 21.6564C0.144976 16.2631 1.33573 9.76308 5.7041 5.52974C8.4926 2.82441 12.2037 1.33374 16.1541 1.33374ZM16.1555 3.33374C12.7551 3.33374 9.56098 4.61641 7.1616 6.94441C3.40235 10.5871 2.37935 16.1804 4.61373 20.8644C4.93548 21.6364 5.24623 22.3884 5.24623 23.1697C5.24623 23.9497 4.96985 24.7351 4.72648 25.4284C4.52573 25.9991 4.22185 26.8604 4.4171 27.0497C4.60823 27.2417 5.50198 26.9391 6.09185 26.7431C6.79998 26.5084 7.60298 26.2391 8.3991 26.2337C9.1966 26.2337 9.94873 26.5271 10.7449 26.8377C15.622 29.0244 21.3901 28.0297 25.148 24.3871C30.1062 19.5764 30.1062 11.7511 25.148 6.94308C22.7472 4.61507 19.5545 3.33374 16.1555 3.33374ZM21.5825 14.884C22.3415 14.884 22.9575 15.48 22.9575 16.2173C22.9575 16.9547 22.3415 17.5507 21.5825 17.5507C20.8235 17.5507 20.202 16.9547 20.202 16.2173C20.202 15.48 20.8111 14.884 21.5701 14.884H21.5825ZM16.0704 14.884C16.8294 14.884 17.4454 15.48 17.4454 16.2173C17.4454 16.9547 16.8294 17.5507 16.0704 17.5507C15.3114 17.5507 14.6899 16.9547 14.6899 16.2173C14.6899 15.48 15.2976 14.884 16.058 14.884H16.0704ZM10.5577 14.884C11.3167 14.884 11.9327 15.48 11.9327 16.2173C11.9327 16.9547 11.3167 17.5507 10.5577 17.5507C9.79871 17.5507 9.17721 16.9547 9.17721 16.2173C9.17721 15.48 9.78634 14.884 10.5453 14.884H10.5577Z" fill="url(#paint0_linear_904_767)"/>
</svg>
