<svg version="1.2" xmlns="http://www.w3.org/2000/svg" viewBox="0 0 30 30" width="30" height="30">
<defs>
<linearGradient id="paint0_linear_904_761" x1="15.5111" y1="0.75" x2="15.5111" y2="29.2428" gradientUnits="userSpaceOnUse">
<stop stop-color="#641A92"/>
<stop offset="1" stop-color="#4280D8"/>
</linearGradient>
</defs>
<path id="Layer" fill-rule="evenodd" class="s0" d="m15 0c8.5 0 15 7 15 15 0 9.2-7.6 15-15 15-2.5 0-5.2-0.7-7.4-2-0.7-0.4-1.4-0.8-2.2-0.5l-3 0.9c-0.8 0.2-1.5-0.4-1.3-1.2l1-3.3c0.2-0.5 0.2-1-0.1-1.4-1.3-2.4-2-5-2-7.5 0-7.9 6.3-15 15-15zm8.8 15c0-1-0.9-1.9-1.9-1.9-1.1 0-1.9 0.9-1.9 1.9 0 1.1 0.8 2 1.9 2 1 0 1.9-0.9 1.9-2zm-6.9 0c0-1-0.9-1.9-1.9-1.9-1.1 0-2 0.9-2 1.9 0 1.1 0.9 2 2 2 1 0 1.9-0.9 1.9-2zm-6.9 0c0-1-0.9-1.9-1.9-1.9-1.1 0-2 0.9-2 1.9 0 1.1 0.9 2 2 2 1 0 1.9-0.9 1.9-2z" fill="url(#paint0_linear_904_761)"/>
</svg>