<svg width="33" height="34" viewBox="0 0 33 34" fill="none" xmlns="http://www.w3.org/2000/svg">
<path d="M16.4998 2.06523C7.38608 2.06523 0.0577639 8.24898 0.0577639 15.8777C0.0577639 19.1728 1.43384 22.185 3.72966 24.557C2.92399 27.9019 0.231787 30.8836 0.199561 30.9168C0.0545413 31.0662 0.0142581 31.2975 0.102881 31.4967C0.183383 31.696 0.362047 31.8132 0.57152 31.8132C4.84154 31.8132 7.99007 29.7042 9.63363 28.4006C11.7367 29.2141 14.0822 29.6882 16.5559 29.6882C25.6696 29.6882 32.9979 23.5038 32.9979 15.9355C32.9979 8.36718 25.6134 2.06523 16.4998 2.06523ZM8.19175 18.0027C7.04771 18.0027 6.12925 17.0564 6.12925 15.9375C6.12925 14.8186 7.04771 13.8125 8.19175 13.8125C9.33579 13.8125 10.2542 14.7588 10.2542 15.9375C10.2542 17.1162 9.39058 18.0027 8.19175 18.0027ZM16.4998 18.0027C15.3557 18.0027 14.4953 17.0564 14.4953 15.9375C14.4953 14.8186 15.4137 13.8125 16.4998 13.8125C17.5858 13.8125 18.5042 14.7588 18.5042 15.9375C18.5042 17.1162 17.647 18.0027 16.4998 18.0027ZM24.6917 18.0027C23.5477 18.0027 22.6292 17.0564 22.6292 15.9375C22.6292 14.8186 23.5477 13.8125 24.6917 13.8125C25.8358 13.8125 26.7542 14.7588 26.7542 15.9375C26.7542 17.1162 25.8906 18.0027 24.6917 18.0027Z" fill="white"/>
</svg>
