<svg version="1.2" xmlns="http://www.w3.org/2000/svg" viewBox="0 0 30 30" width="30" height="30">
<defs>
<linearGradient id="paint0_linear_904_761" x1="15.5111" y1="0.75" x2="15.5111" y2="29.2428" gradientUnits="userSpaceOnUse">
<stop stop-color="#641A92"/>
<stop offset="1" stop-color="#4280D8"/>
</linearGradient>
</defs>
<path id="Layer" fill-rule="evenodd" class="s0" d="m15 30c-8.3 0-15-6.7-15-15 0-8.3 6.7-15 15-15 8.3 0 15 6.7 15 15 0 8.3-6.7 15-15 15zm5.8-19.9c0.1-0.6-0.3-1.1-0.9-0.9l-7.6 2.4c-0.4 0.1-0.6 0.4-0.7 0.7l-2.4 7.7c-0.2 0.5 0.3 1 0.8 0.8l7.7-2.4c0.3-0.1 0.6-0.3 0.6-0.7z" fill="url(#paint0_linear_904_761)"/>
</svg>