<svg width="31" height="30" viewBox="0 0 31 30" fill="none" xmlns="http://www.w3.org/2000/svg">
<defs>
<linearGradient id="paint0_linear_904_761" x1="15.5111" y1="0.75" x2="15.5111" y2="29.2428" gradientUnits="userSpaceOnUse">
<stop stop-color="#641A92"/>
<stop offset="1" stop-color="#4280D8"/>
</linearGradient>
</defs>
<path fill-rule="evenodd" clip-rule="evenodd" d="M15.5111 0.75C23.6045 0.75 30.1892 7.141 30.1892 14.9964C30.1892 22.8517 23.6045 29.2428 15.5111 29.2428C7.41768 29.2428 0.833008 22.8517 0.833008 14.9964C0.833008 7.141 7.41768 0.75 15.5111 0.75ZM15.5111 2.8125C8.58926 2.8125 2.95801 8.2795 2.95801 14.9964C2.95801 21.7146 8.58926 27.1803 15.5111 27.1803C22.4329 27.1803 28.0642 21.7146 28.0642 14.9964C28.0642 8.2795 22.4329 2.8125 15.5111 2.8125ZM20.9959 9.67361C21.2749 9.94586 21.3769 10.346 21.2579 10.7104L19.0026 17.7077C18.8992 18.0309 18.6371 18.2839 18.3056 18.3842L11.0962 20.5746C10.9914 20.6062 10.8837 20.6214 10.7789 20.6214C10.5012 20.6214 10.2292 20.5155 10.0266 20.3202C9.74753 20.048 9.64553 19.6479 9.76453 19.2835L12.0213 12.2861C12.1247 11.9616 12.3854 11.71 12.7169 11.6096L19.9263 9.41924C20.3045 9.30236 20.7154 9.40274 20.9959 9.67361ZM18.6244 11.9754L13.8828 13.4164L12.3995 18.0185L17.1397 16.5775L18.6244 11.9754Z" fill="url(#paint0_linear_904_761)"/>
</svg>
