<svg width="17" height="20" viewBox="0 0 17 20" fill="none" xmlns="http://www.w3.org/2000/svg">
<g clip-path="url(#clip0_499_600)">
<path d="M7.74375 13.4648L2.64562 7.83594C2.39887 7.56641 2.33137 7.16406 2.47312 6.82031C2.61562 6.47656 2.94075 6.25391 3.3 6.25391H6V1.25078C6 0.559766 6.53625 0 7.2 0H9.6C10.2637 0 10.8 0.559766 10.8 1.25078V6.25391H13.5C13.86 6.25391 14.1825 6.47656 14.325 6.82031C14.4675 7.16406 14.4 7.56641 14.1562 7.83594L9.05625 13.4648C8.715 13.8398 8.085 13.8398 7.74375 13.4648ZM13.2 20H3.6C1.61175 20 0 18.3203 0 16.25V13.75C0 13.0586 0.537375 12.4648 1.2 12.4648C1.86262 12.4648 2.4 13.0586 2.4 13.75V16.25C2.4 16.9414 2.93737 17.5 3.6 17.5H13.2C13.8637 17.5 14.4 16.9414 14.4 16.25V13.75C14.4 13.0586 14.9362 12.4648 15.6 12.4648C16.2637 12.4648 16.8 13.0586 16.8 13.75V16.25C16.8 18.3203 15.1875 20 13.2 20Z" fill="#A5A7A9"/>
</g>
<defs>
<clipPath id="clip0_499_600">
<rect width="16.8" height="20" fill="white"/>
</clipPath>
</defs>
</svg>
