<svg width="30" height="30" viewBox="0 0 30 30" fill="none" xmlns="http://www.w3.org/2000/svg">
<defs>
<linearGradient id="paint0_linear_904_767" x1="14.7944" y1="0" x2="14.7944" y2="30" gradientUnits="userSpaceOnUse">
<stop stop-color="#641A92"/>
<stop offset="1" stop-color="#4280D8"/>
</linearGradient>
</defs>
<path fill-rule="evenodd" clip-rule="evenodd" d="M16.8409 19.9364C18.5205 19.9364 19.8876 21.2938 19.8876 22.9622V27.2532C19.8876 27.6117 20.175 27.8991 20.5433 27.9075H23.2022C25.2975 27.9075 27.0008 26.2251 27.0008 24.1577V11.9877C26.991 11.2762 26.652 10.6066 26.0703 10.1616L16.873 2.82664C15.6384 1.84873 13.9114 1.84873 12.6726 2.82943L3.53812 10.1588C2.93408 10.6178 2.59509 11.2874 2.58812 12.0114V24.1577C2.58812 26.2251 4.29142 27.9075 6.38672 27.9075H9.07072C9.44877 27.9075 9.75567 27.6076 9.75567 27.2393C9.75567 27.1584 9.76543 27.0775 9.78217 27.0007V22.9622C9.78217 21.3035 11.1409 19.9476 12.8079 19.9364H16.8409ZM23.2022 30H20.5182C18.9809 29.9637 17.7951 28.757 17.7951 27.2532V22.9622C17.7951 22.4474 17.3668 22.0289 16.8409 22.0289H12.8149C12.3002 22.0317 11.8747 22.4516 11.8747 22.9622V27.2393C11.8747 27.3439 11.8607 27.4443 11.8314 27.5392C11.6808 28.9203 10.5006 30 9.07072 30H6.38672C3.13775 30 0.495605 27.3788 0.495605 24.1577V12.0016C0.509556 10.615 1.14847 9.34551 2.25192 8.5099L11.3683 1.19308C13.3757 -0.397228 16.1727 -0.397228 18.1759 1.19029L27.3579 8.51408C28.4362 9.33574 29.0751 10.6024 29.0933 11.9723V24.1577C29.0933 27.3788 26.4511 30 23.2022 30Z" fill="url(#paint0_linear_904_767)"/>
</svg>
