<svg version="1.2" xmlns="http://www.w3.org/2000/svg" viewBox="0 0 30 32" width="30" height="32">
<defs>
<linearGradient id="paint0_linear_904_761" x1="15.5111" y1="0.75" x2="15.5111" y2="29.2428" gradientUnits="userSpaceOnUse">
<stop stop-color="#641A92"/>
<stop offset="1" stop-color="#4280D8"/>
</linearGradient>
</defs>
<path id="Layer" class="s0" d="m10.4 30.1c0 1-0.8 1.9-1.9 1.9h-3c-3.1 0-5.5-2.5-5.5-5.5v-13.9c0-1.2 0.6-2.3 1.5-3.1l10.3-8.3c1.8-1.6 4.4-1.6 6.3-0.1l10.5 8.4c0.9 0.8 1.4 1.9 1.4 3.1v13.9c0 1.5-0.6 2.9-1.6 3.9-1 1-2.4 1.6-3.9 1.6h-3.1c-0.5 0-1-0.2-1.3-0.6-0.4-0.3-0.6-0.8-0.6-1.4v-4.9c0-0.6-0.2-1.1-0.6-1.6-0.5-0.4-1-0.6-1.6-0.6h-4.6c-1.2 0-2.2 1-2.2 2.2v4.9z" fill="url(#paint0_linear_904_761)"/>
</svg>