<svg width="20" height="21" viewBox="0 0 20 21" fill="none" xmlns="http://www.w3.org/2000/svg">
<g clip-path="url(#clip0_2472_32)">
<path d="M0 10.4844C0 4.96094 4.47656 0.484375 10 0.484375C15.5234 0.484375 20 4.96094 20 10.4844C20 16.0078 15.5234 20.4844 10 20.4844C4.47656 20.4844 0 16.0078 0 10.4844ZM9.12109 15.4922C9.36328 15.7383 9.68359 15.8594 10 15.8594C10.3164 15.8594 10.6367 15.7383 10.8789 15.4922L14.8477 11.4258C15.9961 10.2969 15.9961 8.40625 14.8477 7.24219C13.7031 6.07812 11.8398 6.07812 10.6914 7.24219L10 7.94531L9.30859 7.24219C8.16016 6.07812 6.29687 6.07812 5.15234 7.24219C4.00391 8.40625 4.00391 10.2969 5.15234 11.4258L9.12109 15.4922Z" fill="#9AA9BD"/>
</g>
<defs>
<clipPath id="clip0_2472_32">
<rect width="20" height="20" fill="white" transform="translate(0 0.484375)"/>
</clipPath>
</defs>
</svg>
