<svg width="33" height="33" viewBox="0 0 33 33" fill="none" xmlns="http://www.w3.org/2000/svg">
<path d="M0 12.3041V11.9303C0 7.425 3.25617 3.58231 7.6957 2.84238C10.5768 2.35318 13.6254 3.31096 15.7266 5.41535L16.5 6.1875L17.2154 5.41535C19.3746 3.31096 22.3652 2.35318 25.3043 2.84238C29.7451 3.58231 33 7.425 33 11.9303V12.3041C33 14.9789 31.8914 17.5377 29.932 19.3617L18.2854 30.235C17.802 30.6861 17.1639 30.9375 16.5 30.9375C15.8361 30.9375 15.198 30.6861 14.7146 30.235L3.06732 19.3617C1.11053 17.5377 1.93359e-05 14.9789 1.93359e-05 12.3041H0Z" fill="white"/>
</svg>
