<svg width="39" height="9" viewBox="0 0 39 9" fill="none" xmlns="http://www.w3.org/2000/svg">
<g clip-path="url(#clip0_499_410)">
<path d="M11.7812 4.5C11.7812 6.67476 9.91836 8.4375 7.625 8.4375C5.33164 8.4375 3.46875 6.67476 3.46875 4.5C3.46875 2.32523 5.33164 0.562499 7.625 0.562499C9.91836 0.562499 11.7812 2.32523 11.7812 4.5ZM23.6562 4.5C23.6562 6.67477 21.7934 8.4375 19.5 8.4375C17.2066 8.4375 15.3437 6.67476 15.3437 4.5C15.3437 2.32523 17.2066 0.562499 19.5 0.562499C21.7934 0.562499 23.6562 2.32523 23.6562 4.5ZM27.2187 4.5C27.2187 2.32523 29.0816 0.5625 31.375 0.5625C33.6706 0.5625 35.5312 2.32523 35.5312 4.5C35.5312 6.67477 33.6706 8.4375 31.375 8.4375C29.0816 8.4375 27.2187 6.67477 27.2187 4.5Z" fill="white"/>
</g>
<defs>
<clipPath id="clip0_499_410">
<rect x="38.5" width="9" height="38" transform="rotate(90 38.5 0)" fill="white"/>
</clipPath>
</defs>
</svg>
