<svg width="40" height="40" viewBox="0 0 40 40" fill="none" xmlns="http://www.w3.org/2000/svg">
<defs>
<linearGradient id="paint0_linear_904_747" x1="20" y1="0" x2="20" y2="40" gradientUnits="userSpaceOnUse">
<stop stop-color="#4280D8"/>
<stop offset="1" stop-color="#641A92"/>
</linearGradient>
</defs>
<path d="M22.14 17.82V12.68C22.14 11.4839 21.1761 10.52 19.98 10.52C18.7839 10.52 17.82 11.4839 17.82 12.68V17.82H12.66C12.0827 17.82 11.5429 18.0557 11.138 18.4352L11.1263 18.4463L11.1152 18.458C10.7359 18.8627 10.5 19.4004 10.5 19.98C10.5 21.1782 11.4636 22.1341 12.6491 22.1599L12.6491 22.16H12.66H17.82V27.32C17.82 28.5161 18.7839 29.48 19.98 29.48C21.1761 29.48 22.14 28.5161 22.14 27.32V22.16H27.32V22.1601L27.3309 22.1599C28.5164 22.1341 29.48 21.1782 29.48 19.98C29.48 18.7839 28.5161 17.82 27.32 17.82H22.14ZM29.32 0.5C32.6275 0.5 35.1557 1.43236 36.8572 3.12678C38.5583 4.82088 39.5 7.34355 39.5 10.66V29.34C39.5 32.6365 38.5632 35.1598 36.8662 36.8592C35.1693 38.5585 32.6461 39.5 29.34 39.5H10.66C7.34354 39.5 4.82071 38.5583 3.12654 36.8594C1.43214 35.1604 0.5 32.6371 0.5 29.34V10.66C0.5 7.34216 1.4325 4.81961 3.12605 3.12605C4.81961 1.4325 7.34216 0.5 10.66 0.5H29.32Z" fill="url(#paint0_linear_904_747)" />
</svg>
