<svg width="24" height="29" viewBox="0 0 24 29" fill="none" xmlns="http://www.w3.org/2000/svg">
<defs>
<linearGradient id="paint0_linear_904_767" x1="14.7944" y1="0" x2="14.7944" y2="30" gradientUnits="userSpaceOnUse">
<stop stop-color="#641A92"/>
<stop offset="1" stop-color="#4280D8"/>
</linearGradient>
</defs>
<path fill-rule="evenodd" clip-rule="evenodd" d="M23.1065 23.7737C23.1065 28.443 16.7032 28.9827 11.8879 28.9827L11.5433 28.9824C8.47546 28.975 0.666504 28.7813 0.666504 23.7453C0.666504 19.1713 6.8125 18.56 11.5911 18.5369L12.2325 18.5365C15.3002 18.544 23.1065 18.7377 23.1065 23.7737ZM11.8879 20.6612C5.8515 20.6612 2.7915 21.6982 2.7915 23.7453C2.7915 25.8108 5.8515 26.8577 11.8879 26.8577C17.9229 26.8577 20.9815 25.8207 20.9815 23.7737C20.9815 21.7082 17.9229 20.6612 11.8879 20.6612ZM11.8879 0.833008C16.0359 0.833008 19.409 4.20751 19.409 8.35551C19.409 12.5035 16.0359 15.8766 11.8879 15.8766H11.8426C7.70309 15.8638 4.34984 12.4879 4.36396 8.35126C4.36396 4.20751 7.7385 0.833008 11.8879 0.833008ZM11.8879 2.85601C8.85484 2.85601 6.38697 5.32242 6.38697 8.35551C6.37709 11.3787 8.8265 13.8437 11.8468 13.855L11.8879 14.8665V13.855C14.9196 13.855 17.386 11.3872 17.386 8.35551C17.386 5.32242 14.9196 2.85601 11.8879 2.85601Z" fill="url(#paint0_linear_904_767)"/>
</svg>
