<svg width="20" height="20" viewBox="0 0 20 20" fill="none" xmlns="http://www.w3.org/2000/svg">
<g clip-path="url(#clip0_499_588)">
<path d="M2.4 19.375C2.4 19.7188 2.12813 20 1.8 20H0.6C0.271875 20 0 19.7188 0 19.375V1.25C0 0.556641 0.534375 0 1.2 0C1.86563 0 2.4 0.556641 2.4 1.25V19.375ZM17.8612 0C17.6226 0 17.3734 0.0527344 17.136 0.165352C15.4226 0.980195 14.1525 1.25676 13.0935 1.25676C10.845 1.25676 9.53813 0.0122266 6.94725 0.0118359C6.03375 0.0119336 4.935 0.190117 3.6 0.615234V14.3066C4.8 13.9166 5.84513 13.7559 6.78188 13.7559C9.543 13.7559 11.4656 14.9973 14.2294 14.9973C15.426 14.9973 16.7801 14.764 18.3956 14.0953C18.9037 13.9023 19.2 13.4531 19.2 12.9727V1.20039C19.2 0.433594 18.5737 0 17.8612 0Z" fill="#A5A7A9"/>
</g>
<defs>
<clipPath id="clip0_499_588">
<rect width="19.2" height="20" fill="white"/>
</clipPath>
</defs>
</svg>
