<svg width="428" height="428" viewBox="0 0 428 428" fill="none" xmlns="http://www.w3.org/2000/svg">
<path d="M255.139 86.002C231.531 87.2774 215.532 105.382 189.887 102.266C89.024 76.0724 44.2809 148.028 95.5639 207.194C146.256 264.855 294.156 306.011 342.528 253.958C388.77 205.619 332.479 86.935 255.139 86.002Z" fill="#4280D8"/>
<path opacity="0.9" d="M255.139 86.002C231.531 87.2774 215.532 105.382 189.887 102.266C89.024 76.0724 44.2809 148.028 95.5639 207.194C146.256 264.855 294.156 306.011 342.528 253.958C388.77 205.619 332.479 86.935 255.139 86.002Z" fill="white"/>
<path d="M339.9 109.234C339.922 107.088 339.444 104.967 338.505 103.037C337.701 101.625 335.561 97.9009 308.879 97.9009V97.0449C336.057 97.0449 338.214 100.828 339.25 102.643C340.258 104.693 340.771 106.95 340.748 109.234H339.9Z" fill="#4280D8"/>
<path d="M338.925 124.051L338.069 123.854C338.7 121.168 339.191 118.451 339.541 115.714L340.397 115.825C340.055 118.592 339.563 121.338 338.925 124.051Z" fill="#4280D8"/>
<path d="M336.648 104.09C333.061 97.7899 282.566 99.9812 273.201 102.669C260.532 106.316 254.84 139.023 253.872 146.916C253.872 146.916 261.311 139.109 267.868 137.132C270.992 138.227 305.429 144.245 311.841 145.957C319.168 147.917 326.949 145.957 330.527 139.571C334.105 133.185 340.388 110.673 336.648 104.09Z" fill="#4280D8"/>
<path d="M325.323 113.207C325.22 113.215 325.117 113.215 325.015 113.207C301.132 109.783 273.492 112.222 273.218 112.248C272.937 112.273 272.654 112.243 272.384 112.159C272.115 112.075 271.865 111.938 271.648 111.757C271.432 111.576 271.253 111.355 271.122 111.105C270.991 110.855 270.911 110.582 270.885 110.3C270.86 110.019 270.891 109.736 270.975 109.467C271.059 109.198 271.195 108.947 271.376 108.731C271.557 108.514 271.779 108.335 272.029 108.204C272.279 108.074 272.552 107.993 272.833 107.968C273.115 107.968 301.252 105.477 325.622 108.952C326.19 108.992 326.719 109.256 327.092 109.685C327.465 110.114 327.652 110.675 327.613 111.242C327.573 111.81 327.309 112.338 326.88 112.711C326.45 113.085 325.89 113.272 325.323 113.232V113.207Z" fill="white"/>
<path d="M321.856 124.659C321.731 124.672 321.605 124.672 321.479 124.659C304.239 121.715 286.74 120.568 269.263 121.235C268.696 121.269 268.138 121.076 267.713 120.699C267.287 120.322 267.029 119.791 266.995 119.223C266.961 118.656 267.154 118.098 267.531 117.673C267.908 117.247 268.439 116.989 269.007 116.955C286.814 116.251 304.646 117.398 322.216 120.379C322.497 120.403 322.77 120.481 323.021 120.611C323.271 120.74 323.494 120.918 323.676 121.133C323.858 121.348 323.996 121.597 324.082 121.866C324.167 122.135 324.199 122.418 324.176 122.699C324.152 122.98 324.073 123.253 323.944 123.504C323.815 123.755 323.637 123.977 323.422 124.159C323.206 124.341 322.957 124.479 322.689 124.565C322.42 124.651 322.137 124.683 321.856 124.659Z" fill="white"/>
<path d="M307.715 136.387C307.515 136.387 307.317 136.361 307.124 136.31C294.039 132.65 280.473 131.002 266.892 131.422C266.325 131.458 265.766 131.268 265.339 130.892C264.912 130.516 264.652 129.987 264.615 129.419C264.579 128.851 264.77 128.293 265.145 127.866C265.521 127.439 266.051 127.178 266.618 127.142C280.689 126.648 294.75 128.349 308.297 132.184C308.791 132.328 309.216 132.645 309.495 133.077C309.774 133.509 309.889 134.027 309.817 134.537C309.745 135.046 309.492 135.513 309.105 135.851C308.717 136.189 308.221 136.376 307.706 136.378L307.715 136.387Z" fill="white"/>
<path d="M95.3242 96.2571C98.072 89.5461 133.707 86.2419 143.337 87.6971C156.366 89.683 166.518 123.709 168.161 133.065C168.161 133.065 159.79 126.268 153.027 125.156C150.074 126.637 131.773 133.116 125.293 134.572C117.888 136.207 110.304 136.481 105.939 130.626C101.573 124.77 92.4481 103.259 95.3242 96.2571Z" fill="#4280D8"/>
<path opacity="0.1" d="M143.337 87.7063C133.707 86.234 98.072 89.5467 95.3328 96.2663C94.8102 97.8245 94.6435 99.4801 94.8448 101.111C101.693 111.94 112.187 120.26 124.24 120.799C138.869 121.279 153.404 114.045 159.045 105.485C154.799 96.4375 149.389 88.6308 143.337 87.7063Z" fill="black"/>
<path d="M157.758 98.7159C166.245 87.8765 164.338 72.2094 153.498 63.7225C142.659 55.2355 126.992 57.1426 118.505 67.982C110.018 78.8213 111.925 94.4884 122.764 102.975C133.604 111.462 149.271 109.555 157.758 98.7159Z" fill="#4280D8"/>
<path opacity="0.4" d="M157.758 98.7159C166.245 87.8765 164.338 72.2094 153.498 63.7225C142.659 55.2355 126.992 57.1426 118.505 67.982C110.018 78.8213 111.925 94.4884 122.764 102.975C133.604 111.462 149.271 109.555 157.758 98.7159Z" fill="white"/>
<path d="M136.96 75.6022C137.26 76.2099 136.352 77.1772 134.931 77.7593C133.51 78.3414 132.124 78.3328 131.815 77.7593C131.507 77.1858 132.423 76.1843 133.844 75.6022C135.265 75.0201 136.635 75.003 136.96 75.6022Z" fill="#4280D8"/>
<path d="M130.3 69.4899C131.908 68.8762 133.613 68.5601 135.334 68.5569C136.193 68.5463 137.051 68.6036 137.902 68.7281C138.776 68.854 139.637 69.0661 140.47 69.3615C140.67 69.411 140.845 69.531 140.964 69.6996C141.083 69.8681 141.137 70.0739 141.116 70.279C141.095 70.4841 141.001 70.6748 140.851 70.8161C140.7 70.9573 140.504 71.0396 140.298 71.0479C139.631 71.1249 138.886 71.2704 138.175 71.4159C137.465 71.5615 136.763 71.784 136.061 72.0151C134.634 72.489 133.279 73.1603 132.038 74.0096C132.443 73.3172 132.947 72.6884 133.536 72.1435C134.143 71.6179 134.806 71.1614 135.513 70.7825C136.222 70.4048 136.965 70.0925 137.73 69.8495C138.506 69.5876 139.306 69.4069 140.119 69.3102L139.887 70.9537C139.146 70.7086 138.392 70.5057 137.628 70.3459C136.84 70.1662 136.053 70.0378 135.248 69.9265C134.443 69.8152 133.63 69.7125 132.808 69.6611C131.987 69.6098 131.156 69.567 130.3 69.4899Z" fill="#263238"/>
<path d="M153.703 64.5001C153.257 64.7124 152.828 64.9585 152.419 65.2362C152.035 65.4814 151.679 65.7685 151.358 66.0922C151.043 66.406 150.757 66.7468 150.502 67.1109C150.251 67.4575 150.033 67.8273 149.851 68.2151L148.85 67.3591C149.379 67.0312 149.957 66.7885 150.562 66.6401C151.151 66.4878 151.76 66.4244 152.368 66.4518C153.558 66.4775 154.706 66.8925 155.638 67.633C155.096 67.5186 154.547 67.4442 153.994 67.4105C153.468 67.3771 152.94 67.4001 152.419 67.479C151.912 67.5559 151.413 67.682 150.93 67.8556C150.465 68.0218 150.018 68.234 149.595 68.489C149.519 68.5363 149.435 68.5683 149.348 68.5832C149.26 68.598 149.17 68.5954 149.084 68.5755C148.997 68.5557 148.915 68.5189 148.843 68.4673C148.77 68.4158 148.709 68.3504 148.662 68.275C148.613 68.1795 148.588 68.0739 148.588 67.9669C148.588 67.8598 148.613 67.7543 148.662 67.6587C148.87 67.1427 149.159 66.663 149.518 66.2378C149.848 65.8518 150.231 65.5146 150.656 65.2362C151.106 64.9445 151.6 64.7276 152.12 64.5942C152.637 64.4662 153.174 64.4343 153.703 64.5001Z" fill="#263238"/>
<path d="M157.615 70.8344C157.675 71.4849 156.545 72.1098 155.047 72.2382C153.549 72.3666 152.368 71.9044 152.317 71.2795C152.265 70.6546 153.387 70.004 154.842 69.8756C156.297 69.7472 157.547 70.1924 157.615 70.8344Z" fill="#4280D8"/>
<path d="M137.585 78.8892C143.378 75.9666 149.666 74.1522 156.126 73.5392C156.38 73.5192 156.631 73.5966 156.83 73.7556C157.029 73.9146 157.16 74.1433 157.196 74.3952C157.906 81.6883 144.578 85.5232 137.508 80.3872C137.378 80.3066 137.271 80.1924 137.2 80.0566C137.129 79.9209 137.096 79.7685 137.104 79.6155C137.111 79.4624 137.16 79.3143 137.245 79.1865C137.33 79.0588 137.447 78.9561 137.585 78.8892Z" fill="#263238"/>
<path d="M150.87 77.5627C150.413 77.7976 149.985 78.0848 149.595 78.4187C148.338 78.1348 147.022 78.3046 145.88 78.8981C145.112 79.2233 144.432 79.7268 143.898 80.3669C143.364 81.007 142.989 81.7653 142.807 82.5789C144.505 82.8663 146.238 82.8837 147.943 82.6302C149.232 82.4499 150.494 82.1106 151.7 81.6201C153.527 80.9555 155.114 79.7639 156.263 78.1961C155.261 76.8094 153.001 76.5355 150.87 77.5627Z" fill="#4280D8"/>
<path d="M204.267 29.4119C193.028 18.0185 167.904 26.0906 177.483 41.9437C187.062 57.7968 208.487 69.3357 212.673 75.3876C215.524 63.0355 223.467 55.1603 228.629 44.837C233.791 34.5136 220.232 19.2854 204.267 29.4119Z" fill="#4280D8"/>
<path opacity="0.3" d="M204.267 29.4119C193.028 18.0185 167.904 26.0906 177.483 41.9437C187.062 57.7968 208.487 69.3357 212.673 75.3876C215.524 63.0355 223.467 55.1603 228.629 44.837C233.791 34.5136 220.232 19.2854 204.267 29.4119Z" fill="black"/>
</svg>
