<svg width="82" height="82" viewBox="0 0 82 82" fill="none" xmlns="http://www.w3.org/2000/svg">
<circle cx="11.5" cy="11.5" r="11.5" fill="white"/>
<path d="M0 41C0 18.3539 18.3539 0 41 0C63.6461 0 82 18.3539 82 41C82 63.6461 63.6461 82 41 82C18.3539 82 0 63.6461 0 41ZM59.5461 33.9211C61.2918 32.1754 61.2918 29.3246 59.5461 27.5789C57.8004 25.8332 54.9496 25.8332 53.2039 27.5789L35.875 44.9078L28.7961 37.8289C27.0504 36.0832 24.1996 36.0832 22.4539 37.8289C20.7082 39.5746 20.7082 42.4254 22.4539 44.1711L32.7039 54.4211C34.4496 56.1668 37.3004 56.1668 39.0461 54.4211L59.5461 33.9211Z" fill="rgb(255, 59, 92)"/>
</svg>
