<svg width="10" height="11" viewBox="0 0 10 11" fill="none" xmlns="http://www.w3.org/2000/svg">
<g id="Frame" clip-path="url(#clip0_6366_62986)">
<g id="Group">
<path id="Vector" d="M4.30605 2.58007C4.03599 2.75519 3.80591 2.98531 3.63084 3.2554C3.62644 3.2622 3.6204 3.2678 3.61329 3.27167C3.60618 3.27554 3.5982 3.27757 3.5901 3.27758C3.582 3.27758 3.57403 3.27556 3.56691 3.27169C3.55979 3.26782 3.55376 3.26224 3.54935 3.25544C3.37402 2.98556 3.14361 2.75485 2.87377 2.58009C2.86696 2.57569 2.86136 2.56966 2.85748 2.56254C2.8536 2.55543 2.85157 2.54746 2.85156 2.53935C2.85156 2.53125 2.85358 2.52327 2.85745 2.51615C2.86132 2.50903 2.86691 2.50299 2.87371 2.49858C3.1437 2.3231 3.37387 2.09292 3.54935 1.82292C3.55376 1.81612 3.55979 1.81054 3.56691 1.80667C3.57403 1.8028 3.582 1.80078 3.5901 1.80078C3.5982 1.80079 3.60618 1.80282 3.61329 1.80669C3.6204 1.81056 3.62644 1.81616 3.63084 1.82296C3.8061 2.093 4.03617 2.32319 4.30613 2.49858C4.33566 2.51776 4.33562 2.56091 4.30605 2.58007ZM8.05595 8.67501C7.72273 8.88831 7.43898 9.17241 7.22537 9.50571C7.20623 9.5356 7.16269 9.53562 7.14351 9.50575C6.92949 9.17245 6.64572 8.88831 6.31248 8.67503C6.28257 8.65589 6.28255 8.61235 6.31242 8.59315C6.64587 8.37895 6.92931 8.09549 7.14351 7.76204C7.14791 7.75518 7.15396 7.74953 7.16112 7.74562C7.16827 7.74171 7.1763 7.73966 7.18445 7.73966C7.1926 7.73967 7.20062 7.74172 7.20777 7.74564C7.21492 7.74956 7.22097 7.75521 7.22537 7.76208C7.4393 8.09559 7.72262 8.37905 8.05601 8.59315C8.08589 8.61231 8.08586 8.65587 8.05595 8.67501Z" fill="white"/>
<path id="Vector_2" d="M5.80401 7.47827C4.78305 8.1626 3.90389 9.04284 3.21876 10.0641C3.10006 10.241 2.83835 10.2411 2.71954 10.0643C2.03323 9.04294 1.15391 8.16264 0.132857 7.47827C-0.0441552 7.35964 -0.0443115 7.09786 0.132544 6.97899C1.15417 6.29217 2.03275 5.41355 2.71954 4.3919C2.83836 4.2151 3.10002 4.2152 3.21872 4.3921C3.90391 5.41321 4.78323 6.29264 5.8043 6.97899C5.98118 7.09786 5.981 7.35962 5.80401 7.47827ZM9.8676 3.71968C8.96973 4.32798 8.1944 5.10421 7.58543 6.00235C7.46588 6.17868 7.20612 6.1788 7.08643 6.00255C6.47647 5.10432 5.70098 4.32803 4.80301 3.71968C4.62659 3.60016 4.62643 3.34036 4.8027 3.22061C5.70117 2.61018 6.47605 1.83528 7.08645 0.936785C7.20614 0.760574 7.46584 0.760671 7.58541 0.93698C8.19446 1.83503 8.96991 2.61061 9.86792 3.22063C10.0442 3.34036 10.044 3.60014 9.8676 3.71968Z" fill="white"/>
<path id="Vector_3" d="M5.80273 6.979C4.78164 6.29266 3.90234 5.41322 3.21715 4.39211C3.09846 4.21523 2.8368 4.21514 2.71797 4.39191C2.69062 4.4326 2.66296 4.47307 2.63498 4.51332C2.67487 4.54711 2.71088 4.58524 2.74234 4.62699C3.27037 5.32594 3.89259 5.94844 4.59129 6.4768C4.96066 6.75613 4.96043 7.31021 4.59084 7.5893C3.8921 8.11714 3.27001 8.73944 2.7424 9.43836C2.66002 9.54746 2.55367 9.62437 2.4375 9.66908C2.53432 9.7984 2.62783 9.93017 2.71793 10.0643C2.83676 10.2411 3.09846 10.241 3.21715 10.0641C3.90229 9.04283 4.78147 8.1626 5.8024 7.47826C5.97941 7.35963 5.97959 7.09787 5.80273 6.979ZM9.86633 3.22062C8.96832 2.61061 8.19285 1.83502 7.58383 0.936973C7.46426 0.760684 7.20455 0.760566 7.08486 0.936777C7.05832 0.975859 7.03145 1.01472 7.00426 1.05336C7.04106 1.08491 7.07449 1.12018 7.10402 1.15861C7.55581 1.74542 8.08153 2.27138 8.66813 2.72344C9.02936 3.00184 9.02916 3.54752 8.66773 3.82566C8.08112 4.27731 7.55553 4.80309 7.1041 5.38986C7.02281 5.49549 6.91867 5.57025 6.80504 5.61418C6.90189 5.74101 6.99519 5.87051 7.08484 6.00252C7.20453 6.17877 7.46428 6.17867 7.58385 6.00232C8.19281 5.10418 8.96814 4.32795 9.86602 3.71965C10.0424 3.60016 10.0426 3.34037 9.86633 3.22062Z" fill="#F0F0F0"/>
<path id="Vector_4" d="M3.10768 5.08254C3.1019 5.063 3.09213 5.04488 3.07897 5.02932C3.06581 5.01377 3.04956 5.00112 3.03125 4.99219C3.05653 5.02247 3.08201 5.05258 3.10768 5.08254Z" fill="white"/>
<path id="Vector_5" d="M7.18547 2.00052C7.15791 2.00051 7.13092 1.99272 7.10759 1.97806C7.08426 1.96339 7.06554 1.94244 7.05358 1.91762C7.04162 1.89279 7.0369 1.8651 7.03997 1.83771C7.04305 1.81033 7.05378 1.78437 7.07094 1.76281C7.12051 1.70049 7.16927 1.63754 7.21721 1.57396C7.22878 1.55859 7.24327 1.54566 7.25985 1.53589C7.27642 1.52613 7.29476 1.51972 7.31381 1.51705C7.33286 1.51437 7.35225 1.51548 7.37087 1.5203C7.3895 1.52512 7.40699 1.53357 7.42235 1.54515C7.45337 1.56853 7.47383 1.60328 7.47923 1.64175C7.48464 1.68022 7.47454 1.71926 7.45116 1.75029C7.40168 1.81591 7.35135 1.88089 7.30018 1.94521C7.28647 1.96249 7.26903 1.97644 7.24917 1.98602C7.2293 1.9956 7.20753 2.00055 7.18547 2.00052Z" fill="#F3F3F3"/>
</g>
</g>
<defs>
<clipPath id="clip0_6366_62986">
<rect width="10" height="10" fill="white" transform="translate(0 0.5)"/>
</clipPath>
</defs>
</svg>
