<svg width="24" height="24" viewBox="0 0 24 24" fill="none" xmlns="http://www.w3.org/2000/svg">
<path d="M1.77565 21.3982C1.71097 21.2525 1.66592 21.1498 1.64013 21.0897C0.546741 18.6468 0 16.714 0 15.2912C0 13.5855 0.228069 12.1582 0.684252 11.0098L1.77565 21.3982ZM1.77565 21.3982C1.83276 21.5272 1.89087 21.6557 1.94999 21.7839L1.77565 21.3982ZM1.24124 11.2329C2.49343 8.1344 5.91516 6.42829 11.9847 6.42829H14.8775H15.4775V5.82829V2.53689C15.4775 2.4802 15.4912 2.43844 15.5465 2.38331L15.5466 2.38325C15.6014 2.32859 15.6444 2.31387 15.7042 2.31387C15.7638 2.31387 15.8068 2.32849 15.862 2.38342L16.2648 1.97881L15.862 2.38343L22.4737 8.96564C22.4738 8.96575 22.4739 8.96585 22.4741 8.96596C22.5291 9.02101 22.5428 9.06293 22.5429 9.11996L1.24124 11.2329ZM1.24124 11.2329C0.821924 12.2893 0.6 13.6353 0.6 15.2912C0.6 16.5843 1.10379 18.4227 2.18778 20.8446L2.19163 20.8532L2.19156 20.8532C2.19578 20.8631 2.2006 20.8742 2.20602 20.8867C2.1778 20.428 2.16352 20.0025 2.16352 19.6114C2.16352 18.7119 2.24181 17.8919 2.40346 17.1557L2.4035 17.1555C2.56334 16.4284 2.7885 15.7812 3.08637 15.2216C3.38747 14.6558 3.778 14.1645 4.25709 13.7509C4.71817 13.3527 5.21721 13.025 5.75373 12.7697C6.29389 12.5127 6.91512 12.3171 7.61061 12.1769L1.24124 11.2329ZM15.4775 11.8115V12.4115V15.703C15.4775 15.7601 15.4913 15.8018 15.5461 15.8564L15.1228 16.2815M15.4775 11.8115L22.5429 9.12008C22.5428 9.17706 22.5292 9.21856 22.4742 9.27329L22.8975 9.6985L22.4742 9.2733L15.8625 15.8558C15.8625 15.8558 15.8624 15.8559 15.8624 15.856C15.8067 15.9111 15.7633 15.9258 15.7039 15.9258C15.6446 15.9258 15.6013 15.9112 15.5457 15.8559L15.1228 16.2815M15.4775 11.8115H14.8775H11.9847C11.1294 11.8115 10.358 11.8374 9.67194 11.8903C8.98016 11.9437 8.29307 12.0392 7.61065 12.1769L7.72924 12.7651M15.4775 11.8115L16.2853 16.2815C16.1215 16.4442 15.9277 16.5258 15.7039 16.5258C15.4802 16.5258 15.2865 16.4442 15.1228 16.2815M15.1228 16.2815C14.9593 16.1187 14.8775 15.9258 14.8775 15.703V13.0115V12.4115H14.2775H11.9847C11.1409 12.4115 10.3854 12.4371 9.71808 12.4885C9.05075 12.54 8.38785 12.6322 7.72924 12.7651M7.72924 12.7651C7.07059 12.8979 6.49807 13.08 6.01153 13.3115C5.52509 13.543 5.07098 13.8407 4.64918 14.2051L7.72924 12.7651Z" stroke="rgb(255, 59, 92)" stroke-width="1.2"/>
</svg>
