<svg width="133" height="84" viewBox="0 0 133 84" fill="none" xmlns="http://www.w3.org/2000/svg">
<path d="M76.5584 34.8233C76.5535 35.0975 76.5307 35.3713 76.4903 35.6421C76.0552 38.5593 73.6078 40.8707 71.2663 42.428C70.2764 43.0864 69.2053 43.7371 68.0296 43.9875C68.0152 43.9906 68.0006 43.9936 67.9858 43.994C67.9831 43.994 67.9502 43.9906 67.9524 43.9885C68.1169 43.83 68.2848 43.6743 68.4381 43.5047C68.569 43.3599 68.6914 43.2074 68.8058 43.0492C68.9231 42.8872 69.0318 42.7188 69.1326 42.546C69.235 42.3703 69.3292 42.1895 69.4153 42.0051C69.5019 41.8192 69.5805 41.6296 69.6506 41.4369C69.7207 41.2445 69.7822 41.0493 69.8353 40.8515C69.8876 40.6561 69.9317 40.4583 69.9664 40.259C70.0005 40.0638 70.0256 39.867 70.0407 39.6694C70.0553 39.4777 70.0604 39.2852 70.0545 39.0932C70.0543 39.0886 70.0543 39.0837 70.054 39.0791C70.0144 37.8841 69.5384 36.7373 68.7316 35.8548C67.504 34.5123 65.6895 33.7656 64.0723 33.0054C60.5774 31.3627 57.0553 29.6161 54.9773 26.2064C53.0362 23.0215 52.5562 18.7085 54.3653 15.3533C55.0795 14.0288 55.973 12.8312 56.8969 11.6476C56.9414 11.5902 56.9932 11.5347 57.049 11.4883C57.073 11.4698 57.1229 11.4605 57.149 11.4734C57.173 11.4863 57.1971 11.5328 57.1935 11.5622C57.1879 11.6233 57.1575 11.679 57.1453 11.7401C56.3998 15.4788 57.5638 19.4431 59.9392 22.3803C60.9286 23.6035 62.1907 24.5705 63.5458 25.3567C65.3754 26.4181 67.3509 27.1865 69.3056 27.9805C71.023 28.6781 72.854 29.3543 74.3563 30.4665C75.3951 31.2357 76.19 32.2728 76.4467 33.5587C76.5295 33.9743 76.5657 34.3992 76.5584 34.8233Z" fill="#FF4D67"/>
<path d="M68.9075 20.9069C68.8369 20.8977 68.8092 20.8551 68.7907 20.8106C68.7145 20.6162 68.6386 20.4198 68.5644 20.2234C68.1919 19.2382 67.7174 18.3046 67.1538 17.4174C66.6701 16.6563 66.1455 15.9226 65.5413 15.2523C65.0464 14.7021 64.5198 14.1819 63.9582 13.6947C63.2093 13.0446 62.4068 12.4742 61.5578 11.9666C60.6755 11.4388 59.7523 10.9979 58.7773 10.6702C58.6717 10.6349 58.5698 10.5923 58.4698 10.5441C58.3975 10.5088 58.4028 10.4015 58.479 10.3663C58.6031 10.3108 58.7274 10.2587 58.8552 10.2108C60.5624 9.58299 62.1323 8.71237 63.5412 7.56216C65.3912 6.04891 66.8704 4.23588 67.9434 2.0946C68.2364 1.5094 68.4885 0.905465 68.7145 0.292525C68.7479 0.199817 68.7739 0.103703 68.8425 0.027785C68.8759 -0.00920067 68.9462 -0.0111473 68.9705 0.0333815C69.0168 0.120493 69.0649 0.20736 69.0966 0.298121C69.7377 2.0946 70.6777 3.72465 71.8805 5.20067C72.3941 5.83235 72.9521 6.42485 73.5692 6.96211C74.1013 7.42517 74.6352 7.88067 75.217 8.279C76.4163 9.09755 77.6953 9.76062 79.0596 10.259C79.117 10.2794 79.1764 10.2996 79.2338 10.3237C79.2895 10.3478 79.3543 10.3699 79.3581 10.4441C79.3635 10.5385 79.2839 10.5663 79.2173 10.5923C78.8834 10.722 78.5442 10.8405 78.2143 10.9758C77.1468 11.4148 76.153 11.9834 75.2041 12.6372C74.4498 13.1577 73.7526 13.7466 73.091 14.3763C72.637 14.8116 72.2199 15.2856 71.823 15.7727C71.0094 16.7728 70.3198 17.8527 69.7618 19.0139C69.5153 19.5251 69.2856 20.0436 69.1019 20.5826C69.0705 20.6753 69.0297 20.7661 68.9851 20.8529C68.9686 20.8811 68.9277 20.894 68.9075 20.9069Z" fill="#FF4D67"/>
<path d="M65.6172 43.7213C65.608 43.7345 65.5912 43.7715 65.5615 43.7863C65.4744 43.8306 65.3817 43.8678 65.2909 43.9048C64.4736 44.2345 63.7062 44.6567 63.0129 45.2049C61.8693 46.1106 60.987 47.2218 60.403 48.5628C60.3139 48.7665 60.2324 48.974 60.1473 49.1777C60.1232 49.2371 60.0879 49.2981 60.0193 49.2889C59.9803 49.2833 59.9358 49.2371 59.9137 49.1962C59.8711 49.1203 59.8433 49.0388 59.8117 48.9592C59.4168 47.9182 58.8275 46.9977 58.086 46.1719C57.5782 45.6088 56.9906 45.1382 56.3584 44.7234C55.819 44.3696 55.2462 44.0807 54.642 43.8547C54.5734 43.8289 54.5084 43.7936 54.4437 43.7586C54.4047 43.7362 54.4047 43.653 54.4473 43.6306C54.5568 43.5751 54.6661 43.5157 54.7809 43.4731C55.2778 43.2824 55.7559 43.0529 56.2063 42.7675C56.6884 42.4638 57.1424 42.1268 57.5541 41.7304C58.0897 41.2156 58.5883 40.671 58.9888 40.0393C59.3336 39.495 59.6375 38.9319 59.8562 38.3243C59.8876 38.2355 59.8952 38.0983 60.0064 38.089C60.1473 38.0761 60.1621 38.2243 60.1974 38.3224C60.4512 39.0096 60.7811 39.6561 61.2001 40.2581C61.7914 41.1063 62.5068 41.8341 63.3485 42.4378C63.9527 42.8714 64.5997 43.2325 65.3002 43.488C65.3929 43.5213 65.482 43.5658 65.5691 43.6104C65.6024 43.6269 65.6265 43.6586 65.6172 43.7213Z" fill="#FF4D67"/>
<mask id="mask0_10055_2562" style="mask-type:luminance" maskUnits="userSpaceOnUse" x="0" y="53" width="133" height="31">
<path d="M132.187 53H0V83.6942H132.187V53Z" fill="white"/>
</mask>
<g mask="url(#mask0_10055_2562)">
<path d="M0 80.4824C0.558377 79.2308 1.10168 78.0118 1.64719 76.794C1.66374 76.7572 1.70307 76.7308 1.74461 76.6855C1.81004 76.7275 1.87253 76.7627 1.92951 76.8054C3.50245 77.9773 5.27132 78.715 7.16664 79.172C8.71017 79.5443 10.2747 79.6469 11.8538 79.516C12.5798 79.4557 13.2955 79.3271 13.9855 79.0823C14.5502 78.8819 15.0806 78.618 15.5184 78.2008C16.3319 77.4259 16.5852 76.4801 16.3337 75.3949C16.2341 74.9645 16.0007 74.6046 15.6945 74.2903C15.3589 73.9455 14.9604 73.6893 14.5343 73.4735C13.923 73.164 13.2823 72.9265 12.6214 72.7526C11.4451 72.4435 10.2636 72.1542 9.08364 71.8583C7.90293 71.5624 6.72736 71.2525 5.59186 70.8062C4.99672 70.5724 4.41519 70.3111 3.86784 69.9799C3.6017 69.8185 3.33997 69.6468 3.09 69.4619C1.77659 68.4908 0.963467 67.2027 0.684095 65.5901C0.465008 64.3244 0.535954 63.072 0.939941 61.8494C1.38583 60.5 2.19234 59.399 3.30174 58.5183C4.3288 57.7026 5.49775 57.1681 6.75125 56.8108C7.89815 56.484 9.07078 56.3094 10.2618 56.2601C11.3458 56.2153 12.4291 56.2256 13.5084 56.3568C15.5879 56.6101 17.5861 57.1379 19.4406 58.1404C19.6866 58.2734 19.9222 58.4253 20.1843 58.5811C19.9663 59.2523 19.6792 59.8692 19.4307 60.5C19.1815 61.1333 18.9172 61.7604 18.6466 62.4221C18.49 62.3449 18.3599 62.2865 18.2346 62.2181C16.9509 61.5149 15.5974 60.9973 14.1682 60.679C12.4677 60.3004 10.758 60.2346 9.0399 60.5455C8.46829 60.6488 7.91579 60.8194 7.39381 61.0789C7.04606 61.2517 6.72148 61.4598 6.44174 61.7303C5.65655 62.4901 5.36762 63.4157 5.54223 64.4884C5.63193 65.0379 5.91755 65.4823 6.31896 65.8573C6.64759 66.1642 7.02695 66.3966 7.428 66.5943C8.05622 66.9035 8.71311 67.1387 9.38875 67.3148C10.5658 67.6221 11.7472 67.9114 12.928 68.2037C14.1241 68.4999 15.3118 68.8227 16.4576 69.2822C17.2593 69.6035 18.0254 69.9916 18.7275 70.5004C19.9255 71.369 20.782 72.4906 21.0937 73.9477C21.7388 76.9609 20.9368 79.5024 18.4959 81.4518C17.4233 82.3086 16.1801 82.8328 14.8604 83.1751C13.107 83.6298 11.3227 83.7592 9.51704 83.6658C8.05916 83.5905 6.62407 83.375 5.2136 83.0001C3.94724 82.6638 2.72498 82.2105 1.57698 81.5713C1.03074 81.268 0.509487 80.9294 0 80.4824Z" fill="#111111"/>
<path d="M44.7713 74.6469C43.4472 74.6469 42.1275 74.6469 40.8075 74.6469C39.4864 74.6469 38.1656 74.6469 36.8445 74.6469C35.5233 74.6469 34.2022 74.6469 32.881 74.6469C31.5625 74.6469 30.2439 74.6465 28.947 74.6469C28.861 74.8061 28.9121 74.9185 28.9423 75.0318C29.4444 76.9311 30.6236 78.2346 32.4263 78.9852C33.1027 79.2672 33.8129 79.4249 34.54 79.4907C35.7792 79.6035 37.0003 79.515 38.1876 79.1117C39.1008 78.8018 39.9073 78.314 40.6208 77.6682C40.7196 77.5785 40.8185 77.4891 40.9181 77.4005C40.9288 77.3914 40.945 77.388 40.9586 77.3822C40.9725 77.3855 40.9869 77.3873 41.0005 77.3917C41.0145 77.3965 41.0306 77.4005 41.0398 77.4108C41.8125 78.2927 42.5852 79.1749 43.3568 80.0579C43.4049 80.113 43.4472 80.1733 43.5042 80.2472C43.4281 80.4152 43.2939 80.5324 43.1737 80.6578C42.1672 81.708 40.9571 82.4362 39.5897 82.9119C38.1715 83.4048 36.7055 83.5835 35.2101 83.5739C33.5159 83.5625 31.8709 83.2913 30.3002 82.6413C28.2324 81.7856 26.5904 80.4262 25.4608 78.4794C24.7197 77.2024 24.3091 75.8192 24.1547 74.3513C24.0051 72.931 24.0849 71.5256 24.4793 70.1578C25.5637 66.3977 28.038 64.0329 31.8088 63.054C33.8309 62.5291 35.8758 62.5725 37.8807 63.1662C41.1744 64.1421 43.3358 66.3061 44.3739 69.5741C44.8838 71.1783 45.0168 72.8306 44.8319 74.5057C44.8286 74.5329 44.8099 74.5583 44.7713 74.6469ZM28.8647 71.4554C28.9242 71.4676 28.9801 71.4889 29.0364 71.4889C32.773 71.4874 36.5096 71.4845 40.2462 71.4793C40.2704 71.4793 40.2947 71.4499 40.319 71.4341C40.3245 71.4205 40.334 71.4069 40.3355 71.3929C40.3388 71.3643 40.3421 71.3341 40.3373 71.3062C39.9786 69.2333 38.8846 67.7243 36.9025 66.948C35.3939 66.3569 33.8497 66.3558 32.3381 66.9366C30.3321 67.7071 29.2455 69.2436 28.8504 71.3146C28.843 71.3547 28.8584 71.3999 28.8647 71.4554Z" fill="#111111"/>
<path d="M52.5801 74.6562C52.6128 74.8205 52.6282 74.9205 52.6532 75.0179C53.1028 76.7636 54.1453 78.0259 55.7594 78.8174C56.5832 79.2213 57.4628 79.4294 58.3708 79.5029C59.367 79.5838 60.3565 79.5264 61.3318 79.2798C62.4169 79.0052 63.3793 78.5016 64.2218 77.766C64.3666 77.6396 64.5089 77.5102 64.6699 77.3665C64.7412 77.4242 64.8162 77.4687 64.8706 77.5311C65.6132 78.381 66.3528 79.2335 67.092 80.0856C67.1306 80.1297 67.1622 80.1793 67.1997 80.23C67.1835 80.3807 67.0688 80.4623 66.9817 80.5568C65.9605 81.6581 64.7192 82.4187 63.308 82.9105C61.8901 83.4042 60.4245 83.5836 58.9292 83.574C57.2349 83.563 55.5852 83.3042 54.0196 82.6418C50.6917 81.2332 48.6611 78.7483 47.9881 75.1954C47.6072 73.1876 47.7546 71.1982 48.4733 69.2746C49.5386 66.4224 51.5184 64.4569 54.3658 63.4063C56.8276 62.4983 59.3431 62.4586 61.8402 63.2438C64.7886 64.1709 66.813 66.1236 67.8974 69.0191C68.5591 70.7861 68.748 72.6219 68.5433 74.4978C68.5399 74.5261 68.5263 74.5533 68.5091 74.6069C68.4212 74.6187 68.3223 74.6396 68.2227 74.6448C68.0896 74.6518 67.9555 74.6466 67.822 74.6466C62.9382 74.6466 58.0547 74.6466 53.1712 74.647C52.9947 74.6474 52.8183 74.6525 52.5801 74.6562ZM52.5915 71.4721C52.7293 71.4791 52.8605 71.4901 52.9914 71.4912C57.3794 71.5257 63.7208 71.5004 64.0314 71.4478C64.1005 71.2982 64.0266 71.1556 63.9961 71.0163C63.5579 69.0055 62.4026 67.598 60.4591 66.8849C59.5265 66.5423 58.555 66.4573 57.5639 66.5717C56.6953 66.672 55.8781 66.9161 55.1341 67.3778C53.7259 68.2512 52.9322 69.5451 52.5937 71.1423C52.5734 71.239 52.5915 71.3438 52.5915 71.4721Z" fill="#111111"/>
<path d="M71.3348 83.2957C71.3271 83.1116 71.3183 82.9947 71.3183 82.8785C71.3168 82.1507 71.3267 81.4228 71.3128 80.6957C71.3076 80.427 71.3797 80.2204 71.5539 80.0106C73.0732 78.1847 74.581 76.3493 76.0926 74.5168C78.1048 72.0775 80.1178 69.6385 82.1296 67.1988C82.2222 67.0866 82.3083 66.969 82.3902 66.8628C82.3476 66.7477 82.2645 66.7679 82.1958 66.7657C82.0623 66.7609 81.9285 66.7635 81.7951 66.7635C78.5742 66.7635 75.3534 66.7635 72.1325 66.7624C71.9575 66.7624 71.7792 66.7834 71.609 66.7319C71.5892 66.6753 71.5631 66.6349 71.5631 66.5944C71.5598 65.4508 71.5587 64.3073 71.5594 63.164C71.5594 63.1078 71.5767 63.0519 71.5807 63.0299C71.616 62.9898 71.6241 62.9758 71.6362 62.9685C71.648 62.9615 71.6642 62.9578 71.6785 62.9578C77.1549 62.9534 82.6317 62.9494 88.1085 62.9453C88.2416 62.9453 88.3747 62.9453 88.525 62.9453C88.5482 63.0269 88.5831 63.0942 88.5839 63.1618C88.5879 64.0231 88.5816 64.8844 88.5923 65.7457C88.5945 65.9475 88.4942 66.078 88.3795 66.2158C87.5075 67.2671 86.6367 68.3192 85.7659 69.3712C83.0868 72.6079 80.4078 75.8442 77.7302 79.0824C77.6391 79.1923 77.5163 79.2853 77.488 79.4345C77.5769 79.5426 77.688 79.5018 77.785 79.5018C78.8536 79.5047 79.9222 79.504 80.9912 79.504C83.4401 79.504 85.889 79.504 88.3383 79.504C88.5 79.504 88.6614 79.504 88.8404 79.504C88.8647 79.5974 88.8978 79.6646 88.8981 79.7319C88.9011 80.8457 88.9007 81.9595 88.8989 83.0734C88.8989 83.1303 88.879 83.1873 88.8654 83.2619C88.775 83.277 88.6908 83.2976 88.6059 83.3035C88.5026 83.3108 88.3982 83.3057 88.2942 83.3057C82.8325 83.3057 77.37 83.3057 71.9083 83.3053C71.7322 83.3053 71.5557 83.2998 71.3348 83.2957Z" fill="#111111"/>
<path d="M104.945 66.9939C104.781 66.8693 104.627 66.9079 104.483 66.9072C103.682 66.9035 102.88 66.9064 102.078 66.9046C101.933 66.9042 101.788 66.8925 101.628 66.8855C101.556 66.4477 101.6 66.0338 101.592 65.6224C101.584 65.2218 101.59 64.8207 101.59 64.4197C101.59 64.0057 101.59 63.5922 101.59 63.2048C101.73 63.0673 101.87 63.1062 101.997 63.1055C102.814 63.1015 103.63 63.104 104.447 63.1026C104.593 63.1026 104.739 63.093 104.868 63.0886C104.998 62.9368 104.952 62.782 104.953 62.6398C104.956 61.4219 104.955 60.2045 104.955 58.9866C104.955 58.8249 104.961 58.6631 104.964 58.4874C105.073 58.4683 105.158 58.4411 105.242 58.4407C106.638 58.4382 108.033 58.4385 109.428 58.44C109.5 58.44 109.572 58.4543 109.643 58.4617C109.74 58.6117 109.704 58.7635 109.704 58.9065C109.707 60.1239 109.706 61.3418 109.707 62.5593C109.707 62.7195 109.713 62.8798 109.716 63.0316C109.896 63.1368 110.063 63.1011 110.222 63.1015C111.691 63.1044 113.16 63.1026 114.63 63.1044C114.789 63.1044 114.948 63.1169 115.099 63.1232C115.168 63.4907 115.18 66.3514 115.119 66.8495C114.979 66.9436 114.811 66.9028 114.654 66.9031C113.185 66.9072 111.716 66.905 110.246 66.9061C110.086 66.9064 109.925 66.9171 109.737 66.9237C109.725 67.0796 109.708 67.2079 109.707 67.3362C109.705 68.4647 109.706 69.5932 109.706 70.7221C109.706 72.6523 109.707 74.5829 109.705 76.5132C109.705 76.9613 109.748 77.4031 109.874 77.834C110.172 78.8573 110.923 79.5006 111.982 79.6109C113.075 79.7252 114.113 79.5572 115.044 78.9294C115.081 78.9047 115.123 78.89 115.163 78.8709C115.347 79.1316 116.209 81.2526 116.506 82.1826C116.444 82.2429 116.38 82.3234 116.3 82.3796C115.672 82.8193 114.977 83.1122 114.236 83.2931C112.511 83.7129 110.791 83.6894 109.093 83.1689C107.511 82.6833 106.329 81.7044 105.623 80.1869C105.338 79.5775 105.167 78.9338 105.061 78.271C104.973 77.7262 104.955 77.1782 104.955 76.6282C104.955 73.5842 104.955 70.5401 104.954 67.4957C104.955 67.3204 104.948 67.145 104.945 66.9939Z" fill="#111111"/>
<path d="M120.569 66.9131C120.189 66.9105 119.834 66.9068 119.479 66.9057C119.109 66.9042 118.737 66.909 118.366 66.9042C118.014 66.8998 117.66 66.9274 117.292 66.88C117.28 66.7826 117.266 66.7116 117.264 66.6407C117.232 65.6581 117.253 63.536 117.298 63.1654C117.408 63.0687 117.548 63.1059 117.676 63.1051C118.492 63.1015 119.309 63.104 120.126 63.1022C120.271 63.1022 120.416 63.0904 120.558 63.0846C120.652 62.9059 120.621 62.7397 120.621 62.5809C120.624 61.3778 120.621 60.1747 120.625 58.9712C120.625 58.8109 120.589 58.6444 120.673 58.4859C120.713 58.4731 120.755 58.4473 120.796 58.447C122.251 58.4437 123.706 58.4422 125.161 58.4426C125.218 58.4426 125.275 58.465 125.36 58.483C125.366 58.6337 125.378 58.7782 125.378 58.9226C125.379 60.1556 125.378 61.3888 125.379 62.6217C125.38 62.7658 125.393 62.9099 125.401 63.0816C125.872 63.1228 126.315 63.0982 126.757 63.1022C127.202 63.1066 127.647 63.1033 128.093 63.1033C128.538 63.1033 128.984 63.1029 129.429 63.1033C129.872 63.1033 130.316 63.104 130.769 63.1044C130.792 63.1864 130.82 63.2408 130.82 63.2952C130.823 64.4244 130.823 65.5533 130.822 66.6822C130.822 66.7384 130.805 66.7951 130.794 66.8642C130.626 66.9226 130.463 66.9042 130.304 66.9042C128.834 66.9057 127.364 66.9042 125.894 66.9064C125.734 66.9068 125.568 66.8774 125.396 66.9693C125.39 67.0976 125.379 67.2288 125.379 67.3597C125.379 70.435 125.379 73.5099 125.378 76.5849C125.378 77.0032 125.423 77.4149 125.54 77.817C125.85 78.8834 126.618 79.5216 127.724 79.6186C128.788 79.712 129.795 79.5429 130.702 78.9371C130.748 78.9062 130.804 78.89 130.883 78.8544C131.327 79.9693 131.768 81.0673 132.188 82.1866C132.092 82.269 132.022 82.3425 131.939 82.3998C131.334 82.8182 130.666 83.0997 129.956 83.2802C128.294 83.7011 126.627 83.6949 124.981 83.2343C122.732 82.6053 121.368 81.11 120.838 78.8426C120.668 78.1152 120.622 77.3756 120.622 76.6304C120.624 73.5853 120.623 70.5398 120.622 67.4946C120.621 67.3196 120.646 67.141 120.569 66.9131Z" fill="#111111"/>
<path d="M93.3309 62.9787C93.7904 62.9295 97.6182 62.9354 98.0053 62.9868C98.0163 63.0622 98.0336 63.1456 98.0387 63.2298C98.045 63.3335 98.0409 63.4375 98.0409 63.5415C98.0409 69.9259 98.0409 76.3107 98.0409 82.6954C98.0409 82.8719 98.0409 83.0487 98.0409 83.2468C97.9376 83.2689 97.8557 83.302 97.7737 83.302C96.364 83.3049 94.9542 83.3045 93.5441 83.3027C93.4739 83.3027 93.4037 83.2854 93.3111 83.2729C93.3019 83.1527 93.2898 83.0524 93.2879 82.952C93.2254 79.2713 93.257 63.4816 93.3309 62.9787Z" fill="#111111"/>
<path d="M91.6691 57.0252C92.1161 56.7906 92.5564 56.5785 92.9773 56.3333C93.3883 56.0937 93.7511 55.7842 94.0871 55.446C94.4338 55.0975 94.7502 54.7222 94.9943 54.2958C95.2285 53.8866 95.434 53.4606 95.6736 53.0004C96.0306 53.9399 96.5276 54.7545 97.2172 55.4452C97.909 56.1374 98.7195 56.6447 99.6856 57.0027C99.5834 57.0656 99.5312 57.1086 99.4713 57.1325C97.7171 57.8431 96.4813 59.073 95.7681 60.8276C95.7461 60.882 95.7156 60.9331 95.6869 60.9845C95.6814 60.9948 95.6663 60.9992 95.6534 61.0081C95.4274 60.5769 95.2164 60.1372 94.9715 59.7171C94.7319 59.3061 94.4238 58.9429 94.0867 58.6055C93.7394 58.257 93.3652 57.9397 92.9402 57.6942C92.5314 57.4575 92.1043 57.2523 91.6691 57.0252Z" fill="#111111"/>
</g>
</svg>
