<svg width="30" height="30" viewBox="0 0 30 30" fill="none" xmlns="http://www.w3.org/2000/svg">
<g clip-path="url(#clip0_10404_2151)">
<path d="M5 6.25C5 5.91848 5.1317 5.60054 5.36612 5.36612C5.60054 5.1317 5.91848 5 6.25 5H11.25C11.5815 5 11.8995 5.1317 12.1339 5.36612C12.3683 5.60054 12.5 5.91848 12.5 6.25V11.25C12.5 11.5815 12.3683 11.8995 12.1339 12.1339C11.8995 12.3683 11.5815 12.5 11.25 12.5H6.25C5.91848 12.5 5.60054 12.3683 5.36612 12.1339C5.1317 11.8995 5 11.5815 5 11.25V6.25Z" stroke="#131313" stroke-width="1.6" stroke-linecap="round" stroke-linejoin="round"/>
<path d="M8.75 21.25V21.2625" stroke="#131313" stroke-width="1.6" stroke-linecap="round" stroke-linejoin="round"/>
<path d="M17.5 6.25C17.5 5.91848 17.6317 5.60054 17.8661 5.36612C18.1005 5.1317 18.4185 5 18.75 5H23.75C24.0815 5 24.3995 5.1317 24.6339 5.36612C24.8683 5.60054 25 5.91848 25 6.25V11.25C25 11.5815 24.8683 11.8995 24.6339 12.1339C24.3995 12.3683 24.0815 12.5 23.75 12.5H18.75C18.4185 12.5 18.1005 12.3683 17.8661 12.1339C17.6317 11.8995 17.5 11.5815 17.5 11.25V6.25Z" stroke="#131313" stroke-width="1.6" stroke-linecap="round" stroke-linejoin="round"/>
<path d="M8.75 8.75V8.7625" stroke="#131313" stroke-width="1.6" stroke-linecap="round" stroke-linejoin="round"/>
<path d="M5 18.75C5 18.4185 5.1317 18.1005 5.36612 17.8661C5.60054 17.6317 5.91848 17.5 6.25 17.5H11.25C11.5815 17.5 11.8995 17.6317 12.1339 17.8661C12.3683 18.1005 12.5 18.4185 12.5 18.75V23.75C12.5 24.0815 12.3683 24.3995 12.1339 24.6339C11.8995 24.8683 11.5815 25 11.25 25H6.25C5.91848 25 5.60054 24.8683 5.36612 24.6339C5.1317 24.3995 5 24.0815 5 23.75V18.75Z" stroke="#131313" stroke-width="1.6" stroke-linecap="round" stroke-linejoin="round"/>
<path d="M21.25 8.75V8.7625" stroke="#131313" stroke-width="1.6" stroke-linecap="round" stroke-linejoin="round"/>
<path d="M17.5 17.5H21.25" stroke="#131313" stroke-width="1.6" stroke-linecap="round" stroke-linejoin="round"/>
<path d="M25 17.5V17.5125" stroke="#131313" stroke-width="1.6" stroke-linecap="round" stroke-linejoin="round"/>
<path d="M17.5 17.5V21.25" stroke="#131313" stroke-width="1.6" stroke-linecap="round" stroke-linejoin="round"/>
<path d="M17.5 25H21.25" stroke="#131313" stroke-width="1.6" stroke-linecap="round" stroke-linejoin="round"/>
<path d="M21.25 21.25H25" stroke="#131313" stroke-width="1.6" stroke-linecap="round" stroke-linejoin="round"/>
<path d="M25 21.25V25" stroke="#131313" stroke-width="1.6" stroke-linecap="round" stroke-linejoin="round"/>
</g>
<defs>
<clipPath id="clip0_10404_2151">
<rect width="30" height="30" fill="white"/>
</clipPath>
</defs>
</svg>
