<svg width="28" height="28" viewBox="0 0 28 28" fill="none" xmlns="http://www.w3.org/2000/svg">
<g clip-path="url(#clip0_10405_2188)">
<path d="M14 28C6.26811 28 0 21.7319 0 14C0 6.26811 6.26811 0 14 0C21.7319 0 28 6.26811 28 14C28 21.7319 21.7319 28 14 28Z" fill="black"/>
<path d="M20.2865 19.9794L15.367 12.8324L14.8107 12.0241L11.2919 6.91146L11.0003 6.48792H6.6756L7.73034 8.02066L12.4093 14.8193L12.9656 15.6268L16.7254 21.0893L17.0169 21.5125H21.3413L20.2865 19.9794ZM17.531 20.5338L13.6251 14.8588L13.0687 14.0509L8.53628 7.46586H10.4859L14.1512 12.7913L14.7076 13.5992L19.4806 20.5338H17.531Z" fill="white"/>
<path d="M13.0687 14.0509L13.6251 14.8588L12.9656 15.6264L7.90665 21.5121H6.65875L12.4093 14.8188L13.0687 14.0509Z" fill="white"/>
<path d="M20.8206 6.48792L15.367 12.8324L14.7076 13.5996L14.1512 12.7917L14.8107 12.0241L18.505 7.72445L19.5731 6.48792H20.8206Z" fill="white"/>
</g>
<defs>
<clipPath id="clip0_10405_2188">
<rect width="28" height="28" fill="white"/>
</clipPath>
</defs>
</svg>
