<svg width="57" height="56" viewBox="0 0 57 56" fill="none" xmlns="http://www.w3.org/2000/svg">
<path fill-rule="evenodd" clip-rule="evenodd" d="M28.9801 56C44.444 56 56.9801 43.4639 56.9801 28C56.9801 12.536 44.444 0 28.9801 0C13.5161 0 0.980103 12.536 0.980103 28C0.980103 43.4639 13.5161 56 28.9801 56Z" fill="#00BAD0" fill-opacity="0.75"/>
<path fill-rule="evenodd" clip-rule="evenodd" d="M29.7104 18.5866C29.8353 17.8725 30.5154 17.3949 31.2294 17.5198C31.9434 17.6447 32.4211 18.3248 32.296 19.0388L29.0982 37.3221C28.9731 38.0361 28.2932 38.5138 27.5792 38.3887C26.8652 38.2639 26.3875 37.5837 26.5124 36.8697L29.7104 18.5866ZM38.8739 20.4738C38.2201 19.7972 37.1603 19.7972 36.5065 20.4738C35.8527 21.1503 35.8527 22.2473 36.5065 22.9238L41.7061 28.305L36.5079 33.6849C35.8541 34.3614 35.8541 35.4583 36.5079 36.1349C37.1615 36.8114 38.2215 36.8114 38.8751 36.1349L46.3753 28.3729C46.411 28.3358 46.411 28.2758 46.3753 28.2387L45.8345 27.6787L45.827 27.6701L45.817 27.6593L38.8739 20.4738ZM21.7228 36.1356C21.0462 36.8121 19.9493 36.8121 19.2728 36.1356L13.6284 30.4913L12.0872 28.9499L11.5079 28.3708C11.4708 28.3337 11.4708 28.2737 11.5079 28.2366L19.27 20.4745C19.9466 19.7979 21.0435 19.7979 21.72 20.4745C22.3966 21.151 22.3966 22.2479 21.72 22.9245L16.3409 28.3036L21.7228 33.6856C22.3993 34.3621 22.3993 35.459 21.7228 36.1356Z" fill="white"/>
</svg>
