<svg width="57" height="57" viewBox="0 0 57 57" fill="none" xmlns="http://www.w3.org/2000/svg">
<mask id="mask0_196_22576" style="mask-type:luminance" maskUnits="userSpaceOnUse" x="0" y="0" width="57" height="57">
<path d="M0.59021 0.810547H56.5902V56.8105H0.59021V0.810547Z" fill="white"/>
</mask>
<g mask="url(#mask0_196_22576)">
<path d="M28.5902 56.8105C44.0542 56.8105 56.5902 44.2745 56.5902 28.8105C56.5902 13.3466 44.0542 0.810547 28.5902 0.810547C13.1262 0.810547 0.59021 13.3466 0.59021 28.8105C0.59021 44.2745 13.1262 56.8105 28.5902 56.8105Z" fill="white"/>
<path d="M32.9652 56.4609C39.9234 55.3571 46.2098 51.6709 50.5705 46.1374C54.9311 40.6039 57.0456 33.6299 56.492 26.6065C55.9384 19.5831 52.7575 13.0265 47.5838 8.24449C42.41 3.46251 35.6237 0.806641 28.5785 0.806641C21.5333 0.806641 14.7471 3.46251 9.57333 8.24449C4.3996 13.0265 1.2187 19.5831 0.665116 26.6065C0.11153 33.6299 2.22595 40.6039 6.58661 46.1374C10.9473 51.6709 17.2337 55.3571 24.1919 56.4609V37.1525H17.0402V29.0092H24.1919C24.1919 29.0092 24.1569 24.3659 24.1919 22.3009C24.2269 20.2359 24.6352 18.2526 25.7085 16.4326C27.3419 13.6326 29.8852 12.2676 33.0119 11.8826C35.6602 11.5442 38.4602 11.8476 41.0852 12.3492V19.3026L40.2919 19.2792C39.1019 19.2442 37.5852 19.1975 36.5119 19.3609C34.2952 19.7109 33.0119 21.1342 32.9769 23.3742C32.9302 25.1242 32.9535 29.0092 32.9535 29.0092H40.7585L39.4869 37.1525H32.9535V56.4842L32.9652 56.4609Z" fill="#0075FA"/>
</g>
</svg>
