<svg width="57" height="56" viewBox="0 0 57 56" fill="none" xmlns="http://www.w3.org/2000/svg">
<path fill-rule="evenodd" clip-rule="evenodd" d="M28.7704 56C44.2343 56 56.7704 43.4639 56.7704 28C56.7704 12.536 44.2343 0 28.7704 0C13.3064 0 0.770386 12.536 0.770386 28C0.770386 43.4639 13.3064 56 28.7704 56Z" fill="#11A0EE"/>
<path d="M30.1072 11.5977C20.5492 11.5977 12.8011 18.5697 12.8011 27.1697C12.8011 30.0171 13.651 32.6857 15.1345 34.9821L13.055 43.6519C12.9469 44.1033 13.3865 44.4929 13.8221 44.3315L22.4531 41.1384C24.7611 42.1644 27.359 42.7417 30.1072 42.7417C39.6651 42.7417 47.4132 35.7697 47.4132 27.1697C47.4132 18.5697 39.6651 11.5977 30.1072 11.5977Z" fill="white"/>
<path d="M41.3896 34.0123C41.2264 34.0899 41.0677 34.177 40.9 34.2461C40.7323 34.3153 40.5646 34.385 40.3918 34.4412C40.1808 34.5098 39.9697 34.5795 39.7564 34.6402C39.5667 34.6942 39.3748 34.7431 39.1818 34.7841C39.0326 34.8156 38.8835 34.8482 38.7338 34.8797C38.5425 34.9196 38.3494 34.9511 38.1564 34.9815C37.7945 35.0382 37.4298 35.0776 37.0651 35.108C36.4635 35.1574 35.8607 35.1675 35.2574 35.1585C34.913 35.1529 34.5697 35.1304 34.2264 35.1046C33.7874 35.0708 33.3501 35.0208 32.9145 34.9545C32.6725 34.9179 32.431 34.8763 32.1902 34.8336C31.9515 34.7914 31.714 34.7431 31.4771 34.6925C31.2644 34.647 31.0527 34.5941 30.8417 34.5418C30.6543 34.4957 30.4669 34.4502 30.2812 34.3974C30.1129 34.3496 29.9446 34.3024 29.7769 34.2518C29.6137 34.2029 29.4522 34.1478 29.2873 34.105C29.2383 34.0927 29.213 34.0663 29.2124 34.0162C29.2124 34.0072 29.2124 33.9982 29.2124 33.9892C29.213 32.721 29.2124 31.4533 29.2158 30.1851C29.2169 29.8584 29.267 29.5369 29.3458 29.2193C29.4043 28.9837 29.4786 28.7532 29.5754 28.5312C29.7668 28.0899 30.0172 27.6851 30.3369 27.3242C30.5507 27.0825 30.7809 26.8593 31.0415 26.6687C31.3071 26.4742 31.588 26.3055 31.8891 26.1684C32.095 26.0745 32.3067 25.9986 32.5217 25.9323C32.6882 25.8811 32.8599 25.8451 33.0332 25.8181C33.264 25.7827 33.4953 25.7541 33.7288 25.7541C34.8117 25.7541 35.8945 25.7529 36.9768 25.7569C37.1872 25.7574 37.3966 25.7878 37.6043 25.8255C37.7433 25.8507 37.8806 25.88 38.0174 25.916C38.1778 25.9581 38.3337 26.0132 38.4879 26.0734C38.6629 26.1419 38.834 26.2173 38.9978 26.3084C39.1182 26.3753 39.2347 26.4489 39.3501 26.5242C39.4925 26.617 39.6275 26.7204 39.7575 26.8312C39.9236 26.9728 40.0795 27.1235 40.2247 27.286C40.3445 27.4198 40.4577 27.5586 40.5595 27.7053C40.7194 27.9358 40.8595 28.177 40.9754 28.4328C41.0463 28.5896 41.1111 28.7487 41.164 28.9117C41.2056 29.0394 41.2416 29.1687 41.2709 29.2996C41.3148 29.4964 41.3469 29.6948 41.366 29.8955C41.3744 29.9816 41.3823 30.0676 41.3902 30.153C41.3896 31.4398 41.3896 32.726 41.3896 34.0123Z" fill="#11A0EE"/>
<path d="M19.7802 30.0578C19.7926 29.9633 19.8078 29.8689 19.8173 29.7739C19.8438 29.5119 19.9017 29.2567 19.9766 29.0043C20.0543 28.7412 20.1584 28.4887 20.2822 28.2448C20.4403 27.9333 20.6334 27.6449 20.8585 27.3779C21.0988 27.0929 21.3695 26.8405 21.6717 26.6229C21.9199 26.4447 22.1811 26.2895 22.4608 26.1642C22.6887 26.0619 22.9211 25.977 23.162 25.9112C23.5284 25.8111 23.9004 25.7538 24.2797 25.7532C25.3671 25.7516 26.4544 25.751 27.5417 25.7549C27.8321 25.7561 28.1186 25.8027 28.4028 25.8668C28.6155 25.9146 28.8255 25.9742 29.0275 26.0546C29.3218 26.1715 29.6049 26.3115 29.87 26.4857C29.9246 26.5217 29.928 26.5453 29.8829 26.592C29.6325 26.8545 29.4102 27.139 29.2172 27.4459C29.0776 27.6685 28.9549 27.8996 28.8474 28.1402C28.7106 28.4466 28.6043 28.7625 28.5272 29.0875C28.4354 29.4753 28.387 29.8694 28.387 30.2686C28.387 31.5098 28.3859 32.7511 28.3876 33.9924C28.3882 34.1655 28.436 34.3347 28.4563 34.5062C28.4624 34.5573 28.4765 34.6085 28.4771 34.6596C28.4782 34.7142 28.5024 34.7434 28.5502 34.7586C28.6639 34.7934 28.7776 34.8277 28.8913 34.8626C28.9324 34.875 28.9774 34.8811 29.0027 34.9177C28.9909 34.9447 28.9746 34.943 28.9588 34.9447C28.718 34.975 28.4788 35.0144 28.2373 35.0442C27.7212 35.1077 27.2035 35.1448 26.684 35.1566C26.272 35.1662 25.8601 35.1673 25.4487 35.1448C24.9168 35.115 24.3855 35.0751 23.8571 35.0031C23.4828 34.952 23.1102 34.8946 22.7382 34.8283C22.431 34.7732 22.1248 34.7108 21.8209 34.6417C21.5693 34.5849 21.3189 34.5219 21.0695 34.4533C20.8444 34.3921 20.6187 34.3325 20.3953 34.2661C20.2321 34.2178 20.0672 34.1745 19.9074 34.1138C19.8623 34.0969 19.8083 34.1014 19.7791 34.0519C19.7802 32.7202 19.7802 31.389 19.7802 30.0578Z" fill="#11A0EE"/>
<path d="M38.8714 21.9427C38.8781 23.9114 37.2629 25.5113 35.2987 25.5057C33.3216 25.5001 31.73 23.9086 31.7306 21.9348C31.7312 19.9599 33.3424 18.3521 35.3471 18.3713C37.2831 18.3904 38.8843 19.9847 38.8714 21.9427Z" fill="#11A0EE"/>
<path d="M25.8722 18.3731C27.8527 18.3697 29.4437 19.9747 29.442 21.9395C29.4397 23.9295 27.829 25.5058 25.8626 25.503C23.899 25.5008 22.2995 23.902 22.3007 21.935C22.3012 19.9584 23.9131 18.3652 25.8722 18.3731Z" fill="#11A0EE"/>
</svg>
