<svg width="57" height="57" viewBox="0 0 57 57" fill="none" xmlns="http://www.w3.org/2000/svg">
<path d="M28.39 56.8105C43.854 56.8105 56.39 44.2745 56.39 28.8105C56.39 13.3466 43.854 0.810547 28.39 0.810547C12.926 0.810547 0.390015 13.3466 0.390015 28.8105C0.390015 44.2745 12.926 56.8105 28.39 56.8105Z" fill="#0A66C2"/>
<path d="M29.8834 26.3142C30.5944 25.1323 31.6717 24.2147 32.9517 23.7008C33.7056 23.4054 34.5106 23.2626 35.3201 23.2808C36.6034 23.2808 37.8867 23.4325 39.0534 24.0158C40.8034 24.8675 41.6201 26.3958 42.0284 28.2042C42.2967 29.5342 42.4251 30.8875 42.3901 32.2525V42.1342C42.3901 42.4142 42.3201 42.4958 42.0401 42.4842H36.9534C36.6501 42.4842 36.5684 42.4258 36.5684 42.1108V32.7425C36.5801 32.0892 36.5217 31.4242 36.3817 30.7825C36.0084 29.0325 34.9001 28.2275 33.1151 28.4025C31.3417 28.5892 30.3617 29.6158 30.1167 31.5408C30.0584 32.0425 30.0351 32.5325 30.0351 33.0342V42.1108C30.0351 42.4258 29.9534 42.4958 29.6501 42.4958H24.5401C24.2601 42.4958 24.1901 42.4142 24.1901 42.1458V24.1092C24.1901 23.7942 24.2834 23.7475 24.5634 23.7475H29.4167C29.7317 23.7475 29.7901 23.8408 29.7784 24.1208V26.2675L29.8834 26.3142Z" fill="#FDFEFE"/>
<path d="M20.5267 33.1035V42.0985C20.5267 42.4135 20.4567 42.4952 20.1417 42.4952H15.0317C14.7751 42.4952 14.6817 42.4368 14.6817 42.1452V24.0968C14.6817 23.8518 14.7284 23.7468 14.9851 23.7468C16.7117 23.7702 18.4384 23.7702 20.1651 23.7468C20.4801 23.7468 20.5151 23.8635 20.5151 24.1202V33.1152L20.5267 33.1035ZM14.2501 17.7852C14.2112 17.3188 14.2696 16.8495 14.4214 16.4068C14.5732 15.9642 14.8152 15.5578 15.1321 15.2134C15.449 14.8691 15.8338 14.5942 16.2624 14.4062C16.6909 14.2182 17.1538 14.1211 17.6217 14.1211C18.0897 14.1211 18.5526 14.2182 18.9811 14.4062C19.4096 14.5942 19.7945 14.8691 20.1114 15.2134C20.4283 15.5578 20.6703 15.9642 20.8221 16.4068C20.9739 16.8495 21.0322 17.3188 20.9934 17.7852C20.923 18.6309 20.5372 19.4194 19.9127 19.9941C19.2882 20.5688 18.4705 20.8878 17.6217 20.8878C16.773 20.8878 15.9553 20.5688 15.3308 19.9941C14.7062 19.4194 14.3205 18.6309 14.2501 17.7852Z" fill="#FDFDFE"/>
</svg>
