<svg width="57" height="56" viewBox="0 0 57 56" fill="none" xmlns="http://www.w3.org/2000/svg">
<g clip-path="url(#clip0_196_22524)">
<path d="M0.390015 0H56.39V56H0.390015V0Z" fill="#FFC300"/>
<path d="M35.4017 26.2857V32.3757H31.365C31.1831 32.3769 31.0053 32.43 30.8525 32.5287C30.6997 32.6275 30.5782 32.7677 30.5023 32.933C30.4264 33.0984 30.3991 33.2819 30.4238 33.4621C30.4485 33.6424 30.5241 33.8118 30.6417 33.9507L35.9617 40.1573C36.4634 40.7406 37.385 40.7406 37.8867 40.1573L43.2067 33.9507C43.3243 33.8118 43.3998 33.6424 43.4245 33.4621C43.4492 33.2819 43.422 33.0984 43.3461 32.933C43.2702 32.7677 43.1487 32.6275 42.9959 32.5287C42.8431 32.43 42.6653 32.3769 42.4834 32.3757H38.8317V26.2156C38.8317 24.8856 38.8317 23.4623 38.75 22.599C38.7098 21.6915 38.4835 20.802 38.085 19.9856C37.4439 18.7308 36.4232 17.7101 35.1684 17.069C34.3517 16.649 33.4767 16.4857 32.5434 16.404C31.6334 16.334 31.47 16.334 30.1284 16.334H28.04C27.7976 16.3371 27.5662 16.4355 27.3958 16.608C27.2255 16.7805 27.13 17.0132 27.13 17.2557V18.8423C27.13 19.344 27.5384 19.7523 28.04 19.7523H30.0584C31.4817 19.7523 31.5167 19.7523 32.2633 19.8223C32.9867 19.8807 33.3484 19.9857 33.605 20.114C34.2234 20.429 34.725 20.9306 35.04 21.5373C35.1567 21.7473 35.2734 22.1557 35.3317 22.879C35.39 23.6257 35.4017 24.8623 35.4017 26.2857ZM21.2617 24.734H25.2984C26.115 24.734 26.5584 23.7773 26.0334 23.159L20.7134 16.9523C20.5929 16.8138 20.4441 16.7028 20.2771 16.6267C20.11 16.5505 19.9286 16.5112 19.745 16.5112C19.5615 16.5112 19.38 16.5505 19.213 16.6267C19.0459 16.7028 18.8971 16.8138 18.7767 16.9523L13.4567 23.159C13.3391 23.2978 13.2635 23.4673 13.2388 23.6475C13.2141 23.8277 13.2414 24.0113 13.3173 24.1766C13.3932 24.3419 13.5147 24.4822 13.6675 24.5809C13.8203 24.6796 13.9981 24.7327 14.18 24.734H17.8317V30.894C17.8317 32.224 17.8434 33.659 17.9134 34.5107C17.995 35.4907 18.1584 36.3073 18.5784 37.124C19.2195 38.3789 20.2401 39.3995 21.495 40.0406C22.3117 40.4606 23.1867 40.624 24.12 40.7057C25.03 40.7757 25.1934 40.7757 26.535 40.7757H28.6234C29.125 40.7757 29.5333 40.3673 29.5333 39.8656V38.2673C29.5303 38.0269 29.4335 37.7972 29.2635 37.6272C29.0935 37.4572 28.8638 37.3603 28.6234 37.3573H26.605C25.1817 37.3573 25.1467 37.3573 24.4 37.2873C23.9381 37.2784 23.4823 37.1793 23.0584 36.9956C22.4459 36.6828 21.9478 36.1848 21.635 35.5723C21.5067 35.3623 21.4017 34.954 21.3317 34.2306C21.2734 33.484 21.2617 32.2473 21.2617 30.824V24.734Z" fill="white"/>
</g>
<defs>
<clipPath id="clip0_196_22524">
<rect x="0.390015" width="56" height="56" rx="28" fill="white"/>
</clipPath>
</defs>
</svg>
