<svg width="57" height="56" viewBox="0 0 57 56" fill="none" xmlns="http://www.w3.org/2000/svg">
<mask id="mask0_196_22531" style="mask-type:luminance" maskUnits="userSpaceOnUse" x="0" y="0" width="57" height="56">
<path d="M0.190063 0H56.1901V56H0.190063V0Z" fill="white"/>
</mask>
<g mask="url(#mask0_196_22531)">
<path fill-rule="evenodd" clip-rule="evenodd" d="M28.1901 56C35.6161 56 42.738 53.05 47.9891 47.799C53.2401 42.548 56.1901 35.4261 56.1901 28C56.1901 20.5739 53.2401 13.452 47.9891 8.20101C42.738 2.94999 35.6161 0 28.1901 0C20.764 0 13.6421 2.94999 8.39107 8.20101C3.14005 13.452 0.190063 20.5739 0.190063 28C0.190063 35.4261 3.14005 42.548 8.39107 47.799C13.6421 53.05 20.764 56 28.1901 56Z" fill="#FE2C55"/>
<path fill-rule="evenodd" clip-rule="evenodd" d="M11.9734 17.0107C12.0663 16.8099 12.2143 16.6398 12.4002 16.52C12.5861 16.4002 12.8022 16.3357 13.0234 16.334H43.3567C43.5619 16.3332 43.7637 16.3865 43.9417 16.4886C44.1197 16.5906 44.2676 16.7378 44.3706 16.9153C44.4735 17.0928 44.5278 17.2943 44.528 17.4995C44.5282 17.7047 44.4743 17.9063 44.3717 18.084L29.205 44.9173C29.0918 45.1135 28.9239 45.2724 28.7219 45.3748C28.5198 45.4771 28.2924 45.5185 28.0672 45.4937C27.8421 45.469 27.629 45.3792 27.454 45.2355C27.279 45.0917 27.1496 44.9001 27.0817 44.684L22.59 30.334L12.125 18.2473C11.9794 18.0779 11.8855 17.8701 11.8544 17.6488C11.8234 17.4275 11.8566 17.202 11.95 16.999L11.9734 17.0107ZM25.0284 30.2757L28.505 41.4173L41.3617 18.6673H15.5784L23.8617 28.2457L33.1484 22.4823C33.2135 22.4416 33.2859 22.4141 33.3616 22.4014C33.4374 22.3888 33.5148 22.3912 33.5896 22.4085C33.6644 22.4259 33.735 22.4578 33.7975 22.5025C33.8599 22.5472 33.9129 22.6038 33.9534 22.669L34.56 23.6607C34.6008 23.7257 34.6283 23.7982 34.6409 23.8739C34.6536 23.9497 34.6512 24.0271 34.6338 24.1019C34.6165 24.1767 34.5846 24.2473 34.5399 24.3097C34.4952 24.3722 34.4386 24.4252 34.3734 24.4657L25.0284 30.2757Z" fill="white"/>
</g>
</svg>
