<svg width="57" height="57" viewBox="0 0 57 57" fill="none" xmlns="http://www.w3.org/2000/svg">
<mask id="mask0_196_22596" style="mask-type:luminance" maskUnits="userSpaceOnUse" x="0" y="0" width="57" height="57">
<path d="M0.190063 0.810547H56.1901V56.8105H0.190063V0.810547Z" fill="white"/>
</mask>
<g mask="url(#mask0_196_22596)">
<path d="M8.39175 48.6098C10.984 51.2446 14.0722 53.34 17.4784 54.7754C20.8845 56.2107 24.5411 56.9574 28.2373 56.9724C31.9335 56.9875 35.596 56.2706 39.0138 54.863C42.4315 53.4555 45.5367 51.3853 48.1503 48.7716C50.7639 46.158 52.8342 43.0528 54.2417 39.6351C55.6492 36.2174 56.3661 32.5548 56.3511 28.8586C56.336 25.1625 55.5893 21.5059 54.154 18.0997C52.7187 14.6936 50.6232 11.6053 47.9884 9.01309C42.723 3.83271 35.6238 0.942812 28.2373 0.972889C20.8508 1.00297 13.7754 3.95058 8.55233 9.17367C3.32924 14.3968 0.381628 21.4721 0.351551 28.8586C0.321474 36.2451 3.21137 43.3443 8.39175 48.6098Z" fill="url(#paint0_linear_196_22596)"/>
<path d="M11.845 28.5789L30.6984 20.7972C32.565 19.9806 38.865 17.4022 38.865 17.4022C38.865 17.4022 41.7817 16.2706 41.5484 19.0239C41.4667 20.1556 40.8134 24.1222 40.1717 28.4039L38.1417 41.1206C38.1417 41.1206 37.9784 42.9756 36.6017 43.3022C35.225 43.6172 32.9617 42.1706 32.565 41.8439C32.2384 41.5989 26.4984 37.9589 24.3867 36.1739C23.815 35.6956 23.1734 34.7156 24.4684 33.5839C27.385 30.9122 30.8617 27.5989 32.9617 25.4989C33.9417 24.5189 34.91 22.2556 30.8617 25.0089L19.4517 32.6972C19.4517 32.6972 18.1567 33.5139 15.7184 32.7789C13.3034 32.0439 10.4684 31.0756 10.4684 31.0756C10.4684 31.0756 8.52004 29.8622 11.845 28.5789Z" fill="white"/>
</g>
<defs>
<linearGradient id="paint0_linear_196_22596" x1="47.9884" y1="9.01309" x2="8.39175" y2="48.6098" gradientUnits="userSpaceOnUse">
<stop stop-color="#37AEE2"/>
<stop offset="1" stop-color="#1E96C8"/>
</linearGradient>
</defs>
</svg>
