<svg width="57" height="57" viewBox="0 0 57 57" fill="none" xmlns="http://www.w3.org/2000/svg">
<mask id="mask0_196_22586" style="mask-type:luminance" maskUnits="userSpaceOnUse" x="0" y="0" width="57" height="57">
<path d="M0.390015 0.810547H56.39V56.8105H0.390015V0.810547Z" fill="white"/>
</mask>
<g mask="url(#mask0_196_22586)">
<path d="M28.39 56.8105C43.854 56.8105 56.39 44.2745 56.39 28.8105C56.39 13.3466 43.854 0.810547 28.39 0.810547C12.926 0.810547 0.390015 13.3466 0.390015 28.8105C0.390015 44.2745 12.926 56.8105 28.39 56.8105Z" fill="black"/>
<path d="M37.4433 14.5781H42.2733L31.7267 26.6415L44.14 43.0448H34.4217L26.8033 33.0931L18.1 43.0448H13.2583L24.5517 30.1531L12.64 14.5781H22.6033L29.4867 23.6781L37.4433 14.5781ZM35.7517 40.1515H38.435L21.1567 17.3198H18.275L35.7517 40.1515Z" fill="white"/>
</g>
</svg>
