<svg width="57" height="57" viewBox="0 0 57 57" fill="none" xmlns="http://www.w3.org/2000/svg">
<mask id="mask0_196_22566" style="mask-type:luminance" maskUnits="userSpaceOnUse" x="0" y="0" width="57" height="57">
<path d="M0.780151 0.810547H56.7802V56.8105H0.780151V0.810547Z" fill="white"/>
</mask>
<g mask="url(#mask0_196_22566)">
<path fill-rule="evenodd" clip-rule="evenodd" d="M28.7802 56.8105C36.2062 56.8105 43.3281 53.8606 48.5791 48.6095C53.8302 43.3585 56.7802 36.2366 56.7802 28.8105C56.7802 21.3845 53.8302 14.2626 48.5791 9.01156C43.3281 3.76054 36.2062 0.810547 28.7802 0.810547C21.3541 0.810547 14.2322 3.76054 8.98116 9.01156C3.73014 14.2626 0.780151 21.3845 0.780151 28.8105C0.780151 36.2366 3.73014 43.3585 8.98116 48.6095C14.2322 53.8606 21.3541 56.8105 28.7802 56.8105Z" fill="#25D366"/>
<path fill-rule="evenodd" clip-rule="evenodd" d="M35.7335 31.8212C35.3485 31.6346 33.4935 30.7246 33.1552 30.5962C32.8052 30.4796 32.5485 30.4096 32.3035 30.7829C32.0469 31.1679 31.3235 32.0079 31.1019 32.2646C30.8919 32.5096 30.6702 32.5446 30.2852 32.3579C29.9119 32.1712 28.6985 31.7746 27.2519 30.4912C26.4269 29.7328 25.7192 28.856 25.1519 27.8896C24.9302 27.5162 25.1285 27.3062 25.3152 27.1196C25.4902 26.9562 25.7002 26.6879 25.8869 26.4662C26.0735 26.2446 26.1435 26.0929 26.2602 25.8362C26.3885 25.5912 26.3302 25.3696 26.2369 25.1829C26.1435 24.9962 25.3852 23.1412 25.0702 22.3829C24.7669 21.6596 24.4519 21.7529 24.2185 21.7412H23.4952C23.2502 21.7412 22.8419 21.8229 22.4919 22.2079C22.1419 22.5812 21.1735 23.4912 21.1735 25.3346C21.1735 27.1896 22.5269 28.9746 22.7135 29.2196C22.9002 29.4762 25.3735 33.2679 29.1535 34.8896C30.0519 35.2746 30.7635 35.5079 31.3119 35.6829C32.2102 35.9746 33.0385 35.9279 33.6802 35.8346C34.4152 35.7179 35.9202 34.9246 36.2352 34.0496C36.5502 33.1746 36.5502 32.4162 36.4569 32.2646C36.3635 32.1012 36.1069 32.0079 35.7335 31.8212ZM28.8502 41.1779C26.3769 41.1779 24.0902 40.4079 21.9902 39.1712L17.2419 40.4079L18.5135 35.7996C17.1066 33.6894 16.3371 31.2188 16.2969 28.6829C16.2969 25.3566 17.6182 22.1666 19.9702 19.8146C22.3222 17.4626 25.5123 16.1412 28.8385 16.1412C32.1648 16.1412 35.3548 17.4626 37.7068 19.8146C40.0588 22.1666 41.3802 25.3566 41.3802 28.6829C41.3802 35.5662 35.7452 41.1779 28.8269 41.1779H28.8502ZM28.8502 13.6446C24.8534 13.6353 21.0163 15.2125 18.1814 18.0299C15.3466 20.8472 13.7456 24.6745 13.7302 28.6712C13.7302 31.3196 14.4302 33.9096 15.7485 36.1846L13.6135 43.9779L21.6169 41.8779C23.8329 43.0844 26.3153 43.718 28.8385 43.7212C37.0635 43.7212 43.9469 36.8612 43.9469 28.6829C43.9469 20.4579 37.0519 13.6446 28.8385 13.6446H28.8502Z" fill="white"/>
</g>
</svg>
