<svg width="36" height="37" viewBox="0 0 36 37" fill="none" xmlns="http://www.w3.org/2000/svg">
<g id="Upload">
<path id="Upload_2" fill-rule="evenodd" clip-rule="evenodd" d="M11.8152 6.16343C11.4248 6.69066 11.4697 7.44273 11.9629 7.92C12.4879 8.445 13.3454 8.445 13.8704 7.92L16.6529 5.12V12.365H19.3479V5.12L22.1304 7.92L22.2813 8.05017C22.8085 8.44066 23.5606 8.39727 24.0378 7.92C24.3004 7.6575 24.4403 7.3075 24.4403 6.9575C24.4403 6.625 24.3004 6.275 24.0378 6.0125L18.9454 0.9025L18.7866 0.75984C18.5604 0.5896 18.2803 0.5 18.0004 0.5C17.6329 0.5 17.3004 0.64 17.0379 0.9025L11.9454 6.0125L11.8152 6.16343ZM7.90453 12.374C3.78634 12.5685 0.5 16.0327 0.5 20.2531V28.942L0.508467 29.3139C0.699671 33.5049 4.1055 36.8653 8.2875 36.8653H27.73L28.0955 36.8567C32.2137 36.6622 35.5 33.1975 35.5 28.9598V20.2887L35.4915 19.9154C35.2994 15.709 31.8775 12.3653 27.7125 12.3653H19.3475V23.0485L19.335 23.2363C19.2446 23.9108 18.6737 24.4195 18 24.4195C17.2475 24.4195 16.6525 23.8141 16.6525 23.0485V12.3653H8.27L7.90453 12.374Z" fill="rgb(255, 59, 92)"/>
</g>
</svg>
