<svg width="30" height="30" viewBox="0 0 30 30" fill="none" xmlns="http://www.w3.org/2000/svg">
<path d="M11.0002 13.3333C8.9735 13.3333 7.3335 11.6933 7.3335 9.66667C7.3335 7.64 8.9735 6 11.0002 6C13.0268 6 14.6668 7.64 14.6668 9.66667C14.6668 11.6933 13.0268 13.3333 11.0002 13.3333ZM11.0002 8C10.5581 8 10.1342 8.17559 9.82165 8.48816C9.50909 8.80072 9.3335 9.22464 9.3335 9.66667C9.3335 10.1087 9.50909 10.5326 9.82165 10.8452C10.1342 11.1577 10.5581 11.3333 11.0002 11.3333C11.4422 11.3333 11.8661 11.1577 12.1787 10.8452C12.4912 10.5326 12.6668 10.1087 12.6668 9.66667C12.6668 9.22464 12.4912 8.80072 12.1787 8.48816C11.8661 8.17559 11.4422 8 11.0002 8Z" fill="#666666"/>
<path d="M19.0001 29.3327H11.0001C3.76008 29.3327 0.666748 26.2393 0.666748 18.9993V10.9993C0.666748 3.75935 3.76008 0.666016 11.0001 0.666016H16.3334C16.8801 0.666016 17.3334 1.11935 17.3334 1.66602C17.3334 2.21268 16.8801 2.66602 16.3334 2.66602H11.0001C4.85341 2.66602 2.66675 4.85268 2.66675 10.9993V18.9993C2.66675 25.146 4.85341 27.3327 11.0001 27.3327H19.0001C25.1467 27.3327 27.3334 25.146 27.3334 18.9993V12.3327C27.3334 11.786 27.7867 11.3327 28.3334 11.3327C28.8801 11.3327 29.3334 11.786 29.3334 12.3327V18.9993C29.3334 26.2393 26.2401 29.3327 19.0001 29.3327Z" fill="#666666"/>
<path d="M27.3333 6.66602H20C19.4533 6.66602 19 6.21268 19 5.66602C19 5.11935 19.4533 4.66602 20 4.66602H27.3333C27.88 4.66602 28.3333 5.11935 28.3333 5.66602C28.3333 6.21268 27.88 6.66602 27.3333 6.66602Z" fill="#666666"/>
<path d="M23.6667 10.3333C23.12 10.3333 22.6667 9.88 22.6667 9.33333V2C22.6667 1.45333 23.12 1 23.6667 1C24.2134 1 24.6667 1.45333 24.6667 2V9.33333C24.6667 9.88 24.2134 10.3333 23.6667 10.3333ZM2.56004 25.2667C2.34692 25.2652 2.13983 25.1957 1.9689 25.0684C1.79797 24.9411 1.67212 24.7626 1.60965 24.5589C1.54718 24.3551 1.55136 24.1367 1.62157 23.9355C1.69178 23.7343 1.82437 23.5607 2.00004 23.44L8.57337 19.0267C10.0134 18.0667 12 18.1733 13.3067 19.28L13.7467 19.6667C14.4134 20.24 15.5467 20.24 16.2 19.6667L21.7467 14.9067C23.1734 13.6933 25.3867 13.6933 26.8134 14.9067L28.9867 16.7733C29.4 17.1333 29.4534 17.76 29.0934 18.1867C28.7334 18.6 28.1067 18.6533 27.68 18.2933L25.5067 16.4267C24.84 15.8533 23.7067 15.8533 23.0534 16.4267L17.5067 21.1867C16.0934 22.4 13.8667 22.4 12.44 21.1867L12 20.8C11.3867 20.28 10.3734 20.2267 9.69337 20.6933L3.13337 25.1067C2.94671 25.2133 2.74671 25.2667 2.56004 25.2667Z" fill="#666666"/>
</svg>
