<svg width="50" height="50" viewBox="0 0 50 50" fill="none" xmlns="http://www.w3.org/2000/svg">
    <path d="M24.5017 44.2928L24.4684 44.3032C21.789 45.2076 19.6864 47.3175 18.7952 49.9996L18.7824 49.9662C17.8807 47.2869 15.7704 45.1843 13.0859 44.2931L13.1193 44.2803C15.8013 43.3787 17.9012 41.2684 18.7952 38.584L18.8056 38.6173C19.7099 41.2993 21.82 43.3992 24.502 44.2931L24.5017 44.2928Z" fill="#5448B2"/>
    <path d="M38.4018 10.6289L38.3395 10.6482C37.3176 10.993 36.3409 11.4319 35.4193 11.9557C31.8421 13.9859 29.0969 17.2828 27.7775 21.2533L27.7534 21.191C26.0748 16.2025 22.1466 12.2886 17.1484 10.6292L17.2107 10.605C21.004 9.3297 24.1717 6.75608 26.2046 3.40082C26.8481 2.33987 27.3776 1.2009 27.7778 0L27.7971 0.0622336C28.4543 2.01203 29.4537 3.79566 30.7251 5.34585C31.5345 6.33265 32.4543 7.22417 33.4662 8.00284C33.4662 8.00314 33.4665 8.00314 33.4665 8.00373C34.936 9.13496 36.5996 10.0283 38.4018 10.6292V10.6289Z" fill="#5448B2"/>
    <path d="M34.7427 36.6517C34.6528 36.9408 34.5391 37.2163 34.4042 37.4759C34.2922 37.6719 34.1728 37.8681 34.0462 38.0634C31.9663 41.2737 28.033 44.3178 26.9688 44.4538C27.2245 44.3371 27.4705 44.1992 27.7031 44.0411C28.6122 43.4256 29.3265 42.5088 29.6776 41.3791C29.8015 40.9804 29.8729 40.5787 29.8959 40.1797C29.9012 40.0933 29.9039 40.0073 29.9045 39.9212C29.9108 38.9666 29.6428 38.042 29.1529 37.2508C28.4079 35.9895 26.8767 35.0247 25.0508 34.0909C23.229 33.1598 21.1145 32.2584 19.1951 31.123C18.0939 30.4724 17.0576 29.7444 16.1771 28.8895C15.7159 28.4416 15.3038 27.9911 14.9369 27.5403C12.7265 24.579 11.8847 20.6591 12.9749 16.8548C13.6565 14.8148 14.7302 13.1955 15.4112 12.2975C15.7903 11.7975 16.0482 11.5215 16.0482 11.5215C16.0443 11.5352 16.0407 11.5486 16.0372 11.562C16.027 11.59 16.0172 11.618 16.0071 11.6465C15.9618 11.7758 15.919 11.9059 15.8779 12.0375C15.6521 12.7638 15.5012 13.4954 15.4202 14.2243C15.3514 14.8434 15.3338 15.4607 15.3645 16.0705C15.4282 17.3378 15.6995 18.5741 16.1551 19.7337C16.1676 19.7652 16.1804 19.7971 16.1932 19.8289C16.9064 21.5998 18.0504 23.1869 19.5384 24.4271C20.2236 24.9985 20.982 25.4964 21.8053 25.904C24.99 27.6865 28.7503 28.8415 31.5944 30.3387C31.8314 30.4635 32.0622 30.5906 32.2858 30.7213C32.48 30.8339 32.6681 30.9488 32.8507 31.0667C32.8522 31.0676 32.8531 31.0682 32.8546 31.0691C34.185 32.0128 34.9804 33.5594 34.9693 35.1941C34.9661 35.6771 34.8925 36.1672 34.7418 36.6517H34.7427Z" fill="#5448B2"/>
    </svg>
    