<svg width="24" height="25" viewBox="0 0 24 25" fill="none" xmlns="http://www.w3.org/2000/svg">
<g clip-path="url(#clip0_3442_27276)">
<path d="M3 9.625C3 9.35978 3.10536 9.10543 3.29289 8.91789C3.48043 8.73036 3.73478 8.625 4 8.625H20C20.2652 8.625 20.5196 8.73036 20.7071 8.91789C20.8946 9.10543 21 9.35978 21 9.625V11.625C21 11.8902 20.8946 12.1446 20.7071 12.3321C20.5196 12.5196 20.2652 12.625 20 12.625H4C3.73478 12.625 3.48043 12.5196 3.29289 12.3321C3.10536 12.1446 3 11.8902 3 11.625V9.625Z" stroke="black" stroke-width="2" stroke-linecap="round" stroke-linejoin="round"/>
<path d="M12 8.625V21.625" stroke="black" stroke-width="2" stroke-linecap="round" stroke-linejoin="round"/>
<path d="M19 12.625V19.625C19 20.1554 18.7893 20.6641 18.4142 21.0392C18.0391 21.4143 17.5304 21.625 17 21.625H7C6.46957 21.625 5.96086 21.4143 5.58579 21.0392C5.21071 20.6641 5 20.1554 5 19.625V12.625" stroke="black" stroke-width="2" stroke-linecap="round" stroke-linejoin="round"/>
<path d="M7.5 8.62544C6.83696 8.62544 6.20107 8.36205 5.73223 7.8932C5.26339 7.42436 5 6.78848 5 6.12544C5 5.4624 5.26339 4.82651 5.73223 4.35767C6.20107 3.88883 6.83696 3.62544 7.5 3.62544C8.46469 3.60863 9.41003 4.0767 10.2127 4.9686C11.0154 5.8605 11.6383 7.13484 12 8.62544C12.3617 7.13484 12.9846 5.8605 13.7873 4.9686C14.59 4.0767 15.5353 3.60863 16.5 3.62544C17.163 3.62544 17.7989 3.88883 18.2678 4.35767C18.7366 4.82651 19 5.4624 19 6.12544C19 6.78848 18.7366 7.42436 18.2678 7.8932C17.7989 8.36205 17.163 8.62544 16.5 8.62544" stroke="black" stroke-width="2" stroke-linecap="round" stroke-linejoin="round"/>
</g>
<defs>
<clipPath id="clip0_3442_27276">
<rect width="24" height="24" fill="white" transform="translate(0 0.625)"/>
</clipPath>
</defs>
</svg>
