<svg width="99" height="94" viewBox="0 0 99 94" fill="none" xmlns="http://www.w3.org/2000/svg">
<g clip-path="url(#clip0_3442_28393)">
<path d="M97.3847 83.8709L64.8571 54.2132C64.462 53.8532 63.8508 53.8828 63.4924 54.2798L63.0801 54.7385L60.8194 52.677C61.4159 51.8435 61.3079 50.6746 60.5347 49.9669L59.3786 48.914C67.0957 36.0739 64.9651 19.1329 53.4926 8.67248C40.4516 -3.21576 20.2925 -2.23432 8.45916 10.8622C-3.37172 23.9612 -2.39482 44.2164 10.6412 56.1021C22.1138 66.5626 39.1041 67.0558 51.0798 58.0971L52.2359 59.15C53.0115 59.8577 54.1799 59.8503 54.9482 59.1747L57.2088 61.2362L56.7964 61.6949C56.4381 62.0919 56.4675 62.7059 56.8627 63.0659L89.3903 92.7236C90.3917 93.636 91.9381 93.562 92.8463 92.5559L97.5516 87.3454C98.4598 86.3393 98.3862 84.7858 97.3847 83.8734V83.8709Z" fill="#E23B5B"/>
<path d="M60.8166 52.6768C60.7724 52.7409 60.7233 52.8001 60.6693 52.8592L55.1122 59.0117C55.0582 59.0709 55.0018 59.1252 54.9453 59.1745L57.2059 61.236L63.0772 54.7383L60.8166 52.6768Z" fill="#CCCCCC"/>
<path d="M97.3857 83.8704L64.8582 54.2127C64.463 53.8527 63.8518 53.8822 63.4934 54.2793L63.0811 54.7379L57.2098 61.2356L56.7975 61.6943C56.4391 62.0913 56.4685 62.7053 56.8637 63.0654L89.3913 92.7231C90.3928 93.6355 91.9391 93.5615 92.8473 92.5554L97.5527 87.3449C98.4608 86.3388 98.3872 84.7853 97.3857 83.8729V83.8704Z" fill="#504C49"/>
<path d="M94.0353 88.4248C93.1271 89.4309 91.5783 89.5049 90.5793 88.5925L58.7292 59.5537L56.7975 61.6917C56.4391 62.0887 56.4685 62.7027 56.8637 63.0627L89.3913 92.7204C90.3928 93.6328 91.9391 93.5588 92.8473 92.5528L97.5527 87.3422C98.3307 86.4816 98.3847 85.2191 97.7564 84.3018L94.0328 88.4248H94.0353Z" fill="#432D19"/>
<path d="M32.0652 60.6689C47.6126 60.6689 60.2163 48.0068 60.2163 32.3872C60.2163 16.7676 47.6126 4.10547 32.0652 4.10547C16.5178 4.10547 3.91406 16.7676 3.91406 32.3872C3.91406 48.0068 16.5178 60.6689 32.0652 60.6689Z" fill="#FF2C55"/>
<path d="M50.3517 50.7528C60.4482 40.6095 60.4482 24.1639 50.3517 14.0206C40.2553 3.87727 23.8856 3.87727 13.7891 14.0206C3.69264 24.1639 3.69264 40.6095 13.7891 50.7528C23.8856 60.8962 40.2553 60.8962 50.3517 50.7528Z" fill="#FFDAE1"/>
<path d="M50.5186 42.0559C40.9214 52.6791 24.5717 53.4756 13.9975 43.8338C10.0383 40.2237 7.45124 35.6617 6.2657 30.8113C5.81161 38.3965 8.65397 46.1148 14.6921 51.6188C25.2663 61.2605 41.616 60.464 51.2132 49.8408C57.2171 43.1952 59.1537 34.2784 57.1753 26.1729C56.8341 31.8716 54.6349 37.4964 50.5186 42.0534V42.0559Z" fill="#EB8095"/>
<path d="M32.2449 29.9583C41.2272 29.8103 48.4293 24.8133 48.331 18.7972C48.2328 12.7812 40.8714 8.02428 31.8891 8.17234C22.9067 8.3204 15.7046 13.3174 15.8029 19.3334C15.9012 25.3495 23.2625 30.1064 32.2449 29.9583Z" fill="#FFC3CF"/>
<path d="M94.9119 83.9596L94.7524 84.1372C94.394 84.5342 93.7755 84.5662 93.3778 84.2038L64.3725 57.7567C63.9773 57.3967 63.9454 56.7752 64.3062 56.3758L64.4658 56.1982C64.8242 55.8012 65.4427 55.7691 65.8403 56.1316L94.8456 82.5787C95.2408 82.9387 95.2727 83.5601 94.9119 83.9596Z" fill="#777777"/>
</g>
<defs>
<clipPath id="clip0_3442_28393">
<rect width="98" height="93" fill="white" transform="translate(0.1875 0.359375)"/>
</clipPath>
</defs>
</svg>
