<svg width="24" height="25" viewBox="0 0 24 25" fill="none" xmlns="http://www.w3.org/2000/svg">
<path d="M9.7494 2.53885C9.32518 2.4496 8.88312 2.51142 8.49966 2.71359C8.11619 2.91577 7.81543 3.24559 7.6494 3.64603C7.64283 3.6601 7.63721 3.6751 7.63158 3.68916L2.01221 18.6713C1.89691 18.9559 1.85326 19.2645 1.88512 19.5699C1.91697 19.8753 2.02334 20.1682 2.19488 20.4229C2.36642 20.6776 2.59789 20.8862 2.86894 21.0305C3.13999 21.1748 3.44233 21.2503 3.7494 21.2504H9.3744C9.87168 21.2504 10.3486 21.0529 10.7002 20.7012C11.0519 20.3496 11.2494 19.8727 11.2494 19.3754V4.37541C11.2523 3.94253 11.1041 3.5222 10.8302 3.18692C10.5564 2.85165 10.1741 2.62244 9.7494 2.53885ZM8.9994 19.0004H4.29221L8.9994 6.44635V19.0004ZM21.9866 18.6713L16.3691 3.68916C16.3635 3.6751 16.3578 3.6601 16.3513 3.64603C16.1828 3.2477 15.8818 2.91986 15.4992 2.71807C15.1167 2.51627 14.6762 2.45292 14.2523 2.53876C13.8284 2.6246 13.4472 2.85434 13.1733 3.18907C12.8994 3.52379 12.7496 3.94291 12.7494 4.37541V19.3754C12.7494 19.8727 12.9469 20.3496 13.2986 20.7012C13.6502 21.0529 14.1271 21.2504 14.6244 21.2504H20.2494C20.5565 21.2505 20.859 21.1751 21.1302 21.0308C21.4013 20.8866 21.6329 20.678 21.8046 20.4233C21.9762 20.1686 22.0827 19.8756 22.1146 19.5701C22.1465 19.2647 22.1029 18.956 21.9875 18.6713H21.9866ZM14.9994 19.0004V6.44635L19.7066 19.0004H14.9994Z" fill="black"/>
</svg>
