<svg width="24" height="25" viewBox="0 0 24 25" fill="none" xmlns="http://www.w3.org/2000/svg">
<path d="M12 2.5C9.99747 2.5 8.0399 3.09382 6.37486 4.20637C4.70981 5.31892 3.41206 6.90023 2.64572 8.75033C1.87939 10.6004 1.67888 12.6362 2.06955 14.6003C2.46023 16.5643 3.42454 18.3685 4.84055 19.7845C6.25656 21.2005 8.06066 22.1648 10.0247 22.5555C11.9888 22.9461 14.0246 22.7456 15.8747 21.9793C17.7248 21.2129 19.3061 19.9152 20.4186 18.2501C21.5312 16.5851 22.125 14.6275 22.125 12.625C22.122 9.9406 21.0543 7.36699 19.1562 5.46883C17.258 3.57067 14.6844 2.50298 12 2.5ZM12 20.5C10.4425 20.5 8.91993 20.0381 7.62489 19.1728C6.32985 18.3075 5.32049 17.0776 4.72445 15.6386C4.12841 14.1997 3.97246 12.6163 4.27632 11.0887C4.58018 9.56106 5.3302 8.15787 6.43154 7.05653C7.53288 5.9552 8.93607 5.20517 10.4637 4.90132C11.9913 4.59746 13.5747 4.75341 15.0136 5.34945C16.4526 5.94549 17.6825 6.95485 18.5478 8.24988C19.4131 9.54492 19.875 11.0675 19.875 12.625C19.8728 14.7129 19.0424 16.7146 17.566 18.191C16.0896 19.6674 14.0879 20.4978 12 20.5ZM10.875 9.625V15.625C10.875 15.9234 10.7565 16.2095 10.5455 16.4205C10.3345 16.6315 10.0484 16.75 9.75 16.75C9.45164 16.75 9.16549 16.6315 8.95451 16.4205C8.74353 16.2095 8.625 15.9234 8.625 15.625V9.625C8.625 9.32663 8.74353 9.04048 8.95451 8.8295C9.16549 8.61853 9.45164 8.5 9.75 8.5C10.0484 8.5 10.3345 8.61853 10.5455 8.8295C10.7565 9.04048 10.875 9.32663 10.875 9.625ZM15.375 9.625V15.625C15.375 15.9234 15.2565 16.2095 15.0455 16.4205C14.8345 16.6315 14.5484 16.75 14.25 16.75C13.9516 16.75 13.6655 16.6315 13.4545 16.4205C13.2435 16.2095 13.125 15.9234 13.125 15.625V9.625C13.125 9.32663 13.2435 9.04048 13.4545 8.8295C13.6655 8.61853 13.9516 8.5 14.25 8.5C14.5484 8.5 14.8345 8.61853 15.0455 8.8295C15.2565 9.04048 15.375 9.32663 15.375 9.625Z" fill="black"/>
</svg>
