<svg width="24" height="25" viewBox="0 0 24 25" fill="none" xmlns="http://www.w3.org/2000/svg">
<g clip-path="url(#clip0_3442_27319)">
<path d="M10.325 4.942C10.751 3.186 13.249 3.186 13.675 4.942C13.7389 5.2058 13.8642 5.45078 14.0407 5.657C14.2172 5.86322 14.4399 6.02485 14.6907 6.12875C14.9414 6.23264 15.2132 6.27585 15.4838 6.25487C15.7544 6.23389 16.0162 6.1493 16.248 6.008C17.791 5.068 19.558 6.834 18.618 8.378C18.4769 8.60966 18.3924 8.87134 18.3715 9.14177C18.3506 9.41221 18.3938 9.68377 18.4975 9.93438C18.6013 10.185 18.7627 10.4076 18.9687 10.5841C19.1747 10.7605 19.4194 10.8859 19.683 10.95C21.439 11.376 21.439 13.874 19.683 14.3C19.4192 14.3639 19.1742 14.4892 18.968 14.6657C18.7618 14.8422 18.6001 15.0649 18.4963 15.3157C18.3924 15.5664 18.3491 15.8382 18.3701 16.1088C18.3911 16.3794 18.4757 16.6412 18.617 16.873C19.557 18.416 17.791 20.183 16.247 19.243C16.0153 19.1019 15.7537 19.0174 15.4832 18.9965C15.2128 18.9756 14.9412 19.0188 14.6906 19.1225C14.44 19.2263 14.2174 19.3877 14.0409 19.5937C13.8645 19.7997 13.7391 20.0444 13.675 20.308C13.249 22.064 10.751 22.064 10.325 20.308C10.2611 20.0442 10.1358 19.7992 9.95929 19.593C9.7828 19.3868 9.56011 19.2251 9.30935 19.1213C9.05859 19.0174 8.78683 18.9741 8.51621 18.9951C8.24559 19.0161 7.98375 19.1007 7.752 19.242C6.209 20.182 4.442 18.416 5.382 16.872C5.5231 16.6403 5.60755 16.3787 5.62848 16.1082C5.64942 15.8378 5.60624 15.5662 5.50247 15.3156C5.3987 15.065 5.23726 14.8424 5.03127 14.6659C4.82529 14.4895 4.58056 14.3641 4.317 14.3C2.561 13.874 2.561 11.376 4.317 10.95C4.5808 10.8861 4.82578 10.7608 5.032 10.5843C5.23822 10.4078 5.39985 10.1851 5.50375 9.93435C5.60764 9.68359 5.65085 9.41183 5.62987 9.14121C5.60889 8.87059 5.5243 8.60875 5.383 8.377C4.443 6.834 6.209 5.067 7.753 6.007C8.753 6.615 10.049 6.077 10.325 4.942Z" stroke="black" stroke-width="2" stroke-linecap="round" stroke-linejoin="round"/>
<path d="M9 12.625C9 13.4206 9.31607 14.1837 9.87868 14.7463C10.4413 15.3089 11.2044 15.625 12 15.625C12.7956 15.625 13.5587 15.3089 14.1213 14.7463C14.6839 14.1837 15 13.4206 15 12.625C15 11.8294 14.6839 11.0663 14.1213 10.5037C13.5587 9.94107 12.7956 9.625 12 9.625C11.2044 9.625 10.4413 9.94107 9.87868 10.5037C9.31607 11.0663 9 11.8294 9 12.625Z" stroke="black" stroke-width="2" stroke-linecap="round" stroke-linejoin="round"/>
</g>
<defs>
<clipPath id="clip0_3442_27319">
<rect width="24" height="24" fill="white" transform="translate(0 0.625)"/>
</clipPath>
</defs>
</svg>
