<svg width="25" height="25" viewBox="0 0 25 25" fill="none" xmlns="http://www.w3.org/2000/svg">
<g id="backspace">
<mask id="mask0_3180_211474" style="mask-type:alpha" maskUnits="userSpaceOnUse" x="0" y="0" width="25" height="25">
<rect id="Bounding box" x="0.25" y="0.5" width="24" height="24" fill="#D9D9D9"/>
</mask>
<g mask="url(#mask0_3180_211474)">
<path id="backspace_2" d="M9.27656 19.5C8.94323 19.5 8.6309 19.425 8.33956 19.275C8.04756 19.125 7.8099 18.9167 7.62656 18.65L4.10156 13.65C3.85156 13.3 3.72656 12.9167 3.72656 12.5C3.72656 12.0833 3.85156 11.7 4.10156 11.35L7.62656 6.35C7.8099 6.08333 8.04756 5.875 8.33956 5.725C8.6309 5.575 8.94323 5.5 9.27656 5.5H19.2766C19.8266 5.5 20.2976 5.696 20.6896 6.088C21.0809 6.47933 21.2766 6.95 21.2766 7.5V17.5C21.2766 18.05 21.0809 18.521 20.6896 18.913C20.2976 19.3043 19.8266 19.5 19.2766 19.5H9.27656ZM10.9516 15.8C11.1349 15.9833 11.3682 16.075 11.6516 16.075C11.9349 16.075 12.1682 15.9833 12.3516 15.8L14.2516 13.9L16.1516 15.8C16.3349 15.9833 16.5682 16.075 16.8516 16.075C17.1349 16.075 17.3682 15.9833 17.5516 15.8C17.7349 15.6167 17.8266 15.3833 17.8266 15.1C17.8266 14.8167 17.7349 14.5833 17.5516 14.4L15.6516 12.5L17.5516 10.6C17.7349 10.4167 17.8266 10.1833 17.8266 9.9C17.8266 9.61667 17.7349 9.38333 17.5516 9.2C17.3682 9.01667 17.1349 8.925 16.8516 8.925C16.5682 8.925 16.3349 9.01667 16.1516 9.2L14.2516 11.1L12.3516 9.2C12.1682 9.01667 11.9349 8.925 11.6516 8.925C11.3682 8.925 11.1349 9.01667 10.9516 9.2C10.7682 9.38333 10.6766 9.61667 10.6766 9.9C10.6766 10.1833 10.7682 10.4167 10.9516 10.6L12.8516 12.5L10.9516 14.4C10.7682 14.5833 10.6766 14.8167 10.6766 15.1C10.6766 15.3833 10.7682 15.6167 10.9516 15.8Z" fill="#222222"/>
</g>
</g>
</svg>
