<svg width="16" height="19" viewBox="0 0 16 19" fill="none" xmlns="http://www.w3.org/2000/svg">
<g id="Bookmark">
<path id="Bookmark_2" fill-rule="evenodd" clip-rule="evenodd" d="M5.23837 0.376953H10.7228C13.1317 0.376953 15.0784 1.32806 15.105 3.74584V17.2392C15.105 17.3903 15.0695 17.5414 14.9984 17.6747C14.8828 17.8881 14.6873 18.0481 14.4473 18.1192C14.2161 18.1903 13.9584 18.1547 13.745 18.0303L7.98503 15.1503L2.21615 18.0303C2.0837 18.1005 1.9317 18.1458 1.78059 18.1458C1.28281 18.1458 0.882812 17.737 0.882812 17.2392V3.74584C0.882812 1.32806 2.83837 0.376953 5.23837 0.376953ZM4.63431 7.15032H11.3276C11.7099 7.15032 12.021 6.83832 12.021 6.4481C12.021 6.05699 11.7099 5.74588 11.3276 5.74588H4.63431C4.25208 5.74588 3.94097 6.05699 3.94097 6.4481C3.94097 6.83832 4.25208 7.15032 4.63431 7.15032Z" fill="#DAA553"/>
</g>
</svg>
