<svg width="20" height="21" viewBox="0 0 20 21" fill="none" xmlns="http://www.w3.org/2000/svg">
<g id="circle-question-solid 1" clip-path="url(#clip0_3180_211077)">
<path id="Vector" d="M10 0.5C4.47656 0.5 0 4.97656 0 10.5C0 16.0234 4.47656 20.5 10 20.5C15.5234 20.5 20 16.0234 20 10.5C20 4.97656 15.5234 0.5 10 0.5ZM10 16.125C9.29688 16.125 8.75 15.5781 8.75 14.875C8.75 14.1719 9.26172 13.625 10 13.625C10.668 13.625 11.25 14.1719 11.25 14.875C11.25 15.5781 10.668 16.125 10 16.125ZM12.6992 10.5781L10.9375 11.6719V11.75C10.9375 12.2578 10.5078 12.6875 10 12.6875C9.49219 12.6875 9.0625 12.2578 9.0625 11.75V11.125C9.0625 10.8125 9.21875 10.5 9.53125 10.3047L11.7578 8.97656C12.0312 8.82031 12.1875 8.54688 12.1875 8.23438C12.1875 7.76562 11.7617 7.375 11.293 7.375H9.29688C8.79297 7.375 8.4375 7.76562 8.4375 8.23438C8.4375 8.74219 8.00781 9.17188 7.5 9.17188C6.99219 9.17188 6.5625 8.74219 6.5625 8.23438C6.5625 6.71094 7.77344 5.5 9.26172 5.5H11.2578C12.8516 5.5 14.0625 6.71094 14.0625 8.23438C14.0625 9.17188 13.5547 10.0703 12.6992 10.5781Z" fill="#CAC6E7"/>
</g>
<defs>
<clipPath id="clip0_3180_211077">
<rect width="20" height="20" fill="white" transform="translate(0 0.5)"/>
</clipPath>
</defs>
</svg>
