<svg width="16" height="17" viewBox="0 0 16 17" fill="none" xmlns="http://www.w3.org/2000/svg">
<g id="close 1" clip-path="url(#clip0_6285_59487)">
<g id="Group">
<g id="close_1_">
<path id="Vector" d="M1.51672 16.3995C1.12445 16.4223 0.738661 16.2919 0.440711 16.0358C-0.146904 15.4447 -0.146904 14.49 0.440711 13.8989L13.3075 1.032C13.9187 0.460106 14.8777 0.491898 15.4496 1.10307C15.9668 1.65575 15.9969 2.50523 15.5202 3.09314L2.57756 16.0358C2.28346 16.2882 1.90386 16.4184 1.51672 16.3995Z" fill="black"/>
<path id="Vector_2" d="M14.3703 16.3996C13.9728 16.3979 13.5917 16.24 13.3094 15.9601L0.442542 3.09313C-0.101853 2.4574 -0.0278394 1.50067 0.607886 0.956224C1.17529 0.470321 2.01209 0.470321 2.57945 0.956224L15.5221 13.8231C16.1331 14.3952 16.1647 15.3542 15.5927 15.9653C15.5699 15.9896 15.5464 16.0131 15.5221 16.0358C15.2052 16.3114 14.7881 16.4431 14.3703 16.3996Z" fill="black"/>
</g>
</g>
</g>
<defs>
<clipPath id="clip0_6285_59487">
<rect width="16" height="16" fill="white" transform="translate(0 0.5)"/>
</clipPath>
</defs>
</svg>
