<svg width="20" height="20" viewBox="0 0 20 20" fill="none" xmlns="http://www.w3.org/2000/svg">
<g id="Close Square">
<path id="Close Square_2" fill-rule="evenodd" clip-rule="evenodd" d="M5.67 0H14.34C17.73 0 20 2.38 20 5.92V14.091C20 17.621 17.73 20 14.34 20H5.67C2.28 20 0 17.621 0 14.091V5.92C0 2.38 2.28 0 5.67 0ZM13.0096 13.0001C13.3496 12.6611 13.3496 12.1111 13.0096 11.7711L11.2296 9.99108L13.0096 8.21008C13.3496 7.87108 13.3496 7.31108 13.0096 6.97108C12.6696 6.63008 12.1196 6.63008 11.7696 6.97108L9.99961 8.75008L8.21961 6.97108C7.86961 6.63008 7.31961 6.63008 6.97961 6.97108C6.63961 7.31108 6.63961 7.87108 6.97961 8.21008L8.75961 9.99108L6.97961 11.7611C6.63961 12.1111 6.63961 12.6611 6.97961 13.0001C7.14961 13.1701 7.37961 13.2611 7.59961 13.2611C7.82961 13.2611 8.04961 13.1701 8.21961 13.0001L9.99961 11.2311L11.7796 13.0001C11.9496 13.1811 12.1696 13.2611 12.3896 13.2611C12.6196 13.2611 12.8396 13.1701 13.0096 13.0001Z" fill="#D1D1D1"/>
</g>
</svg>
