<svg width="14" height="15" viewBox="0 0 14 15" fill="none" xmlns="http://www.w3.org/2000/svg">
<g id="Group">
<g id="Group_2">
<path id="Vector" d="M3.72759 13.8929L3.72788 13.8929C4.61648 13.8929 5.5053 13.5551 6.18151 12.8789C6.18152 12.8789 6.18153 12.8789 6.18154 12.8789L8.08638 10.9731L8.09097 10.9685L8.09107 10.9686C8.16819 10.8978 8.2302 10.8122 8.27335 10.7168C8.3165 10.6215 8.3399 10.5184 8.34216 10.4138C8.34441 10.3091 8.32546 10.2051 8.28645 10.108C8.24745 10.0109 8.18919 9.92267 8.11518 9.84866C8.04118 9.77466 7.95296 9.71639 7.85584 9.67739C7.75872 9.63838 7.65472 9.61943 7.55008 9.62168C7.44545 9.62394 7.34235 9.64734 7.247 9.6905C7.15165 9.73365 7.06602 9.79565 6.99527 9.87277L6.99088 9.87756L6.99078 9.87746L5.08492 11.7823L5.08481 11.7824C4.7246 12.1417 4.23662 12.3435 3.72788 12.3435C3.21913 12.3435 2.73115 12.1417 2.37095 11.7824L2.37067 11.7822C2.01141 11.422 1.80965 10.934 1.80965 10.4252C1.80965 9.91649 2.01141 9.42851 2.37067 9.0683L2.37078 9.06819L4.27565 7.16233L4.28024 7.15773L4.28034 7.15784C4.35746 7.08708 4.41946 7.00146 4.46262 6.90611C4.50577 6.81076 4.52917 6.70766 4.53143 6.60303C4.53368 6.4984 4.51473 6.39439 4.47572 6.29727C4.43672 6.20015 4.37845 6.11194 4.30445 6.03793C4.23044 5.96393 4.14223 5.90566 4.04511 5.86666L4.10102 5.72747L4.04511 5.86666C3.94799 5.82765 3.84399 5.8087 3.73935 5.81095C3.63472 5.81321 3.53162 5.83661 3.43627 5.87976C3.34092 5.92292 3.2553 5.98492 3.18454 6.06204L3.18015 6.06683L3.18005 6.06673L1.27432 7.97146L3.72759 13.8929ZM3.72759 13.8929C3.27203 13.8938 2.82079 13.8047 2.39977 13.6307C1.97875 13.4566 1.59626 13.2012 1.27426 12.8789C0.624365 12.2277 0.259375 11.3453 0.259375 10.4252C0.259375 9.50524 0.624342 8.62282 1.27419 7.9716L3.72759 13.8929ZM5.46155 3.78523L5.46145 3.78513C5.38433 3.85588 5.32233 3.94151 5.27918 4.03686C5.23603 4.13221 5.21262 4.2353 5.21037 4.33994C5.20811 4.44457 5.22706 4.54858 5.26607 4.6457C5.30508 4.74281 5.36334 4.83103 5.43735 4.90504C5.51135 4.97904 5.59957 5.0373 5.69668 5.07631C5.7938 5.11532 5.89781 5.13427 6.00244 5.13201C6.10708 5.12976 6.21017 5.10635 6.30552 5.0632C6.40087 5.02005 6.4865 4.95805 6.55725 4.88093L6.56164 4.87614L6.56174 4.87623L8.46761 2.97137L8.46772 2.97126C8.82792 2.61199 9.3159 2.41024 9.82465 2.41024C10.3334 2.41024 10.8214 2.61199 11.1816 2.97126L11.1819 2.97153C11.5411 3.33174 11.7429 3.81972 11.7429 4.32846C11.7429 4.83721 11.5411 5.32519 11.1819 5.68539L11.1817 5.68553L9.27685 7.5904L9.2733 7.59395L9.27324 7.59389C9.19728 7.66493 9.13639 7.75052 9.09418 7.84558C9.05197 7.94064 9.02932 8.04321 9.02756 8.14721C9.0258 8.2512 9.04497 8.35448 9.08394 8.45091C9.12291 8.54734 9.18088 8.63494 9.25439 8.70852C9.32791 8.78209 9.41547 8.84012 9.51187 8.87916C9.60827 8.91821 9.71154 8.93746 9.81553 8.93578C9.91953 8.9341 10.0221 8.91152 10.1172 8.86939C10.2123 8.82725 10.2979 8.76642 10.369 8.69051L10.3724 8.68694L10.3724 8.68699L12.2782 6.78123C12.9281 6.13017 13.2931 5.24786 13.2931 4.32797C13.2931 3.40808 12.9281 2.52578 12.2782 1.87472C11.627 1.22491 10.7446 0.859961 9.82465 0.859961C8.90465 0.859961 8.02223 1.22493 7.37101 1.87477L5.46155 3.78523ZM5.46155 3.78523L5.46615 3.78064L7.37088 1.87491L5.46155 3.78523Z" fill="white" stroke="rgb(255, 59, 92)" stroke-width="0.3"/>
<path id="Vector_2" d="M4.31726 8.73757L4.3172 8.73751C4.24131 8.8086 4.18049 8.89423 4.13836 8.9893C4.09623 9.08437 4.07366 9.18695 4.07198 9.29092C4.0703 9.3949 4.08955 9.49815 4.12858 9.59453C4.16762 9.69092 4.22564 9.77847 4.2992 9.85197C4.37276 9.92547 4.46035 9.98343 4.55677 10.0224C4.65318 10.0614 4.75645 10.0805 4.86042 10.0788C4.96439 10.077 5.06695 10.0544 5.16199 10.0122C5.25703 9.96996 5.34262 9.90907 5.41365 9.83312L5.41706 9.82947L5.41712 9.82953L9.22723 6.01842L4.31726 8.73757ZM4.31726 8.73757L4.32074 8.73409M4.31726 8.73757L4.32074 8.73409M4.32074 8.73409L8.1309 4.92293C8.13091 4.92292 8.13092 4.92291 8.13093 4.9229C8.27635 4.77755 8.47353 4.6959 8.67912 4.6959C8.88474 4.6959 9.08193 4.77756 9.22735 4.92293M4.32074 8.73409L9.22735 4.92293M9.22735 4.92293C9.37239 5.0683 9.45384 5.26526 9.45384 5.47062C9.45384 5.67599 9.37238 5.87297 9.22732 6.01834L9.22735 4.92293Z" fill="white" stroke="rgb(255, 59, 92)" stroke-width="0.3"/>
</g>
</g>
</svg>
