<svg width="16" height="16" viewBox="0 0 16 16" fill="none" xmlns="http://www.w3.org/2000/svg">
    <g clip-path="url(#clip0_22_2648)">
    <path d="M1.51672 15.8995C1.12445 15.9223 0.738661 15.7919 0.440711 15.5358C-0.146904 14.9447 -0.146904 13.99 0.440711 13.3989L13.3075 0.532C13.9187 -0.0398937 14.8777 -0.00810249 15.4496 0.603069C15.9668 1.15575 15.9969 2.00523 15.5202 2.59314L2.57756 15.5358C2.28346 15.7882 1.90386 15.9184 1.51672 15.8995Z" fill="black"/>
    <path d="M14.3703 15.8996C13.9728 15.8979 13.5917 15.74 13.3094 15.4601L0.442542 2.59313C-0.101853 1.9574 -0.0278394 1.00067 0.607886 0.456224C1.17529 -0.0296788 2.01209 -0.0296788 2.57945 0.456224L15.5221 13.3231C16.1331 13.8952 16.1647 14.8542 15.5927 15.4653C15.5699 15.4896 15.5464 15.5131 15.5221 15.5358C15.2052 15.8114 14.7881 15.9431 14.3703 15.8996Z" fill="black"/>
    </g>
    <defs>
    <clipPath id="clip0_22_2648">
    <rect width="16" height="16" fill="white"/>
    </clipPath>
    </defs>
    </svg>
    