<svg width="24" height="24" viewBox="0 0 24 24" fill="none" xmlns="http://www.w3.org/2000/svg">
<g id="Frame">
<g id="Group">
<g id="Group_2">
<path id="Vector" d="M10.1182 6.69974L10.1126 6.70486C10.0094 6.79959 9.92636 6.91423 9.86859 7.04189C9.81081 7.16954 9.77947 7.30757 9.77646 7.44765C9.77344 7.58774 9.79881 7.72699 9.85104 7.85701C9.90326 7.98704 9.98126 8.10514 10.0803 8.20422C10.1794 8.3033 10.2975 8.38131 10.4276 8.43353C10.5576 8.48575 10.6968 8.51112 10.8369 8.50811C10.977 8.50509 11.115 8.47375 11.2427 8.41598C11.3703 8.35821 11.485 8.2752 11.5797 8.17194L11.5848 8.16636L11.5902 8.161L14.449 5.3037L14.4492 5.30344C15.013 4.74117 15.7767 4.42542 16.5729 4.42542C17.3691 4.42542 18.1328 4.74117 18.6966 5.30344L18.6972 5.30409C19.2595 5.86783 19.5752 6.63154 19.5752 7.42775C19.5752 8.22396 19.2595 8.98768 18.6972 9.55142L18.6969 9.55174L15.8396 12.409L15.8313 12.4173L15.8312 12.4172C15.7295 12.5123 15.648 12.6269 15.5915 12.7542C15.5349 12.8814 15.5046 13.0188 15.5023 13.158C15.4999 13.2972 15.5256 13.4355 15.5777 13.5646C15.6299 13.6937 15.7075 13.811 15.806 13.9095C15.9044 14.008 16.0216 14.0857 16.1507 14.1379C16.2797 14.1902 16.418 14.216 16.5572 14.2137C16.6964 14.2115 16.8338 14.1813 16.9611 14.1249C17.0884 14.0684 17.2031 13.987 17.2983 13.8854L17.3061 13.877L17.3062 13.8772L20.1648 11.0186L10.1182 6.69974ZM10.1182 6.69974L10.1236 6.69438M10.1182 6.69974L10.1236 6.69438M10.1236 6.69438L12.9806 3.8359C13.934 2.88439 15.2259 2.35 16.5729 2.35C17.9198 2.35 19.2117 2.88433 20.1651 3.83573M10.1236 6.69438L20.1651 3.83573M20.1651 3.83573C21.1163 4.78885 21.6505 6.08042 21.6505 7.42701C21.6505 8.77363 21.1163 10.0652 20.165 11.0184L20.1651 3.83573ZM7.42775 21.6494L7.42707 21.6494C6.7602 21.6507 6.09965 21.5202 5.48334 21.2655C4.8671 21.0108 4.30723 20.6369 3.8359 20.1653C2.88439 19.2119 2.35 17.9199 2.35 16.5729C2.35 15.2259 2.88439 13.934 3.8359 12.9806L6.69438 10.1236L6.69974 10.1182L6.70486 10.1126C6.79959 10.0094 6.91423 9.92636 7.04188 9.86859C7.16954 9.81081 7.30757 9.77948 7.44765 9.77646C7.58774 9.77344 7.72699 9.79881 7.85701 9.85104C7.98704 9.90326 8.10514 9.98126 8.20422 10.0803C8.3033 10.1794 8.3813 10.2975 8.43353 10.4276C8.48575 10.5576 8.51112 10.6968 8.50811 10.8369C8.50509 10.977 8.47375 11.115 8.41598 11.2427C8.35821 11.3703 8.2752 11.485 8.17194 11.5797L8.16636 11.5848L8.161 11.5902L5.3037 14.449L5.30344 14.4492C4.74117 15.013 4.42542 15.7767 4.42542 16.5729C4.42542 17.3691 4.74117 18.1328 5.30344 18.6966L5.30409 18.6972C5.86783 19.2595 6.63154 19.5752 7.42775 19.5752C8.22396 19.5752 8.98768 19.2595 9.55142 18.6972L9.55168 18.697L12.4105 15.8397L12.4158 15.8343L12.421 15.8287C12.5157 15.7255 12.6303 15.6425 12.758 15.5847L12.6137 15.2658L12.758 15.5847C12.8856 15.5269 13.0237 15.4956 13.1637 15.4926C13.3038 15.4895 13.4431 15.5149 13.5731 15.5671L13.7036 15.2424L13.5731 15.5671C13.7031 15.6194 13.8212 15.6974 13.9203 15.7964C14.0194 15.8955 14.0974 16.0136 14.1496 16.1436C14.2018 16.2737 14.2272 16.4129 14.2242 16.553C14.2212 16.6931 14.1898 16.8311 14.1321 16.9588L14.4509 17.1031L14.1321 16.9588C14.0743 17.0864 13.9913 17.2011 13.888 17.2958L13.8825 17.3009L13.8771 17.3063L11.0199 20.165C11.0198 20.165 11.0198 20.1651 11.0198 20.1651C10.03 21.1548 8.72903 21.6494 7.42775 21.6494ZM5.34965 21.589C6.00856 21.8613 6.71478 22.0008 7.42775 21.9994L5.34965 21.589Z" fill="#222222" stroke="white" stroke-width="0.7"/>
<path id="Vector_2" d="M8.39719 14.1326L8.39732 14.1327L8.40544 14.1246L14.1207 8.40785C14.1207 8.40783 14.1207 8.4078 14.1207 8.40778C14.3154 8.21321 14.5794 8.10391 14.8546 8.10391C15.1299 8.10391 15.3939 8.21324 15.5886 8.40785C15.7827 8.60246 15.8917 8.86611 15.8917 9.14098C15.8917 9.41598 15.7826 9.67975 15.5883 9.87439L9.87322 15.591L9.87308 15.5908L9.86511 15.5994C9.77002 15.701 9.65544 15.7825 9.5282 15.839C9.40096 15.8955 9.26365 15.9259 9.12445 15.9282C8.98525 15.9306 8.847 15.9049 8.71792 15.8527C8.58884 15.8006 8.47158 15.723 8.3731 15.6246C8.27462 15.5262 8.19693 15.409 8.14467 15.2799C8.09241 15.1509 8.06664 15.0127 8.06889 14.8735C8.07113 14.7343 8.10136 14.5969 8.15776 14.4696C8.21416 14.3424 8.29559 14.2277 8.39719 14.1326Z" fill="#222222" stroke="white" stroke-width="0.7"/>
</g>
</g>
</g>
</svg>
