<svg width="16" height="17" viewBox="0 0 16 17" fill="none" xmlns="http://www.w3.org/2000/svg">
<g id="Group">
<path id="Vector" d="M5.22852 3.08921V11.6061C4.73293 11.164 4.07987 10.8949 3.36503 10.8949C1.81972 10.8949 0.5625 12.1521 0.5625 13.6974C0.5625 15.2428 1.81972 16.5 3.36503 16.5C4.90843 16.5 6.16433 15.2459 6.16752 13.7033H6.16758V6.85858L14.5037 4.74543V9.34526C14.0081 8.90317 13.3551 8.63402 12.6403 8.63402C11.0949 8.63402 9.8377 9.89123 9.8377 11.4365C9.8377 12.9819 11.0949 14.2391 12.6403 14.2391C14.1856 14.2391 15.4428 12.9819 15.4428 11.4365V0.5L5.22852 3.08921Z" fill="#222222"/>
</g>
</svg>
