<svg width="19" height="18" viewBox="0 0 19 18" fill="none" xmlns="http://www.w3.org/2000/svg">
<g id="Heart">
<path id="Heart_2" fill-rule="evenodd" clip-rule="evenodd" d="M12.6939 0.822408C13.2548 0.822408 13.8148 0.901519 14.3473 1.08019C17.6282 2.14685 18.8104 5.74685 17.8228 8.89352C17.2628 10.5015 16.3473 11.9691 15.1482 13.1682C13.4317 14.8304 11.5482 16.306 9.5206 17.5771L9.29838 17.7113L9.06727 17.5682C7.0326 16.306 5.13838 14.8304 3.40594 13.1593C2.21483 11.9602 1.29838 10.5015 0.729494 8.89352C-0.274951 5.74685 0.907272 2.14685 4.22372 1.06152C4.48149 0.97263 4.74727 0.910408 5.01394 0.875741H5.1206C5.37038 0.839296 5.61838 0.822408 5.86727 0.822408H5.96505C6.52505 0.839296 7.06727 0.937074 7.5926 1.11574H7.64505C7.6806 1.13263 7.70727 1.1513 7.72505 1.16819C7.92149 1.2313 8.10727 1.30241 8.28505 1.40019L8.62283 1.5513C8.70445 1.59483 8.79606 1.66134 8.87523 1.71882C8.9254 1.75525 8.97057 1.78804 9.00505 1.80907C9.01955 1.81763 9.0343 1.82624 9.04916 1.83491C9.12537 1.8794 9.20477 1.92575 9.27171 1.97707C10.2593 1.22241 11.4584 0.813519 12.6939 0.822408ZM15.0584 7.22241C15.4228 7.21263 15.7339 6.92018 15.7606 6.54596V6.44018C15.7873 5.19485 15.0326 4.06685 13.885 3.6313C13.5206 3.50596 13.1206 3.70241 12.9873 4.07574C12.8628 4.44907 13.0584 4.85796 13.4317 4.99041C14.0015 5.20374 14.3828 5.76463 14.3828 6.38596V6.41352C14.3659 6.61707 14.4273 6.81352 14.5517 6.96463C14.6762 7.11574 14.8628 7.20374 15.0584 7.22241Z" fill="#D36262"/>
</g>
</svg>
