<svg width="16" height="4" viewBox="0 0 16 4" fill="none" xmlns="http://www.w3.org/2000/svg">
<g id="Group">
<path id="Vector" d="M1.74693 3.74676C0.783567 3.74676 0 2.96357 0 2.00009C0 1.03711 0.783567 0.253418 1.74693 0.253418C2.71028 0.253418 3.49385 1.03707 3.49385 2.00009C3.49381 2.96357 2.71028 3.74676 1.74693 3.74676ZM7.90182 3.74676C6.93846 3.74676 6.15489 2.96357 6.15489 2.00009C6.15489 1.03711 6.93846 0.253418 7.90182 0.253418C8.86501 0.253418 9.64874 1.03707 9.64874 2.00009C9.6487 2.96357 8.86501 3.74676 7.90182 3.74676ZM14.2531 3.74676C13.2899 3.74676 12.5061 2.96357 12.5061 2.00009C12.5061 1.03711 13.2898 0.253418 14.2531 0.253418C15.2163 0.253418 16 1.03707 16 2.00009C16 2.96357 15.2163 3.74676 14.2531 3.74676Z" fill="#5448B2"/>
</g>
</svg>
