<svg width="22" height="6" viewBox="0 0 22 6" fill="none" xmlns="http://www.w3.org/2000/svg">
<g id="Group">
<path id="Vector" d="M2.9308 5.59529C1.64632 5.59529 0.601562 4.55104 0.601562 3.26639C0.601562 1.98243 1.64632 0.9375 2.9308 0.9375C4.21527 0.9375 5.26003 1.98237 5.26003 3.26639C5.25997 4.55104 4.21527 5.59529 2.9308 5.59529ZM11.1373 5.59529C9.85284 5.59529 8.80809 4.55104 8.80809 3.26639C8.80809 1.98243 9.85284 0.9375 11.1373 0.9375C12.4216 0.9375 13.4666 1.98237 13.4666 3.26639C13.4665 4.55104 12.4216 5.59529 11.1373 5.59529ZM19.6057 5.59529C18.3214 5.59529 17.2764 4.55104 17.2764 3.26639C17.2764 1.98243 18.3214 0.9375 19.6057 0.9375C20.89 0.9375 21.9349 1.98237 21.9349 3.26639C21.9349 4.55104 20.89 5.59529 19.6057 5.59529Z" fill="#A9A9A9"/>
</g>
</svg>
