<svg width="22" height="22" viewBox="0 0 22 22" fill="none" xmlns="http://www.w3.org/2000/svg">
<g clip-path="url(#clip0_5694_45371)">
<path d="M2.9308 13.5953C1.64632 13.5953 0.601562 12.551 0.601562 11.2664C0.601562 9.98243 1.64632 8.9375 2.9308 8.9375C4.21527 8.9375 5.26003 9.98237 5.26003 11.2664C5.25997 12.551 4.21527 13.5953 2.9308 13.5953ZM11.1373 13.5953C9.85284 13.5953 8.80809 12.551 8.80809 11.2664C8.80809 9.98243 9.85284 8.9375 11.1373 8.9375C12.4216 8.9375 13.4666 9.98237 13.4666 11.2664C13.4665 12.551 12.4216 13.5953 11.1373 13.5953ZM19.6057 13.5953C18.3214 13.5953 17.2764 12.551 17.2764 11.2664C17.2764 9.98243 18.3214 8.9375 19.6057 8.9375C20.89 8.9375 21.9349 9.98237 21.9349 11.2664C21.9349 12.551 20.89 13.5953 19.6057 13.5953Z" fill="rgb(255, 59, 92)"/>
</g>
<defs>
<clipPath id="clip0_5694_45371">
<rect width="21.3333" height="21.3333" fill="white" transform="translate(0.601562 0.599609)"/>
</clipPath>
</defs>
</svg>
