<svg width="26" height="26" viewBox="0 0 26 26" fill="none" xmlns="http://www.w3.org/2000/svg">
<g id="Arrow - Right Circle">
<path id="Arrow - Right Circle_2" fill-rule="evenodd" clip-rule="evenodd" d="M25.5 13C25.5 19.9 19.8875 25.5 13 25.5L12.6503 25.4952C5.91178 25.3098 0.5 19.7831 0.5 13C0.5 6.1125 6.1 0.5 13 0.5C19.8875 0.5 25.5 6.1125 25.5 13ZM10.525 8C10.1625 8.375 10.1625 8.9625 10.5375 9.325L14.225 13L10.5375 16.675C10.1625 17.0375 10.1625 17.6375 10.525 18C10.9 18.375 11.4875 18.375 11.85 18L16.2125 13.6625C16.3875 13.4875 16.4875 13.25 16.4875 13C16.4875 12.75 16.3875 12.5125 16.2125 12.3375L11.85 8C11.675 7.8125 11.4375 7.725 11.2 7.725C10.95 7.725 10.7125 7.8125 10.525 8Z" fill="white"/>
</g>
</svg>
