<svg width="22" height="22" viewBox="0 0 22 22" fill="none" xmlns="http://www.w3.org/2000/svg">
<g id="share" clip-path="url(#clip0_5694_45364)">
<path id="Vector" d="M20.6816 8.19163L14.804 2.34024C14.6585 2.19546 14.4864 2.12305 14.2874 2.12305C14.0884 2.12305 13.9162 2.19546 13.7709 2.34024C13.6254 2.48511 13.5526 2.65656 13.5526 2.85462V5.78031H10.9812C5.52435 5.78031 2.17632 7.31559 0.936349 10.3861C0.530853 11.4069 0.328125 12.6756 0.328125 14.1918C0.328125 15.4565 0.814117 17.1745 1.78602 19.346C1.80894 19.3995 1.84899 19.4907 1.90648 19.6202C1.95724 19.7349 2.0089 19.8492 2.06145 19.963C2.10752 20.062 2.1573 20.1458 2.21082 20.2143C2.30257 20.3438 2.40977 20.4088 2.53224 20.4088C2.64703 20.4088 2.73698 20.3707 2.80207 20.2945C2.86701 20.2184 2.89954 20.123 2.89954 20.009C2.89954 19.9403 2.88997 19.8395 2.87079 19.7061C2.85165 19.5726 2.84204 19.4833 2.84204 19.4375C2.80372 18.9196 2.78458 18.4507 2.78458 18.032C2.78458 17.2625 2.85165 16.5729 2.98546 15.9634C3.11947 15.3538 3.30503 14.8263 3.54234 14.3806C3.77961 13.9346 4.08563 13.5502 4.46073 13.2263C4.83567 12.9025 5.23931 12.6378 5.67171 12.4321C6.10419 12.2263 6.6131 12.0644 7.19856 11.9463C7.78399 11.8282 8.37324 11.7463 8.96642 11.7005C9.55961 11.6548 10.2312 11.6321 10.9812 11.6321H13.5526V14.5578C13.5526 14.7559 13.6253 14.9274 13.7706 15.0721C13.9161 15.2167 14.0883 15.2892 14.2871 15.2892C14.4861 15.2892 14.6583 15.2167 14.804 15.0721L20.6815 9.2205C20.8269 9.07571 20.8996 8.90434 20.8996 8.70624C20.8995 8.50818 20.8269 8.33669 20.6816 8.19163Z" fill="#A9A9A9"/>
</g>
<defs>
<clipPath id="clip0_5694_45364">
<rect width="21.3333" height="21.3333" fill="white" transform="translate(0.328125 0.599609)"/>
</clipPath>
</defs>
</svg>
