<svg width="26" height="26" viewBox="0 0 26 26" fill="none" xmlns="http://www.w3.org/2000/svg">
<path d="M6.1279 10.6178C6.03936 10.2741 6.35185 9.97198 6.67998 10.0814L12.2008 11.9147C12.5029 12.0136 12.6071 12.3991 12.3935 12.6386L8.52894 16.9824C8.29977 17.2428 7.8779 17.1386 7.78415 16.7949L6.1279 10.6178Z" fill="black"/>
<path d="M0.565476 6.60759C0.409226 7.34196 0.638393 8.18572 1.08631 9.87842L3.86756 20.2118C4.32068 21.9045 4.54464 22.7482 5.04985 23.3055C5.49017 23.7941 6.07341 24.1313 6.71652 24.269C7.4561 24.4253 8.29985 24.2013 9.99256 23.7482L14.3311 22.5868C16.0186 22.1336 16.8676 21.9097 17.4249 21.4045C17.9144 20.9628 18.2516 20.3776 18.3884 19.7326C18.5446 18.9982 18.3207 18.1493 17.8676 16.4618L15.0967 6.12322C14.6436 4.43051 14.4196 3.58676 13.9144 3.02947C13.4735 2.53804 12.8882 2.1989 12.2426 2.06072C11.5082 1.90447 10.6644 2.13363 8.97173 2.58155L4.62798 3.75342C2.93527 4.20655 2.09152 4.43051 1.53423 4.93572C1.0428 5.37667 0.703664 5.96195 0.565476 6.60759ZM9.50818 4.60238C10.3832 4.36801 10.9249 4.22738 11.3311 4.14926C11.4805 4.12074 11.6321 4.10505 11.7842 4.10238H11.8051C12.026 4.15061 12.2253 4.26944 12.3728 4.44092L12.404 4.49822C12.4405 4.56592 12.4926 4.6753 12.5603 4.85759C12.6957 5.24822 12.8415 5.78988 13.0811 6.66488L15.8467 17.0034C16.0811 17.8888 16.2269 18.4201 16.2999 18.8315C16.3301 18.9808 16.3475 19.1324 16.3519 19.2847V19.2951L16.3467 19.3055C16.2985 19.5265 16.1797 19.7257 16.0082 19.8732L15.9561 19.9045C15.8884 19.9409 15.779 19.993 15.5915 20.0607C15.2009 20.1961 14.6644 20.342 13.7842 20.5815L9.44568 21.743C8.56548 21.9774 8.02902 22.118 7.62277 22.1961C7.46633 22.2241 7.30772 22.238 7.14881 22.2378C6.92664 22.192 6.72548 22.075 6.57589 21.9045C6.50159 21.7712 6.43886 21.6318 6.38839 21.4878C6.25298 21.092 6.10714 20.5555 5.87277 19.6805L3.10193 9.33676C2.92917 8.73472 2.77803 8.1267 2.64881 7.51384C2.62116 7.35912 2.60722 7.20226 2.60714 7.04509C2.65076 6.82866 2.76201 6.63168 2.92485 6.48259L2.94048 6.47217L2.99777 6.44092C3.06548 6.40447 3.17485 6.35238 3.35714 6.28467C3.74777 6.14926 4.28943 6.00342 5.16443 5.76384L9.50298 4.60238H9.50818ZM22.2113 10.1805L20.9613 17.2847L23.2894 13.2482C24.1644 11.7326 24.6019 10.9722 24.6436 10.2274C24.679 9.56691 24.5039 8.91223 24.1436 8.35759C23.8467 7.90447 23.3728 7.5503 22.5655 7.06072C22.5811 7.40447 22.5655 7.7378 22.5394 8.05551C22.4821 8.66488 22.3519 9.37842 22.2113 10.1805ZM19.3988 14.1493L20.1488 9.89405C20.4509 8.17009 20.6019 7.30551 20.3832 6.58676C20.1905 5.95758 19.804 5.4053 19.279 5.00863C18.7582 4.6128 18.0342 4.44613 16.7269 4.21176C16.8415 4.6128 16.9561 5.04509 17.0811 5.51384L19.3988 14.1493Z" fill="black"/>
</svg>
