<svg width="20" height="21" viewBox="0 0 20 21" fill="none" xmlns="http://www.w3.org/2000/svg">
<g id="heroicons-mini/x-circle">
<path id="Subtract" fill-rule="evenodd" clip-rule="evenodd" d="M10 18.5C14.4183 18.5 18 14.9183 18 10.5C18 6.08172 14.4183 2.5 10 2.5C5.58172 2.5 2 6.08172 2 10.5C2 14.9183 5.58172 18.5 10 18.5ZM8.28033 7.71967C7.98744 7.42678 7.51256 7.42678 7.21967 7.71967C6.92678 8.01256 6.92678 8.48744 7.21967 8.78033L8.93934 10.5L7.21967 12.2197C6.92678 12.5126 6.92678 12.9874 7.21967 13.2803C7.51256 13.5732 7.98744 13.5732 8.28033 13.2803L10 11.5607L11.7197 13.2803C12.0126 13.5732 12.4874 13.5732 12.7803 13.2803C13.0732 12.9874 13.0732 12.5126 12.7803 12.2197L11.0607 10.5L12.7803 8.78033C13.0732 8.48744 13.0732 8.01256 12.7803 7.71967C12.4874 7.42678 12.0126 7.42678 11.7197 7.71967L10 9.43934L8.28033 7.71967Z" fill="#5448B2"/>
</g>
</svg>
