
<svg width="28" height="27" viewBox="0 0 28 27" fill="none" xmlns="http://www.w3.org/2000/svg">
<g clip-path="url(#clip0_8590_40709)">
<path d="M26.1059 9.49002L18.7589 2.17579C18.5771 1.99481 18.3619 1.9043 18.1132 1.9043C17.8644 1.9043 17.6491 1.99481 17.4675 2.17579C17.2857 2.35688 17.1947 2.57118 17.1947 2.81876V6.47588H13.9804C7.15934 6.47588 2.97431 8.39497 1.42434 12.2331C0.917473 13.5091 0.664062 15.095 0.664062 16.9902C0.664062 18.5711 1.27155 20.7186 2.48643 23.433C2.51508 23.4998 2.56514 23.6139 2.63701 23.7757C2.70046 23.9191 2.76503 24.0619 2.83071 24.2043C2.88831 24.3279 2.95053 24.4327 3.01743 24.5183C3.13212 24.6803 3.26611 24.7614 3.41921 24.7614C3.5627 24.7614 3.67513 24.7139 3.7565 24.6186C3.83767 24.5235 3.87833 24.4043 3.87833 24.2618C3.87833 24.1758 3.86637 24.0498 3.84239 23.8831C3.81847 23.7163 3.80646 23.6046 3.80646 23.5474C3.75856 22.9 3.73464 22.3139 3.73464 21.7904C3.73464 20.8286 3.81847 19.9667 3.98573 19.2048C4.15325 18.4428 4.3852 17.7834 4.68183 17.2262C4.97842 16.6688 5.36094 16.1882 5.82982 15.7834C6.29849 15.3786 6.80305 15.0478 7.34354 14.7906C7.88414 14.5333 8.52028 14.3309 9.25211 14.1834C9.98389 14.0358 10.7205 13.9334 11.4619 13.8762C12.2034 13.819 13.0429 13.7906 13.9804 13.7906H17.1947V17.4478C17.1947 17.6953 17.2855 17.9097 17.4671 18.0906C17.6491 18.2714 17.8642 18.362 18.1128 18.362C18.3615 18.362 18.5768 18.2714 18.7589 18.0906L26.1057 10.7761C26.2875 10.5951 26.3783 10.3809 26.3783 10.1333C26.3783 9.88571 26.2875 9.67135 26.1059 9.49002Z" fill="#5448B2"/>
</g>
<defs>
<clipPath id="clip0_8590_40709">
<rect width="26.6667" height="26.6667" fill="white" transform="translate(0.664062)"/>
</clipPath>
</defs>
</svg>
