<svg width="23" height="22" viewBox="0 0 23 22" fill="none" xmlns="http://www.w3.org/2000/svg">
<path fill-rule="evenodd" clip-rule="evenodd" d="M15.6077 0.778498C16.3088 0.778498 17.0088 0.877387 17.6743 1.10072C21.7754 2.43405 23.2532 6.93405 22.0188 10.8674C21.3188 12.8774 20.1743 14.7118 18.6754 16.2107C16.5299 18.2885 14.1754 20.1329 11.641 21.7218L11.3632 21.8896L11.0743 21.7107C8.53099 20.1329 6.16321 18.2885 3.99766 16.1996C2.50877 14.7007 1.36321 12.8774 0.652102 10.8674C-0.603454 6.93405 0.874324 2.43405 5.01988 1.07739C5.3421 0.966276 5.67432 0.888498 6.00766 0.845164H6.14099C6.45321 0.799609 6.76321 0.778498 7.07432 0.778498H7.19655C7.89655 0.799609 8.57432 0.921831 9.23099 1.14516H9.29655C9.34099 1.16628 9.37432 1.18961 9.39655 1.21072C9.6421 1.28961 9.87432 1.3785 10.0965 1.50072L10.5188 1.68961C10.6208 1.74402 10.7353 1.82717 10.8343 1.89902C10.897 1.94455 10.9535 1.98554 10.9965 2.01183C11.0147 2.02253 11.0331 2.03328 11.0517 2.04413C11.147 2.09974 11.2462 2.15767 11.3299 2.22183C12.5643 1.2785 14.0632 0.767387 15.6077 0.778498ZM18.5632 8.7785C19.0188 8.76628 19.4077 8.40072 19.441 7.93294V7.80072C19.4743 6.24405 18.531 4.83405 17.0965 4.28961C16.641 4.13294 16.141 4.3785 15.9743 4.84516C15.8188 5.31183 16.0632 5.82294 16.5299 5.9885C17.2421 6.25516 17.7188 6.95628 17.7188 7.73294V7.76739C17.6977 8.02183 17.7743 8.26739 17.9299 8.45628C18.0854 8.64516 18.3188 8.75516 18.5632 8.7785Z" fill="#D36262"/>
</svg>
