<svg width="18" height="23" viewBox="0 0 18 23" fill="none" xmlns="http://www.w3.org/2000/svg">
<path fill-rule="evenodd" clip-rule="evenodd" d="M5.55382 0.222656H12.4094C15.4205 0.222656 17.8538 1.41155 17.8872 4.43377V21.3004C17.8872 21.4893 17.8427 21.6782 17.7538 21.8449C17.6094 22.1115 17.3649 22.3115 17.0649 22.4004C16.776 22.4893 16.4538 22.4449 16.1872 22.2893L8.98715 18.6893L1.77604 22.2893C1.61049 22.3771 1.42049 22.4338 1.2316 22.4338C0.609375 22.4338 0.109375 21.9227 0.109375 21.3004V4.43377C0.109375 1.41155 2.55382 0.222656 5.55382 0.222656ZM4.79874 8.68937H13.1654C13.6432 8.68937 14.0321 8.29937 14.0321 7.81159C14.0321 7.3227 13.6432 6.93381 13.1654 6.93381H4.79874C4.32096 6.93381 3.93208 7.3227 3.93208 7.81159C3.93208 8.29937 4.32096 8.68937 4.79874 8.68937Z" fill="#DAA553"/>
</svg>
