
<svg width="24" height="24" viewBox="0 0 24 24" fill="none" xmlns="http://www.w3.org/2000/svg">
<path d="M22.9997 11.9997C22.9997 5.93469 18.0693 0.999878 12.0088 0.999878C5.94376 0.999878 1.00895 5.93469 1.00895 11.9997C1.00895 14.1028 1.5936 16.1224 2.70424 17.8692L1.07737 21.7689C1.01384 21.9197 0.99328 22.0851 1.01795 22.2469C1.04262 22.4086 1.11157 22.5604 1.21715 22.6854C1.32274 22.8104 1.46086 22.9037 1.61621 22.9551C1.77156 23.0065 1.9381 23.0138 2.09738 22.9764L7.07218 21.8293C8.60448 22.5983 10.2952 22.9987 12.0097 22.9986C18.0693 22.9995 22.9997 18.0647 22.9997 11.9997ZM12.0088 21.2225C10.4725 21.2225 8.95405 20.8377 7.61773 20.1101C7.42686 20.0055 7.20423 19.9749 6.99221 20.0239L3.38306 20.8564L4.52658 18.1144C4.58428 17.9762 4.60607 17.8255 4.58991 17.6765C4.57376 17.5275 4.52018 17.3851 4.43418 17.2624C3.3551 15.7201 2.7794 13.8819 2.78598 11.9997C2.78598 6.91383 6.92291 2.77691 12.0088 2.77691C17.0893 2.77691 21.2227 6.91383 21.2227 11.9997C21.2227 17.0855 17.0893 21.2225 12.0088 21.2225Z" fill="rgb(255, 59, 92)"/>
<path d="M15.5591 11.1113H12.8936V8.44577C12.8936 8.21012 12.8 7.98412 12.6333 7.81749C12.4667 7.65086 12.2407 7.55725 12.0051 7.55725C11.7694 7.55725 11.5434 7.65086 11.3768 7.81749C11.2102 7.98412 11.1166 8.21012 11.1166 8.44577V11.1113H8.45101C8.21537 11.1113 7.98937 11.2049 7.82274 11.3715C7.65611 11.5382 7.5625 11.7642 7.5625 11.9998C7.5625 12.2355 7.65611 12.4615 7.82274 12.6281C7.98937 12.7947 8.21537 12.8883 8.45101 12.8883H11.1166V15.5539C11.1166 15.7895 11.2102 16.0155 11.3768 16.1822C11.5434 16.3488 11.7694 16.4424 12.0051 16.4424C12.2407 16.4424 12.4667 16.3488 12.6333 16.1822C12.8 16.0155 12.8936 15.7895 12.8936 15.5539V12.8883H15.5591C15.7948 12.8883 16.0208 12.7947 16.1874 12.6281C16.354 12.4615 16.4476 12.2355 16.4476 11.9998C16.4476 11.7642 16.354 11.5382 16.1874 11.3715C16.0208 11.2049 15.7948 11.1113 15.5591 11.1113Z" fill="rgb(255, 59, 92)"/>
</svg>
