<svg width="40" height="40" viewBox="0 0 40 40" fill="none" xmlns="http://www.w3.org/2000/svg">
<path d="M15.0052 17.9167C12.4719 17.9167 10.4219 15.8667 10.4219 13.3333C10.4219 10.8 12.4719 8.75 15.0052 8.75C17.5385 8.75 19.5885 10.8 19.5885 13.3333C19.5885 15.8667 17.5385 17.9167 15.0052 17.9167ZM15.0052 11.25C14.4527 11.25 13.9228 11.4695 13.5321 11.8602C13.1414 12.2509 12.9219 12.7808 12.9219 13.3333C12.9219 13.8859 13.1414 14.4158 13.5321 14.8065C13.9228 15.1972 14.4527 15.4167 15.0052 15.4167C15.5577 15.4167 16.0876 15.1972 16.4783 14.8065C16.869 14.4158 17.0885 13.8859 17.0885 13.3333C17.0885 12.7808 16.869 12.2509 16.4783 11.8602C16.0876 11.4695 15.5577 11.25 15.0052 11.25Z" fill="#848484"/>
<path d="M25.0026 37.9166H15.0026C5.9526 37.9166 2.08594 34.05 2.08594 25V15C2.08594 5.94998 5.9526 2.08331 15.0026 2.08331H21.6693C22.3526 2.08331 22.9193 2.64998 22.9193 3.33331C22.9193 4.01665 22.3526 4.58331 21.6693 4.58331H15.0026C7.31927 4.58331 4.58594 7.31665 4.58594 15V25C4.58594 32.6833 7.31927 35.4166 15.0026 35.4166H25.0026C32.6859 35.4166 35.4193 32.6833 35.4193 25V16.6666C35.4193 15.9833 35.9859 15.4166 36.6693 15.4166C37.3526 15.4166 37.9193 15.9833 37.9193 16.6666V25C37.9193 34.05 34.0526 37.9166 25.0026 37.9166Z" fill="#848484"/>
<path d="M35.4167 9.58331H26.25C25.5667 9.58331 25 9.01665 25 8.33331C25 7.64998 25.5667 7.08331 26.25 7.08331H35.4167C36.1 7.08331 36.6667 7.64998 36.6667 8.33331C36.6667 9.01665 36.1 9.58331 35.4167 9.58331Z" fill="#848484"/>
<path d="M30.8372 14.1667C30.1539 14.1667 29.5872 13.6 29.5872 12.9167V3.75C29.5872 3.06667 30.1539 2.5 30.8372 2.5C31.5206 2.5 32.0872 3.06667 32.0872 3.75V12.9167C32.0872 13.6 31.5206 14.1667 30.8372 14.1667ZM4.45389 32.8333C4.18749 32.8315 3.92863 32.7447 3.71497 32.5855C3.50131 32.4264 3.344 32.2033 3.26591 31.9486C3.18783 31.6939 3.19304 31.4209 3.28081 31.1693C3.36857 30.9178 3.53431 30.7008 3.75389 30.55L11.9706 25.0333C13.7706 23.8333 16.2539 23.9667 17.8872 25.35L18.4372 25.8333C19.2706 26.55 20.6872 26.55 21.5039 25.8333L28.4372 19.8833C30.2206 18.3667 32.9872 18.3667 34.7706 19.8833L37.4872 22.2167C38.0039 22.6667 38.0706 23.45 37.6206 23.9833C37.1706 24.5 36.3872 24.5667 35.8539 24.1167L33.1372 21.7833C32.3039 21.0667 30.8872 21.0667 30.0706 21.7833L23.1372 27.7333C21.3706 29.25 18.5872 29.25 16.8039 27.7333L16.2539 27.25C15.4872 26.6 14.2206 26.5333 13.3706 27.1167L5.17056 32.6333C4.93723 32.7667 4.68723 32.8333 4.45389 32.8333Z" fill="#848484"/>
</svg>
