<svg width="1281" height="1280" viewBox="0 0 1281 1280" fill="none" xmlns="http://www.w3.org/2000/svg">
<g clip-path="url(#clip0_10623_16101)">
<path d="M948.5 313.601C949.428 313.596 949.428 313.596 950.372 313.592C952.444 313.583 954.508 313.587 956.58 313.59C958.06 313.586 959.548 313.582 961.028 313.577C965.06 313.567 969.108 313.566 973.108 313.568C976.468 313.569 979.828 313.565 983.188 313.561C991.116 313.552 999.028 313.552 1006.95 313.557C1015.11 313.562 1023.35 313.552 1031.51 313.535C1038.53 313.521 1045.59 313.516 1052.55 313.519C1056.75 313.52 1060.95 313.518 1065.11 313.507C1069.05 313.497 1073 313.498 1076.95 313.509C1078.4 313.511 1079.84 313.508 1081.29 313.502C1083.27 313.493 1085.24 313.5 1087.23 313.51C1088.08 313.501 1088.08 313.501 1088.96 313.492C1092.67 313.532 1095.18 314.264 1098.32 316.212C1103.01 321.108 1104.16 324.852 1104.12 331.572C1104.13 332.564 1104.13 332.564 1104.13 333.572C1104.14 335.796 1104.13 338.012 1104.13 340.236C1104.13 341.844 1104.13 343.46 1104.13 345.068C1104.14 349.524 1104.14 353.948 1104.13 358.428C1104.13 363.26 1104.14 368.108 1104.14 372.908C1104.15 381.388 1104.15 389.868 1104.15 398.348C1104.14 407.468 1104.14 416.588 1104.15 425.628C1104.15 426.203 1104.15 426.78 1104.15 427.372C1104.15 429.708 1104.15 432.052 1104.15 434.388C1104.16 458.148 1104.17 481.908 1104.16 505.668C1104.16 508.956 1104.16 512.236 1104.16 515.508C1104.16 516.161 1104.16 516.812 1104.16 517.484C1104.16 531.964 1104.16 546.364 1104.17 560.844C1104.17 564.14 1104.17 567.436 1104.17 570.764C1104.17 572.084 1104.17 573.412 1104.17 574.732C1104.17 575.388 1104.17 576.044 1104.17 576.716C1104.17 578.044 1104.17 579.372 1104.17 580.7C1104.18 618.38 1104.18 656.06 1104.18 693.5C1104.18 694.548 1104.18 694.548 1104.18 695.612C1104.18 703.388 1104.18 711.132 1104.18 718.972C1104.18 720.028 1104.18 720.028 1104.18 721.1C1104.18 726.94 1104.18 726.94 1104.17 729.66C1104.17 774.62 1104.18 819.26 1104.19 864.06C1104.2 875.42 1104.2 886.7 1104.2 898.06C1104.2 898.757 1104.2 899.452 1104.2 900.172C1104.21 921.612 1104.21 943.132 1104.21 964.572C1104.21 965.58 1104.21 965.58 1104.21 966.612C1104.21 981.412 1104.21 996.212 1104.21 1011.01C1104.21 1016.31 1104.21 1021.57 1104.21 1026.93C1104.21 1028.25 1104.21 1029.56 1104.21 1030.88C1104.21 1051.92 1104.22 1072.88 1104.23 1093.92C1104.24 1115.68 1104.24 1137.36 1104.23 1159.12C1104.23 1161.46 1104.22 1163.79 1104.22 1166.12C1104.22 1166.7 1104.22 1167.27 1104.22 1167.86C1104.22 1176.9 1104.22 1186.02 1104.23 1195.06C1104.24 1203.94 1104.24 1212.9 1104.23 1221.78C1104.22 1226.56 1104.22 1231.3 1104.23 1236.1C1104.24 1240.44 1104.24 1244.74 1104.23 1249.14C1104.22 1250.71 1104.23 1252.27 1104.23 1253.84C1104.24 1255.96 1104.23 1258.07 1104.22 1260.19C1104.23 1260.79 1104.23 1261.4 1104.24 1262.03C1104.18 1267.8 1102.38 1272.35 1098.32 1276.51C1094.28 1279.21 1091.31 1280.18 1086.4 1280.12C1085.79 1280.13 1085.18 1280.14 1084.55 1280.14C1082.52 1280.16 1080.49 1280.15 1078.46 1280.15C1076.99 1280.15 1075.53 1280.16 1074.06 1280.17C1070.1 1280.19 1066.14 1280.19 1062.14 1280.19C1058.83 1280.19 1055.51 1280.2 1052.22 1280.2C1044.4 1280.22 1036.54 1280.22 1028.78 1280.21C1020.7 1280.2 1012.7 1280.22 1004.62 1280.26C997.696 1280.28 990.784 1280.29 983.824 1280.29C979.688 1280.29 975.584 1280.29 971.424 1280.31C967.536 1280.33 963.648 1280.33 959.744 1280.31C958.32 1280.3 956.896 1280.31 955.472 1280.32C942.512 1280.43 942.512 1280.43 937.152 1276.18C932.4 1271.38 931.768 1267.06 931.784 1260.5C931.782 1259.51 931.782 1259.51 931.78 1258.51C931.776 1256.28 931.778 1254.06 931.78 1251.84C931.778 1250.23 931.776 1248.63 931.774 1247.02C931.769 1242.56 931.769 1238.14 931.77 1233.66C931.769 1228.83 931.765 1223.98 931.761 1219.18C931.754 1210.7 931.75 1202.22 931.749 1193.74C931.747 1184.62 931.744 1175.5 931.738 1166.46C931.738 1165.88 931.738 1165.31 931.737 1164.71C931.736 1162.38 931.734 1160.03 931.733 1157.7C931.716 1129.3 931.707 1100.98 931.7 1072.9C931.698 1063.7 931.695 1054.5 931.692 1045.3C931.692 1044.65 931.691 1044 931.691 1043.33C931.69 1040.71 931.69 1038.08 931.689 1035.46C931.674 990.578 931.662 945.858 931.656 901.058C931.656 897.53 931.655 894.01 931.655 890.498C931.655 889.799 931.654 889.098 931.654 888.378C931.653 881.29 931.652 874.218 931.651 867.098C931.651 865.674 931.651 864.258 931.651 862.834C931.645 817.154 931.627 771.634 931.601 726.034C931.582 693.234 931.565 660.434 931.559 627.634C931.559 626.96 931.559 626.282 931.559 625.594C931.556 610.794 931.555 595.994 931.554 581.194C931.553 575.242 931.553 569.274 931.553 563.354C931.552 562.702 931.552 562.05 931.552 561.378C931.551 540.338 931.539 519.378 931.523 498.338C931.506 477.218 931.5 456.018 931.508 434.898C931.509 431.978 931.51 429.058 931.511 426.098C931.511 425.525 931.511 424.954 931.511 424.362C931.514 415.322 931.505 406.202 931.493 397.162C931.48 388.282 931.48 379.322 931.491 370.442C931.496 365.666 931.497 360.922 931.483 356.122C931.471 351.786 931.473 347.482 931.487 343.082C931.49 341.522 931.487 339.954 931.478 338.394C931.467 336.274 931.476 334.162 931.489 332.042C931.481 331.437 931.473 330.834 931.465 330.21C931.523 325.834 932.681 322.482 935.089 318.77C939.313 314.754 942.641 313.73 948.369 313.762L948.5 313.601ZM960.82 341.841C960.556 641.841 960.292 941.841 960.02 1251.44C1019.62 1260.16 1019.62 1260.16 1075.22 1251.44C1076.92 1243.83 1076.13 1235.28 1076.12 1227.52C1076.12 1225.98 1076.13 1224.43 1076.13 1222.89C1076.13 1218.64 1076.13 1214.41 1076.13 1210.17C1076.12 1205.54 1076.13 1200.89 1076.13 1196.33C1076.13 1188.25 1076.13 1180.17 1076.13 1172.01C1076.13 1163.29 1076.13 1154.65 1076.13 1145.93C1076.13 1145.38 1076.13 1144.83 1076.13 1144.26C1076.13 1142.02 1076.13 1139.79 1076.13 1137.55C1076.13 1116.75 1076.13 1095.87 1076.13 1075.07C1076.13 1074.46 1076.13 1073.84 1076.13 1073.2C1076.13 1072.58 1076.13 1071.97 1076.13 1071.33C1076.13 1052.53 1076.13 1033.73 1076.13 1014.85C1076.13 1013.59 1076.13 1012.33 1076.13 1011.07C1076.13 1006.01 1076.13 1000.91 1076.13 995.873C1076.13 981.713 1076.13 967.553 1076.13 953.393C1076.13 952.749 1076.13 952.105 1076.13 951.441C1076.13 930.881 1076.13 910.401 1076.13 889.841C1076.13 889.175 1076.13 888.513 1076.13 887.825C1076.13 877.025 1076.13 866.225 1076.13 855.345C1076.12 812.465 1076.12 769.745 1076.13 726.545C1076.13 715.745 1076.13 704.945 1076.13 694.065C1076.13 693.398 1076.13 692.729 1076.13 692.049C1076.13 671.569 1076.13 651.009 1076.13 630.529C1076.13 629.885 1076.13 629.241 1076.13 628.577C1076.13 614.417 1076.13 600.337 1076.13 586.177C1076.13 581.121 1076.13 576.097 1076.13 570.977C1076.13 569.721 1076.13 568.465 1076.13 567.201C1076.13 548.401 1076.13 529.601 1076.13 510.721C1076.13 510.103 1076.13 509.489 1076.13 508.849C1076.13 508.233 1076.13 507.617 1076.13 506.985C1076.13 486.265 1076.13 465.465 1076.13 444.745C1076.13 442.521 1076.13 440.297 1076.13 438.073C1076.13 437.526 1076.13 436.977 1076.13 436.417C1076.13 428.257 1076.13 420.097 1076.13 412.017C1076.13 402.977 1076.13 393.937 1076.13 384.897C1076.13 380.337 1076.13 375.777 1076.13 371.217C1076.13 367.081 1076.13 362.977 1076.13 358.817C1076.12 357.321 1076.13 355.825 1076.13 354.329C1076.13 352.313 1076.13 350.297 1076.12 348.281C1076.13 347.69 1076.13 347.097 1076.13 346.489C1076.35 343.825 1076.35 343.825 1075.23 341.617C1073.77 341.528 1072.31 341.496 1070.86 341.485C1069.91 341.476 1068.96 341.467 1067.99 341.458C1066.94 341.452 1065.89 341.446 1064.81 341.44C1063.7 341.431 1062.59 341.422 1061.48 341.412C1058.47 341.387 1055.44 341.367 1052.44 341.348C1049.29 341.327 1046.13 341.303 1043 341.279C1037.71 341.24 1032.44 341.205 1027.08 341.171C1020.95 341.131 1014.84 341.087 1008.68 341.039C1003.43 340.998 998.202 340.96 992.922 340.924C989.778 340.903 986.634 340.881 983.482 340.856C980.53 340.833 977.57 340.813 974.602 340.797C972.994 340.787 971.386 340.773 969.786 340.759C968.834 340.755 967.882 340.75 966.906 340.746C965.666 340.737 965.666 340.737 964.394 340.729C962.434 340.684 962.434 340.684 960.834 341.617L960.82 341.841Z" fill="white"/>
<path d="M701.301 498.4C701.899 498.397 702.493 498.395 703.109 498.392C705.101 498.386 707.093 498.391 709.085 498.396C710.517 498.394 711.949 498.391 713.381 498.387C717.269 498.38 721.149 498.383 725.061 498.388C729.133 498.392 733.221 498.388 737.301 498.386C744.141 498.383 750.981 498.387 757.781 498.394C765.677 498.403 773.541 498.4 781.461 498.391C788.245 498.384 795.061 498.383 801.781 498.387C805.829 498.39 809.861 498.39 813.941 498.385C817.749 498.38 821.557 498.384 825.381 498.393C826.773 498.395 828.173 498.394 829.565 498.391C831.477 498.386 833.389 498.392 835.293 498.4C836.117 498.394 836.117 498.394 836.949 498.389C841.653 498.427 846.069 499.105 850.149 501.453C855.941 507.725 855.605 515.213 855.549 523.293C855.552 524.589 855.556 525.885 855.562 527.181C855.573 530.749 855.564 534.309 855.552 537.901C855.542 541.781 855.551 545.653 855.558 549.501C855.567 556.301 855.564 563.101 855.554 569.901C855.538 579.981 855.541 590.141 855.547 600.221C855.557 617.261 855.552 634.221 855.538 651.261C855.524 668.061 855.516 684.941 855.517 701.741C855.517 702.789 855.517 703.837 855.517 704.917C855.517 709.701 855.517 714.517 855.517 719.237C855.517 730.597 855.517 741.957 855.515 753.237C855.515 753.778 855.515 754.317 855.515 754.877C855.513 772.077 855.506 789.357 855.496 806.557C855.496 807.116 855.496 807.677 855.495 808.253C855.49 817.293 855.485 826.413 855.479 835.453C855.457 871.453 855.446 907.453 855.447 943.453C855.447 944.589 855.447 945.733 855.447 946.869C855.447 949.141 855.447 951.421 855.447 953.693C855.448 958.789 855.448 963.853 855.448 968.973C855.448 970.101 855.448 971.229 855.448 972.357C855.449 1002.52 855.441 1032.68 855.431 1062.76C855.431 1063.81 855.431 1064.86 855.43 1065.95C855.429 1070.18 855.427 1074.43 855.426 1078.67C855.421 1093.39 855.419 1108.11 855.418 1122.91C855.417 1141.87 855.41 1160.91 855.395 1179.87C855.387 1189.95 855.383 1199.95 855.385 1210.03C855.386 1216.73 855.382 1223.47 855.372 1230.11C855.367 1233.93 855.364 1237.76 855.369 1241.55C855.372 1245.03 855.369 1248.5 855.36 1251.95C855.358 1253.21 855.358 1254.45 855.362 1255.71C855.366 1257.41 855.361 1259.1 855.353 1260.81C855.352 1262.21 855.352 1262.21 855.352 1263.65C854.938 1269.17 853.472 1272.85 849.552 1276.77C845.504 1279.5 842.528 1280.45 837.632 1280.4C836.712 1280.41 836.712 1280.41 835.768 1280.42C833.72 1280.44 831.68 1280.43 829.632 1280.43C828.16 1280.43 826.688 1280.44 825.216 1280.46C821.232 1280.48 817.24 1280.48 813.216 1280.48C809.888 1280.48 806.552 1280.49 803.216 1280.5C795.352 1280.53 787.456 1280.53 779.616 1280.52C771.536 1280.52 763.376 1280.54 755.296 1280.59C748.328 1280.62 741.376 1280.64 734.416 1280.63C730.256 1280.63 726.096 1280.64 721.936 1280.66C718.024 1280.69 714.12 1280.69 710.176 1280.67C708.744 1280.66 707.312 1280.67 705.88 1280.69C692.92 1280.82 692.92 1280.82 687.64 1276.2C682.592 1269.5 682.608 1263.4 682.664 1255.4C682.66 1254.1 682.656 1252.8 682.65 1251.5C682.637 1247.93 682.645 1244.35 682.655 1240.78C682.663 1236.89 682.653 1233.01 682.645 1229.1C682.633 1222.29 682.634 1215.5 682.642 1208.62C682.654 1198.46 682.648 1188.38 682.638 1178.22C682.621 1160.14 682.623 1141.98 682.632 1123.9C682.64 1108.06 682.642 1092.22 682.638 1076.38C682.638 1075.33 682.638 1074.28 682.637 1073.2C682.636 1068.93 682.635 1064.64 682.634 1060.4C682.631 1048.48 682.63 1036.56 682.629 1024.64C682.629 1024.09 682.629 1023.55 682.628 1022.99C682.627 1005.71 682.631 988.429 682.638 971.149C682.638 970.588 682.638 970.029 682.638 969.453C682.642 960.333 682.646 951.213 682.65 942.093C682.665 905.933 682.665 869.853 682.649 834.093C682.645 824.973 682.641 815.853 682.638 806.813C682.638 806.252 682.637 805.693 682.637 805.117C682.63 787.837 682.627 770.557 682.629 753.277C682.629 752.735 682.629 752.189 682.629 751.637C682.63 739.717 682.632 727.797 682.635 715.957C682.636 711.165 682.637 706.357 682.638 701.557C682.638 700.509 682.639 699.461 682.639 698.381C682.643 682.541 682.638 666.701 682.63 650.861C682.621 632.861 682.623 614.861 682.641 596.861C682.65 586.781 682.651 576.701 682.639 566.621C682.632 559.893 682.636 553.181 682.65 546.461C682.658 542.621 682.66 538.789 682.649 534.941C682.638 531.453 682.643 527.965 682.659 524.461C682.662 523.205 682.66 521.949 682.652 520.693C682.613 514.277 682.595 509.013 686.268 503.493C690.556 499.205 695.308 498.453 701.148 498.493L701.301 498.4ZM711.221 527.44C711.142 529.016 711.122 530.6 711.122 532.184C711.12 533.224 711.118 534.264 711.116 535.336C711.118 536.504 711.12 537.68 711.123 538.848C711.122 540.08 711.121 541.32 711.12 542.552C711.117 545.976 711.12 549.408 711.123 552.872C711.126 556.592 711.124 560.304 711.123 563.992C711.121 570.512 711.122 577.032 711.126 583.592C711.131 593.272 711.131 603.032 711.13 612.712C711.129 629.032 711.132 645.352 711.136 661.672C711.141 677.832 711.144 693.992 711.145 710.152C711.145 711.152 711.145 712.16 711.145 713.192C711.146 718.288 711.146 723.352 711.146 728.472C711.148 764.632 711.153 800.712 711.161 836.472C711.163 845.272 711.164 853.992 711.166 862.792C711.166 863.335 711.166 863.88 711.167 864.44C711.172 889.72 711.175 914.92 711.177 940.2C711.177 941.84 711.177 943.48 711.177 945.12C711.179 956 711.18 966.88 711.181 977.68C711.183 999.84 711.185 1021.92 711.187 1044.08C711.187 1045.1 711.187 1046.11 711.188 1047.16C711.193 1099.8 711.202 1152.76 711.212 1205.56C711.212 1206.3 711.212 1207.04 711.213 1207.81C711.215 1222.37 711.218 1236.93 711.221 1251.49H826.421C826.451 1228.69 826.451 1228.69 826.481 1205.89C826.482 1205.09 826.483 1204.3 826.484 1203.48C826.552 1150.92 826.62 1098.68 826.684 1045.88C826.685 1044.86 826.686 1043.85 826.688 1042.81C826.714 1021.29 826.74 999.768 826.766 978.328C826.779 967.528 826.792 956.728 826.805 945.928C826.807 944.296 826.809 942.672 826.811 941.04C826.841 915.92 826.872 890.88 826.905 865.76C826.906 865.22 826.907 864.68 826.907 864.128C826.919 855.408 826.93 846.688 826.942 838.048C826.99 801.648 827.036 765.248 827.078 729.248C827.084 724.192 827.09 719.168 827.096 714.048C827.097 713.056 827.098 712.056 827.099 711.032C827.118 694.952 827.139 678.952 827.162 662.872C827.185 646.712 827.204 630.632 827.221 614.472C827.231 604.872 827.243 595.272 827.259 585.752C827.269 579.352 827.276 572.952 827.281 566.552C827.284 562.904 827.288 559.256 827.296 555.592C827.303 552.272 827.306 548.96 827.306 545.672C827.307 544.48 827.309 543.28 827.313 542.088C827.317 540.472 827.317 538.848 827.316 537.232C827.317 536.336 827.318 535.44 827.319 534.512C827.222 532.016 826.887 529.672 826.423 527.216C811.543 527.197 796.583 527.183 781.703 527.174C774.783 527.17 767.863 527.165 760.983 527.155C754.951 527.147 748.903 527.142 742.903 527.141C739.711 527.14 736.519 527.137 733.303 527.131C730.303 527.126 727.295 527.124 724.263 527.125C723.159 527.125 722.055 527.124 720.951 527.121C719.447 527.117 717.943 527.118 716.447 527.12C715.183 527.119 715.183 527.119 713.895 527.117C712.047 527.003 712.047 527.003 711.207 528.013L711.221 527.44Z" fill="white"/>
<path d="M509.3 638.399C511.364 638.409 513.428 638.417 515.5 638.425C521.996 638.452 528.46 638.482 535.02 638.517C542.468 638.558 549.9 638.586 557.34 638.601C563.148 638.615 568.94 638.64 574.78 638.675C578.228 638.695 581.676 638.71 585.1 638.713C588.324 638.715 591.548 638.733 594.78 638.762C595.956 638.77 597.14 638.773 598.316 638.77C609.356 638.746 609.356 638.746 614.076 642.426C618.244 646.922 618.284 650.746 618.516 656.586C618.567 657.802 618.567 657.802 618.619 659.05C619.011 669.53 618.984 680.01 618.972 690.49C618.97 693.586 618.972 696.682 618.973 699.77C618.975 705.882 618.973 712.01 618.97 718.09C618.965 725.418 618.966 732.73 618.966 740.09C618.967 758.65 618.958 777.13 618.948 795.69C618.945 800.714 618.942 805.77 618.939 810.73C618.923 841.93 618.902 873.13 618.874 904.33C618.868 911.538 618.861 918.73 618.855 925.93C618.854 926.826 618.853 927.722 618.853 928.642C618.827 957.762 618.819 986.802 618.821 1015.84C618.823 1045.76 618.809 1075.68 618.775 1105.44C618.77 1109.67 618.766 1113.92 618.761 1118.08C618.76 1118.91 618.759 1119.75 618.758 1120.6C618.744 1133.96 618.746 1147.4 618.754 1160.76C618.762 1174.2 618.752 1187.64 618.724 1201.08C618.708 1209.07 618.706 1217.08 618.722 1225C618.732 1230.33 618.724 1235.64 618.702 1241C618.69 1244.04 618.686 1247.08 618.702 1250.12C618.72 1253.39 618.701 1256.67 618.678 1259.96C618.689 1260.91 618.7 1261.85 618.712 1262.83C618.639 1268.06 617.996 1271.23 614.56 1275.31C608.456 1281.19 600.56 1280.21 592.64 1280.18C591.184 1280.18 589.728 1280.19 588.272 1280.2C584.328 1280.22 580.392 1280.22 576.432 1280.22C573.136 1280.22 569.84 1280.23 566.512 1280.23C558.736 1280.25 550.992 1280.25 543.152 1280.24C535.152 1280.23 527.152 1280.25 519.152 1280.29C512.264 1280.32 505.392 1280.33 498.512 1280.32C494.4 1280.32 490.272 1280.32 486.192 1280.34C482.328 1280.36 478.464 1280.36 474.592 1280.34C473.176 1280.34 471.76 1280.34 470.344 1280.35C456.584 1280.47 456.584 1280.47 450.824 1274.94C450.402 1274.59 449.984 1274.24 449.544 1273.88C446.984 1270.82 446.624 1267.04 446.624 1263.16C446.62 1262.27 446.615 1261.37 446.611 1260.45C446.615 1259.47 446.618 1258.49 446.622 1257.48C446.619 1256.43 446.617 1255.39 446.614 1254.31C446.607 1251.39 446.61 1248.47 446.615 1245.59C446.618 1242.42 446.612 1239.24 446.607 1236.07C446.6 1230.51 446.599 1224.95 446.602 1219.35C446.606 1211.11 446.602 1202.79 446.595 1194.55C446.583 1178.95 446.581 1163.27 446.583 1147.67C446.585 1135.59 446.583 1123.51 446.58 1111.51C446.579 1109.78 446.579 1108.04 446.579 1106.31C446.578 1103.71 446.577 1101.1 446.576 1098.49C446.57 1074.25 446.566 1049.93 446.569 1025.69C446.57 1024.78 446.57 1023.86 446.57 1022.91C446.57 1018.27 446.571 1013.63 446.572 1008.99C446.572 1008.07 446.572 1007.15 446.572 1006.2C446.573 1004.34 446.573 1002.47 446.573 1000.61C446.577 971.649 446.571 942.609 446.556 913.409C446.54 880.849 446.531 848.289 446.534 815.809C446.535 812.337 446.535 808.873 446.535 805.409C446.535 804.553 446.535 803.697 446.535 802.817C446.536 789.937 446.531 776.977 446.523 764.097C446.513 749.377 446.512 734.737 446.522 720.017C446.527 711.777 446.526 703.537 446.515 695.377C446.508 689.889 446.51 684.417 446.52 678.897C446.525 675.769 446.526 672.641 446.516 669.537C446.507 666.169 446.515 662.809 446.525 659.457C446.52 658.481 446.514 657.497 446.508 656.489C446.543 651.081 446.749 647.049 450.628 642.889C451.105 642.507 451.58 642.125 452.076 641.729C452.555 641.337 453.036 640.944 453.532 640.537C456.044 638.673 457.86 638.633 460.956 638.529C461.916 638.496 462.876 638.462 463.86 638.428C464.916 638.397 465.972 638.365 467.052 638.333C467.598 638.316 468.148 638.299 468.708 638.281C482.228 637.872 495.748 637.894 509.268 637.957L509.3 638.399ZM474.9 667.199C474.822 668.479 474.801 669.759 474.801 671.039C474.799 671.879 474.798 672.719 474.796 673.583C474.798 674.519 474.8 675.455 474.802 676.415C474.801 677.399 474.8 678.391 474.799 679.407C474.798 682.175 474.799 684.935 474.803 687.727C474.805 690.727 474.804 693.719 474.802 696.687C474.801 701.951 474.802 707.247 474.805 712.447C474.81 720.271 474.81 728.127 474.81 735.887C474.809 749.087 474.811 762.207 474.816 775.407C474.821 788.447 474.824 801.487 474.825 814.527C474.825 815.335 474.825 816.143 474.825 816.983C474.825 821.095 474.825 825.223 474.826 829.303C474.827 858.423 474.833 887.623 474.84 916.503C474.848 944.823 474.853 973.143 474.857 1001.3C474.857 1002.18 474.857 1003.05 474.857 1003.94C474.858 1012.74 474.859 1021.46 474.86 1030.26C474.862 1048.1 474.864 1065.94 474.867 1083.78C474.867 1084.61 474.867 1085.42 474.867 1086.27C474.874 1141.07 474.887 1195.87 474.901 1251.07C489.701 1251.19 504.501 1251.31 519.221 1251.43C526.085 1251.48 532.981 1251.53 539.781 1251.59C545.765 1251.64 551.781 1251.69 557.701 1251.73C560.869 1251.75 564.037 1251.78 567.221 1251.81C570.197 1251.83 573.181 1251.86 576.181 1251.88C577.277 1251.88 578.373 1251.89 579.469 1251.9C580.957 1251.92 582.453 1251.93 583.941 1251.94C584.781 1251.94 585.613 1251.95 586.477 1251.96C588.453 1252.01 588.453 1252.01 590.045 1251.07C590.058 1195.39 590.071 1139.87 590.078 1083.87C590.079 1083.05 590.079 1082.22 590.079 1081.37C590.081 1063.45 590.083 1045.61 590.085 1027.69C590.086 1018.89 590.087 1010.17 590.088 1001.37C590.089 1000.06 590.089 1000.06 590.089 998.725C590.092 970.405 590.098 942.085 590.106 913.925C590.113 884.805 590.118 855.765 590.12 826.725C590.12 822.621 590.12 818.485 590.12 814.405C590.121 813.597 590.121 812.789 590.121 811.957C590.122 798.917 590.125 785.877 590.13 772.837C590.135 759.717 590.137 746.677 590.135 733.557C590.135 725.773 590.136 717.957 590.141 710.197C590.144 705.005 590.144 699.797 590.142 694.597C590.141 691.637 590.141 688.669 590.144 685.717C590.148 682.533 590.146 679.357 590.143 676.197C590.145 675.261 590.147 674.325 590.149 673.365C590.148 672.525 590.146 671.685 590.144 670.821C590.144 670.092 590.144 669.365 590.144 668.613C590.226 666.981 590.226 666.981 589.248 666.173C587.784 666.094 586.312 666.072 584.848 666.072C583.896 666.069 582.936 666.067 581.952 666.065C580.88 666.066 579.816 666.068 578.744 666.07C577.624 666.069 576.504 666.067 575.392 666.065C572.344 666.062 569.304 666.063 566.272 666.066C563.096 666.068 559.912 666.066 556.752 666.065C551.416 666.063 546.112 666.065 540.752 666.069C534.568 666.073 528.352 666.072 522.192 666.067C516.896 666.064 511.632 666.063 506.272 666.065C503.104 666.067 499.936 666.067 496.752 666.064C493.776 666.062 490.792 666.063 487.792 666.068C486.696 666.069 485.6 666.069 484.504 666.067C483.016 666.065 481.52 666.068 480.032 666.072C478.776 666.072 478.776 666.072 477.496 666.073C475.656 665.963 475.656 665.963 474.824 666.977L474.9 667.199Z" fill="white"/>
<path d="M1001.3 0.000897046C1010.18 4.3929 1013.62 14.9609 1017.7 23.3609C1018.27 24.5369 1018.84 25.7209 1019.41 26.8969C1023.41 35.2169 1027.31 43.5369 1031.17 51.9369C1033.95 57.9769 1036.8 64.0169 1039.73 69.9369C1043.08 76.8729 1046.35 83.8569 1049.57 90.8169C1053.26 98.8169 1057.05 106.817 1060.93 114.737C1066.13 125.457 1071.17 136.177 1076.13 146.977C1076.94 148.753 1077.77 150.529 1078.61 152.297C1079.03 153.209 1079.46 154.121 1079.89 155.057C1080.28 155.873 1080.66 156.689 1081.05 157.529C1083.3 162.689 1084.25 166.409 1082.89 171.929C1080.56 176.513 1077.37 179.105 1072.49 180.729C1067.65 181.203 1064.33 180.348 1060.49 177.529C1054.57 170.953 1051.21 162.249 1047.53 154.329C1046.86 152.889 1046.18 151.457 1045.51 150.017C1041.39 141.217 1037.27 132.417 1033.27 123.617C1031.26 119.217 1029.16 114.897 1026.99 110.577C1023.98 104.609 1021.1 98.5769 1018.27 92.4969C1017.45 90.7529 1016.63 89.0089 1015.81 87.2649C1013.17 81.6489 1010.56 75.9849 1008 70.3849C1007.56 69.4169 1007.12 68.4409 1006.67 67.4729C1005.85 65.6729 1005.05 63.8729 1004.25 62.0729C1003.89 61.2793 1003.53 60.4889 1003.16 59.6649C1002.85 58.9753 1002.54 58.2889 1002.22 57.5769C1001.29 55.6809 1001.29 55.6809 998.869 54.3209C998.677 55.3049 998.484 56.2889 998.285 57.3049C997.205 62.1289 995.541 66.6649 993.821 71.3049C993.297 72.7129 993.297 72.7129 992.765 74.1449C979.405 109.345 961.245 143.425 939.885 174.145C938.741 175.817 937.605 177.497 936.477 179.177C930.733 187.657 924.797 195.977 918.637 204.217C917.317 205.985 916.005 207.753 914.693 209.521C910.709 214.881 906.693 220.161 902.373 225.281C900.917 227.041 899.469 228.809 898.037 230.585C890.549 239.865 882.917 248.985 874.917 257.785C873.309 259.561 871.717 261.345 870.133 263.137C869.697 263.631 869.261 264.121 868.813 264.633C867.541 266.113 867.541 266.113 866.085 268.385H864.485C864.307 268.825 864.129 269.265 863.945 269.721C862.569 272.153 860.713 273.937 858.729 275.873C858.325 276.273 857.921 276.673 857.505 277.089C856.217 278.361 854.929 279.625 853.633 280.897C852.337 282.169 851.041 283.441 849.753 284.721C848.953 285.514 848.145 286.305 847.337 287.089C845.241 289.137 845.241 289.137 843.681 291.593H842.081C841.876 292.058 841.671 292.521 841.46 293.001C840.388 294.969 839.196 296.273 837.612 297.857C837.024 298.447 836.436 299.041 835.828 299.649C835.191 300.28 834.556 300.913 833.9 301.561C832.916 302.545 832.916 302.545 831.908 303.553C830.516 304.945 829.124 306.329 827.724 307.721C825.604 309.825 823.484 311.945 821.372 314.057C820.012 315.409 818.66 316.761 817.3 318.113C816.356 319.049 816.356 319.049 815.404 320.009C812.076 323.313 808.684 326.497 805.164 329.529C802.612 331.737 800.172 334.065 797.724 336.377C794.708 339.225 791.676 342.041 788.524 344.777C785.284 347.593 782.172 350.537 779.084 353.497C774.764 357.585 770.364 361.465 765.724 365.177C763.708 366.817 761.788 368.537 759.876 370.305C756.332 373.537 752.628 376.481 748.836 379.425C745.1 382.329 741.476 385.345 737.876 388.385C734.444 391.313 730.964 394.185 727.476 397.025C726.06 398.177 724.644 399.337 723.236 400.497C713.156 408.817 702.836 416.737 692.356 424.417C691.1 425.337 689.844 426.257 688.596 427.177C687.952 427.65 687.308 428.121 686.644 428.609C681.756 432.209 676.884 435.881 672.084 439.569C661.284 447.889 650.164 455.809 638.964 463.489C638.32 463.928 637.676 464.369 637.012 464.817C634.004 466.873 630.988 468.921 627.972 470.977C624.236 473.521 620.5 476.073 616.772 478.649C601.812 488.969 586.692 499.129 571.332 508.649C568.308 510.529 565.292 512.417 562.292 514.305C560.644 515.337 558.996 516.369 557.34 517.393C552.9 520.161 548.46 522.945 544.06 525.713C533.18 532.633 522.06 539.153 510.86 545.553C505.892 548.385 500.94 551.233 495.98 554.113C495.1 554.618 494.228 555.121 493.324 555.641C489.052 558.105 484.764 560.585 480.524 563.097C470.844 568.817 461.084 574.137 451.084 579.337C446.66 581.609 442.284 583.985 437.964 586.393C421.804 595.273 405.324 603.833 388.604 611.593C385.588 612.993 382.62 614.465 379.644 615.969C362.844 624.449 345.884 632.449 328.604 639.809C324.772 641.441 320.956 643.113 317.164 644.801C296.764 653.841 275.964 661.921 255.084 669.841C254.507 670.059 253.932 670.278 253.332 670.503C246.492 673.087 239.652 675.527 232.692 677.839C231.992 678.074 231.292 678.308 230.572 678.55C225.572 680.222 220.572 681.871 215.532 683.503C213.836 684.055 212.148 684.614 210.452 685.174C208.068 685.962 205.676 686.735 203.284 687.503C202.574 687.739 201.868 687.977 201.132 688.221C195.988 689.845 190.332 691.157 185.212 689.101C181.636 687.213 179.556 684.845 177.996 681.133C176.796 677.085 177.028 673.669 178.596 669.773C182.66 662.813 191.636 660.653 198.836 658.333C200.54 657.802 202.236 657.261 203.932 656.717C206.356 655.936 208.788 655.157 211.22 654.389C217.58 652.365 223.94 650.301 230.26 648.229C231.204 647.921 231.204 647.921 232.164 647.607C247.684 642.511 262.964 636.726 278.084 630.566C280.34 629.654 282.604 628.759 284.868 627.863C302.708 620.815 320.308 612.982 337.828 605.142C339.868 604.23 341.908 603.319 343.948 602.415C352.828 598.455 361.628 594.335 370.348 590.015C371.324 589.538 371.324 589.538 372.316 589.055C404.556 573.375 404.556 573.374 436.156 556.574C439.332 554.814 442.54 553.102 445.756 551.39C462.316 542.51 478.716 533.551 494.716 523.711C500.964 519.879 507.276 516.175 513.676 512.511C528.556 504.031 542.876 494.75 557.196 485.39C560.124 483.478 563.06 481.582 565.996 479.686C566.545 479.331 567.092 478.976 567.66 478.607C570.5 476.775 573.34 474.934 576.14 473.102C586.78 466.222 597.34 459.182 607.66 451.822C610.508 449.798 613.372 447.782 616.22 445.774C617.356 444.974 618.484 444.174 619.62 443.374C626.42 438.574 626.42 438.574 628.1 437.374C629.236 436.574 630.372 435.774 631.5 434.974C634.316 432.982 637.14 430.998 639.98 429.03C647.852 423.55 655.42 417.75 663.02 411.83C665.284 410.054 667.564 408.303 669.844 406.559C674.644 402.879 679.444 399.159 684.164 395.439C687.524 392.823 690.908 390.239 694.324 387.703C704.804 379.911 714.644 371.383 724.484 362.903C725.924 361.655 727.372 360.415 728.812 359.175L730.14 358.015C733.228 355.375 733.228 355.375 735.012 355.375V353.775C736.372 352.559 736.372 352.559 738.308 351.071C746.388 344.767 754.068 338.031 761.588 331.071C763.716 329.103 765.876 327.175 768.036 325.247C771.028 322.567 773.876 319.775 776.676 316.927C778.172 315.455 779.716 314.079 781.316 312.711C784.54 309.943 787.5 306.951 790.436 303.911C792.052 302.335 793.668 300.87 795.38 299.406C799.804 295.566 803.94 291.407 808.02 287.247C809.404 285.855 810.796 284.471 812.188 283.087C816.332 278.943 820.428 274.767 824.188 270.367C825.892 268.407 827.724 266.607 829.588 264.791C831.652 262.775 833.34 261.047 834.94 258.639H836.54C836.718 258.197 836.897 257.759 837.081 257.303C838.473 254.855 840.265 253.191 842.289 251.239C845.889 247.711 849.289 244.095 852.529 240.199C853.213 239.399 853.897 238.599 854.601 237.775C858.465 233.247 862.257 228.655 865.961 224.015C868.217 221.175 870.497 218.359 872.785 215.535C873.233 214.982 873.681 214.431 874.145 213.863C876.561 210.887 879.017 207.943 881.513 205.063C886.833 198.871 891.673 192.422 896.553 185.782C896.959 185.233 897.369 184.686 897.785 184.118C916.905 158.278 933.625 130.838 948.265 102.518C949.201 100.686 950.145 98.8625 951.097 97.0385C965.017 72.1585 965.017 72.1585 971.737 45.2785C961.817 50.7905 951.897 56.3185 942.137 62.0785C934.817 66.3745 927.417 70.5585 920.057 74.7185C914.321 77.9185 908.617 81.1905 902.937 84.4785C896.449 88.2865 889.897 92.0145 883.337 95.6785C876.577 99.4385 869.897 103.27 863.177 107.198C862.377 107.666 861.577 108.134 860.753 108.614C857.929 110.27 855.105 111.926 852.273 113.582C850.721 114.494 849.169 115.398 847.617 116.302C846.809 116.777 845.993 117.254 845.161 117.742C840.705 120.054 836.681 121.126 831.721 120.502C827.369 119.022 824.705 116.198 822.121 112.502C820.857 108.71 820.545 104.99 821.961 101.142C826.001 93.9265 834.521 90.4225 841.481 86.5025C843.457 85.3905 845.425 84.2625 847.401 83.1425C848.425 82.5625 849.441 81.9825 850.465 81.4065C855.441 78.5825 860.385 75.7185 865.345 72.8465C872.505 68.7105 879.665 64.6065 886.865 60.5265C887.329 60.2617 887.793 59.9961 888.273 59.7265C892.041 57.5745 895.809 55.4225 899.553 53.2705C902.849 51.3905 906.145 49.5105 909.473 47.6305C910.168 47.2337 910.168 47.2337 910.873 46.8305C917.665 42.9505 924.473 39.0465 931.193 35.1505C938.369 31.0065 945.593 26.9105 952.793 22.8305C957.809 19.9985 962.793 17.1425 967.753 14.2705C969.545 13.2385 971.329 12.2065 973.121 11.1745C976.897 8.9985 980.665 6.8225 984.401 4.5425C995.441 -2.1455 995.441 -2.1455 1001.36 -0.297503L1001.3 0.000897046Z" fill="white"/>
<path d="M244.5 800.001C245.101 799.998 245.7 799.996 246.324 799.993C248.332 799.987 250.332 799.992 252.34 799.997C253.78 799.995 255.22 799.992 256.66 799.989C260.564 799.981 264.476 799.984 268.42 799.989C272.516 799.993 276.58 799.99 280.66 799.987C287.532 799.984 294.42 799.988 301.3 799.996C309.244 800.004 317.22 800.001 325.14 799.993C331.964 799.985 338.82 799.984 345.62 799.989C349.692 799.991 353.78 799.991 357.86 799.986C361.692 799.981 365.524 799.985 369.38 799.994C370.78 799.996 372.188 799.995 373.588 799.992C375.508 799.988 377.428 799.993 379.348 800.001C379.899 799.997 380.452 799.994 381.02 799.99C385.516 800.026 390.3 800.376 393.9 803.278C394.338 803.832 394.78 804.382 395.228 804.958C395.681 805.51 396.132 806.062 396.596 806.63C398.228 809.022 398.572 811.014 398.58 813.83C398.583 814.49 398.585 815.15 398.588 815.83C398.587 816.557 398.586 817.286 398.585 818.03C398.589 819.19 398.589 819.19 398.592 820.374C398.598 822.99 398.598 825.606 398.599 828.222C398.602 830.11 398.606 831.99 398.61 833.878C398.618 838.534 398.623 843.158 398.626 847.878C398.63 853.446 398.639 858.998 398.647 864.598C398.668 878.038 398.68 891.558 398.69 904.998C398.694 909.462 398.697 913.958 398.701 918.358C398.721 942.038 398.739 965.798 398.749 989.478C398.751 994.974 398.754 1000.44 398.756 1005.96C398.756 1006.64 398.757 1007.33 398.757 1008.03C398.767 1030.19 398.791 1052.27 398.825 1074.43C398.859 1097.15 398.88 1119.95 398.884 1142.67C398.885 1145.88 398.886 1149.09 398.886 1152.27C398.887 1152.9 398.887 1153.53 398.887 1154.18C398.89 1164.34 398.906 1174.5 398.927 1184.74C398.948 1194.98 398.954 1205.22 398.945 1215.46C398.941 1221.01 398.943 1226.58 398.963 1232.1C398.981 1237.17 398.981 1242.26 398.966 1247.3C398.963 1249.14 398.968 1250.97 398.98 1252.81C398.995 1255.31 398.986 1257.8 398.97 1260.29C398.98 1261.01 398.991 1261.73 399.001 1262.46C398.923 1268.16 397.009 1272.06 393.017 1276.06C386.817 1279.75 379.817 1279.15 372.857 1279.11C371.393 1279.12 369.929 1279.13 368.465 1279.14C364.505 1279.16 360.545 1279.15 356.545 1279.14C353.233 1279.14 349.921 1279.14 346.625 1279.15C338.809 1279.17 331.025 1279.16 323.185 1279.15C315.105 1279.13 307.105 1279.14 299.025 1279.17C292.097 1279.2 285.185 1279.2 278.225 1279.19C274.097 1279.19 269.985 1279.19 265.825 1279.21C261.937 1279.23 258.057 1279.22 254.145 1279.2C252.721 1279.19 251.297 1279.19 249.873 1279.21C236.913 1279.31 236.913 1279.31 232.353 1275.02C231.995 1274.61 231.637 1274.21 231.265 1273.78C230.622 1273.07 229.977 1272.37 229.313 1271.63C226.833 1267.95 227.145 1264.33 227.145 1260.03C227.143 1259.27 227.14 1258.5 227.137 1257.72C227.129 1255.14 227.126 1252.56 227.123 1249.98C227.119 1248.13 227.113 1246.27 227.108 1244.41C227.095 1239.82 227.087 1235.21 227.079 1230.65C227.071 1225.16 227.057 1219.69 227.044 1214.17C227.016 1202.81 226.993 1191.37 226.972 1180.01C226.956 1171.21 226.939 1162.41 226.921 1153.61C226.916 1151.08 226.911 1148.55 226.905 1146.02C226.904 1145.39 226.903 1144.77 226.901 1144.12C226.865 1126.44 226.83 1108.76 226.799 1091.08C226.798 1090.41 226.797 1089.74 226.795 1089.05C226.789 1085.67 226.784 1082.29 226.778 1078.89C226.776 1078.22 226.775 1077.55 226.774 1076.85C226.772 1075.49 226.769 1074.13 226.767 1072.77C226.73 1051.65 226.686 1030.53 226.637 1009.33C226.583 985.574 226.533 961.894 226.492 938.134C226.488 935.606 226.484 933.07 226.479 930.542C226.478 929.919 226.477 929.294 226.476 928.654C226.458 918.654 226.435 908.574 226.41 898.574C226.386 888.494 226.367 878.414 226.354 868.334C226.347 862.87 226.338 857.374 226.321 851.934C226.306 846.934 226.298 841.934 226.296 836.894C226.294 835.086 226.289 833.278 226.282 831.462C226.271 829.006 226.271 826.542 226.274 824.086C226.268 823.383 226.263 822.678 226.258 821.958C226.282 815.998 226.375 808.998 230.658 804.438C231.107 803.935 231.554 803.43 232.018 802.91C235.77 799.99 239.986 799.806 244.578 799.83L244.5 800.001ZM255.14 828.241V1249.84C314.74 1258.56 314.74 1258.56 370.34 1249.84V828.241H255.14Z" fill="white"/>
</g>
<defs>
<clipPath id="clip0_10623_16101">
<rect width="1280" height="1280" fill="white" transform="translate(0.5)"/>
</clipPath>
</defs>
</svg>
