<?xml version="1.0" encoding="UTF-8"?>
<svg version="1.1" viewBox="0 0 1600 1600" width="1280" height="1280" xmlns="http://www.w3.org/2000/svg">
<path transform="translate(1185 392)" d="m0 0c1.16-0.00574 1.16-0.00574 2.34-0.0116 2.59-0.0103 5.17-0.00634 7.76-0.00237 1.85-0.00435 3.71-0.00953 5.56-0.0155 5.04-0.0134 10.1-0.014 15.1-0.0114 4.2 0.00107 8.4-0.00381 12.6-0.00861 9.91-0.0111 19.8-0.0115 29.7-0.00549 10.2 0.00604 20.5-0.00627 30.7-0.0276 8.78-0.0176 17.6-0.0236 26.3-0.0204 5.25 0.00181 10.5-8.34e-4 15.7-0.0147 4.93-0.0126 9.87-0.0106 14.8 0.00241 1.81 0.00237 3.62-3.77e-4 5.43-0.00862 2.47-0.0104 4.94-0.00238 7.42 0.0103 1.07-0.0111 1.07-0.0111 2.17-0.0223 4.63 0.05 7.77 0.965 11.7 3.4 5.86 6.12 7.3 10.8 7.25 19.2 0.00439 1.24 0.00439 1.24 0.00888 2.5 0.00741 2.78 5.12e-4 5.55-0.00625 8.33 0.00239 2.01 0.00565 4.03 0.00972 6.04 0.00866 5.57 0.00478 11.1-0.00106 16.7-0.00415 6.04 0.00322 12.1 0.00915 18.1 0.00879 10.6 0.0101 21.2 0.0065 31.8-0.00387 11.4-0.00343 22.8 0.00231 34.1 3.59e-4 0.718 7.18e-4 1.44 0.00109 2.18 0.00147 2.92 0.00298 5.85 0.00452 8.77 0.0156 29.7 0.0183 59.4 0.0158 89.1-3.38e-4 4.11-6.61e-4 8.21-9.66e-4 12.3-6.1e-5 0.816-1.22e-4 1.63-1.85e-4 2.47-0.00127 18.1 0.00133 36.1 0.00471 54.2 7.71e-4 4.12 0.00152 8.24 0.00227 12.4 3.02e-4 1.65 6.04e-4 3.31 9.06e-4 4.96 1.5e-4 0.82 2.99e-4 1.64 4.54e-4 2.48 3.04e-4 1.66 6.08e-4 3.32 9.14e-4 4.98 0.00868 47.1 0.0133 94.2 0.00905 141-1.17e-4 1.31-1.17e-4 1.31-2.37e-4 2.64-8.73e-4 9.72-0.0018 19.4-0.00275 29.2-1.28e-4 1.32-1.28e-4 1.32-2.59e-4 2.66-7.11e-4 7.3-7.11e-4 7.3-0.00104 10.7-0.00554 56.2 0.00201 112 0.0208 168 0.00472 14.2 0.0094 28.3 0.0138 42.5 2.73e-4 0.871 5.47e-4 1.74 8.28e-4 2.64 0.00837 26.8 0.0131 53.7 0.0139 80.5 3.95e-5 1.26 3.95e-5 1.26 7.99e-5 2.55 5.41e-4 18.5 1.68e-4 37-0.00104 55.5-4.26e-4 6.62-7.91e-4 13.2-0.00113 19.9-8.53e-5 1.65-1.74e-4 3.29-2.67e-4 4.94-0.00145 26.3 0.00568 52.5 0.017 78.8 0.0116 27.2 0.0122 54.3 1.57e-4 81.5-0.00125 2.92-0.00246 5.83-0.00362 8.75-2.9e-4 0.716-5.81e-4 1.43-8.8e-4 2.17-0.00433 11.3 0.00141 22.7 0.0113 34 0.00952 11.1 0.00813 22.3-0.00421 33.4-0.0063 5.97-0.00776 11.9 0.00386 17.9 0.0105 5.42 0.00726 10.8-0.0071 16.3-0.00274 1.96-3.97e-4 3.91 0.00751 5.87 0.00997 2.65 0.00156 5.29-0.0115 7.94 0.00729 0.758 0.0146 1.52 0.0221 2.3-0.0739 7.21-2.33 12.9-7.4 18.1-5.05 3.38-8.76 4.59-14.9 4.52-0.763 0.00765-1.53 0.0153-2.31 0.0232-2.54 0.0205-5.08 0.0127-7.62 0.00474-1.83 0.0087-3.66 0.0191-5.49 0.031-4.96 0.0267-9.91 0.0279-14.9 0.0229-4.14-0.00214-8.29 0.00763-12.4 0.0172-9.78 0.0222-19.6 0.0231-29.3 0.011-10.1-0.0121-20.1 0.0125-30.2 0.0551-8.66 0.0353-17.3 0.0472-26 0.0407-5.17-0.00362-10.3 0.0016-15.5 0.0294-4.86 0.0252-9.72 0.0212-14.6-0.00482-1.78-0.00472-3.56 7.03e-4 -5.34 0.0172-16.2 0.14-16.2 0.14-22.9-5.18-5.94-6-6.73-11.4-6.71-19.6-0.00266-1.23-0.00266-1.23-0.00538-2.49-0.00476-2.78-0.00236-5.56-4.11e-5 -8.33-0.00195-2.01-0.00434-4.02-0.00713-6.03-0.00642-5.57-0.00656-11.1-0.00572-16.7-1.69e-4 -6.04-0.00607-12.1-0.0112-18.1-0.00825-10.6-0.0128-21.2-0.0147-31.8-0.00213-11.4-0.00638-22.8-0.0132-34.1-4.31e-4 -0.718-8.61e-4 -1.44-0.0013-2.18-0.00176-2.92-0.00353-5.85-0.00531-8.77-0.0216-35.5-0.0325-70.9-0.0415-106-0.00293-11.5-0.0063-23-0.00997-34.5-2.58e-4 -0.811-5.17e-4 -1.62-7.83e-4 -2.46-0.00105-3.28-0.00209-6.56-0.00315-9.84-0.018-56.1-0.0333-112-0.0408-168-5.84e-4 -4.41-0.00118-8.81-0.00178-13.2-1.18e-4 -0.874-2.36e-4 -1.75-3.58e-4 -2.65-0.0012-8.86-0.00241-17.7-0.00363-26.6-2.45e-4 -1.78-4.89e-4 -3.55-7.32e-4 -5.33-0.00779-57.1-0.0302-114-0.0627-171-0.0233-41-0.0449-82-0.052-123-1.47e-4 -0.843-2.94e-4 -1.69-4.46e-4 -2.55-0.00318-18.5-0.00524-37-0.00623-55.5-4.15e-4 -7.44-9.7e-4 -14.9-0.00156-22.3-6.07e-5 -0.815-1.21e-4 -1.63-1.84e-4 -2.47-0.00202-26.3-0.0163-52.5-0.0368-78.8-0.0206-26.4-0.0285-52.9-0.0189-79.3 0.00132-3.65 0.0025-7.3 0.00359-11 2.2e-4 -0.716 4.4e-4 -1.43 6.66e-4 -2.17 0.00312-11.3-0.00722-22.7-0.0231-34-0.0154-11.1-0.0162-22.3-0.00245-33.4 0.00694-5.97 0.00743-11.9-0.00956-17.9-0.0153-5.42-0.0124-10.8 0.00541-16.3 0.00316-1.95-4.45e-4 -3.91-0.0115-5.86-0.014-2.65-0.0034-5.29 0.0133-7.94-0.00992-0.756-0.0198-1.51-0.0301-2.29 0.0732-5.47 1.52-9.66 4.53-14.3 5.28-5.02 9.44-6.3 16.6-6.26zm15.4 35.3c-0.33 375-0.66 750-1 1137 74.5 10.9 74.5 10.9 144 0 2.12-9.51 1.14-20.2 1.13-29.9 0.00104-1.93 0.00253-3.86 0.0044-5.79 0.00389-5.31 0.00156-10.6-0.00178-15.9-0.00254-5.78 7.23e-4 -11.6 0.00324-17.3 0.00361-10.1 0.0035-20.2 9.53e-4 -30.4-0.00273-10.9-0.00333-21.7-0.00126-32.6 1.29e-4 -0.686 2.58e-4 -1.37 3.91e-4 -2.08 5.33e-4 -2.8 0.00108-5.59 0.00165-8.39 0.00529-26 0.00565-52.1 0.00285-78.1-8.28e-5 -0.771-1.66e-4 -1.54-2.51e-4 -2.34-8.29e-5 -0.772-1.66e-4 -1.54-2.51e-4 -2.34-0.00252-23.5-0.00317-47-0.00198-70.6 7.75e-5 -1.57 1.55e-4 -3.15 2.31e-4 -4.72 3.1e-4 -6.33 6.29e-4 -12.7 9.6e-4 -19 9.17e-4 -17.7 0.00149-35.4 0.00179-53.1 1.36e-5 -0.805 2.73e-5 -1.61 4.14e-5 -2.44 4.09e-4 -25.7-7.18e-4 -51.3-0.00289-77-7.02e-5 -0.832-1.4e-4 -1.66-2.13e-4 -2.52-0.00114-13.5-0.00236-27-0.00359-40.6-0.00486-53.6-0.00463-107 2.31e-4 -161 0.00122-13.5 0.00243-27 0.00357-40.6 7.04e-5 -0.833 1.41e-4 -1.67 2.13e-4 -2.52 0.00216-25.6 0.00307-51.3 0.00264-76.9-1.36e-5 -0.805-2.72e-5 -1.61-4.12e-5 -2.44-3.12e-4 -17.7-9.46e-4 -35.3-0.00187-53-3.29e-4 -6.32-6.42e-4 -12.6-9.51e-4 -19-7.74e-5 -1.57-1.56e-4 -3.14-2.36e-4 -4.72-0.00119-23.5-1.75e-4 -47 0.00235-70.6 8.28e-5 -0.772 1.66e-4 -1.54 2.51e-4 -2.34 8.27e-5 -0.77 1.65e-4 -1.54 2.51e-4 -2.33 0.00275-25.9 0.00175-51.9-0.00353-77.8-5.52e-4 -2.78-0.00109-5.56-0.00161-8.34-1.3e-4 -0.683-2.6e-4 -1.37-3.95e-4 -2.07-0.00186-10.2-9.15e-4 -20.4 0.00166-30.5 0.00284-11.3 0.00245-22.6-0.00251-33.9-0.0024-5.7-0.00316-11.4 4.06e-4 -17.1 0.0032-5.17 0.0019-10.3-0.00318-15.5-0.00102-1.87-3.15e-4 -3.74 0.00221-5.61 0.00316-2.52 2.84e-4 -5.04-0.00424-7.56 0.00239-0.738 0.00478-1.48 0.00724-2.24 0.279-3.33 0.279-3.33-1.13-6.09-1.82-0.111-3.64-0.151-5.46-0.165-1.18-0.0112-2.37-0.0225-3.59-0.034-1.31-0.00733-2.62-0.0147-3.97-0.0222-1.39-0.0112-2.77-0.0228-4.16-0.0349-3.77-0.0314-7.55-0.0565-11.3-0.0802-3.94-0.0255-7.89-0.0559-11.8-0.0855-6.62-0.0489-13.2-0.0936-19.9-0.136-7.67-0.0491-15.3-0.105-23-0.165-6.57-0.0513-13.1-0.0986-19.7-0.143-3.93-0.0263-7.86-0.0541-11.8-0.0854-3.69-0.0292-7.39-0.0535-11.1-0.0739-2.01-0.0123-4.02-0.0296-6.02-0.0471-1.19-0.00559-2.38-0.0112-3.6-0.017-1.55-0.0105-1.55-0.0105-3.14-0.0212-2.45-0.0554-2.45-0.0554-4.45 1.11z" fill="#000002"/>
<path transform="translate(876 623)" d="m0 0c0.747-0.00312 1.49-0.00624 2.26-0.00945 2.49-0.00795 4.98-0.00167 7.47 0.00463 1.79-0.00271 3.58-0.00627 5.37-0.0106 4.86-0.00911 9.71-0.00558 14.6 7.58e-4 5.09 0.00507 10.2 3.66e-4 15.3-0.00277 8.55-0.00364 17.1 0.00115 25.6 0.0107 9.87 0.0109 19.7 0.00736 29.6-0.00365 8.48-0.00909 17-0.0104 25.4-0.00512 5.06 0.00311 10.1 0.00355 15.2-0.00307 4.76-0.00579 9.52-0.00174 14.3 0.00979 1.74 0.00264 3.49 0.0019 5.23-0.00253 2.39-0.00549 4.78 0.00142 7.16 0.0114 1.03-0.00669 1.03-0.00669 2.07-0.0135 5.88 0.0472 11.4 0.895 16.5 3.83 7.24 7.84 6.82 17.2 6.75 27.3 0.00357 1.62 0.00889 3.24 0.0158 4.86 0.0139 4.46 0.00292 8.91-0.0121 13.4-0.0119 4.85-6.8e-4 9.69 0.00764 14.5 0.0114 8.5 0.00786 17-0.00537 25.5-0.0196 12.6-0.0164 25.3-0.0085 37.9 0.0126 21.3 0.0062 42.5-0.0112 63.8-0.0172 21-0.027 42.1-0.0267 63.1 1.53e-5 1.31 3.06e-5 2.62 4.63e-5 3.97 9.21e-5 5.98 2.63e-4 12 4.86e-4 17.9 5.01e-4 14.2-3.76e-4 28.4-0.00205 42.5-7.93e-5 0.676-1.59e-4 1.35-2.4e-4 2.05-0.00262 21.5-0.011 43.1-0.0235 64.6-4.06e-4 0.699-8.12e-4 1.4-0.00123 2.12-0.00662 11.3-0.0136 22.7-0.0206 34-0.0278 45-0.0411 90-0.0397 135 4.08e-5 1.42 8.12e-5 2.85 1.21e-4 4.27 8.04e-5 2.84 1.62e-4 5.69 2.44e-4 8.53 1.83e-4 6.37 3.52e-4 12.7 4.93e-4 19.1 3.15e-5 1.41 6.44e-5 2.82 9.87e-5 4.23 8.9e-4 37.7-0.00806 75.4-0.0207 113-4.41e-4 1.32-8.81e-4 2.63-0.00133 3.99-0.00178 5.29-0.00355 10.6-0.00538 15.9-0.00632 18.4-0.00934 36.8-0.0102 55.3-0.00119 23.7-0.00916 47.5-0.0289 71.2-0.0102 12.6-0.015 25.1-0.012 37.7 0.00147 8.38-0.00431 16.8-0.0161 25.1-0.00652 4.78-0.00985 9.56-0.00448 14.3 0.00481 4.35 4.89e-4 8.69-0.0112 13-0.00261 1.57-0.00185 3.13 0.00263 4.7 0.00559 2.12-0.00112 4.24-0.0109 6.37-8.74e-4 1.76-8.74e-4 1.76-0.00177 3.56-0.517 6.9-2.35 11.5-7.25 16.4-5.06 3.41-8.78 4.59-14.9 4.53-1.15 0.0125-1.15 0.0125-2.33 0.0253-2.56 0.0229-5.11 0.0174-7.67 0.0117-1.84 0.0103-3.68 0.0223-5.52 0.0358-4.98 0.031-9.97 0.0363-15 0.0351-4.16 8.31e-4 -8.33 0.0131-12.5 0.0249-9.83 0.0274-19.7 0.0327-29.5 0.0252-10.1-0.00724-20.3 0.0262-30.4 0.0791-8.71 0.0438-17.4 0.0605-26.1 0.056-5.2-0.00232-10.4 0.00595-15.6 0.0411-4.89 0.032-9.77 0.0301-14.7 0.00256-1.79-0.00445-3.58 0.00296-5.37 0.0233-16.2 0.172-16.2 0.172-22.8-5.61-6.31-8.37-6.29-16-6.22-26-0.00417-1.62-0.0101-3.25-0.0176-4.87-0.0156-4.47-0.00625-8.94 0.00711-13.4 0.0101-4.86-0.00289-9.72-0.013-14.6-0.0145-8.52-0.014-17-0.00381-25.6 0.0151-12.7 0.00741-25.3-0.00483-38-0.0211-22.6-0.0192-45.3-0.00768-67.9 0.0101-19.8 0.0127-39.6 0.00791-59.4-3.06e-4 -1.31-6.11e-4 -2.63-9.26e-4 -3.98-0.00125-5.33-0.00252-10.7-0.00384-16-0.00367-14.9-0.00595-29.8-0.00714-44.7-5.46e-5 -0.678-1.09e-4 -1.36-1.65e-4 -2.06-0.00164-21.6 0.00287-43.2 0.0116-64.8 2.81e-4 -0.701 5.62e-4 -1.4 8.52e-4 -2.12 0.00458-11.4 0.00946-22.8 0.0144-34.2 0.0194-45.2 0.0185-90.3-9.22e-4 -135-0.00488-11.4-0.00973-22.8-0.0143-34.1-2.82e-4 -0.701-5.64e-4 -1.4-8.54e-4 -2.12-0.00862-21.6-0.0123-43.2-0.0105-64.8 5.43e-5 -0.678 1.09e-4 -1.36 1.65e-4 -2.05 0.00125-14.9 0.00378-29.8 0.00748-44.6 0.00148-5.99 0.00287-12 0.00427-18 3.16e-4 -1.31 6.33e-4 -2.62 9.59e-4 -3.97 0.00455-19.8-7.79e-4 -39.6-0.0109-59.4-0.0114-22.5-0.00861-45 0.0131-67.5 0.0118-12.6 0.0125-25.2-0.00258-37.8-0.00895-8.41-0.00343-16.8 0.014-25.2 0.00955-4.8 0.0127-9.59-0.00162-14.4-0.0129-4.36-0.00747-8.72 0.0127-13.1 0.00404-1.57 0.00134-3.14-0.00882-4.71-0.0483-8.02-0.0714-14.6 4.52-21.5 5.36-5.36 11.3-6.3 18.6-6.25zm12.4 36.3c-0.0982 1.97-0.124 3.95-0.124 5.93-0.00225 1.3-0.00449 2.6-0.00681 3.94 0.00257 1.46 0.00522 2.93 0.00796 4.39-7.39e-4 1.54-0.00192 3.09-0.0035 4.63-0.00309 4.28 1.23e-4 8.57 0.00428 12.9 0.00342 4.65 0.00107 9.29-5.77e-4 13.9-0.00208 8.15-4.19e-4 16.3 0.00364 24.5 0.00602 12.1 0.00634 24.3 0.00546 36.4-0.00132 20.4 0.00204 40.8 0.00802 61.2 0.00591 20.2 0.00976 40.4 0.0109 60.6 6.87e-5 1.25 1.37e-4 2.51 2.08e-4 3.8 3.38e-4 6.37 6.4e-4 12.7 9.27e-4 19.1 0.0021 45.2 0.00884 90.3 0.0183 135 0.00229 11 0.00457 21.9 0.00677 32.9 1.37e-4 0.679 2.74e-4 1.36 4.15e-4 2.06 0.00634 31.6 0.0101 63.1 0.0131 94.7 1.98e-4 2.05 3.97e-4 4.1 5.97e-4 6.15 0.00132 13.6 0.00259 27.2 0.00384 40.7 0.00254 27.7 0.00536 55.3 0.00835 83 1.37e-4 1.27 2.75e-4 2.54 4.16e-4 3.85 0.00713 65.8 0.0185 132 0.0308 198 1.73e-4 0.927 3.47e-4 1.85 5.25e-4 2.81 0.00341 18.2 0.00702 36.4 0.0106 54.6h144c0.0374-28.5 0.0374-28.5 0.0746-57 0.00129-0.993 0.00258-1.99 0.00391-3.01 0.0854-65.7 0.17-131 0.25-197 0.00155-1.27 0.0031-2.54 0.00469-3.84 0.0328-26.9 0.0654-53.8 0.0978-80.6 0.0163-13.5 0.0326-27 0.0489-40.5 0.00246-2.04 0.00493-4.07 0.00739-6.11 0.0379-31.4 0.0767-62.7 0.118-94.1 8.87e-4 -0.675 0.00177-1.35 0.00269-2.04 0.0143-10.9 0.0287-21.8 0.0431-32.6 0.0602-45.5 0.117-91 0.17-136 0.00732-6.32 0.0147-12.6 0.022-19 0.00145-1.24 0.0029-2.49 0.0044-3.77 0.0235-20.1 0.0504-40.1 0.0787-60.2 0.0283-20.2 0.053-40.3 0.0739-60.5 0.0125-12 0.0279-24 0.0473-35.9 0.0126-8 0.0217-16 0.0277-24 0.00354-4.56 0.00871-9.12 0.0183-13.7 0.00867-4.15 0.0127-8.29 0.0131-12.4 9.39e-4 -1.49 0.00358-2.99 0.0081-4.48 0.00587-2.02 0.00495-4.05 0.00369-6.07 0.0014-1.12 0.00281-2.24 0.00425-3.4-0.122-3.12-0.54-6.05-1.12-9.12-18.6-0.0233-37.3-0.041-55.9-0.0518-8.65-0.00516-17.3-0.0122-25.9-0.0236-7.54-0.00995-15.1-0.0164-22.6-0.0186-3.99-0.00131-7.98-0.00439-12-0.0116-3.75-0.00676-7.51-0.00889-11.3-0.00738-1.38-2.76e-4 -2.76-0.00228-4.14-0.0061-1.88-0.00494-3.76-0.00319-5.63-0.00105-1.58-0.00138-1.58-0.00138-3.19-0.00279-2.31-0.143-2.31-0.143-3.36 1.12z" fill="#000002"/>
<path transform="translate(636 798)" d="m0 0c2.58 0.0118 5.16 0.0224 7.75 0.0327 8.12 0.0329 16.2 0.0707 24.4 0.115 9.31 0.0511 18.6 0.0852 27.9 0.105 7.26 0.0167 14.5 0.0485 21.8 0.0918 4.31 0.0254 8.62 0.0444 12.9 0.0474 4.03 0.00315 8.06 0.0251 12.1 0.0616 1.47 0.0101 2.95 0.0135 4.42 0.00947 13.8-0.0302 13.8-0.0302 19.7 4.57 5.21 5.62 5.26 10.4 5.55 17.7 0.0632 1.52 0.0632 1.52 0.128 3.08 0.49 13.1 0.457 26.2 0.442 39.3-0.00324 3.87-6.19e-4 7.74 0.00117 11.6 0.00262 7.64-1.56e-4 15.3-0.00471 22.9-0.00522 9.16-0.00462 18.3-0.00408 27.5 9.7e-4 23.2-0.0101 46.3-0.0235 69.5-0.00361 6.28-0.00697 12.6-0.0103 18.8-0.0209 39-0.046 78-0.0813 117-0.00809 9.01-0.0161 18-0.0241 27-9.93e-4 1.12-0.00199 2.24-0.00301 3.39-0.0321 36.4-0.0421 72.7-0.0397 109 0.00233 37.4-0.0147 74.8-0.0572 112-6e-3 5.28-0.0118 10.6-0.0175 15.8-0.00113 1.04-0.00225 2.08-0.00341 3.15-0.0176 16.7-0.015 33.5-0.00498 50.2 0.00955 16.8-0.00282 33.6-0.0376 50.4-0.02 9.98-0.0234 20-0.00287 29.9 0.012 6.66 0.0024 13.3-0.025 20-0.015 3.8-0.0205 7.6 4.37e-4 11.4 0.0223 4.09-0.00166 8.18-0.0302 12.3 0.0139 1.18 0.0277 2.36 0.042 3.58-0.0908 6.54-0.895 10.5-5.19 15.6-7.63 7.35-17.5 6.13-27.4 6.09-1.82 0.0087-3.64 0.0191-5.46 0.031-4.93 0.0267-9.85 0.0279-14.8 0.0229-4.12-0.00214-8.24 0.00764-12.4 0.0172-9.72 0.0222-19.4 0.0231-29.2 0.011-10-0.0121-20 0.0126-30 0.0551-8.61 0.0353-17.2 0.0472-25.8 0.0407-5.14-0.00362-10.3 0.0016-15.4 0.0294-4.83 0.0252-9.66 0.0212-14.5-0.00482-1.77-0.00472-3.54 7.02e-4 -5.31 0.0172-17.2 0.149-17.2 0.149-24.4-6.77-0.527-0.436-1.05-0.872-1.6-1.32-3.2-3.83-3.65-8.55-3.65-13.4-0.00526-1.12-0.0105-2.24-0.0159-3.39 0.0044-1.22 0.00879-2.45 0.0133-3.71-0.00321-1.31-0.00641-2.62-0.00972-3.97-0.00863-3.65-0.00479-7.29 0.00106-10.9 0.00416-3.96-0.00323-7.93-0.00915-11.9-0.00877-6.95-0.0101-13.9-0.0065-20.9 0.0053-10.3-7.8e-4 -20.7-0.00908-31-0.0153-19.5-0.0169-39.1-0.0145-58.6 0.00183-15.1 7.7e-5 -30.2-0.00422-45.2-6.02e-4 -2.16-0.0012-4.33-0.0018-6.49-9.07e-4 -3.26-0.00182-6.52-0.00273-9.78-0.00843-30.3-0.0128-60.7-0.00859-91 1.56e-4 -1.14 3.13e-4 -2.29 4.74e-4 -3.47 8.06e-4 -5.8 0.00165-11.6 0.00251-17.4 1.71e-4 -1.15 3.42e-4 -2.3 5.18e-4 -3.49 3.47e-4 -2.33 6.95e-4 -4.66 0.00105-6.99 0.00536-36.2-0.00258-72.5-0.021-109-0.0207-40.7-0.0314-81.4-0.0274-122 3.95e-4 -4.34 7.57e-4 -8.67 0.0011-13 9.07e-5 -1.07 1.81e-4 -2.14 2.75e-4 -3.24 0.00117-16.1-0.00549-32.3-0.0161-48.4-0.012-18.4-0.0136-36.7-0.00121-55.1 0.00665-10.3 0.00495-20.6-0.00859-30.8-0.00821-6.86-0.00559-13.7 0.00598-20.6 0.00629-3.91 0.00777-7.82-0.00386-11.7-0.0124-4.21-0.00176-8.41 0.0113-12.6-0.00731-1.22-0.0146-2.45-0.0221-3.71 0.0438-6.76 0.302-11.8 5.15-17 0.597-0.478 1.19-0.956 1.81-1.45 0.599-0.491 1.2-0.982 1.82-1.49 3.14-2.33 5.41-2.38 9.28-2.51 1.2-0.0419 2.4-0.0838 3.63-0.127 1.32-0.0391 2.64-0.0783 3.99-0.119 0.683-0.0211 1.37-0.0422 2.07-0.0639 16.9-0.512 33.8-0.484 50.7-0.406zm-43 36c-0.0975 1.6-0.124 3.2-0.124 4.8-0.00225 1.05-0.00449 2.1-0.00681 3.18 0.00263 1.17 0.00525 2.34 0.00796 3.54-0.00115 1.23-0.00231 2.47-0.0035 3.74-0.00221 3.46 1.23e-4 6.91 0.00428 10.4 0.00342 3.75 0.00107 7.49-5.77e-4 11.2-0.00208 6.58-4.2e-4 13.2 0.00364 19.7 0.00602 9.78 0.00634 19.6 0.00546 29.3-0.00132 16.5 0.00204 32.9 0.00802 49.4 0.00591 16.3 0.00976 32.6 0.0109 48.9 6.87e-5 1.01 1.37e-4 2.02 2.08e-4 3.07 3.38e-4 5.14 6.4e-4 10.3 9.27e-4 15.4 0.0021 36.4 0.00884 72.9 0.0183 109 0.00918 35.4 0.0163 70.8 0.0205 106 1.32e-4 1.09 2.63e-4 2.18 3.99e-4 3.3 0.00132 11 0.00259 21.9 0.00384 32.9 0.00254 22.3 0.00536 44.6 0.00835 66.9 1.37e-4 1.03 2.75e-4 2.05 4.16e-4 3.11 0.00921 68.5 0.0251 137 0.0419 206 18.5 0.154 37 0.302 55.4 0.443 8.58 0.0657 17.2 0.133 25.7 0.205 7.48 0.0627 15 0.122 22.4 0.177 3.96 0.0292 7.92 0.0602 11.9 0.0955 3.72 0.0331 7.45 0.0615 11.2 0.0862 1.37 0.00993 2.74 0.0216 4.11 0.0351 1.86 0.0181 3.73 0.0295 5.59 0.0405 1.05 0.0083 2.09 0.0166 3.17 0.0251 2.47 0.0601 2.47 0.0601 4.46-1.11 0.0171-69.6 0.033-139 0.0423-209 1.38e-4 -1.03 2.76e-4 -2.06 4.18e-4 -3.12 0.00299-22.4 0.00576-44.7 0.0083-67.1 0.00125-11 0.00254-21.9 0.00387-32.9 1.96e-4 -1.64 1.96e-4 -1.64 3.96e-4 -3.31 0.00427-35.4 0.0118-70.8 0.021-106 0.00942-36.4 0.0156-72.7 0.0176-109 2.88e-4 -5.13 6.14e-4 -10.3 9.62e-4 -15.4 6.74e-5 -1.01 1.35e-4 -2.02 2.04e-4 -3.06 0.00118-16.3 0.00583-32.6 0.0118-48.9 0.00587-16.4 0.00814-32.7 0.00667-49.1-7.64e-4 -9.73 0.00129-19.5 0.0073-29.2 0.00373-6.49 0.00388-13 0.00103-19.5-0.00152-3.7-0.0014-7.41 0.00305-11.1 0.00475-3.98 0.00188-7.95-0.00184-11.9 0.00263-1.17 0.00525-2.34 0.00796-3.54-0.00225-1.05-0.00449-2.1-0.00681-3.18 1.56e-4 -0.911 3.12e-4 -1.82 4.73e-4 -2.76 0.102-2.04 0.102-2.04-1.12-3.05-1.83-0.0986-3.67-0.126-5.5-0.127-1.19-0.00282-2.39-0.00564-3.62-0.00854-1.34 0.00194-2.67 0.00399-4.01 0.00613-1.4-0.00135-2.8-0.00313-4.19-0.00531-3.81-0.00457-7.61-0.00278-11.4 3.79e-4 -3.97 0.00252-7.95 1.86e-4 -11.9-0.00139-6.67-0.00182-13.3 5.85e-4 -20 0.00534-7.73 0.00544-15.5 0.00368-23.2-0.00183-6.62-0.00453-13.2-0.00518-19.9-0.00256-3.96 0.00156-7.92 0.00176-11.9-0.00154-3.72-0.00288-7.45-9.03e-4 -11.2 0.00489-1.37 0.00133-2.74 9.33e-4 -4.11-0.00126-1.86-0.00271-3.73 0.00128-5.59 0.00568-1.57 5.66e-4 -1.57 5.66e-4 -3.17 0.00114-2.3-0.137-2.3-0.137-3.34 1.13z" fill="#000002"/>
<path transform="translate(1251)" d="m0 0c11.1 5.49 15.4 18.7 20.5 29.2 0.711 1.47 1.42 2.95 2.13 4.42 5 10.4 9.88 20.8 14.7 31.3 3.48 7.55 7.04 15.1 10.7 22.5 4.19 8.67 8.28 17.4 12.3 26.1 4.62 10 9.36 20 14.2 29.9 6.51 13.4 12.8 26.8 19 40.3 1.02 2.22 2.06 4.44 3.1 6.65 0.533 1.14 1.07 2.28 1.61 3.45 0.48 1.02 0.96 2.04 1.45 3.09 2.81 6.45 3.99 11.1 2.3 18-2.92 5.73-6.91 8.97-13 11-6.05 0.593-10.2-0.476-15-4-7.4-8.22-11.6-19.1-16.2-29-0.843-1.8-1.69-3.59-2.53-5.39-5.15-11-10.3-22-15.3-33-2.51-5.5-5.14-10.9-7.85-16.3-3.76-7.46-7.36-15-10.9-22.6-1.02-2.18-2.05-4.36-3.07-6.54-3.3-7.02-6.57-14.1-9.77-21.1-0.552-1.21-1.1-2.43-1.66-3.64-1.02-2.25-2.03-4.5-3.03-6.75-0.45-0.992-0.899-1.98-1.36-3.01-0.385-0.862-0.77-1.72-1.17-2.61-1.16-2.37-1.16-2.37-4.19-4.07-0.241 1.23-0.482 2.46-0.73 3.73-1.35 6.03-3.43 11.7-5.58 17.5-0.655 1.76-0.655 1.76-1.32 3.55-16.7 44-39.4 86.6-66.1 125-1.43 2.09-2.85 4.19-4.26 6.29-7.18 10.6-14.6 21-22.3 31.3-1.65 2.21-3.29 4.42-4.93 6.63-4.98 6.7-10 13.3-15.4 19.7-1.82 2.2-3.63 4.41-5.42 6.63-9.36 11.6-18.9 23-28.9 34-2.01 2.22-4 4.45-5.98 6.69-0.545 0.617-1.09 1.23-1.65 1.87-1.59 1.85-1.59 1.85-3.41 4.69h-2c-0.223 0.55-0.446 1.1-0.676 1.67-1.72 3.04-4.04 5.27-6.52 7.69-0.505 0.5-1.01 1-1.53 1.52-1.61 1.59-3.22 3.17-4.84 4.76-1.62 1.59-3.24 3.18-4.85 4.78-1 0.991-2.01 1.98-3.02 2.96-2.62 2.56-2.62 2.56-4.57 5.63h-2c-0.256 0.581-0.512 1.16-0.776 1.76-1.34 2.46-2.83 4.09-4.81 6.07-0.735 0.738-1.47 1.48-2.23 2.24-0.796 0.789-1.59 1.58-2.41 2.39-1.23 1.23-1.23 1.23-2.49 2.49-1.74 1.74-3.48 3.47-5.23 5.21-2.65 2.63-5.3 5.28-7.94 7.92-1.7 1.69-3.39 3.38-5.09 5.07-1.18 1.17-1.18 1.17-2.37 2.37-4.16 4.13-8.4 8.11-12.8 11.9-3.19 2.76-6.24 5.67-9.3 8.56-3.77 3.56-7.56 7.08-11.5 10.5-4.05 3.52-7.94 7.2-11.8 10.9-5.4 5.11-10.9 9.96-16.7 14.6-2.52 2.05-4.92 4.2-7.31 6.41-4.43 4.04-9.06 7.72-13.8 11.4-4.67 3.63-9.2 7.4-13.7 11.2-4.29 3.66-8.64 7.25-13 10.8-1.77 1.44-3.54 2.89-5.3 4.34-12.6 10.4-25.5 20.3-38.6 29.9-1.57 1.15-3.14 2.3-4.7 3.45-0.805 0.591-1.61 1.18-2.44 1.79-6.11 4.5-12.2 9.09-18.2 13.7-13.5 10.4-27.4 20.3-41.4 29.9-0.805 0.549-1.61 1.1-2.44 1.66-3.76 2.57-7.53 5.13-11.3 7.7-4.67 3.18-9.34 6.37-14 9.59-18.7 12.9-37.6 25.6-56.8 37.5-3.78 2.35-7.55 4.71-11.3 7.07-2.06 1.29-4.12 2.58-6.19 3.86-5.55 3.46-11.1 6.94-16.6 10.4-13.6 8.65-27.5 16.8-41.5 24.8-6.21 3.54-12.4 7.1-18.6 10.7-1.1 0.631-2.19 1.26-3.32 1.91-5.34 3.08-10.7 6.18-16 9.32-12.1 7.15-24.3 13.8-36.8 20.3-5.53 2.84-11 5.81-16.4 8.82-20.2 11.1-40.8 21.8-61.7 31.5-3.77 1.75-7.48 3.59-11.2 5.47-21 10.6-42.2 20.6-63.8 29.8-4.79 2.04-9.56 4.13-14.3 6.24-25.5 11.3-51.5 21.4-77.6 31.3-0.721 0.273-1.44 0.546-2.19 0.828-8.55 3.23-17.1 6.28-25.8 9.17-0.875 0.293-1.75 0.586-2.65 0.889-6.25 2.09-12.5 4.15-18.8 6.19-2.12 0.691-4.23 1.39-6.35 2.09-2.98 0.984-5.97 1.95-8.96 2.91-0.887 0.296-1.77 0.593-2.69 0.898-6.43 2.03-13.5 3.67-19.9 1.1-4.47-2.36-7.07-5.32-9.02-9.96-1.5-5.06-1.21-9.33 0.75-14.2 5.08-8.7 16.3-11.4 25.3-14.3 2.13-0.663 4.25-1.34 6.37-2.02 3.03-0.976 6.07-1.95 9.11-2.91 7.95-2.53 15.9-5.11 23.8-7.7 1.18-0.385 1.18-0.385 2.38-0.778 19.4-6.37 38.5-13.6 57.4-21.3 2.82-1.14 5.65-2.26 8.48-3.38 22.3-8.81 44.3-18.6 66.2-28.4 2.55-1.14 5.1-2.28 7.65-3.41 11.1-4.95 22.1-10.1 33-15.5 1.22-0.596 1.22-0.596 2.46-1.2 40.3-19.6 40.3-19.6 79.8-40.6 3.97-2.2 7.98-4.34 12-6.48 20.7-11.1 41.2-22.3 61.2-34.6 7.81-4.79 15.7-9.42 23.7-14 18.6-10.6 36.5-22.2 54.4-33.9 3.66-2.39 7.33-4.76 11-7.13 0.687-0.444 1.37-0.888 2.08-1.35 3.55-2.29 7.1-4.59 10.6-6.88 13.3-8.6 26.5-17.4 39.4-26.6 3.56-2.53 7.14-5.05 10.7-7.56 1.42-1 2.83-2 4.25-3 8.5-6 8.5-6 10.6-7.5 1.42-1 2.84-2 4.25-3 3.52-2.49 7.05-4.97 10.6-7.43 9.84-6.85 19.3-14.1 28.8-21.5 2.83-2.22 5.68-4.41 8.53-6.59 6-4.6 12-9.25 17.9-13.9 4.2-3.27 8.43-6.5 12.7-9.67 13.1-9.74 25.4-20.4 37.7-31 1.8-1.56 3.61-3.11 5.41-4.66l1.66-1.45c3.86-3.3 3.86-3.3 6.09-3.3v-2c1.7-1.52 1.7-1.52 4.12-3.38 10.1-7.88 19.7-16.3 29.1-25 2.66-2.46 5.36-4.87 8.06-7.28 3.74-3.35 7.3-6.84 10.8-10.4 1.87-1.84 3.8-3.56 5.8-5.27 4.03-3.46 7.73-7.2 11.4-11 2.02-1.97 4.04-3.8 6.18-5.63 5.53-4.8 10.7-10 15.8-15.2 1.73-1.74 3.47-3.47 5.21-5.2 5.18-5.18 10.3-10.4 15-15.9 2.13-2.45 4.42-4.7 6.75-6.97 2.58-2.52 4.69-4.68 6.69-7.69h2c0.223-0.552 0.446-1.1 0.676-1.67 1.74-3.06 3.98-5.14 6.51-7.58 4.5-4.41 8.75-8.93 12.8-13.8 0.855-1 1.71-2 2.59-3.03 4.83-5.66 9.57-11.4 14.2-17.2 2.82-3.55 5.67-7.07 8.53-10.6 0.56-0.691 1.12-1.38 1.7-2.09 3.02-3.72 6.09-7.4 9.21-11 6.65-7.74 12.7-15.8 18.8-24.1 0.508-0.687 1.02-1.37 1.54-2.08 23.9-32.3 44.8-66.6 63.1-102 1.17-2.29 2.35-4.57 3.54-6.85 17.4-31.1 17.4-31.1 25.8-64.7-12.4 6.89-24.8 13.8-37 21-9.15 5.37-18.4 10.6-27.6 15.8-7.17 4-14.3 8.09-21.4 12.2-8.11 4.76-16.3 9.42-24.5 14-8.45 4.7-16.8 9.49-25.2 14.4-0.999 0.584-2 1.17-3.03 1.77-3.53 2.07-7.06 4.14-10.6 6.21-1.94 1.14-3.88 2.27-5.82 3.4-1.01 0.593-2.03 1.19-3.07 1.8-5.57 2.89-10.6 4.23-16.8 3.45-5.44-1.85-8.77-5.38-12-10-1.58-4.74-1.97-9.39-0.199-14.2 5.05-9.02 15.7-13.4 24.4-18.3 2.47-1.39 4.93-2.8 7.4-4.2 1.28-0.725 2.55-1.45 3.83-2.17 6.22-3.53 12.4-7.11 18.6-10.7 8.95-5.17 17.9-10.3 26.9-15.4 0.58-0.331 1.16-0.663 1.76-1 4.71-2.69 9.42-5.38 14.1-8.07 4.12-2.35 8.24-4.7 12.4-7.05 0.868-0.496 0.868-0.496 1.75-1 8.49-4.85 17-9.73 25.4-14.6 8.97-5.18 18-10.3 27-15.4 6.27-3.54 12.5-7.11 18.7-10.7 2.24-1.29 4.47-2.58 6.71-3.87 4.72-2.72 9.43-5.44 14.1-8.29 13.8-8.36 13.8-8.36 21.2-6.05z" fill="#000002"/>
<path transform="translate(305 1e3)" d="m0 0c0.751-0.00312 1.5-0.00624 2.28-0.00945 2.51-0.00795 5.01-0.00167 7.52 0.00463 1.8-0.00271 3.6-0.00627 5.4-0.0106 4.88-0.00911 9.77-0.00558 14.7 7.58e-4 5.12 0.00507 10.2 3.66e-4 15.3-0.00277 8.59-0.00364 17.2 0.00115 25.8 0.0107 9.93 0.0109 19.9 0.00736 29.8-0.00365 8.53-0.00909 17.1-0.0104 25.6-0.00512 5.09 0.00311 10.2 0.00355 15.3-0.00307 4.79-0.00579 9.58-0.00174 14.4 0.00979 1.75 0.00264 3.51 0.0019 5.26-0.00253 2.4-0.00549 4.8 0.00142 7.2 0.0114 0.689-0.00446 1.38-0.00892 2.09-0.0135 5.62 0.0449 11.6 0.482 16.1 4.11 0.548 0.692 1.1 1.38 1.66 2.1 0.566 0.69 1.13 1.38 1.71 2.09 2.04 2.99 2.47 5.48 2.48 9 0.00353 0.825 0.00706 1.65 0.0107 2.5-0.0012 0.908-0.0024 1.82-0.00363 2.75 0.00398 1.45 0.00398 1.45 0.00804 2.93 0.00772 3.27 0.00825 6.54 0.00885 9.81 0.00401 2.36 0.00845 4.71 0.0133 7.07 0.0107 5.82 0.0167 11.6 0.0207 17.5 0.00501 6.96 0.0157 13.9 0.0265 20.9 0.0256 16.8 0.0407 33.7 0.0535 50.5 0.00425 5.58 0.00882 11.2 0.0136 16.7 0.0253 29.6 0.0473 59.3 0.0597 88.9 0.00292 6.87 0.00589 13.7 0.00891 20.6 3.71e-4 0.853 7.42e-4 1.71 0.00112 2.59 0.0122 27.7 0.0431 55.3 0.0848 83 0.0428 28.4 0.0694 56.9 0.0746 85.3 7.4e-4 4.01 0.00165 8.03 0.00266 12 1.91e-4 0.79 3.81e-4 1.58 5.78e-4 2.39 0.00352 12.7 0.0238 25.4 0.0502 38.2 0.0261 12.8 0.0339 25.6 0.0229 38.4-0.00546 6.93-0.00287 13.9 0.0225 20.8 0.0224 6.34 0.0218 12.7 0.0028 19-0.00281 2.3 0.00288 4.59 0.0178 6.89 0.019 3.12 0.00736 6.23-0.0121 9.35 0.0128 0.896 0.0257 1.79 0.0389 2.71-0.0977 7.12-2.49 12-7.48 17-7.75 4.61-16.5 3.86-25.2 3.81-1.83 0.00842-3.66 0.019-5.49 0.0314-4.95 0.027-9.9 0.0224-14.9 0.0103-4.14-0.00715-8.28 0.00138-12.4 0.00991-9.77 0.0199-19.5 0.0144-29.3-0.00768-10.1-0.0224-20.1-0.00475-30.2 0.033-8.66 0.0313-17.3 0.0391-26 0.028-5.16-0.00648-10.3-0.00452-15.5 0.0193-4.86 0.0213-9.71 0.0132-14.6-0.0171-1.78-0.00632-3.56-0.00249-5.34 0.0124-16.2 0.125-16.2 0.125-21.9-5.23-0.448-0.511-0.896-1.02-1.36-1.55-0.804-0.887-1.61-1.77-2.44-2.69-3.1-4.6-2.71-9.12-2.71-14.5-0.00344-0.953-0.00688-1.91-0.0104-2.89-0.0104-3.22-0.0137-6.45-0.017-9.67-0.00599-2.32-0.0124-4.64-0.0192-6.97-0.0157-5.73-0.0267-11.5-0.0357-17.2-0.0111-6.86-0.0279-13.7-0.0449-20.6-0.035-14.2-0.0631-28.5-0.089-42.7-0.02-11-0.0416-22-0.0643-33-0.00651-3.16-0.013-6.32-0.0195-9.48-0.00162-0.786-0.00323-1.57-0.0049-2.38-0.0454-22.1-0.0887-44.2-0.128-66.3-0.00147-0.834-0.00293-1.67-0.00445-2.53-0.00743-4.23-0.0149-8.46-0.0223-12.7-0.00147-0.84-0.00295-1.68-0.00446-2.55-0.00298-1.7-0.00596-3.4-0.00893-5.1-0.0463-26.4-0.101-52.8-0.162-79.3-0.0682-29.7-0.13-59.3-0.181-89-0.00554-3.16-0.0111-6.33-0.0167-9.49-0.00137-0.779-0.00274-1.56-0.00416-2.36-0.0222-12.5-0.051-25.1-0.0819-37.6-0.0309-12.6-0.0543-25.2-0.0701-37.8-0.00873-6.83-0.0207-13.7-0.0418-20.5-0.019-6.25-0.0287-12.5-0.031-18.8-0.00247-2.26-0.00835-4.52-0.018-6.79-0.0126-3.07-0.0127-6.15-0.00978-9.22-0.00657-0.878-0.0131-1.76-0.0199-2.66 0.0298-7.45 0.146-16.2 5.5-21.9 0.562-0.629 1.12-1.26 1.7-1.91 4.69-3.65 9.96-3.88 15.7-3.85zm13.3 35.3v527c74.5 10.9 74.5 10.9 144 0v-527h-144z" fill="#000002"/>
</svg>
