<svg width="20" height="20" viewBox="0 0 20 20" fill="none" xmlns="http://www.w3.org/2000/svg">
<g id="Group">
<path id="Vector" d="M15.0061 3.79106L15.1264 3.67069L14.9919 3.56642C13.6121 2.49718 11.8851 1.84997 10 1.84997C5.49715 1.84997 1.85001 5.49717 1.85001 10C1.85001 11.8851 2.49717 13.6121 3.56641 14.9919L3.67068 15.1265L3.79105 15.0061L15.0061 3.79106ZM4.99393 16.2089L4.87356 16.3293L5.00812 16.4336C6.38792 17.5028 8.11489 18.15 9.99998 18.15C14.5028 18.15 18.15 14.5029 18.15 10C18.15 8.11496 17.5028 6.38798 16.4335 5.00813L16.3293 4.87357L16.2089 4.99394L4.99393 16.2089ZM0.15 10C0.15 4.55787 4.55785 0.15 9.99998 0.15C15.4421 0.15 19.85 4.55782 19.85 10C19.85 15.4422 15.4421 19.85 9.99998 19.85C4.55785 19.85 0.15 15.4421 0.15 10Z" fill="#222222" stroke="white" stroke-width="0.3"/>
</g>
</svg>
