<svg width="40" height="40" viewBox="0 0 40 40" fill="none" xmlns="http://www.w3.org/2000/svg">
<circle cx="20" cy="20" r="20" fill="#EAEAEA"/>
<path fill-rule="evenodd" clip-rule="evenodd" d="M16.5548 9.22223H23.4104C26.4215 9.22223 28.8548 10.4111 28.8881 13.4333V30.3C28.8881 30.4889 28.8437 30.6778 28.7548 30.8445C28.6104 31.1111 28.3659 31.3111 28.0659 31.4C27.777 31.4889 27.4548 31.4445 27.1881 31.2889L19.9881 27.6889L12.777 31.2889C12.6115 31.3767 12.4215 31.4333 12.2326 31.4333C11.6104 31.4333 11.1104 30.9222 11.1104 30.3V13.4333C11.1104 10.4111 13.5548 9.22223 16.5548 9.22223ZM15.7997 17.6889H24.1664C24.6442 17.6889 25.0331 17.2989 25.0331 16.8112C25.0331 16.3223 24.6442 15.9334 24.1664 15.9334H15.7997C15.3219 15.9334 14.9331 16.3223 14.9331 16.8112C14.9331 17.2989 15.3219 17.6889 15.7997 17.6889Z" fill="#A9A9A9"/>
</svg>
