<?xml version="1.0" encoding="utf-8" ?>
<svg baseProfile="full" height="800" version="1.1" width="800" xmlns="http://www.w3.org/2000/svg" xmlns:ev="http://www.w3.org/2001/xml-events" xmlns:xlink="http://www.w3.org/1999/xlink"><defs><linearGradient id="goldGradient" x1="0" x2="1" y1="0" y2="1"><stop offset="0" stop-color="#f9d976" /><stop offset="1" stop-color="#f39f1f" /></linearGradient></defs><circle cx="400.0" cy="400.0" fill="url(#goldGradient)" r="395.0" stroke="#b8860b" stroke-width="10" /><circle cx="400.0" cy="400.0" fill="none" r="20" stroke="#d4af37" stroke-width="1" /><circle cx="400.0" cy="400.0" fill="none" r="30" stroke="#d4af37" stroke-width="1" /><circle cx="400.0" cy="400.0" fill="none" r="40" stroke="#d4af37" stroke-width="1" /><circle cx="400.0" cy="400.0" fill="none" r="50" stroke="#d4af37" stroke-width="1" /><circle cx="400.0" cy="400.0" fill="none" r="60" stroke="#d4af37" stroke-width="1" /><circle cx="400.0" cy="400.0" fill="none" r="70" stroke="#d4af37" stroke-width="1" /><circle cx="400.0" cy="400.0" fill="none" r="80" stroke="#d4af37" stroke-width="1" /><circle cx="400.0" cy="400.0" fill="none" r="90" stroke="#d4af37" stroke-width="1" /><circle cx="400.0" cy="400.0" fill="none" r="100" stroke="#d4af37" stroke-width="1" /><circle cx="400.0" cy="400.0" fill="none" r="110" stroke="#d4af37" stroke-width="1" /><circle cx="400.0" cy="400.0" fill="none" r="120" stroke="#d4af37" stroke-width="1" /><circle cx="400.0" cy="400.0" fill="none" r="130" stroke="#d4af37" stroke-width="1" /><circle cx="400.0" cy="400.0" fill="none" r="140" stroke="#d4af37" stroke-width="1" /><circle cx="400.0" cy="400.0" fill="none" r="150" stroke="#d4af37" stroke-width="1" /><circle cx="400.0" cy="400.0" fill="none" r="160" stroke="#d4af37" stroke-width="1" /><circle cx="400.0" cy="400.0" fill="none" r="170" stroke="#d4af37" stroke-width="1" /><circle cx="400.0" cy="400.0" fill="none" r="180" stroke="#d4af37" stroke-width="1" /><circle cx="400.0" cy="400.0" fill="none" r="190" stroke="#d4af37" stroke-width="1" /><circle cx="400.0" cy="400.0" fill="none" r="200" stroke="#d4af37" stroke-width="1" /><circle cx="400.0" cy="400.0" fill="none" r="210" stroke="#d4af37" stroke-width="1" /><circle cx="400.0" cy="400.0" fill="none" r="220" stroke="#d4af37" stroke-width="1" /><circle cx="400.0" cy="400.0" fill="none" r="230" stroke="#d4af37" stroke-width="1" /><circle cx="400.0" cy="400.0" fill="none" r="240" stroke="#d4af37" stroke-width="1" /><circle cx="400.0" cy="400.0" fill="none" r="250" stroke="#d4af37" stroke-width="1" /><circle cx="400.0" cy="400.0" fill="none" r="260" stroke="#d4af37" stroke-width="1" /><circle cx="400.0" cy="400.0" fill="none" r="270" stroke="#d4af37" stroke-width="1" /><circle cx="400.0" cy="400.0" fill="none" r="280" stroke="#d4af37" stroke-width="1" /><circle cx="400.0" cy="400.0" fill="none" r="290" stroke="#d4af37" stroke-width="1" /><circle cx="400.0" cy="400.0" fill="none" r="300" stroke="#d4af37" stroke-width="1" /><circle cx="400.0" cy="400.0" fill="none" r="310" stroke="#d4af37" stroke-width="1" /><circle cx="400.0" cy="400.0" fill="none" r="320" stroke="#d4af37" stroke-width="1" /><circle cx="400.0" cy="400.0" fill="none" r="330" stroke="#d4af37" stroke-width="1" /><circle cx="400.0" cy="400.0" fill="none" r="340" stroke="#d4af37" stroke-width="1" /><circle cx="400.0" cy="400.0" fill="none" r="350" stroke="#d4af37" stroke-width="1" /><circle cx="400.0" cy="400.0" fill="none" r="360" stroke="#d4af37" stroke-width="1" /><text fill="#4b2e12" font-family="Arial" font-size="260" font-weight="bold" x="310.0" y="440.0">C</text><text fill="#6e4b1b" font-family="Arial" font-size="60" font-weight="bold" x="260.0" y="530.0">CAESIUM</text><text fill="#6e4b1b" font-size="20" x="755.0" y="405.0">★</text><text fill="#6e4b1b" font-size="20" x="753.0278823325784" y="442.63024677635525">★</text><text fill="#6e4b1b" font-size="20" x="747.13313626417" y="479.84820869439335">★</text><text fill="#6e4b1b" font-size="20" x="737.3803458662553" y="516.2461179749811">★</text><text fill="#6e4b1b" font-size="20" x="723.8763647513363" y="551.425191507288">★</text><text fill="#6e4b1b" font-size="20" x="706.7691453623979" y="585.0">★</text><text fill="#6e4b1b" font-size="20" x="686.2461179749811" y="616.6026908252903">★</text><text fill="#6e4b1b" font-size="20" x="662.5321371718619" y="645.887018289189">★</text><text fill="#6e4b1b" font-size="20" x="635.887018289189" y="672.5321371718619">★</text><text fill="#6e4b1b" font-size="20" x="606.6026908252903" y="696.2461179749811">★</text><text fill="#6e4b1b" font-size="20" x="575.0" y="716.7691453623979">★</text><text fill="#6e4b1b" font-size="20" x="541.4251915072881" y="733.8763647513363">★</text><text fill="#6e4b1b" font-size="20" x="506.2461179749811" y="747.3803458662553">★</text><text fill="#6e4b1b" font-size="20" x="469.8482086943934" y="757.1331362641699">★</text><text fill="#6e4b1b" font-size="20" x="432.6302467763553" y="763.0278823325784">★</text><text fill="#6e4b1b" font-size="20" x="395.0" y="765.0">★</text><text fill="#6e4b1b" font-size="20" x="357.3697532236448" y="763.0278823325784">★</text><text fill="#6e4b1b" font-size="20" x="320.1517913056067" y="757.13313626417">★</text><text fill="#6e4b1b" font-size="20" x="283.7538820250189" y="747.3803458662553">★</text><text fill="#6e4b1b" font-size="20" x="248.57480849271198" y="733.8763647513363">★</text><text fill="#6e4b1b" font-size="20" x="215.00000000000009" y="716.7691453623979">★</text><text fill="#6e4b1b" font-size="20" x="183.3973091747097" y="696.2461179749811">★</text><text fill="#6e4b1b" font-size="20" x="154.11298171081114" y="672.532137171862">★</text><text fill="#6e4b1b" font-size="20" x="127.46786282813815" y="645.887018289189">★</text><text fill="#6e4b1b" font-size="20" x="103.75388202501898" y="616.6026908252904">★</text><text fill="#6e4b1b" font-size="20" x="83.23085463760214" y="585.0000000000001">★</text><text fill="#6e4b1b" font-size="20" x="66.12363524866373" y="551.4251915072882">★</text><text fill="#6e4b1b" font-size="20" x="52.619654133744746" y="516.2461179749811">★</text><text fill="#6e4b1b" font-size="20" x="42.86686373583001" y="479.8482086943935">★</text><text fill="#6e4b1b" font-size="20" x="36.97211766742163" y="442.63024677635536">★</text><text fill="#6e4b1b" font-size="20" x="35.0" y="405.00000000000006">★</text><text fill="#6e4b1b" font-size="20" x="36.97211766742157" y="367.3697532236449">★</text><text fill="#6e4b1b" font-size="20" x="42.86686373582995" y="330.1517913056067">★</text><text fill="#6e4b1b" font-size="20" x="52.61965413374469" y="293.753882025019">★</text><text fill="#6e4b1b" font-size="20" x="66.12363524866362" y="258.57480849271207">★</text><text fill="#6e4b1b" font-size="20" x="83.23085463760202" y="225.0000000000001">★</text><text fill="#6e4b1b" font-size="20" x="103.75388202501887" y="193.3973091747097">★</text><text fill="#6e4b1b" font-size="20" x="127.46786282813792" y="164.11298171081114">★</text><text fill="#6e4b1b" font-size="20" x="154.11298171081094" y="137.46786282813815">★</text><text fill="#6e4b1b" font-size="20" x="183.39730917470962" y="113.75388202501898">★</text><text fill="#6e4b1b" font-size="20" x="214.99999999999983" y="93.23085463760219">★</text><text fill="#6e4b1b" font-size="20" x="248.5748084927117" y="76.12363524866379">★</text><text fill="#6e4b1b" font-size="20" x="283.75388202501887" y="62.619654133744746">★</text><text fill="#6e4b1b" font-size="20" x="320.1517913056065" y="52.86686373583001">★</text><text fill="#6e4b1b" font-size="20" x="357.36975322364447" y="46.97211766742163">★</text><text fill="#6e4b1b" font-size="20" x="394.99999999999994" y="45.0">★</text><text fill="#6e4b1b" font-size="20" x="432.6302467763551" y="46.97211766742157">★</text><text fill="#6e4b1b" font-size="20" x="469.84820869439307" y="52.866863735829895">★</text><text fill="#6e4b1b" font-size="20" x="506.246117974981" y="62.61965413374469">★</text><text fill="#6e4b1b" font-size="20" x="541.4251915072879" y="76.12363524866362">★</text><text fill="#6e4b1b" font-size="20" x="574.9999999999998" y="93.23085463760196">★</text><text fill="#6e4b1b" font-size="20" x="606.6026908252902" y="113.75388202501887">★</text><text fill="#6e4b1b" font-size="20" x="635.8870182891887" y="137.46786282813792">★</text><text fill="#6e4b1b" font-size="20" x="662.5321371718617" y="164.11298171081083">★</text><text fill="#6e4b1b" font-size="20" x="686.246117974981" y="193.3973091747096">★</text><text fill="#6e4b1b" font-size="20" x="706.7691453623978" y="224.99999999999983">★</text><text fill="#6e4b1b" font-size="20" x="723.8763647513363" y="258.57480849271167">★</text><text fill="#6e4b1b" font-size="20" x="737.3803458662553" y="293.75388202501887">★</text><text fill="#6e4b1b" font-size="20" x="747.1331362641699" y="330.1517913056065">★</text><text fill="#6e4b1b" font-size="20" x="753.0278823325784" y="367.36975322364447">★</text><line stroke="#d4af37" stroke-width="3" x1="200.0" x2="600.0" y1="50" y2="50" /><line stroke="#d4af37" stroke-width="3" x1="200.0" x2="600.0" y1="750" y2="750" /></svg>