<svg width="36" height="32" viewBox="0 0 36 32" fill="none" xmlns="http://www.w3.org/2000/svg">
<path fill-rule="evenodd" clip-rule="evenodd" d="M27.52 5.91371C27.59 6.03607 27.7125 6.12347 27.87 6.12347C32.07 6.12347 35.5 9.54967 35.5 13.745V24.1285C35.5 28.3238 32.07 31.75 27.87 31.75H8.13C3.9125 31.75 0.5 28.3238 0.5 24.1285V13.745C0.5 9.54967 3.9125 6.12347 8.13 6.12347C8.27 6.12347 8.41 6.05355 8.4625 5.91371L8.5675 5.70394C8.62781 5.57699 8.68972 5.4466 8.75256 5.31423C9.20027 4.37122 9.69558 3.32792 10.0025 2.71476C10.8075 1.14151 12.1725 0.267481 13.87 0.25H22.1125C23.81 0.267481 25.1925 1.14151 25.9975 2.71476C26.2731 3.26535 26.693 4.15221 27.0977 5.00703C27.1812 5.18351 27.2641 5.35863 27.345 5.52913L27.52 5.91371ZM26.2425 12.6262C26.2425 13.5003 26.9425 14.1995 27.8175 14.1995C28.6925 14.1995 29.41 13.5003 29.41 12.6262C29.41 11.7522 28.6925 11.0355 27.8175 11.0355C26.9425 11.0355 26.2425 11.7522 26.2425 12.6262ZM14.9718 15.3356C15.7943 14.514 16.8618 14.077 17.9993 14.077C19.1368 14.077 20.2043 14.514 21.0093 15.3181C21.8143 16.1222 22.2518 17.1885 22.2518 18.3247C22.2343 20.6671 20.3443 22.5725 17.9993 22.5725C16.8618 22.5725 15.7943 22.1355 14.9893 21.3314C14.1843 20.5273 13.7468 19.461 13.7468 18.3247V18.3073C13.7293 17.206 14.1668 16.1397 14.9718 15.3356ZM22.8467 23.1844C21.6042 24.4255 19.8892 25.1947 17.9992 25.1947C16.1617 25.1947 14.4467 24.478 13.1342 23.1844C11.8392 21.8734 11.1217 20.1603 11.1217 18.3248C11.1042 16.5068 11.8217 14.7937 13.1167 13.4827C14.4292 12.1717 16.1617 11.455 17.9992 11.455C19.8367 11.455 21.5692 12.1717 22.8642 13.4652C24.1592 14.7763 24.8767 16.5068 24.8767 18.3248C24.8592 20.2302 24.0892 21.9433 22.8467 23.1844Z" fill="white"/>
</svg>
