<svg width="40" height="40" viewBox="0 0 40 40" fill="none" xmlns="http://www.w3.org/2000/svg">
<circle cx="20" cy="20" r="20" fill="#5448B2"/>
<path fill-rule="evenodd" clip-rule="evenodd" d="M23.5454 10.7265C24.7237 11.1955 25.0842 12.8288 25.566 13.3538C26.0479 13.8788 26.7374 14.0573 27.1189 14.0573C29.1465 14.0573 30.7904 15.7012 30.7904 17.7277V24.4885C30.7904 27.2068 28.5854 29.4118 25.867 29.4118H14.1304C11.4109 29.4118 9.20703 27.2068 9.20703 24.4885V17.7277C9.20703 15.7012 10.8509 14.0573 12.8785 14.0573C13.2589 14.0573 13.9484 13.8788 14.4314 13.3538C14.9132 12.8288 15.2725 11.1955 16.4509 10.7265C17.6304 10.2575 22.367 10.2575 23.5454 10.7265Z" stroke="white" stroke-linecap="round" stroke-linejoin="round"/>
<path d="M26.4101 17.0833H26.4206" stroke="white" stroke-linecap="round" stroke-linejoin="round"/>
<path fill-rule="evenodd" clip-rule="evenodd" d="M23.7067 21.316C23.7067 19.2673 22.0466 17.6072 19.9979 17.6072C17.9492 17.6072 16.2891 19.2673 16.2891 21.316C16.2891 23.3647 17.9492 25.0248 19.9979 25.0248C22.0466 25.0248 23.7067 23.3647 23.7067 21.316Z" stroke="white" stroke-linecap="round" stroke-linejoin="round"/>
</svg>
