<svg width="25" height="24" viewBox="0 0 25 24" fill="none" xmlns="http://www.w3.org/2000/svg">
<path fill-rule="evenodd" clip-rule="evenodd" d="M16.834 2.75H8.165C5.144 2.75 3.25 4.889 3.25 7.916V16.084C3.25 19.111 5.135 21.25 8.165 21.25H16.833C19.864 21.25 21.75 19.111 21.75 16.084V7.916C21.75 4.889 19.864 2.75 16.834 2.75Z" stroke="white" stroke-width="1.5" stroke-linecap="round" stroke-linejoin="round"/>
<path fill-rule="evenodd" clip-rule="evenodd" d="M11.1884 12.0004C11.1884 13.0234 10.3594 13.8524 9.33637 13.8524C8.31337 13.8524 7.48438 13.0234 7.48438 12.0004C7.48438 10.9774 8.31337 10.1484 9.33637 10.1484H9.33938C10.3604 10.1494 11.1884 10.9784 11.1884 12.0004Z" stroke="white" stroke-width="1.5" stroke-linecap="round" stroke-linejoin="round"/>
<path d="M11.1914 12H17.5094V13.852" stroke="white" stroke-width="1.5" stroke-linecap="round" stroke-linejoin="round"/>
<path d="M14.6836 13.852V12" stroke="white" stroke-width="1.5" stroke-linecap="round" stroke-linejoin="round"/>
</svg>
