<svg width="20" height="20" viewBox="0 0 20 20" fill="none" xmlns="http://www.w3.org/2000/svg">
<path fill-rule="evenodd" clip-rule="evenodd" d="M15.8902 15.8916C13.3434 18.4386 9.57221 18.9889 6.48608 17.5617C6.03048 17.3783 5.65697 17.23 5.30187 17.23C4.3128 17.2359 3.0817 18.1949 2.44186 17.5558C1.80202 16.9159 2.76178 15.6839 2.76178 14.6888C2.76178 14.3337 2.61941 13.9668 2.436 13.5103C1.00809 10.4247 1.55915 6.65226 4.10594 4.10603C7.35706 0.853714 12.6391 0.853714 15.8902 4.10519C19.1472 7.36253 19.1413 12.6401 15.8902 15.8916Z" stroke="#A9A9A9" stroke-width="1.5" stroke-linecap="round" stroke-linejoin="round"/>
<path d="M13.2801 10.3443H13.2876" stroke="#A9A9A9" stroke-width="2" stroke-linecap="round" stroke-linejoin="round"/>
<path d="M9.93635 10.3443H9.94385" stroke="#A9A9A9" stroke-width="2" stroke-linecap="round" stroke-linejoin="round"/>
<path d="M6.60042 10.3442H6.60792" stroke="#A9A9A9" stroke-width="2" stroke-linecap="round" stroke-linejoin="round"/>
</svg>
