<svg width="24" height="24" viewBox="0 0 24 24" fill="none" xmlns="http://www.w3.org/2000/svg">
<path fill-rule="evenodd" clip-rule="evenodd" d="M0.882812 12.0184C0.882812 6.1652 5.56059 0.890625 12.0161 0.890625C18.3273 0.890625 23.105 6.06505 23.105 11.985C23.105 18.8509 17.505 23.1128 11.9939 23.1128C10.1717 23.1128 8.14948 22.6232 6.52726 21.6662C5.96059 21.3213 5.48281 21.0653 4.8717 21.2656L2.62726 21.9333C2.06059 22.1113 1.54948 21.6662 1.71615 21.0653L2.46059 18.5727C2.58281 18.2277 2.56059 17.8605 2.38281 17.5712C1.42726 15.813 0.882812 13.8879 0.882812 12.0184ZM10.5495 12.0184C10.5495 12.8085 11.1828 13.4428 11.9717 13.4539C12.7606 13.4539 13.3939 12.8085 13.3939 12.0296C13.3939 11.2395 12.7606 10.6052 11.9717 10.6052C11.1939 10.5941 10.5495 11.2395 10.5495 12.0184ZM15.6721 12.0297C15.6721 12.8086 16.3054 13.454 17.0943 13.454C17.8832 13.454 18.5165 12.8086 18.5165 12.0297C18.5165 11.2396 17.8832 10.6053 17.0943 10.6053C16.3054 10.6053 15.6721 11.2396 15.6721 12.0297ZM6.84948 13.4539C6.0717 13.4539 5.42726 12.8085 5.42726 12.0296C5.42726 11.2395 6.06059 10.6052 6.84948 10.6052C7.63837 10.6052 8.2717 11.2395 8.2717 12.0296C8.2717 12.8085 7.63837 13.4428 6.84948 13.4539Z" fill="#A9A9A9"/>
</svg>
