<svg width="16" height="16" viewBox="0 0 16 16" fill="none" xmlns="http://www.w3.org/2000/svg">
<path d="M13.3859 2.60805C14.2787 3.50089 14.4697 4.84238 13.8878 5.93956L10.0588 2.1061C10.4763 1.884 10.9339 1.77739 11.3825 1.77739C12.1154 1.77295 12.8395 2.06168 13.3859 2.60805ZM9.80115 2.26157L13.7323 6.20163C13.6302 6.34822 13.5191 6.49036 13.3859 6.61918C13.3459 6.65916 13.3059 6.6947 13.2659 6.73467L9.26367 2.73243C9.30365 2.68801 9.34362 2.64803 9.37916 2.60805C9.51242 2.47479 9.65012 2.36374 9.80115 2.26157ZM9.07266 2.96341L13.0305 6.92124C12.3775 7.38765 11.5691 7.55645 10.7784 7.38321L8.61069 5.21107C8.4419 4.42483 8.60625 3.61639 9.07266 2.96341ZM10.4985 7.52091L8.01102 9.79522C7.68231 9.55979 7.3536 9.27994 7.04266 8.96456C6.73172 8.65362 6.45188 8.32935 6.20312 7.98288L8.48187 5.49535L10.4985 7.52091Z" fill="rgb(255, 59, 92)"/>
<path d="M6.00043 10.3641C6.19914 10.3641 6.36023 10.203 6.36023 10.0043C6.36023 9.80562 6.19914 9.64453 6.00043 9.64453C5.80171 9.64453 5.64062 9.80562 5.64062 10.0043C5.64062 10.203 5.80171 10.3641 6.00043 10.3641Z" fill="rgb(255, 59, 92)"/>
<path d="M7.78458 10.0036L6.0522 11.5894C5.75014 11.3628 5.45697 11.1052 5.17713 10.8298C4.90172 10.5499 4.64408 10.2523 4.40866 9.94137L5.99445 8.20898C6.24321 8.54658 6.52305 8.87084 6.82511 9.17734C7.13161 9.48384 7.45587 9.76369 7.78458 10.0036ZM6.65187 10.0036C6.65187 9.64375 6.3587 9.35058 5.9989 9.35058C5.63909 9.35058 5.34592 9.64375 5.34592 10.0036C5.34592 10.3634 5.63909 10.6565 5.9989 10.6565C6.3587 10.6565 6.65187 10.3634 6.65187 10.0036ZM5.82566 11.7892L3.28039 14.1169C3.23597 14.1568 3.16934 14.1568 3.12936 14.1124L2.95168 13.9347C2.94724 13.9258 2.93835 13.917 2.92947 13.9081C2.92059 13.8992 2.9117 13.8948 2.90282 13.8859L2.11214 13.0952C2.1077 13.0863 2.09881 13.0774 2.08993 13.0685C2.08105 13.0597 2.07216 13.0552 2.06328 13.0463L1.87671 12.8598C1.83674 12.8153 1.83229 12.7487 1.87227 12.7087L4.20877 10.159C4.43975 10.4655 4.69295 10.7543 4.96835 11.0341C5.23931 11.3095 5.52804 11.5627 5.82566 11.7892ZM2.61409 14.0147L2.53413 14.0946C2.44973 14.179 2.33868 14.2235 2.21875 14.2235C2.09881 14.2235 1.98776 14.179 1.90337 14.0946C1.73013 13.917 1.73013 13.6371 1.90337 13.4639L1.98332 13.3839L2.61409 14.0147Z" fill="rgb(255, 59, 92)"/>
</svg>
