<svg width="21" height="20" viewBox="0 0 21 20" fill="none" xmlns="http://www.w3.org/2000/svg">
<path d="M17.3523 2.92895C15.4636 1.0402 12.9523 0 10.2812 0C7.61016 0 5.09891 1.0402 3.2102 2.92895C1.32141 4.81766 0.28125 7.32891 0.28125 10C0.28125 12.6711 1.32141 15.1823 3.2102 17.0711C5.09891 18.9598 7.61016 20 10.2812 20C12.9523 20 15.4636 18.9598 17.3523 17.0711C19.2411 15.1823 20.2812 12.6711 20.2812 10C20.2812 7.32891 19.2411 4.81766 17.3523 2.92895ZM10.2812 18.8095C5.42367 18.8095 1.47172 14.8576 1.47172 10C1.47172 5.14242 5.42367 1.19047 10.2812 1.19047C15.1388 1.19047 19.0908 5.14242 19.0908 10C19.0908 14.8576 15.1388 18.8095 10.2812 18.8095Z" fill="#BABABA"/>
<path d="M8.1161 7.359C7.14138 6.3842 5.55532 6.38428 4.5806 7.359C4.34813 7.59143 4.34813 7.96834 4.5806 8.2008C4.8131 8.43322 5.19001 8.43322 5.42243 8.2008C5.93306 7.69021 6.76384 7.69025 7.27439 8.2008C7.39064 8.31705 7.54294 8.37518 7.69524 8.37518C7.84755 8.37518 7.99993 8.31705 8.1161 8.2008C8.34856 7.96834 8.34856 7.59146 8.1161 7.359ZM15.9779 7.359C15.0032 6.38428 13.4171 6.3842 12.4424 7.359C12.2099 7.59143 12.2099 7.96834 12.4424 8.2008C12.6749 8.43322 13.0518 8.43322 13.2842 8.2008C13.7948 7.69021 14.6256 7.69018 15.1362 8.2008C15.2524 8.31705 15.4047 8.37518 15.557 8.37518C15.7093 8.37518 15.8617 8.31705 15.9779 8.2008C16.2104 7.96834 16.2104 7.59146 15.9779 7.359ZM15.5571 10.4363H5.00153C4.67278 10.4363 4.4063 10.7028 4.4063 11.0315C4.4063 14.2699 7.04095 16.9046 10.2793 16.9046C13.5177 16.9046 16.1523 14.2699 16.1523 11.0315C16.1523 10.7028 15.8858 10.4363 15.5571 10.4363ZM10.2793 15.7141C7.89892 15.7141 5.92767 13.9288 5.63442 11.6268H14.9242C14.6309 13.9288 12.6597 15.7141 10.2793 15.7141Z" fill="#BABABA"/>
</svg>
