<svg width="305" height="305" viewBox="0 0 305 305" fill="none" xmlns="http://www.w3.org/2000/svg">
<path d="M190.135 87.0039C166.527 88.2793 150.528 106.384 124.882 103.268C24.0196 77.0743 -20.7235 149.03 30.5595 208.196C81.2518 265.857 229.151 307.013 277.524 254.96C323.765 206.621 267.475 87.9369 190.135 87.0039Z" fill="#437ED7"/>
<path opacity="0.9" d="M190.135 87.0039C166.527 88.2793 150.528 106.384 124.882 103.268C24.0196 77.0743 -20.7235 149.03 30.5595 208.196C81.2518 265.857 229.151 307.013 277.524 254.96C323.765 206.621 267.475 87.9369 190.135 87.0039Z" fill="white"/>
<path d="M274.904 110.232C274.926 108.086 274.448 105.965 273.509 104.035C272.704 102.623 270.564 98.899 243.883 98.899V98.043C271.061 98.043 273.218 101.826 274.254 103.641C275.261 105.691 275.774 107.948 275.752 110.232H274.904Z" fill="#437ED7"/>
<path d="M273.926 125.048L273.07 124.852C273.701 122.165 274.193 119.448 274.543 116.711L275.399 116.822C275.056 119.589 274.565 122.335 273.926 125.048Z" fill="#437ED7"/>
<path d="M271.65 105.087C268.064 98.7869 217.568 100.978 208.203 103.666C195.535 107.313 189.842 140.02 188.875 147.913C188.875 147.913 196.314 140.106 202.871 138.129C205.995 139.224 240.432 145.242 246.843 146.954C254.171 148.914 261.952 146.954 265.53 140.568C269.108 134.183 275.391 111.67 271.65 105.087Z" fill="#437ED7"/>
<path d="M260.321 114.205C260.218 114.213 260.115 114.213 260.013 114.205C236.13 110.781 208.49 113.22 208.216 113.246C207.935 113.271 207.652 113.241 207.383 113.157C207.113 113.073 206.863 112.936 206.647 112.755C206.43 112.575 206.251 112.353 206.12 112.103C205.989 111.853 205.909 111.58 205.884 111.299C205.858 111.017 205.889 110.734 205.973 110.465C206.057 110.196 206.193 109.946 206.374 109.729C206.555 109.512 206.777 109.333 207.027 109.203C207.277 109.072 207.55 108.991 207.831 108.966C208.114 108.966 236.25 106.475 260.621 109.95C261.188 109.99 261.717 110.254 262.09 110.683C262.463 111.112 262.651 111.673 262.611 112.24C262.571 112.808 262.307 113.336 261.878 113.709C261.449 114.083 260.889 114.27 260.321 114.23V114.205Z" fill="white"/>
<path d="M256.857 125.659C256.732 125.672 256.606 125.672 256.48 125.659C239.24 122.715 221.741 121.568 204.264 122.235C203.697 122.269 203.139 122.076 202.714 121.699C202.288 121.322 202.03 120.791 201.996 120.223C201.962 119.656 202.155 119.098 202.532 118.673C202.909 118.247 203.44 117.989 204.008 117.955C221.815 117.251 239.647 118.398 257.217 121.379C257.498 121.403 257.771 121.481 258.022 121.611C258.272 121.74 258.495 121.918 258.677 122.133C258.859 122.348 258.997 122.597 259.083 122.866C259.168 123.135 259.2 123.418 259.177 123.699C259.153 123.98 259.075 124.253 258.945 124.504C258.816 124.755 258.638 124.977 258.423 125.159C258.208 125.341 257.958 125.479 257.69 125.565C257.421 125.651 257.138 125.683 256.857 125.659Z" fill="white"/>
<path d="M242.713 137.383C242.514 137.383 242.315 137.357 242.123 137.306C229.037 133.646 215.472 131.998 201.891 132.418C201.323 132.454 200.764 132.264 200.337 131.888C199.91 131.513 199.65 130.983 199.614 130.415C199.577 129.848 199.768 129.289 200.144 128.862C200.519 128.435 201.049 128.174 201.617 128.138C215.687 127.644 229.749 129.345 243.295 133.18C243.789 133.324 244.215 133.641 244.494 134.073C244.773 134.505 244.887 135.023 244.815 135.533C244.744 136.042 244.491 136.509 244.103 136.847C243.716 137.185 243.219 137.372 242.705 137.374L242.713 137.383Z" fill="white"/>
<path d="M30.3314 97.2581C33.0792 90.547 68.7145 87.2429 78.3445 88.6981C91.3728 90.684 101.525 124.71 103.168 134.066C103.168 134.066 94.7968 127.269 88.0344 126.157C85.0812 127.638 66.7799 134.117 60.3 135.573C52.8956 137.208 45.3114 137.482 40.9458 131.626C36.5802 125.771 27.4553 104.26 30.3314 97.2581Z" fill="#437ED7"/>
<path opacity="0.1" d="M78.3409 88.7043C68.7109 87.232 33.0756 90.5447 30.3364 97.2643C29.8139 98.8226 29.6471 100.478 29.8485 102.109C36.6965 112.938 47.1911 121.258 59.2435 121.797C73.8726 122.277 88.4075 115.043 94.0485 106.483C89.8027 97.4355 84.3928 89.6288 78.3409 88.7043Z" fill="black"/>
<path d="M92.7605 99.7169C101.247 88.8775 99.3404 73.2104 88.501 64.7235C77.6617 56.2365 61.9946 58.1435 53.5076 68.9829C45.0207 79.8223 46.9277 95.4894 57.7671 103.976C68.6065 112.463 84.2735 110.556 92.7605 99.7169Z" fill="#437ED7"/>
<path opacity="0.4" d="M92.7605 99.7169C101.247 88.8775 99.3404 73.2104 88.501 64.7235C77.6617 56.2365 61.9946 58.1435 53.5076 68.9829C45.0207 79.8223 46.9277 95.4894 57.7671 103.976C68.6065 112.463 84.2735 110.556 92.7605 99.7169Z" fill="white"/>
<path d="M71.9621 76.6032C72.2617 77.2109 71.3543 78.1782 69.9334 78.7603C68.5124 79.3424 67.1257 79.3338 66.8175 78.7603C66.5094 78.1868 67.4253 77.1852 68.8462 76.6032C70.2672 76.0211 71.6368 76.004 71.9621 76.6032Z" fill="#437ED7"/>
<path d="M65.3047 70.489C66.912 69.8753 68.6175 69.5591 70.338 69.5559C71.1971 69.5454 72.0558 69.6026 72.906 69.7271C73.7808 69.853 74.641 70.0652 75.474 70.3606C75.6741 70.41 75.8497 70.5301 75.9684 70.6986C76.0871 70.8672 76.1411 71.0729 76.1202 71.278C76.0994 71.4831 76.0052 71.6739 75.8551 71.8151C75.7049 71.9564 75.5088 72.0387 75.3028 72.0469C74.6351 72.1239 73.8904 72.2694 73.1799 72.415C72.4694 72.5605 71.7675 72.783 71.0656 73.0142C69.638 73.488 68.2838 74.1594 67.0424 75.0086C67.4471 74.3162 67.9518 73.6874 68.5404 73.1426C69.147 72.6169 69.8102 72.1605 70.5177 71.7815C71.2269 71.4038 71.9689 71.0915 72.7348 70.8485C73.5101 70.5867 74.3104 70.4059 75.123 70.3092L74.8919 71.9527C74.1507 71.7076 73.3962 71.5047 72.632 71.345C71.8445 71.1652 71.057 71.0368 70.2524 70.9255C69.4477 70.8142 68.6345 70.7115 67.8128 70.6602C66.991 70.6088 66.1607 70.566 65.3047 70.489Z" fill="#263238"/>
<path d="M88.7088 65.4981C88.2627 65.7104 87.8334 65.9565 87.4248 66.2343C87.0404 66.4794 86.6844 66.7665 86.3634 67.0903C86.0487 67.404 85.7622 67.7449 85.5074 68.1089C85.2561 68.4556 85.0382 68.8253 84.8568 69.2132L83.8553 68.3572C84.3848 68.0292 84.9625 67.7866 85.5673 67.6381C86.1567 67.4859 86.7654 67.4224 87.3735 67.4498C88.5633 67.4756 89.7118 67.8905 90.6434 68.6311C90.1018 68.5167 89.5524 68.4423 88.9999 68.4085C88.4739 68.3752 87.9459 68.3981 87.4248 68.477C86.9173 68.5539 86.4185 68.6801 85.9354 68.8536C85.4703 69.0199 85.023 69.2321 84.6 69.4871C84.5247 69.5344 84.4409 69.5664 84.3532 69.5812C84.2655 69.5961 84.1758 69.5935 84.0891 69.5736C84.0025 69.5537 83.9206 69.5169 83.8481 69.4654C83.7757 69.4138 83.7142 69.3485 83.667 69.2731C83.6188 69.1775 83.5938 69.072 83.5938 68.9649C83.5938 68.8579 83.6188 68.7524 83.667 68.6568C83.8752 68.1407 84.1641 67.6611 84.523 67.2358C84.8533 66.8499 85.2366 66.5127 85.6615 66.2343C86.1115 65.9425 86.6058 65.7257 87.1252 65.5923C87.6429 65.4643 88.1797 65.4323 88.7088 65.4981Z" fill="#263238"/>
<path d="M92.6207 71.8324C92.6806 72.483 91.5507 73.1078 90.0527 73.2362C88.5547 73.3646 87.3734 72.9024 87.322 72.2775C87.2706 71.6526 88.392 71.0021 89.8472 70.8737C91.3024 70.7453 92.5522 71.1904 92.6207 71.8324Z" fill="#437ED7"/>
<path d="M72.5918 79.8883C78.385 76.9657 84.6732 75.1512 91.1328 74.5383C91.3865 74.5183 91.6383 74.5956 91.8371 74.7546C92.0358 74.9136 92.1666 75.1423 92.2028 75.3943C92.9133 82.6874 79.5853 86.5223 72.5148 81.3863C72.3845 81.3056 72.2782 81.1914 72.2071 81.0556C72.136 80.9199 72.1026 80.7675 72.1105 80.6145C72.1184 80.4614 72.1672 80.3133 72.2519 80.1855C72.3365 80.0578 72.4539 79.9551 72.5918 79.8883Z" fill="#263238"/>
<path d="M85.876 78.5617C85.4191 78.7966 84.991 79.0838 84.6006 79.4177C83.3445 79.1338 82.0284 79.3036 80.8855 79.8971C80.1177 80.2223 79.4384 80.7258 78.904 81.3659C78.3696 82.0061 77.9954 82.7643 77.8125 83.5779C79.5111 83.8654 81.2445 83.8827 82.9485 83.6292C84.238 83.4489 85.5002 83.1096 86.7063 82.6192C88.5325 81.9545 90.1204 80.7629 91.2688 79.1952C90.2673 77.8084 88.0075 77.5345 85.876 78.5617Z" fill="#437ED7"/>
<path d="M139.27 30.4119C128.03 19.0185 102.907 27.0906 112.485 42.9437C122.064 58.7968 143.49 70.3357 147.676 76.3876C150.526 64.0355 158.47 56.1603 163.631 45.837C168.793 35.5136 155.234 20.2854 139.27 30.4119Z" fill="#437ED7"/>
<path opacity="0.3" d="M139.27 30.4119C128.03 19.0185 102.907 27.0906 112.485 42.9437C122.064 58.7968 143.49 70.3357 147.676 76.3876C150.526 64.0355 158.47 56.1603 163.631 45.837C168.793 35.5136 155.234 20.2854 139.27 30.4119Z" fill="black"/>
</svg>
