<svg width="71" height="71" viewBox="0 0 71 71" fill="none" xmlns="http://www.w3.org/2000/svg">
<circle cx="35.5" cy="35.5" r="35.5" fill="#EEEDF7"/>
<path fill-rule="evenodd" clip-rule="evenodd" d="M25.6978 22.875H35.8339C40.0725 22.875 43.0317 25.7958 43.0317 29.9816V42.0184C43.0317 46.2042 40.0725 49.125 35.8339 49.125H25.6978C21.4593 49.125 18.5 46.2042 18.5 42.0184V29.9816C18.5 25.7958 21.4593 22.875 25.6978 22.875ZM49.9265 27.0382C50.6947 26.6474 51.596 26.6882 52.3292 27.1502C53.0625 27.6103 53.5 28.4098 53.5 29.2839V42.7172C53.5 43.593 53.0625 44.3908 52.3292 44.8509C51.9285 45.1014 51.4805 45.2293 51.029 45.2293C50.6527 45.2293 50.2765 45.1405 49.9247 44.9611L47.3329 43.6535C46.3739 43.1666 45.7789 42.1895 45.7789 41.104V30.8953C45.7789 29.808 46.3739 28.8309 47.3329 28.3476L49.9265 27.0382Z" fill="#5448B2"/>
</svg>
