<svg width="24" height="24" viewBox="0 0 24 24" fill="none" xmlns="http://www.w3.org/2000/svg">
<path d="M17.8906 10.8967C19.2856 10.7007 20.3596 9.50467 20.3626 8.05567C20.3626 6.62767 19.3216 5.44367 17.9566 5.21967" stroke="#BABABA" stroke-width="1.5" stroke-linecap="round" stroke-linejoin="round"/>
<path d="M19.7266 14.2503C21.0776 14.4523 22.0206 14.9253 22.0206 15.9003C22.0206 16.5713 21.5766 17.0073 20.8586 17.2813" stroke="#BABABA" stroke-width="1.5" stroke-linecap="round" stroke-linejoin="round"/>
<path fill-rule="evenodd" clip-rule="evenodd" d="M11.8887 14.6638C8.67469 14.6638 5.92969 15.1508 5.92969 17.0958C5.92969 19.0398 8.65769 19.5408 11.8887 19.5408C15.1027 19.5408 17.8467 19.0588 17.8467 17.1128C17.8467 15.1668 15.1197 14.6638 11.8887 14.6638Z" stroke="#BABABA" stroke-width="1.5" stroke-linecap="round" stroke-linejoin="round"/>
<path fill-rule="evenodd" clip-rule="evenodd" d="M11.8893 11.8879C13.9983 11.8879 15.7083 10.1789 15.7083 8.06888C15.7083 5.95988 13.9983 4.24988 11.8893 4.24988C9.78034 4.24988 8.07034 5.95988 8.07034 8.06888C8.06234 10.1709 9.75934 11.8809 11.8613 11.8879H11.8893Z" stroke="#BABABA" stroke-width="1.5" stroke-linecap="round" stroke-linejoin="round"/>
<path d="M5.88606 10.8967C4.49006 10.7007 3.41706 9.50467 3.41406 8.05567C3.41406 6.62767 4.45506 5.44367 5.82006 5.21967" stroke="#BABABA" stroke-width="1.5" stroke-linecap="round" stroke-linejoin="round"/>
<path d="M4.044 14.2503C2.693 14.4523 1.75 14.9253 1.75 15.9003C1.75 16.5713 2.194 17.0073 2.912 17.2813" stroke="#BABABA" stroke-width="1.5" stroke-linecap="round" stroke-linejoin="round"/>
</svg>
