<svg width="23" height="22" viewBox="0 0 23 22" fill="none" xmlns="http://www.w3.org/2000/svg">
<g clip-path="url(#clip0_10665_5277)">
<path fill-rule="evenodd" clip-rule="evenodd" d="M15.6077 0.779474C16.3088 0.779474 17.0088 0.878363 17.6743 1.1017C21.7754 2.43503 23.2532 6.93503 22.0188 10.8684C21.3188 12.8784 20.1743 14.7128 18.6754 16.2117C16.5299 18.2895 14.1754 20.1339 11.641 21.7228L11.3632 21.8906L11.0743 21.7117C8.53099 20.1339 6.16321 18.2895 3.99766 16.2006C2.50877 14.7017 1.36321 12.8784 0.652102 10.8684C-0.603454 6.93503 0.874324 2.43503 5.01988 1.07836C5.3421 0.967252 5.67432 0.889474 6.00766 0.846141H6.14099C6.45321 0.800585 6.76321 0.779474 7.07432 0.779474H7.19655C7.89655 0.800585 8.57432 0.922808 9.23099 1.14614H9.29655C9.34099 1.16725 9.37432 1.19059 9.39655 1.2117C9.6421 1.29059 9.87432 1.37947 10.0965 1.5017L10.5188 1.69059C10.6208 1.745 10.7353 1.82814 10.8343 1.9C10.897 1.94552 10.9535 1.98652 10.9965 2.01281C11.0147 2.0235 11.0331 2.03426 11.0517 2.04511C11.147 2.10072 11.2462 2.15865 11.3299 2.22281C12.5643 1.27947 14.0632 0.768363 15.6077 0.779474ZM18.5632 8.77947C19.0188 8.76725 19.4077 8.4017 19.441 7.93392V7.8017C19.4743 6.24503 18.531 4.83503 17.0965 4.29059C16.641 4.13392 16.141 4.37947 15.9743 4.84614C15.8188 5.31281 16.0632 5.82392 16.5299 5.98947C17.2421 6.25614 17.7188 6.95725 17.7188 7.73392V7.76836C17.6977 8.02281 17.7743 8.26836 17.9299 8.45725C18.0854 8.64614 18.3188 8.75614 18.5632 8.77947Z" fill="#130F26"/>
</g>
<defs>
<clipPath id="clip0_10665_5277">
<rect width="23" height="22" fill="white"/>
</clipPath>
</defs>
</svg>
