<svg width="40" height="40" viewBox="0 0 40 40" fill="none" xmlns="http://www.w3.org/2000/svg">
<circle cx="20" cy="20" r="20" fill="#EAEAEA"/>
<path fill-rule="evenodd" clip-rule="evenodd" d="M24.6108 9.77856C25.3119 9.77856 26.0119 9.87745 26.6775 10.1008C30.7786 11.4341 32.2564 15.9341 31.0219 19.8674C30.3219 21.8774 29.1775 23.7119 27.6786 25.2108C25.5331 27.2886 23.1786 29.133 20.6442 30.7219L20.3664 30.8897L20.0775 30.7108C17.5342 29.133 15.1664 27.2886 13.0008 25.1997C11.5119 23.7008 10.3664 21.8774 9.65528 19.8674C8.39972 15.9341 9.8775 11.4341 14.0231 10.0774C14.3453 9.96634 14.6775 9.88856 15.0108 9.84523H15.1442C15.4564 9.79967 15.7664 9.77856 16.0775 9.77856H16.1997C16.8997 9.79967 17.5775 9.92189 18.2342 10.1452H18.2997C18.3442 10.1663 18.3775 10.1897 18.3997 10.2108C18.6453 10.2897 18.8775 10.3786 19.0997 10.5008L19.5219 10.6897C19.624 10.7441 19.7385 10.8272 19.8375 10.8991C19.9002 10.9446 19.9566 10.9856 19.9997 11.0119C20.0179 11.0226 20.0363 11.0333 20.0549 11.0442C20.1501 11.0998 20.2494 11.1577 20.3331 11.2219C21.5675 10.2786 23.0664 9.76745 24.6108 9.77856ZM27.5664 17.7786C28.0219 17.7663 28.4108 17.4008 28.4442 16.933V16.8008C28.4775 15.2441 27.5342 13.8341 26.0997 13.2897C25.6442 13.133 25.1442 13.3786 24.9775 13.8452C24.8219 14.3119 25.0664 14.823 25.5331 14.9886C26.2453 15.2552 26.7219 15.9563 26.7219 16.733V16.7674C26.7008 17.0219 26.7775 17.2674 26.9331 17.4563C27.0886 17.6452 27.3219 17.7552 27.5664 17.7786Z" fill="#A9A9A9"/>
</svg>
