<svg width="48" height="48" viewBox="0 0 48 48" fill="none" xmlns="http://www.w3.org/2000/svg">
<path d="M23.83 47.66C36.9909 47.66 47.66 36.9909 47.66 23.83C47.66 10.6691 36.9909 0 23.83 0C10.6691 0 0 10.6691 0 23.83C0 36.9909 10.6691 47.66 23.83 47.66Z" fill="url(#paint0_linear_10675_8340)"/>
<path d="M14.2802 18.25H18.3802V31.41H14.2802V18.25ZM16.3302 11.71C17.6402 11.71 18.7002 12.77 18.7002 14.08C18.7002 15.39 17.6402 16.45 16.3302 16.45C15.0202 16.45 13.9502 15.39 13.9502 14.08C13.9602 12.77 15.0202 11.71 16.3302 11.71Z" fill="white"/>
<path d="M20.9504 18.2499H24.8704V20.0499H24.9204C25.4704 19.0099 26.8004 17.9199 28.7904 17.9199C32.9304 17.9199 33.7004 20.6399 33.7004 24.1899V31.4099H29.6104V25.0099C29.6104 23.4799 29.5804 21.5199 27.4804 21.5199C25.3504 21.5199 25.0304 23.1799 25.0304 24.8999V31.4099H20.9404V18.2499H20.9504Z" fill="white"/>
<defs>
<linearGradient id="paint0_linear_10675_8340" x1="6.9801" y1="6.9779" x2="40.6829" y2="40.6807" gradientUnits="userSpaceOnUse">
<stop stop-color="#007BB8"/>
<stop offset="1" stop-color="#0044E9"/>
</linearGradient>
</defs>
</svg>
