<svg width="634" height="1217" viewBox="0 0 634 1217" fill="none" xmlns="http://www.w3.org/2000/svg">
<g clip-path="url(#clip0_1160_13605)">
<path d="M549.697 854.161C549.743 876.893 543.588 897.893 531.598 917.209C516.963 940.76 499.775 962.308 481.082 982.762C464.441 1000.98 446.296 1017.52 427.74 1033.65C414.199 1045.4 399.884 1056.15 384.793 1065.9C378.136 1070.18 371.115 1073.78 363.912 1077.06C361.723 1078.06 359.353 1078.61 356.982 1079.16C356.252 1079.34 355.021 1078.97 354.566 1078.38C353.927 1077.61 354.611 1076.65 355.386 1076.1C356.617 1075.24 357.939 1074.42 359.262 1073.73C367.468 1069.68 374.854 1064.4 381.784 1058.38C403.44 1039.48 416.707 1015.88 421.585 987.636C427.421 954.108 419.169 923.723 399.519 896.39C392.042 886.004 382.513 877.394 372.62 869.331C361.769 860.448 350.006 852.931 337.925 845.916C309.521 829.425 279.795 815.531 250.206 801.409C210.633 782.549 171.424 763.143 135.179 738.452C116.806 725.924 99.6631 711.985 83.8885 696.314C53.3877 666.02 31.7773 630.214 17.4159 589.853C10.486 570.355 5.28859 550.357 2.59869 529.857C-0.501538 505.986 -0.911862 482.07 1.86922 458.154C4.19439 437.882 7.79613 417.884 14.954 398.751C27.0358 366.361 42.6737 335.931 62.9619 307.96C68.8432 299.851 75.0893 292.016 81.2441 284.135C82.3383 282.723 83.6149 281.356 84.9827 280.217C85.5753 279.762 86.8063 279.534 87.4446 279.853C88.0373 280.172 88.63 281.311 88.5388 282.039C88.402 283.543 87.8093 284.955 87.3534 286.413C82.7943 300.899 78.9646 315.613 76.6394 330.646C75.0893 340.532 73.4936 350.417 73.4936 360.485C73.4936 364.129 73.0833 367.728 72.8553 371.372C72.7641 372.875 72.445 374.379 72.5362 375.882C73.7215 402.304 76.7306 428.452 84.2532 453.963C95.1496 490.862 112.611 524.254 137.139 553.91C160.209 581.835 187.472 604.749 219.66 621.65C229.873 627.025 239.766 632.993 250.115 638.095C265.069 645.52 280.206 652.627 295.388 659.551C327.986 674.448 361.587 687.066 394.595 701.052C422.315 712.759 449.578 725.378 476.158 739.5C491.249 747.517 505.337 756.856 517.008 769.611C533.239 787.378 543.543 807.877 547.874 831.475C549.333 838.991 549.925 846.553 549.697 854.161Z" fill="#FF4D67"/>
<path d="M373.304 514.323C371.571 514.095 370.887 513.047 370.431 511.954C368.562 507.17 366.693 502.342 364.869 497.513C355.705 473.278 344.034 450.318 330.174 428.497C318.275 409.774 305.372 391.735 290.509 375.244C278.336 361.714 265.388 348.913 251.574 336.932C233.155 320.943 213.414 306.912 192.533 294.43C170.831 281.447 148.127 270.605 124.146 262.542C121.547 261.676 119.039 260.628 116.577 259.444C114.799 258.578 114.936 255.936 116.805 255.071C119.86 253.704 122.915 252.428 126.061 251.244C168.05 235.801 206.666 214.39 241.316 186.101C286.816 148.883 323.198 104.285 349.596 51.6233C356.799 37.2281 363 22.3772 368.562 7.29862C369.383 5.02088 370.021 2.65204 371.708 0.784295C372.529 -0.126799 374.261 -0.172354 374.854 0.920959C375.994 3.06203 377.179 5.2031 377.954 7.43528C393.729 51.6233 416.844 91.7115 446.432 128.019C459.061 143.553 472.784 158.13 487.966 171.341C501.051 182.73 514.182 193.936 528.497 203.731C557.995 223.866 589.453 240.174 623.009 252.429C624.422 252.93 625.881 253.431 627.294 254.023C628.662 254.615 630.258 255.162 630.349 256.984C630.486 259.307 628.525 259.991 626.884 260.628C618.677 263.817 610.334 266.733 602.219 270.058C575.958 280.855 551.521 294.84 528.178 310.921C509.622 323.722 492.48 338.208 476.204 353.697C465.034 364.402 454.776 376.064 445.019 388.045C425.004 412.644 408.044 439.203 394.321 467.766C388.258 480.339 382.604 493.094 378.091 506.35C377.316 508.628 376.313 510.86 375.218 513.001C374.808 513.685 373.805 514.004 373.304 514.323Z" fill="#FF4D67"/>
<path d="M292.379 1075.47C292.151 1075.78 291.74 1076.7 291.011 1077.06C288.868 1078.15 286.589 1079.06 284.355 1079.98C264.249 1088.08 245.374 1098.47 228.323 1111.95C200.193 1134.23 178.491 1161.56 164.13 1194.55C161.941 1199.56 159.935 1204.66 157.838 1209.67C157.245 1211.13 156.379 1212.63 154.692 1212.4C153.735 1212.27 152.641 1211.13 152.093 1210.13C151.045 1208.26 150.361 1206.25 149.586 1204.29C139.875 1178.69 125.377 1156.05 107.14 1135.73C94.6481 1121.89 80.1956 1110.31 64.6489 1100.11C51.3817 1091.41 37.2939 1084.3 22.4311 1078.75C20.7442 1078.11 19.1485 1077.24 17.5528 1076.38C16.5953 1075.83 16.5953 1073.78 17.6439 1073.23C20.3338 1071.87 23.0237 1070.41 25.8504 1069.36C38.069 1064.67 49.8316 1059.02 60.9103 1052C72.7642 1044.53 83.9341 1036.24 94.0554 1026.49C107.231 1013.83 119.496 1000.44 129.343 984.903C137.823 971.51 145.3 957.661 150.68 942.719C151.455 940.532 151.638 937.161 154.373 936.934C157.838 936.615 158.203 940.259 159.069 942.674C165.315 959.574 173.43 975.473 183.734 990.278C198.278 1011.14 215.876 1029.05 236.575 1043.9C251.438 1054.56 267.349 1063.44 284.583 1069.73C286.862 1070.55 289.051 1071.64 291.193 1072.73C292.014 1073.14 292.607 1073.92 292.379 1075.47Z" fill="#FF4D67"/>
</g>
<defs>
<clipPath id="clip0_1160_13605">
<rect width="633.2" height="1216.32" fill="white" transform="translate(0 0.101074)"/>
</clipPath>
</defs>
</svg>
