<svg width="4437" height="1217" viewBox="0 0 4437 1217" fill="none" xmlns="http://www.w3.org/2000/svg">
<g clip-path="url(#clip0_751_13467)">
<path d="M549.697 854.059C549.743 876.791 543.588 897.792 531.598 917.107C516.963 940.659 499.775 962.206 481.082 982.66C464.441 1000.88 446.296 1017.42 427.74 1033.54C414.199 1045.3 399.884 1056.05 384.793 1065.8C378.136 1070.08 371.115 1073.68 363.912 1076.96C361.723 1077.96 359.353 1078.51 356.982 1079.05C356.252 1079.24 355.021 1078.87 354.566 1078.28C353.927 1077.51 354.611 1076.55 355.386 1076C356.617 1075.14 357.939 1074.32 359.262 1073.63C367.468 1069.58 374.854 1064.29 381.784 1058.28C403.44 1039.38 416.707 1015.78 421.585 987.535C427.421 954.006 419.169 923.621 399.519 896.289C392.042 885.902 382.513 877.292 372.62 869.229C361.769 860.346 350.006 852.829 337.925 845.814C309.521 829.323 279.795 815.429 250.206 801.307C210.633 782.447 171.424 763.041 135.179 738.35C116.806 725.823 99.6631 711.883 83.8885 696.212C53.3877 665.918 31.7773 630.112 17.4159 589.751C10.486 570.254 5.28859 550.255 2.59869 529.755C-0.501538 505.885 -0.911862 481.969 1.86922 458.052C4.19439 437.78 7.79613 417.782 14.954 398.649C27.0358 366.26 42.6737 335.829 62.9619 307.858C68.8432 299.75 75.0893 291.914 81.2441 284.033C82.3383 282.621 83.6149 281.255 84.9827 280.116C85.5753 279.66 86.8063 279.432 87.4446 279.751C88.0373 280.07 88.63 281.209 88.5388 281.938C88.402 283.441 87.8093 284.853 87.3534 286.311C82.7943 300.797 78.9646 315.512 76.6394 330.545C75.0893 340.43 73.4936 350.315 73.4936 360.383C73.4936 364.027 73.0833 367.626 72.8553 371.271C72.7641 372.774 72.445 374.277 72.5362 375.781C73.7215 402.202 76.7306 428.351 84.2532 453.861C95.1496 490.761 112.611 524.152 137.139 553.808C160.209 581.733 187.472 604.647 219.66 621.548C229.873 626.924 239.766 632.891 250.115 637.993C265.069 645.419 280.206 652.525 295.388 659.45C327.986 674.346 361.587 686.965 394.595 700.95C422.315 712.658 449.578 725.276 476.158 739.398C491.249 747.416 505.337 756.755 517.008 769.51C533.239 787.276 543.543 807.776 547.874 831.373C549.333 838.89 549.925 846.452 549.697 854.059Z" fill="#FF4D67"/>
<path d="M373.304 514.222C371.571 513.994 370.887 512.946 370.431 511.853C368.562 507.07 366.693 502.241 364.869 497.412C355.705 473.177 344.034 450.218 330.174 428.397C318.275 409.674 305.372 391.634 290.509 375.143C278.336 361.614 265.388 348.813 251.574 336.832C233.155 320.842 213.414 306.811 192.533 294.329C170.831 281.346 148.127 270.504 124.146 262.441C121.547 261.576 119.039 260.528 116.577 259.343C114.799 258.478 114.936 255.836 116.805 254.97C119.86 253.603 122.915 252.328 126.061 251.143C168.05 235.7 206.666 214.29 241.316 186C286.816 148.782 323.198 104.184 349.596 51.5228C356.799 37.1275 363 22.2766 368.562 7.19803C369.383 4.9203 370.021 2.55145 371.708 0.683709C372.529 -0.227385 374.261 -0.27294 374.854 0.820373C375.994 2.96144 377.179 5.10252 377.954 7.3347C393.729 51.5228 416.844 91.6109 446.432 127.918C459.061 143.452 472.784 158.03 487.966 171.241C501.051 182.629 514.182 193.836 528.497 203.63C557.995 223.765 589.453 240.074 623.009 252.328C624.422 252.829 625.881 253.33 627.294 253.922C628.662 254.515 630.258 255.061 630.349 256.883C630.486 259.207 628.525 259.89 626.884 260.528C618.677 263.717 610.334 266.632 602.219 269.958C575.958 280.754 551.521 294.739 528.178 310.82C509.622 323.621 492.48 338.107 476.204 353.596C465.034 364.301 454.776 375.963 445.019 387.944C425.004 412.544 408.044 439.102 394.321 467.665C388.258 480.238 382.604 492.993 378.091 506.25C377.316 508.528 376.313 510.76 375.218 512.901C374.808 513.584 373.805 513.903 373.304 514.222Z" fill="#FF4D67"/>
<path d="M292.379 1075.36C292.151 1075.68 291.74 1076.59 291.011 1076.96C288.868 1078.05 286.589 1078.96 284.355 1079.87C264.249 1087.98 245.374 1098.37 228.323 1111.85C200.193 1134.13 178.491 1161.46 164.13 1194.44C161.941 1199.46 159.935 1204.56 157.838 1209.57C157.245 1211.03 156.379 1212.53 154.692 1212.3C153.735 1212.17 152.641 1211.03 152.093 1210.02C151.045 1208.16 150.361 1206.15 149.586 1204.19C139.875 1178.59 125.377 1155.95 107.14 1135.63C94.6481 1121.79 80.1956 1110.21 64.6489 1100.01C51.3817 1091.31 37.2939 1084.2 22.4311 1078.64C20.7442 1078.01 19.1485 1077.14 17.5528 1076.28C16.5953 1075.73 16.5953 1073.68 17.6439 1073.13C20.3338 1071.77 23.0237 1070.31 25.8504 1069.26C38.069 1064.57 49.8316 1058.92 60.9103 1051.9C72.7642 1044.43 83.9341 1036.14 94.0554 1026.39C107.231 1013.73 119.496 1000.34 129.343 984.802C137.823 971.409 145.3 957.56 150.68 942.618C151.455 940.432 151.638 937.061 154.373 936.833C157.838 936.514 158.203 940.159 159.069 942.573C165.315 959.474 173.43 975.372 183.734 990.178C198.278 1011.04 215.876 1028.94 236.575 1043.8C251.438 1054.46 267.349 1063.34 284.583 1069.63C286.862 1070.45 289.051 1071.54 291.193 1072.63C292.014 1073.04 292.607 1073.82 292.379 1075.36Z" fill="#FF4D67"/>
</g>
<g clip-path="url(#clip1_751_13467)">
<path d="M841 938.628C856.188 904.579 870.97 871.422 885.806 838.294C886.254 837.288 887.327 836.566 888.454 835.335C890.236 836.481 891.933 837.439 893.485 838.597C936.278 870.476 984.393 890.55 1035.96 902.985C1077.95 913.11 1120.51 915.899 1163.47 912.34C1183.22 910.703 1202.69 907.204 1221.47 900.541C1236.83 895.091 1251.26 887.912 1263.17 876.563C1285.3 855.476 1292.19 829.745 1285.35 800.225C1282.63 788.524 1276.29 778.733 1267.96 770.178C1258.82 760.799 1247.99 753.833 1236.4 747.964C1219.77 739.536 1202.34 733.079 1184.36 728.35C1152.36 719.935 1120.22 712.066 1088.13 704.02C1056.01 695.969 1024.02 687.535 993.133 675.404C976.945 669.044 961.121 661.932 946.236 652.916C938.994 648.527 931.878 643.865 925.072 638.832C889.345 612.411 867.218 577.373 859.618 533.496C853.661 499.065 855.588 465.004 866.582 431.744C878.715 395.027 900.648 365.077 930.836 341.116C958.781 318.926 990.575 304.393 1024.67 294.675C1055.87 285.78 1087.77 281.027 1120.17 279.687C1149.66 278.469 1179.13 278.748 1208.48 282.319C1265.06 289.212 1319.41 303.575 1369.86 330.84C1376.55 334.459 1382.96 338.588 1390.09 342.832C1384.16 361.093 1376.35 377.869 1369.59 395.033C1362.8 412.258 1355.62 429.325 1348.25 447.319C1344 445.221 1340.45 443.627 1337.05 441.766C1302.13 422.643 1265.3 408.559 1226.43 399.902C1180.17 389.601 1133.65 387.806 1086.91 396.27C1071.36 399.083 1056.33 403.715 1042.13 410.778C1032.68 415.483 1023.84 421.14 1016.23 428.5C994.866 449.168 987.006 474.353 991.757 503.528C994.193 518.485 1001.96 530.574 1012.88 540.772C1021.82 549.12 1032.14 555.438 1043.05 560.816C1060.14 569.231 1078.02 575.627 1096.39 580.423C1128.41 588.777 1160.55 596.647 1192.67 604.602C1225.21 612.659 1257.52 621.438 1288.7 633.94C1310.5 642.682 1331.35 653.244 1350.44 667.079C1383.03 690.706 1406.33 721.22 1414.82 760.859C1432.36 842.829 1410.54 911.97 1344.14 965.002C1314.97 988.307 1281.14 1002.57 1245.24 1011.88C1197.54 1024.25 1149 1027.77 1099.88 1025.23C1060.22 1023.18 1021.18 1017.32 982.812 1007.12C948.357 997.965 915.115 985.64 883.885 968.251C869.042 960 854.861 950.79 841 938.628Z" fill="black"/>
<path d="M2058.95 779.878C2022.93 779.878 1987.03 779.878 1951.12 779.878C1915.18 779.878 1879.24 779.878 1843.31 779.878C1807.37 779.878 1771.43 779.878 1735.49 779.878C1699.61 779.878 1663.74 779.872 1628.46 779.884C1626.12 784.207 1627.51 787.269 1628.33 790.349C1641.99 842.023 1674.08 877.484 1723.11 897.904C1741.51 905.567 1760.83 909.86 1780.61 911.654C1814.32 914.716 1847.54 912.309 1879.84 901.341C1904.67 892.908 1926.62 879.642 1946.03 862.066C1948.72 859.629 1951.41 857.198 1954.12 854.791C1954.41 854.536 1954.85 854.451 1955.22 854.294C1955.6 854.379 1955.99 854.427 1956.36 854.548C1956.74 854.676 1957.18 854.791 1957.43 855.07C1978.45 879.061 1999.47 903.063 2020.46 927.084C2021.77 928.582 2022.92 930.219 2024.47 932.226C2022.4 936.803 2018.75 939.992 2015.48 943.399C1988.1 971.974 1955.18 991.781 1917.98 1004.72C1879.4 1018.13 1839.52 1022.99 1798.84 1022.73C1752.75 1022.42 1708 1015.04 1665.27 997.359C1609.02 974.084 1564.35 937.1 1533.62 884.141C1513.45 849.401 1502.28 811.769 1498.08 771.839C1494.02 733.2 1496.18 694.968 1506.91 657.76C1536.42 555.474 1603.72 491.135 1706.3 464.507C1761.31 450.229 1816.94 451.405 1871.47 467.563C1961.07 494.106 2019.88 552.976 2048.12 641.876C2061.99 685.516 2065.61 730.466 2060.58 776.041C2060.5 776.78 2060 777.471 2058.95 779.878ZM1626.23 693.058C1627.85 693.386 1629.37 693.968 1630.9 693.968C1732.55 693.931 1834.2 693.846 1935.85 693.707C1936.51 693.707 1937.17 692.907 1937.83 692.476C1937.98 692.106 1938.24 691.743 1938.28 691.361C1938.37 690.579 1938.46 689.76 1938.33 688.996C1928.57 632.606 1898.81 591.56 1844.89 570.437C1803.85 554.365 1761.84 554.334 1720.72 570.128C1666.15 591.093 1636.6 632.891 1625.85 689.227C1625.64 690.324 1626.06 691.549 1626.23 693.058Z" fill="black"/>
<path d="M2271.38 780.133C2272.27 784.595 2272.69 787.318 2273.37 789.973C2285.6 837.463 2313.96 871.797 2357.87 893.333C2380.28 904.319 2404.21 909.981 2428.91 911.982C2456.01 914.177 2482.93 912.625 2509.46 905.913C2538.98 898.444 2565.16 884.742 2588.08 864.734C2592.02 861.29 2595.89 857.768 2600.27 853.857C2602.21 855.428 2604.25 856.64 2605.73 858.344C2625.93 881.462 2646.05 904.646 2666.16 927.83C2667.21 929.031 2668.07 930.383 2669.09 931.759C2668.65 935.857 2665.53 938.082 2663.16 940.647C2635.38 970.61 2601.61 991.302 2563.22 1004.68C2524.65 1018.11 2484.78 1022.99 2444.1 1022.73C2398.01 1022.43 2353.13 1015.39 2310.54 997.365C2220.01 959.054 2164.77 891.447 2146.46 794.799C2136.1 740.179 2140.11 686.056 2159.66 633.733C2188.64 556.135 2242.5 502.667 2319.96 474.093C2386.93 449.392 2455.36 448.313 2523.29 469.667C2603.5 494.888 2658.57 548.011 2688.07 626.779C2706.07 674.852 2711.21 724.791 2705.64 775.822C2705.55 776.592 2705.18 777.332 2704.71 778.787C2702.32 779.115 2699.63 779.678 2696.92 779.818C2693.3 780.006 2689.65 779.872 2686.02 779.872C2553.16 779.872 2420.31 779.872 2287.46 779.885C2282.66 779.891 2277.86 780.03 2271.38 780.133ZM2271.69 693.513C2275.44 693.701 2279.01 694.004 2282.57 694.035C2401.94 694.968 2574.45 694.277 2582.9 692.846C2584.78 688.784 2582.77 684.898 2581.94 681.109C2570.02 626.41 2538.59 588.117 2485.72 568.715C2460.35 559.403 2433.92 557.093 2406.96 560.203C2383.33 562.925 2361.1 569.57 2340.86 582.126C2302.55 605.887 2280.96 641.094 2271.75 684.54C2271.2 687.165 2271.69 690.021 2271.69 693.513Z" fill="black"/>
<path d="M2781.58 1015.16C2781.37 1010.15 2781.13 1006.97 2781.13 1003.81C2781.09 984.015 2781.36 964.213 2780.98 944.43C2780.84 937.125 2782.8 931.498 2787.55 925.793C2828.87 876.12 2869.89 826.187 2911.01 776.338C2965.75 709.98 3020.51 643.628 3075.24 577.264C3077.76 574.208 3080.1 571.007 3082.33 568.121C3081.17 564.993 3078.91 565.539 3077.04 565.478C3073.41 565.351 3069.77 565.417 3066.14 565.417C2978.52 565.417 2890.9 565.423 2803.28 565.387C2798.52 565.387 2793.67 565.957 2789.04 564.563C2788.5 563.017 2787.79 561.919 2787.79 560.816C2787.7 529.713 2787.67 498.605 2787.69 467.502C2787.69 465.975 2788.16 464.447 2788.27 463.846C2789.23 462.761 2789.45 462.379 2789.78 462.179C2790.1 461.985 2790.54 461.894 2790.93 461.894C2939.91 461.773 3088.9 461.664 3237.89 461.555C3241.51 461.555 3245.13 461.555 3249.22 461.555C3249.85 463.774 3250.8 465.605 3250.82 467.436C3250.93 490.869 3250.76 514.295 3251.05 537.728C3251.11 543.215 3248.38 546.768 3245.27 550.521C3221.54 579.119 3197.85 607.742 3174.16 636.365C3101.28 724.41 3028.4 812.454 2955.56 900.535C2953.08 903.53 2949.74 906.059 2948.98 910.121C2951.39 913.061 2954.41 911.946 2957.05 911.952C2986.12 912.031 3015.19 912.006 3044.27 912.006C3110.89 912.006 3177.51 912.006 3244.14 912.006C3248.54 912.006 3252.93 912.006 3257.8 912.006C3258.46 914.553 3259.36 916.384 3259.37 918.215C3259.45 948.511 3259.44 978.813 3259.39 1009.11C3259.39 1010.66 3258.85 1012.21 3258.48 1014.24C3256.02 1014.65 3253.73 1015.21 3251.42 1015.37C3248.61 1015.57 3245.77 1015.43 3242.94 1015.43C3094.36 1015.43 2945.76 1015.43 2797.18 1015.42C2792.39 1015.42 2787.59 1015.27 2781.58 1015.16Z" fill="black"/>
<path d="M3695.91 571.686C3691.44 568.303 3687.26 569.352 3683.34 569.334C3661.54 569.231 3639.73 569.31 3617.92 569.261C3613.97 569.249 3610.03 568.934 3605.68 568.74C3603.71 556.832 3604.91 545.573 3604.69 534.381C3604.47 523.48 3604.64 512.567 3604.64 501.66C3604.64 490.402 3604.64 479.149 3604.64 468.606C3608.44 464.871 3612.26 465.926 3615.72 465.908C3637.93 465.805 3660.14 465.871 3682.35 465.835C3686.32 465.829 3690.29 465.574 3693.81 465.453C3697.35 461.324 3696.11 457.11 3696.12 453.236C3696.22 420.109 3696.17 386.987 3696.18 353.86C3696.18 349.465 3696.34 345.063 3696.42 340.279C3699.4 339.764 3701.7 339.018 3704 339.012C3741.95 338.939 3779.91 338.952 3817.86 338.988C3819.82 338.988 3821.78 339.376 3823.72 339.582C3826.36 343.656 3825.37 347.785 3825.38 351.677C3825.46 384.805 3825.42 417.926 3825.44 451.054C3825.44 455.413 3825.61 459.772 3825.69 463.901C3830.6 466.756 3835.14 465.792 3839.46 465.805C3879.43 465.883 3919.4 465.835 3959.38 465.877C3963.71 465.883 3968.04 466.217 3972.14 466.387C3974 476.39 3974.35 554.213 3972.69 567.764C3968.88 570.322 3964.31 569.213 3960.04 569.225C3920.07 569.328 3880.1 569.273 3840.12 569.303C3835.76 569.31 3831.39 569.601 3826.27 569.782C3825.95 574.02 3825.47 577.507 3825.46 580.999C3825.4 611.701 3825.43 642.403 3825.43 673.106C3825.43 725.622 3825.45 778.138 3825.41 830.655C3825.4 842.841 3826.58 854.864 3829.99 866.583C3838.09 894.424 3858.52 911.915 3887.33 914.922C3917.07 918.026 3945.3 913.461 3970.65 896.376C3971.64 895.709 3972.8 895.309 3973.87 894.788C3978.89 901.881 4002.32 959.575 4010.42 984.882C4008.73 986.519 4006.99 988.707 4004.8 990.241C3987.72 1002.2 3968.83 1010.17 3948.66 1015.09C3901.74 1026.51 3854.93 1025.87 3808.76 1011.71C3765.7 998.505 3733.55 971.871 3714.34 930.589C3706.61 914.007 3701.95 896.503 3699.05 878.466C3696.66 863.649 3696.17 848.74 3696.17 833.783C3696.18 750.971 3696.17 668.158 3696.16 585.34C3696.17 580.568 3695.99 575.803 3695.91 571.686Z" fill="black"/>
<path d="M4120.95 569.492C4110.6 569.419 4100.95 569.322 4091.3 569.285C4081.21 569.249 4071.1 569.376 4061.01 569.249C4051.44 569.128 4041.81 569.88 4031.78 568.588C4031.47 565.939 4031.09 564.011 4031.03 562.077C4030.15 535.352 4030.72 477.615 4031.95 467.545C4034.96 464.913 4038.76 465.92 4042.24 465.902C4064.45 465.799 4086.67 465.871 4108.89 465.823C4112.84 465.817 4116.78 465.502 4120.64 465.338C4123.2 460.482 4122.35 455.965 4122.36 451.642C4122.44 418.909 4122.36 386.175 4122.46 353.442C4122.47 349.083 4121.49 344.554 4123.78 340.243C4124.87 339.885 4126 339.188 4127.12 339.182C4166.7 339.085 4206.29 339.049 4245.87 339.061C4247.41 339.061 4248.95 339.667 4251.28 340.158C4251.45 344.257 4251.75 348.185 4251.75 352.12C4251.79 385.66 4251.76 419.206 4251.8 452.745C4251.81 456.668 4252.16 460.591 4252.39 465.259C4265.2 466.381 4277.26 465.708 4289.27 465.823C4301.38 465.944 4313.5 465.847 4325.62 465.847C4337.73 465.847 4349.85 465.841 4361.97 465.847C4374.03 465.853 4386.09 465.871 4398.43 465.884C4399.04 468.115 4399.81 469.594 4399.81 471.073C4399.88 501.788 4399.88 532.496 4399.85 563.21C4399.85 564.744 4399.4 566.278 4399.1 568.164C4394.53 569.746 4390.1 569.249 4385.76 569.249C4345.78 569.292 4305.79 569.249 4265.8 569.31C4261.45 569.316 4256.93 568.515 4252.24 571.019C4252.09 574.506 4251.79 578.077 4251.79 581.642C4251.78 665.297 4251.8 748.946 4251.77 832.601C4251.76 843.981 4252.98 855.179 4256.16 866.123C4264.61 895.133 4285.5 912.491 4315.58 915.129C4344.53 917.669 4371.93 913.067 4396.59 896.595C4397.85 895.752 4399.37 895.309 4401.53 894.339C4413.61 924.672 4425.6 954.537 4437.01 984.991C4434.42 987.228 4432.5 989.235 4430.25 990.787C4413.78 1002.17 4395.62 1009.83 4376.29 1014.74C4331.09 1026.19 4285.75 1026.02 4240.96 1013.49C4179.79 996.377 4142.67 955.695 4128.26 894.018C4123.64 874.229 4122.37 854.106 4122.38 833.844C4122.43 751.001 4122.41 668.152 4122.37 585.31C4122.36 580.55 4123.04 575.688 4120.95 569.492Z" fill="black"/>
<path d="M3379.96 462.464C3392.46 461.118 3496.59 461.275 3507.12 462.676C3507.42 464.731 3507.89 466.999 3508.03 469.29C3508.2 472.11 3508.09 474.941 3508.09 477.772C3508.09 651.455 3508.09 825.143 3508.09 998.826C3508.09 1003.63 3508.09 1008.44 3508.09 1013.83C3505.28 1014.43 3503.05 1015.33 3500.82 1015.33C3462.47 1015.41 3424.12 1015.4 3385.76 1015.35C3383.85 1015.35 3381.94 1014.88 3379.42 1014.54C3379.17 1011.27 3378.84 1008.54 3378.79 1005.81C3377.09 905.682 3377.95 476.135 3379.96 462.464Z" fill="black"/>
<path d="M3334.75 300.501C3346.91 294.123 3358.89 288.351 3370.34 281.676C3381.52 275.158 3391.39 266.743 3400.53 257.54C3409.96 248.057 3418.57 237.854 3425.21 226.249C3431.58 215.118 3437.17 203.532 3443.69 191.006C3453.4 216.567 3466.92 238.733 3485.68 257.515C3504.5 276.353 3526.55 290.146 3552.83 299.889C3550.05 301.598 3548.63 302.768 3547 303.423C3499.28 322.746 3465.66 356.206 3446.26 403.939C3445.66 405.419 3444.83 406.813 3444.05 408.214C3443.9 408.486 3443.49 408.614 3443.14 408.85C3436.99 397.119 3431.25 385.163 3424.59 373.734C3418.07 362.548 3409.69 352.672 3400.52 343.487C3391.07 334.01 3380.89 325.383 3369.33 318.696C3358.21 312.257 3346.59 306.679 3334.75 300.501Z" fill="black"/>
</g>
<defs>
<clipPath id="clip0_751_13467">
<rect width="633.2" height="1216.32" fill="white"/>
</clipPath>
<clipPath id="clip1_751_13467">
<rect width="3596" height="835" fill="white" transform="translate(841 191)"/>
</clipPath>
</defs>
</svg>
