<svg width="134" height="84" viewBox="0 0 134 84" fill="none" xmlns="http://www.w3.org/2000/svg">
<g clip-path="url(#clip0_10623_16069)">
<path d="M77.0573 34.8246C77.0524 35.0988 77.0296 35.3726 76.9892 35.6434C76.5541 38.5606 74.1067 40.872 71.7652 42.4293C70.7753 43.0877 69.7042 43.7384 68.5285 43.9888C68.5141 43.9919 68.4995 43.9949 68.4847 43.9953C68.482 43.9953 68.4491 43.9919 68.4513 43.9898C68.6158 43.8313 68.7837 43.6756 68.937 43.506C69.0679 43.3612 69.1903 43.2087 69.3047 43.0505C69.422 42.8885 69.5307 42.7201 69.6315 42.5473C69.7339 42.3716 69.8281 42.1908 69.9142 42.0064C70.0008 41.8205 70.0794 41.6309 70.1495 41.4382C70.2196 41.2458 70.2811 41.0506 70.3342 40.8528C70.3865 40.6574 70.4306 40.4596 70.4653 40.2603C70.4994 40.0651 70.5245 39.8683 70.5396 39.6707C70.5542 39.479 70.5593 39.2865 70.5534 39.0945C70.5532 39.0899 70.5532 39.085 70.5529 39.0804C70.5133 37.8854 70.0373 36.7386 69.2305 35.8561C68.0029 34.5136 66.1884 33.7669 64.5712 33.0067C61.0763 31.364 57.5542 29.6174 55.4762 26.2077C53.5351 23.0228 53.0551 18.7098 54.8642 15.3546C55.5784 14.0301 56.4719 12.8325 57.3958 11.6489C57.4403 11.5915 57.4921 11.536 57.5479 11.4896C57.5719 11.4711 57.6218 11.4618 57.6479 11.4747C57.6719 11.4876 57.696 11.5341 57.6924 11.5635C57.6868 11.6246 57.6564 11.6803 57.6442 11.7414C56.8987 15.4801 58.0627 19.4444 60.4381 22.3816C61.4275 23.6048 62.6896 24.5718 64.0447 25.358C65.8743 26.4194 67.8498 27.1878 69.8045 27.9818C71.5219 28.6794 73.3529 29.3556 74.8552 30.4678C75.894 31.237 76.6889 32.2741 76.9456 33.56C77.0284 33.9756 77.0646 34.4005 77.0573 34.8246Z" fill="#FF4D67"/>
<path d="M69.4069 20.9069C69.3363 20.8977 69.3086 20.8551 69.2901 20.8106C69.2139 20.6162 69.138 20.4198 69.0638 20.2234C68.6913 19.2382 68.2168 18.3046 67.6532 17.4174C67.1695 16.6563 66.6449 15.9226 66.0407 15.2523C65.5458 14.7021 65.0192 14.1819 64.4576 13.6947C63.7087 13.0446 62.9062 12.4742 62.0572 11.9666C61.1749 11.4388 60.2517 10.9979 59.2767 10.6702C59.1711 10.6349 59.0692 10.5923 58.9692 10.5441C58.8969 10.5088 58.9022 10.4015 58.9784 10.3663C59.1025 10.3108 59.2268 10.2587 59.3546 10.2108C61.0618 9.58299 62.6317 8.71237 64.0406 7.56216C65.8906 6.04891 67.3698 4.23588 68.4428 2.0946C68.7358 1.5094 68.9879 0.905465 69.2139 0.292525C69.2473 0.199817 69.2733 0.103703 69.3419 0.027785C69.3753 -0.00920065 69.4456 -0.0111473 69.4699 0.0333815C69.5162 0.120493 69.5643 0.20736 69.596 0.298121C70.2371 2.0946 71.1771 3.72465 72.3799 5.20067C72.8935 5.83235 73.4515 6.42485 74.0686 6.96211C74.6007 7.42517 75.1346 7.88067 75.7164 8.279C76.9157 9.09755 78.1947 9.76062 79.559 10.259C79.6164 10.2794 79.6758 10.2996 79.7332 10.3237C79.7889 10.3478 79.8537 10.3699 79.8575 10.4441C79.8629 10.5385 79.7833 10.5663 79.7167 10.5923C79.3828 10.722 79.0436 10.8405 78.7137 10.9758C77.6462 11.4148 76.6524 11.9834 75.7035 12.6372C74.9492 13.1577 74.252 13.7466 73.5904 14.3763C73.1364 14.8116 72.7193 15.2856 72.3224 15.7727C71.5088 16.7728 70.8192 17.8527 70.2612 19.0139C70.0147 19.5251 69.785 20.0436 69.6013 20.5826C69.5699 20.6753 69.5291 20.7661 69.4845 20.8529C69.468 20.8811 69.4271 20.894 69.4069 20.9069Z" fill="#FF4D67"/>
<path d="M66.1164 43.7229C66.1072 43.7361 66.0904 43.7731 66.0607 43.7879C65.9736 43.8322 65.8809 43.8694 65.7901 43.9064C64.9728 44.2361 64.2054 44.6583 63.5121 45.2065C62.3685 46.1122 61.4862 47.2234 60.9022 48.5644C60.8131 48.7681 60.7316 48.9756 60.6465 49.1793C60.6224 49.2387 60.5871 49.2997 60.5185 49.2905C60.4795 49.2849 60.435 49.2387 60.4129 49.1978C60.3703 49.1219 60.3425 49.0404 60.3109 48.9608C59.916 47.9198 59.3267 46.9993 58.5852 46.1735C58.0774 45.6104 57.4898 45.1398 56.8576 44.725C56.3182 44.3712 55.7454 44.0823 55.1412 43.8563C55.0726 43.8305 55.0076 43.7952 54.9429 43.7602C54.9039 43.7378 54.9039 43.6546 54.9465 43.6322C55.056 43.5767 55.1653 43.5173 55.2801 43.4747C55.777 43.284 56.2551 43.0545 56.7055 42.7691C57.1876 42.4654 57.6416 42.1284 58.0533 41.732C58.5889 41.2172 59.0875 40.6726 59.488 40.0409C59.8328 39.4966 60.1367 38.9335 60.3554 38.3259C60.3868 38.2371 60.3944 38.0999 60.5056 38.0906C60.6465 38.0777 60.6613 38.2259 60.6966 38.324C60.9504 39.0112 61.2803 39.6577 61.6993 40.2597C62.2906 41.1079 63.006 41.8357 63.8477 42.4394C64.4519 42.873 65.0989 43.2341 65.7994 43.4896C65.8921 43.5229 65.9812 43.5674 66.0683 43.612C66.1016 43.6285 66.1257 43.6602 66.1164 43.7229Z" fill="#FF4D67"/>
<mask id="mask0_10623_16069" style="mask-type:luminance" maskUnits="userSpaceOnUse" x="0" y="53" width="133" height="31">
<path d="M132.687 53H0.5V83.6942H132.687V53Z" fill="white"/>
</mask>
<g mask="url(#mask0_10623_16069)">
<path d="M0.5 80.4807C1.05838 79.2291 1.60168 78.0101 2.14719 76.7923C2.16374 76.7555 2.20307 76.7291 2.24461 76.6838C2.31004 76.7258 2.37253 76.761 2.42951 76.8037C4.00245 77.9756 5.77132 78.7133 7.66664 79.1703C9.21017 79.5426 10.7747 79.6452 12.3538 79.5143C13.0798 79.454 13.7955 79.3254 14.4855 79.0806C15.0502 78.8802 15.5806 78.6163 16.0184 78.1991C16.8319 77.4242 17.0852 76.4784 16.8337 75.3932C16.7341 74.9628 16.5007 74.6029 16.1945 74.2886C15.8589 73.9438 15.4604 73.6876 15.0343 73.4718C14.423 73.1623 13.7823 72.9248 13.1214 72.7509C11.9451 72.4418 10.7636 72.1525 9.58364 71.8566C8.40293 71.5607 7.22736 71.2508 6.09186 70.8045C5.49672 70.5707 4.91519 70.3094 4.36784 69.9782C4.1017 69.8168 3.83997 69.6451 3.59 69.4602C2.27659 68.4891 1.46347 67.201 1.1841 65.5884C0.965008 64.3227 1.03595 63.0703 1.43994 61.8477C1.88583 60.4983 2.69234 59.3973 3.80174 58.5166C4.8288 57.7009 5.99775 57.1664 7.25125 56.8091C8.39815 56.4823 9.57078 56.3077 10.7618 56.2584C11.8458 56.2136 12.9291 56.2239 14.0084 56.3551C16.0879 56.6084 18.0861 57.1362 19.9406 58.1387C20.1866 58.2717 20.4222 58.4236 20.6843 58.5794C20.4663 59.2506 20.1792 59.8675 19.9307 60.4983C19.6815 61.1316 19.4172 61.7587 19.1466 62.4204C18.99 62.3432 18.8599 62.2848 18.7346 62.2164C17.4509 61.5132 16.0974 60.9956 14.6682 60.6773C12.9677 60.2987 11.258 60.2329 9.5399 60.5438C8.96829 60.6471 8.41579 60.8177 7.89381 61.0772C7.54606 61.25 7.22148 61.4581 6.94174 61.7286C6.15655 62.4884 5.86762 63.414 6.04223 64.4867C6.13193 65.0362 6.41755 65.4806 6.81896 65.8556C7.14759 66.1625 7.52695 66.3949 7.928 66.5926C8.55622 66.9018 9.21311 67.137 9.88875 67.3131C11.0658 67.6204 12.2472 67.9097 13.428 68.202C14.6241 68.4982 15.8118 68.821 16.9576 69.2805C17.7593 69.6018 18.5254 69.9899 19.2275 70.4987C20.4255 71.3673 21.282 72.4889 21.5937 73.946C22.2388 76.9592 21.4368 79.5007 18.9959 81.4501C17.9233 82.3069 16.6801 82.8311 15.3604 83.1734C13.607 83.6281 11.8227 83.7575 10.017 83.6641C8.55916 83.5888 7.12407 83.3733 5.7136 82.9984C4.44724 82.6621 3.22498 82.2088 2.07698 81.5696C1.53074 81.2663 1.00949 80.9277 0.5 80.4807Z" fill="white"/>
<path d="M45.273 74.6458C43.9489 74.6458 42.6292 74.6458 41.3092 74.6458C39.9881 74.6458 38.6673 74.6458 37.3462 74.6458C36.025 74.6458 34.7039 74.6458 33.3827 74.6458C32.0642 74.6458 30.7456 74.6454 29.4487 74.6458C29.3627 74.805 29.4138 74.9174 29.444 75.0307C29.9461 76.93 31.1253 78.2335 32.928 78.9841C33.6044 79.2661 34.3146 79.4238 35.0417 79.4896C36.2809 79.6024 37.502 79.5139 38.6893 79.1106C39.6025 78.8007 40.409 78.3129 41.1225 77.6671C41.2213 77.5774 41.3202 77.488 41.4198 77.3994C41.4305 77.3903 41.4467 77.3869 41.4603 77.3811C41.4742 77.3844 41.4886 77.3862 41.5022 77.3906C41.5162 77.3954 41.5323 77.3994 41.5415 77.4097C42.3142 78.2916 43.0869 79.1738 43.8585 80.0568C43.9066 80.1119 43.9489 80.1722 44.0059 80.2461C43.9298 80.4141 43.7956 80.5313 43.6754 80.6567C42.6689 81.7069 41.4588 82.4351 40.0914 82.9108C38.6732 83.4037 37.2072 83.5824 35.7118 83.5728C34.0176 83.5614 32.3726 83.2902 30.8019 82.6402C28.7341 81.7845 27.0921 80.4251 25.9625 78.4783C25.2214 77.2013 24.8108 75.8181 24.6564 74.3502C24.5068 72.9299 24.5866 71.5245 24.981 70.1567C26.0654 66.3966 28.5397 64.0318 32.3105 63.0529C34.3326 62.528 36.3775 62.5714 38.3824 63.1651C41.6761 64.141 43.8375 66.305 44.8756 69.573C45.3855 71.1772 45.5185 72.8295 45.3336 74.5046C45.3303 74.5318 45.3116 74.5572 45.273 74.6458ZM29.3664 71.4543C29.4259 71.4665 29.4818 71.4878 29.5381 71.4878C33.2747 71.4863 37.0113 71.4834 40.7479 71.4782C40.7721 71.4782 40.7964 71.4488 40.8207 71.433C40.8262 71.4194 40.8357 71.4058 40.8372 71.3918C40.8405 71.3632 40.8438 71.333 40.839 71.3051C40.4803 69.2322 39.3863 67.7232 37.4042 66.9469C35.8956 66.3558 34.3514 66.3547 32.8398 66.9355C30.8338 67.706 29.7472 69.2425 29.3521 71.3135C29.3447 71.3536 29.3601 71.3988 29.3664 71.4543Z" fill="white"/>
<path d="M53.0812 74.6559C53.1139 74.8202 53.1293 74.9202 53.1543 75.0176C53.6039 76.7633 54.6464 78.0256 56.2605 78.8171C57.0843 79.221 57.9639 79.4291 58.8719 79.5026C59.8681 79.5835 60.8576 79.5261 61.8329 79.2795C62.918 79.0049 63.8804 78.5013 64.7229 77.7657C64.8677 77.6393 65.01 77.5099 65.171 77.3662C65.2423 77.4239 65.3173 77.4684 65.3717 77.5308C66.1143 78.3807 66.8539 79.2332 67.5931 80.0853C67.6317 80.1294 67.6633 80.179 67.7008 80.2297C67.6846 80.3804 67.5699 80.462 67.4828 80.5565C66.4616 81.6578 65.2203 82.4184 63.8091 82.9102C62.3912 83.4039 60.9256 83.5833 59.4303 83.5737C57.736 83.5627 56.0863 83.3039 54.5207 82.6415C51.1928 81.2329 49.1622 78.748 48.4892 75.1951C48.1083 73.1873 48.2557 71.1979 48.9744 69.2743C50.0397 66.4221 52.0195 64.4566 54.8669 63.406C57.3287 62.498 59.8442 62.4583 62.3413 63.2435C65.2897 64.1706 67.3141 66.1233 68.3985 69.0188C69.0602 70.7858 69.2491 72.6216 69.0444 74.4975C69.041 74.5258 69.0274 74.553 69.0102 74.6066C68.9223 74.6184 68.8234 74.6393 68.7238 74.6445C68.5907 74.6515 68.4566 74.6463 68.3231 74.6463C63.4393 74.6463 58.5558 74.6463 53.6723 74.6467C53.4958 74.6471 53.3194 74.6522 53.0812 74.6559ZM53.0926 71.4718C53.2304 71.4788 53.3616 71.4898 53.4925 71.4909C57.8805 71.5254 64.2219 71.5001 64.5325 71.4475C64.6016 71.2979 64.5277 71.1553 64.4972 71.016C64.059 69.0052 62.9037 67.5977 60.9602 66.8846C60.0276 66.542 59.0561 66.457 58.065 66.5714C57.1964 66.6717 56.3792 66.9158 55.6352 67.3775C54.227 68.2509 53.4333 69.5448 53.0948 71.142C53.0745 71.2387 53.0926 71.3435 53.0926 71.4718Z" fill="white"/>
<path d="M71.8348 83.2957C71.8271 83.1116 71.8183 82.9947 71.8183 82.8785C71.8168 82.1507 71.8267 81.4228 71.8128 80.6957C71.8076 80.427 71.8797 80.2204 72.0539 80.0106C73.5732 78.1847 75.081 76.3493 76.5926 74.5168C78.6048 72.0775 80.6178 69.6385 82.6296 67.1988C82.7222 67.0866 82.8083 66.969 82.8902 66.8628C82.8476 66.7477 82.7645 66.7679 82.6958 66.7657C82.5623 66.7609 82.4285 66.7635 82.2951 66.7635C79.0742 66.7635 75.8534 66.7635 72.6325 66.7624C72.4575 66.7624 72.2792 66.7834 72.109 66.7319C72.0892 66.6753 72.0631 66.6349 72.0631 66.5944C72.0598 65.4508 72.0587 64.3073 72.0594 63.164C72.0594 63.1078 72.0767 63.0519 72.0807 63.0299C72.116 62.9898 72.1241 62.9758 72.1362 62.9685C72.148 62.9615 72.1642 62.9578 72.1785 62.9578C77.6549 62.9534 83.1317 62.9494 88.6085 62.9453C88.7416 62.9453 88.8747 62.9453 89.025 62.9453C89.0482 63.0269 89.0831 63.0942 89.0839 63.1618C89.0879 64.0231 89.0816 64.8844 89.0923 65.7457C89.0945 65.9475 88.9942 66.078 88.8795 66.2158C88.0075 67.2671 87.1367 68.3192 86.2659 69.3712C83.5868 72.6079 80.9078 75.8442 78.2302 79.0824C78.1391 79.1923 78.0163 79.2853 77.988 79.4345C78.0769 79.5426 78.188 79.5018 78.285 79.5018C79.3536 79.5047 80.4222 79.504 81.4912 79.504C83.9401 79.504 86.389 79.504 88.8383 79.504C89 79.504 89.1614 79.504 89.3404 79.504C89.3647 79.5974 89.3978 79.6646 89.3981 79.7319C89.4011 80.8457 89.4007 81.9595 89.3989 83.0734C89.3989 83.1303 89.379 83.1873 89.3654 83.2619C89.275 83.277 89.1908 83.2976 89.1059 83.3035C89.0026 83.3108 88.8982 83.3057 88.7942 83.3057C83.3325 83.3057 77.87 83.3057 72.4083 83.3053C72.2322 83.3053 72.0557 83.2998 71.8348 83.2957Z" fill="white"/>
<path d="M105.445 66.9926C105.281 66.868 105.127 66.9066 104.983 66.9059C104.182 66.9022 103.38 66.9051 102.578 66.9033C102.433 66.9029 102.288 66.8912 102.128 66.8842C102.056 66.4464 102.1 66.0325 102.092 65.6211C102.084 65.2205 102.09 64.8194 102.09 64.4184C102.09 64.0044 102.09 63.5909 102.09 63.2035C102.23 63.066 102.37 63.1049 102.497 63.1042C103.314 63.1002 104.13 63.1027 104.947 63.1013C105.093 63.1013 105.239 63.0917 105.368 63.0873C105.498 62.9355 105.452 62.7807 105.453 62.6385C105.456 61.4206 105.455 60.2032 105.455 58.9853C105.455 58.8236 105.461 58.6618 105.464 58.4861C105.573 58.467 105.658 58.4398 105.742 58.4394C107.138 58.4369 108.533 58.4372 109.928 58.4387C110 58.4387 110.072 58.453 110.143 58.4604C110.24 58.6104 110.204 58.7622 110.204 58.9052C110.207 60.1226 110.206 61.3405 110.207 62.558C110.207 62.7182 110.213 62.8785 110.216 63.0303C110.396 63.1355 110.563 63.0998 110.722 63.1002C112.191 63.1031 113.66 63.1013 115.13 63.1031C115.289 63.1031 115.448 63.1156 115.599 63.1219C115.668 63.4894 115.68 66.3501 115.619 66.8482C115.479 66.9423 115.311 66.9015 115.154 66.9018C113.685 66.9059 112.216 66.9037 110.746 66.9048C110.586 66.9051 110.425 66.9158 110.237 66.9224C110.225 67.0783 110.208 67.2066 110.207 67.3349C110.205 68.4634 110.206 69.5919 110.206 70.7208C110.206 72.651 110.207 74.5816 110.205 76.5119C110.205 76.96 110.248 77.4018 110.374 77.8327C110.672 78.856 111.423 79.4993 112.482 79.6096C113.575 79.7239 114.613 79.5559 115.544 78.9281C115.581 78.9034 115.623 78.8887 115.663 78.8696C115.847 79.1303 116.709 81.2513 117.006 82.1813C116.944 82.2416 116.88 82.3221 116.8 82.3783C116.172 82.818 115.477 83.1109 114.736 83.2918C113.011 83.7116 111.291 83.6881 109.593 83.1676C108.011 82.682 106.829 81.7031 106.123 80.1856C105.838 79.5762 105.667 78.9325 105.561 78.2697C105.473 77.7249 105.455 77.1769 105.455 76.6269C105.455 73.5829 105.455 70.5388 105.454 67.4944C105.455 67.3191 105.448 67.1437 105.445 66.9926Z" fill="white"/>
<path d="M121.07 66.912C120.69 66.9094 120.335 66.9057 119.98 66.9046C119.61 66.9031 119.238 66.9079 118.867 66.9031C118.515 66.8987 118.161 66.9263 117.793 66.8789C117.781 66.7815 117.767 66.7105 117.765 66.6396C117.733 65.657 117.754 63.5349 117.799 63.1643C117.909 63.0676 118.049 63.1048 118.177 63.104C118.993 63.1004 119.81 63.1029 120.627 63.1011C120.772 63.1011 120.917 63.0893 121.059 63.0835C121.153 62.9048 121.122 62.7386 121.122 62.5798C121.125 61.3767 121.122 60.1736 121.126 58.9701C121.126 58.8098 121.09 58.6433 121.174 58.4848C121.214 58.472 121.256 58.4462 121.297 58.4459C122.752 58.4426 124.207 58.4411 125.662 58.4415C125.719 58.4415 125.776 58.4639 125.861 58.4819C125.867 58.6326 125.879 58.7771 125.879 58.9215C125.88 60.1545 125.879 61.3877 125.88 62.6206C125.881 62.7647 125.894 62.9088 125.902 63.0805C126.373 63.1217 126.816 63.0971 127.258 63.1011C127.703 63.1055 128.148 63.1022 128.594 63.1022C129.039 63.1022 129.485 63.1018 129.93 63.1022C130.373 63.1022 130.817 63.1029 131.27 63.1033C131.293 63.1853 131.321 63.2397 131.321 63.2941C131.324 64.4233 131.324 65.5522 131.323 66.6811C131.323 66.7373 131.306 66.794 131.295 66.8631C131.127 66.9215 130.964 66.9031 130.805 66.9031C129.335 66.9046 127.865 66.9031 126.395 66.9053C126.235 66.9057 126.069 66.8763 125.897 66.9682C125.891 67.0965 125.88 67.2277 125.88 67.3586C125.88 70.4339 125.88 73.5088 125.879 76.5838C125.879 77.0021 125.924 77.4138 126.041 77.8159C126.351 78.8823 127.119 79.5205 128.225 79.6175C129.289 79.7109 130.296 79.5418 131.203 78.936C131.249 78.9051 131.305 78.8889 131.384 78.8533C131.828 79.9682 132.269 81.0662 132.689 82.1855C132.593 82.2679 132.523 82.3414 132.44 82.3987C131.835 82.8171 131.167 83.0986 130.457 83.2791C128.795 83.7 127.128 83.6938 125.482 83.2332C123.233 82.6042 121.869 81.1089 121.339 78.8415C121.169 78.1141 121.123 77.3745 121.123 76.6293C121.125 73.5842 121.124 70.5387 121.123 67.4935C121.122 67.3185 121.147 67.1399 121.07 66.912Z" fill="white"/>
<path d="M93.8303 62.9792C94.2898 62.93 98.1176 62.9359 98.5047 62.9873C98.5157 63.0627 98.533 63.1461 98.5381 63.2303C98.5444 63.334 98.5403 63.438 98.5403 63.542C98.5403 69.9264 98.5403 76.3112 98.5403 82.6959C98.5403 82.8724 98.5403 83.0492 98.5403 83.2473C98.437 83.2694 98.3551 83.3025 98.2731 83.3025C96.8634 83.3054 95.4536 83.305 94.0435 83.3032C93.9733 83.3032 93.9031 83.2859 93.8105 83.2734C93.8013 83.1532 93.7892 83.0529 93.7873 82.9525C93.7248 79.2718 93.7564 63.4821 93.8303 62.9792Z" fill="white"/>
<path d="M92.168 57.0248C92.615 56.7902 93.0553 56.5781 93.4762 56.3329C93.8872 56.0933 94.25 55.7838 94.586 55.4456C94.9327 55.0971 95.2491 54.7218 95.4932 54.2954C95.7274 53.8862 95.9329 53.4602 96.1725 53C96.5295 53.9395 97.0265 54.7541 97.7161 55.4448C98.4079 56.137 99.2184 56.6443 100.184 57.0023C100.082 57.0652 100.03 57.1082 99.9702 57.1321C98.216 57.8427 96.9802 59.0726 96.267 60.8272C96.245 60.8816 96.2145 60.9327 96.1858 60.9841C96.1803 60.9944 96.1652 60.9988 96.1523 61.0077C95.9263 60.5765 95.7153 60.1368 95.4704 59.7167C95.2308 59.3057 94.9227 58.9425 94.5856 58.6051C94.2383 58.2566 93.8641 57.9393 93.4391 57.6938C93.0303 57.4571 92.6032 57.2519 92.168 57.0248Z" fill="white"/>
</g>
</g>
<defs>
<clipPath id="clip0_10623_16069">
<rect width="133" height="84" fill="white" transform="translate(0.5)"/>
</clipPath>
</defs>
</svg>
