<svg width="25" height="24" viewBox="0 0 25 24" fill="none" xmlns="http://www.w3.org/2000/svg">
<g clip-path="url(#clip0_8281_6764)">
<path d="M2.90164 14.6201C1.4566 14.6201 0.28125 13.4454 0.28125 12.0001C0.28125 10.5557 1.4566 9.38013 2.90164 9.38013C4.34667 9.38013 5.52203 10.5556 5.52203 12.0001C5.52196 13.4454 4.34667 14.6201 2.90164 14.6201ZM12.134 14.6201C10.6889 14.6201 9.51359 13.4454 9.51359 12.0001C9.51359 10.5557 10.6889 9.38013 12.134 9.38013C13.5788 9.38013 14.7544 10.5556 14.7544 12.0001C14.7543 13.4454 13.5788 14.6201 12.134 14.6201ZM21.6609 14.6201C20.2161 14.6201 19.0405 13.4454 19.0405 12.0001C19.0405 10.5557 20.216 9.38013 21.6609 9.38013C23.1057 9.38013 24.2812 10.5556 24.2812 12.0001C24.2812 13.4454 23.1057 14.6201 21.6609 14.6201Z" fill="#5448B2"/>
</g>
<defs>
<clipPath id="clip0_8281_6764">
<rect width="24" height="24" fill="white" transform="translate(0.28125)"/>
</clipPath>
</defs>
</svg>
