<svg width="24" height="24" viewBox="0 0 24 24" fill="none" xmlns="http://www.w3.org/2000/svg">
<path d="M2.62039 14.62C1.17535 14.62 0 13.4452 0 12C0 10.5555 1.17535 9.38 2.62039 9.38C4.06542 9.38 5.24078 10.5555 5.24078 12C5.24071 13.4452 4.06542 14.62 2.62039 14.62ZM11.8527 14.62C10.4077 14.62 9.23234 13.4452 9.23234 12C9.23234 10.5555 10.4077 9.38 11.8527 9.38C13.2975 9.38 14.4731 10.5555 14.4731 12C14.4731 13.4452 13.2975 14.62 11.8527 14.62ZM21.3796 14.62C19.9348 14.62 18.7592 13.4452 18.7592 12C18.7592 10.5555 19.9348 9.38 21.3796 9.38C22.8245 9.38 24 10.5555 24 12C24 13.4452 22.8245 14.62 21.3796 14.62Z" fill="black"/>
</svg>
