<svg width="27" height="27" viewBox="0 0 27 27" fill="none" xmlns="http://www.w3.org/2000/svg">
<g clip-path="url(#clip0_8590_1278)">
<path d="M2.91154 16.2441C1.30595 16.2441 0 14.9388 0 13.333C0 11.728 1.30595 10.4219 2.91154 10.4219C4.51714 10.4219 5.82308 11.728 5.82308 13.333C5.82301 14.9388 4.51714 16.2441 2.91154 16.2441ZM13.1697 16.2441C11.5641 16.2441 10.2582 14.9388 10.2582 13.333C10.2582 11.728 11.5641 10.4219 13.1697 10.4219C14.775 10.4219 16.0812 11.728 16.0812 13.333C16.0812 14.9388 14.775 16.2441 13.1697 16.2441ZM23.7551 16.2441C22.1498 16.2441 20.8436 14.9388 20.8436 13.333C20.8436 11.728 22.1497 10.4219 23.7551 10.4219C25.3605 10.4219 26.6667 11.728 26.6667 13.333C26.6667 14.9388 25.3605 16.2441 23.7551 16.2441Z" fill="#A9A9A9"/>
</g>
<defs>
<clipPath id="clip0_8590_1278">
<rect width="26.6667" height="26.6667" fill="white"/>
</clipPath>
</defs>
</svg>
