<svg width="40" height="40" viewBox="0 0 40 40" fill="none" xmlns="http://www.w3.org/2000/svg">
<circle cx="20" cy="20" r="20" fill="#EAEAEA"/>
<g clip-path="url(#clip0_1582_7560)">
<path d="M9.91154 23.2445C8.30595 23.2445 7 21.9392 7 20.3334C7 18.7284 8.30595 17.4222 9.91154 17.4222C11.5171 17.4222 12.8231 18.7283 12.8231 20.3334C12.823 21.9392 11.5171 23.2445 9.91154 23.2445ZM20.1697 23.2445C18.5641 23.2445 17.2582 21.9392 17.2582 20.3334C17.2582 18.7284 18.5641 17.4222 20.1697 17.4222C21.775 17.4222 23.0812 18.7283 23.0812 20.3334C23.0812 21.9392 21.775 23.2445 20.1697 23.2445ZM30.7551 23.2445C29.1498 23.2445 27.8436 21.9392 27.8436 20.3334C27.8436 18.7284 29.1497 17.4222 30.7551 17.4222C32.3605 17.4222 33.6667 18.7283 33.6667 20.3334C33.6667 21.9392 32.3605 23.2445 30.7551 23.2445Z" fill="#A9A9A9"/>
</g>
<defs>
<clipPath id="clip0_1582_7560">
<rect width="26.6667" height="26.6667" fill="white" transform="translate(7 7)"/>
</clipPath>
</defs>
</svg>
