<svg width="20" height="20" viewBox="0 0 20 20" fill="none" xmlns="http://www.w3.org/2000/svg">
<path d="M7.81301 2.18366C7.81301 0.979459 8.79199 -1.48081e-07 9.99635 -9.54367e-08C11.2001 -4.28205e-08 12.1797 0.979459 12.1797 2.18366C12.1797 3.38785 11.2001 4.36731 9.99635 4.36731C8.79199 4.36726 7.81301 3.38785 7.81301 2.18366ZM7.81301 9.87727C7.81301 8.67308 8.79199 7.69362 9.99635 7.69362C11.2001 7.69362 12.1797 8.67308 12.1797 9.87727C12.1797 11.0813 11.2001 12.0609 9.99635 12.0609C8.79199 12.0609 7.81301 11.0813 7.81301 9.87727ZM7.81301 17.8163C7.81301 16.6124 8.79199 15.6327 9.99635 15.6327C11.2001 15.6327 12.1797 16.6123 12.1797 17.8163C12.1797 19.0204 11.2001 20 9.99635 20C8.79199 20 7.81301 19.0204 7.81301 17.8163Z" fill="#A9A9A9"/>
</svg>
