<svg width="20" height="20" viewBox="0 0 20 20" fill="none" xmlns="http://www.w3.org/2000/svg">
<g clip-path="url(#clip0_8590_16127)">
<path d="M6.53565 3.23652V13.8827C5.91616 13.3301 5.09983 12.9936 4.20628 12.9936C2.27465 12.9936 0.703125 14.5651 0.703125 16.4968C0.703125 18.4285 2.27465 20 4.20628 20C6.13554 20 7.70542 18.4324 7.7094 16.5041H7.70948V7.94823L18.1297 5.30679V11.0566C17.5102 10.504 16.6938 10.1675 15.8003 10.1675C13.8686 10.1675 12.2971 11.739 12.2971 13.6707C12.2971 15.6024 13.8686 17.1739 15.8003 17.1739C17.732 17.1739 19.3035 15.6023 19.3035 13.6707V0L6.53565 3.23652Z" fill="#000"/>
</g>
<defs>
<clipPath id="clip0_8590_16127">
<rect width="20" height="20" fill="white"/>
</clipPath>
</defs>
</svg>
