<svg width="17" height="19" viewBox="0 0 17 19" fill="none" xmlns="http://www.w3.org/2000/svg">
<g clip-path="url(#clip0_3180_197634)">
<path d="M3.34691 9.7982L3.34689 9.79822C1.66953 11.439 1.66953 14.0989 3.34689 15.7396L3.34691 15.7397C5.02218 17.378 7.73434 17.378 9.40962 15.7397L15.1775 10.099C15.5134 9.77055 16.0646 9.77055 16.4005 10.099C16.7339 10.4251 16.7339 10.9565 16.4005 11.2826L10.6326 16.9232C8.28178 19.2222 4.47475 19.2222 2.1239 16.9232C-0.222551 14.6267 -0.222551 10.9112 2.1239 8.61465C2.12392 8.61463 2.12394 8.61461 2.12396 8.6146L9.10602 1.78656C10.7852 0.145107 13.507 0.145107 15.1862 1.78656C16.8629 3.4255 16.8629 6.08035 15.1862 7.72008L8.50762 14.2513C7.50009 15.2366 5.86358 15.2366 4.85605 14.2513L4.85602 14.2513C3.85063 13.2684 3.85063 11.6757 4.85602 10.6928L4.85605 10.6928L10.3203 5.34902C10.6562 5.02055 11.2075 5.02055 11.5433 5.34902C11.8767 5.67507 11.8767 6.20653 11.5433 6.53258L6.07905 11.8763C5.74459 12.2034 5.74459 12.7407 6.07905 13.0678C6.41102 13.3924 6.95265 13.3924 7.28462 13.0678L13.9632 6.53653C14.9693 5.55262 14.9693 3.95403 13.9632 2.97011C12.9596 1.98821 11.3327 1.98821 10.329 2.97011L3.34691 9.7982Z" fill="white" stroke="#5448B2" stroke-width="0.4"/>
</g>
<defs>
<clipPath id="clip0_3180_197634">
<rect width="17" height="19" fill="white" transform="translate(0 0.00390625)"/>
</clipPath>
</defs>
</svg>
