<svg width="12" height="18" viewBox="0 0 12 18" fill="none" xmlns="http://www.w3.org/2000/svg">
<g id="Group">
<path id="Layer 30" d="M4.2 2.39961V15.5996C4.2 16.077 4.01036 16.5348 3.67279 16.8724C3.33523 17.21 2.87739 17.3996 2.4 17.3996H1.8C1.32261 17.3996 0.864773 17.21 0.527208 16.8724C0.189642 16.5348 0 16.077 0 15.5996V2.39961C0 1.92222 0.189642 1.46438 0.527208 1.12682C0.864773 0.789252 1.32261 0.599609 1.8 0.599609H2.4C2.87739 0.599609 3.33523 0.789252 3.67279 1.12682C4.01036 1.46438 4.2 1.92222 4.2 2.39961ZM10.2 0.599609H9.6C9.12261 0.599609 8.66477 0.789252 8.32721 1.12682C7.98964 1.46438 7.8 1.92222 7.8 2.39961V15.5996C7.8 16.077 7.98964 16.5348 8.32721 16.8724C8.66477 17.21 9.12261 17.3996 9.6 17.3996H10.2C10.6774 17.3996 11.1352 17.21 11.4728 16.8724C11.8104 16.5348 12 16.077 12 15.5996V2.39961C12 1.92222 11.8104 1.46438 11.4728 1.12682C11.1352 0.789252 10.6774 0.599609 10.2 0.599609Z" fill="white"/>
</g>
</svg>