<svg width="24" height="24" viewBox="0 0 24 24" fill="none" xmlns="http://www.w3.org/2000/svg">
<path d="M5.33404 3.25C5.33404 2.55977 5.93144 2 6.66807 2H17.3403C18.0782 2 18.6743 2.55977 18.6743 3.25C18.6743 3.94023 18.0782 4.5 17.3403 4.5H16.1105L16.5857 10.2891C18.1157 11.0664 19.3205 12.3672 19.8999 13.9883L19.9416 14.1055C20.075 14.4844 19.9708 14.9062 19.7207 15.2305C19.5039 15.5586 19.1037 15.75 18.6743 15.75H5.33404C4.90507 15.75 4.50236 15.5586 4.25181 15.2305C4.0011 14.9062 3.93286 14.4844 4.06847 14.1055L4.11024 13.9883C4.68662 12.3672 5.8935 11.0664 7.42429 10.2891L7.89954 4.5H6.66807C5.93144 4.5 5.33404 3.94023 5.33404 3.25ZM13.3382 17V20.75C13.3382 21.4414 12.7421 22 12.0042 22C11.2663 22 10.6701 21.4414 10.6701 20.75V17H13.3382Z" fill="#6B6B6B"/>
</svg>
