<svg width="24" height="24" viewBox="0 0 24 24" fill="none" xmlns="http://www.w3.org/2000/svg">
<g clip-path="url(#clip0_3945_92240)">
<path d="M14.0921 7.75273C14.0105 7.7527 13.9299 7.73478 13.8559 7.70023L11.9996 6.83998L10.1434 7.70098C10.0533 7.74281 9.95374 7.76003 9.85484 7.75091C9.75593 7.74179 9.66121 7.70664 9.58029 7.64904C9.49938 7.59144 9.43516 7.51344 9.39416 7.42297C9.35316 7.3325 9.33685 7.23279 9.34688 7.13398L9.56963 4.94173L8.21888 3.61123C8.14823 3.54175 8.09719 3.45484 8.07091 3.3593C8.04464 3.26376 8.04407 3.16297 8.06927 3.06714C8.09446 2.9713 8.14453 2.88383 8.21439 2.81356C8.28426 2.74329 8.37145 2.69273 8.46713 2.66698L10.3076 2.16973L11.5406 0.42523C11.7514 0.12673 12.2479 0.12673 12.4586 0.42523L13.6916 2.16973L15.5321 2.66698C15.6278 2.69273 15.715 2.74329 15.7849 2.81356C15.8547 2.88383 15.9048 2.9713 15.93 3.06714C15.9552 3.16297 15.9546 3.26376 15.9284 3.3593C15.9021 3.45484 15.851 3.54175 15.7804 3.61123L14.4304 4.94173L14.6516 7.13398C14.6596 7.21224 14.6511 7.29131 14.6266 7.36607C14.6021 7.44082 14.5622 7.50962 14.5095 7.568C14.4567 7.62638 14.3924 7.67305 14.3205 7.705C14.2486 7.73695 14.1708 7.75347 14.0921 7.75348V7.75273ZM11.9996 5.65798C12.0799 5.65798 12.1616 5.67523 12.2359 5.71048L13.4329 6.26473L13.2829 4.78723C13.2743 4.70348 13.2847 4.61887 13.3132 4.53967C13.3418 4.46047 13.3878 4.38872 13.4479 4.32973L14.2931 3.49723L13.2026 3.20248C13.0762 3.16831 12.9656 3.09113 12.8899 2.98423L11.9996 1.72423L11.1094 2.98423C11.0337 3.09118 10.9231 3.16837 10.7966 3.20248L9.70613 3.49798L10.5506 4.32973C10.6721 4.44973 10.7336 4.61773 10.7156 4.78723L10.5656 6.26473L11.7634 5.70973C11.8384 5.67523 11.9194 5.65798 11.9996 5.65798ZM14.9996 23.8125H8.99963C8.85045 23.8125 8.70737 23.7532 8.60188 23.6477C8.4964 23.5422 8.43713 23.3992 8.43713 23.25V11.25C8.43713 10.5262 9.02588 9.93748 9.74963 9.93748H14.2496C14.9734 9.93748 15.5621 10.5262 15.5621 11.25V23.25C15.5621 23.3992 15.5029 23.5422 15.3974 23.6477C15.2919 23.7532 15.1488 23.8125 14.9996 23.8125ZM9.56213 22.6875H14.4371V11.25C14.4371 11.2003 14.4174 11.1526 14.3822 11.1174C14.3471 11.0822 14.2994 11.0625 14.2496 11.0625H9.74963C9.6999 11.0625 9.65221 11.0822 9.61705 11.1174C9.58189 11.1526 9.56213 11.2003 9.56213 11.25V22.6875Z" fill="#222222"/>
<path d="M21 23.8125H15C14.8508 23.8125 14.7077 23.7532 14.6023 23.6477C14.4968 23.5423 14.4375 23.3992 14.4375 23.25V13.5C14.4375 13.3508 14.4968 13.2077 14.6023 13.1023C14.7077 12.9968 14.8508 12.9375 15 12.9375H20.25C20.9737 12.9375 21.5625 13.5263 21.5625 14.25V23.25C21.5625 23.3992 21.5032 23.5423 21.3977 23.6477C21.2923 23.7532 21.1492 23.8125 21 23.8125ZM15.5625 22.6875H20.4375V14.25C20.4375 14.2003 20.4177 14.1526 20.3826 14.1174C20.3474 14.0823 20.2997 14.0625 20.25 14.0625H15.5625V22.6875ZM9 23.8125H3C2.85082 23.8125 2.70774 23.7532 2.60225 23.6477C2.49676 23.5423 2.4375 23.3992 2.4375 23.25V17.25C2.4375 16.5263 3.02625 15.9375 3.75 15.9375H9C9.14918 15.9375 9.29226 15.9968 9.39775 16.1023C9.50324 16.2077 9.5625 16.3508 9.5625 16.5V23.25C9.5625 23.3992 9.50324 23.5423 9.39775 23.6477C9.29226 23.7532 9.14918 23.8125 9 23.8125ZM3.5625 22.6875H8.4375V17.0625H3.75C3.70027 17.0625 3.65258 17.0823 3.61742 17.1174C3.58225 17.1526 3.5625 17.2003 3.5625 17.25V22.6875Z" fill="#222222"/>
<path d="M23.25 23.8125H0.75C0.600816 23.8125 0.457742 23.7532 0.352252 23.6477C0.246763 23.5423 0.1875 23.3992 0.1875 23.25C0.1875 23.1008 0.246763 22.9577 0.352252 22.8523C0.457742 22.7468 0.600816 22.6875 0.75 22.6875H23.25C23.3992 22.6875 23.5423 22.7468 23.6477 22.8523C23.7532 22.9577 23.8125 23.1008 23.8125 23.25C23.8125 23.3992 23.7532 23.5423 23.6477 23.6477C23.5423 23.7532 23.3992 23.8125 23.25 23.8125Z" fill="#222222"/>
</g>
<defs>
<clipPath id="clip0_3945_92240">
<rect width="24" height="24" fill="white"/>
</clipPath>
</defs>
</svg>
