<svg width="21" height="21" viewBox="0 0 21 21" fill="none" xmlns="http://www.w3.org/2000/svg">
    <path
        d="M9.492 0.789062H5.753C2.678 0.789062 0.75 2.96606 0.75 6.04806V14.3621C0.75 17.4441 2.669 19.6211 5.753 19.6211H14.577C17.662 19.6211 19.581 17.4441 19.581 14.3621V10.3341"
        stroke="#222222" stroke-width="1.5" stroke-linecap="round" stroke-linejoin="round" />
    <path fill-rule="evenodd" clip-rule="evenodd"
        d="M6.83056 8.9205L14.3036 1.4475C15.2346 0.5175 16.7436 0.5175 17.6746 1.4475L18.8916 2.6645C19.8226 3.5955 19.8226 5.1055 18.8916 6.0355L11.3826 13.5445C10.9756 13.9515 10.4236 14.1805 9.84756 14.1805H6.10156L6.19556 10.4005C6.20956 9.8445 6.43656 9.3145 6.83056 8.9205Z"
        stroke="#222222" stroke-width="1.5" stroke-linecap="round" stroke-linejoin="round" />
</svg>
    