<svg width="15" height="8" viewBox="0 0 15 8" fill="none" xmlns="http://www.w3.org/2000/svg">
<path fill-rule="evenodd" clip-rule="evenodd" d="M11.1178 0.177267C11.1821 0.236772 11.234 0.308369 11.2706 0.387964C11.3073 0.467558 11.3278 0.55359 11.3312 0.641139C11.3345 0.728688 11.3206 0.816037 11.2901 0.898193C11.2597 0.980348 11.2134 1.0557 11.1538 1.11993L5.14912 7.60193C5.03479 7.72726 4.89559 7.82737 4.74039 7.89587C4.58519 7.96437 4.41742 7.99974 4.24778 7.99974C4.07814 7.99974 3.91037 7.96437 3.75517 7.89587C3.59998 7.82737 3.46077 7.72726 3.34645 7.60193L0.841782 4.8986C0.72155 4.76882 0.657798 4.5966 0.664549 4.41981C0.6713 4.24303 0.748002 4.07617 0.877782 3.95593C1.00756 3.8357 1.17979 3.77195 1.35657 3.7787C1.53336 3.78545 1.70022 3.86215 1.82045 3.99193L4.24778 6.61327L10.1751 0.213268C10.2346 0.148963 10.3062 0.097017 10.3858 0.0604015C10.4654 0.023786 10.5514 0.00321874 10.639 -0.000124713C10.7265 -0.00346817 10.8139 0.010478 10.896 0.0409163C10.9782 0.0713547 11.0535 0.117688 11.1178 0.177267ZM14.4511 0.177267C14.5154 0.236772 14.5674 0.308369 14.604 0.387964C14.6406 0.467558 14.6612 0.55359 14.6645 0.641139C14.6679 0.728688 14.6539 0.816037 14.6235 0.898193C14.593 0.980348 14.5467 1.0557 14.4871 1.11993L8.48312 7.60193C8.36288 7.73171 8.19602 7.80842 8.01924 7.81517C7.84245 7.82192 7.67023 7.75817 7.54045 7.63793C7.41067 7.5177 7.33397 7.35084 7.32722 7.17406C7.32046 6.99727 7.38422 6.82505 7.50445 6.69527L13.5091 0.213268C13.6293 0.0835973 13.796 0.00695948 13.9727 0.000208437C14.1493 -0.00654261 14.3214 0.0571457 14.4511 0.177267Z" fill="#5448B2"/>
</svg>
