<svg width="47" height="70" viewBox="0 0 47 70" fill="none" xmlns="http://www.w3.org/2000/svg">
<path d="M46.369 53.2392C46.1811 53.8407 45.944 54.4134 45.6635 54.9543C45.4307 55.3625 45.1806 55.7693 44.9175 56.1761C40.5815 62.8532 32.381 69.1856 30.1632 69.4683C30.6967 69.226 31.2085 68.939 31.6942 68.6101C33.5897 67.3292 35.0788 65.4222 35.8104 63.0725C36.0692 62.243 36.2181 61.4079 36.2658 60.5785C36.2774 60.3981 36.2832 60.2207 36.2846 60.0404C36.2976 58.0556 35.7396 56.1313 34.7174 54.4855C33.1646 51.8617 29.9723 49.8552 26.1655 47.9136C22.3675 45.9764 17.9592 44.1012 13.9573 41.7413C11.6614 40.3883 9.50136 38.8737 7.66521 37.0952C6.70376 36.1634 5.84496 35.2272 5.08013 34.2882C0.472398 28.1288 -1.2828 19.9746 0.989985 12.0627C2.4112 7.819 4.64928 4.45085 6.06905 2.58286C6.8599 1.54285 7.39629 0.96875 7.39629 0.96875C7.38906 0.997599 7.38038 1.02501 7.37316 1.05241C7.35292 1.11011 7.33123 1.16925 7.31099 1.22839C7.21701 1.49669 7.12738 1.76787 7.04207 2.04194C6.57075 3.5522 6.257 5.074 6.08785 6.59002C5.94471 7.87814 5.90857 9.16193 5.97218 10.4299C6.1052 13.0652 6.67051 15.6371 7.62039 18.0489C7.64641 18.1153 7.67388 18.1816 7.69991 18.2465C9.18618 21.9292 11.5717 25.2309 14.6744 27.8115C16.1028 29.0001 17.6845 30.0358 19.4007 30.8839C26.0398 34.5911 33.8803 36.9942 39.808 40.1085C40.3025 40.3681 40.7839 40.6321 41.2495 40.9047C41.6543 41.1384 42.0461 41.3778 42.4264 41.6231C42.4292 41.6245 42.4321 41.626 42.435 41.6288C45.2095 43.592 46.8664 46.8087 46.8432 50.2086C46.836 51.2126 46.6828 52.2324 46.369 53.2407V53.2392Z" fill="url(#paint0_linear_84_79674)"/>
<defs>
<linearGradient id="paint0_linear_84_79674" x1="3.02485" y1="0.968402" x2="35.9852" y2="63.8714" gradientUnits="userSpaceOnUse">
<stop offset="0.337903" stop-color="#642E87"/>
<stop offset="0.753376" stop-color="#5167B0"/>
<stop offset="1" stop-color="#4D74B9"/>
</linearGradient>
</defs>
</svg>
