<svg width="24" height="24" viewBox="0 0 24 24" fill="none" xmlns="http://www.w3.org/2000/svg">
<path fill-rule="evenodd" clip-rule="evenodd" d="M20.8093 7.62355L20.1869 6.54346C19.6603 5.62954 18.4934 5.31426 17.5782 5.83866V5.83866C17.1426 6.09528 16.6228 6.16809 16.1334 6.04103C15.644 5.91396 15.2253 5.59746 14.9695 5.16131C14.805 4.88409 14.7166 4.56833 14.7132 4.24598V4.24598C14.7281 3.72916 14.5331 3.22834 14.1727 2.85761C13.8123 2.48688 13.3172 2.2778 12.8002 2.27802H11.5462C11.0397 2.27801 10.554 2.47985 10.1967 2.83888C9.83937 3.19791 9.63986 3.68453 9.6423 4.19106V4.19106C9.62728 5.23686 8.77517 6.07675 7.72925 6.07664C7.4069 6.07329 7.09114 5.98488 6.81392 5.82035V5.82035C5.89875 5.29595 4.7318 5.61123 4.20522 6.52516L3.53703 7.62355C3.0111 8.53633 3.32209 9.70255 4.23268 10.2322V10.2322C4.82459 10.574 5.18922 11.2055 5.18922 11.889C5.18922 12.5725 4.82459 13.204 4.23268 13.5457V13.5457C3.32324 14.0719 3.01191 15.2353 3.53703 16.1453V16.1453L4.16861 17.2345C4.41533 17.6797 4.82929 18.0082 5.31888 18.1474C5.80847 18.2865 6.33333 18.2248 6.77731 17.976V17.976C7.21377 17.7213 7.73387 17.6515 8.22203 17.7821C8.71018 17.9128 9.12592 18.233 9.37685 18.6716C9.54138 18.9488 9.62979 19.2646 9.63314 19.5869V19.5869C9.63314 20.6435 10.4896 21.5 11.5462 21.5H12.8002C13.8532 21.5 14.7082 20.6491 14.7132 19.5961V19.5961C14.7108 19.088 14.9116 18.6 15.2708 18.2407C15.6301 17.8814 16.1182 17.6806 16.6263 17.6831C16.9479 17.6917 17.2623 17.7797 17.5416 17.9393V17.9393C18.4544 18.4653 19.6206 18.1543 20.1503 17.2437V17.2437L20.8093 16.1453C21.0644 15.7074 21.1345 15.1859 21.0039 14.6963C20.8733 14.2067 20.5529 13.7893 20.1137 13.5366V13.5366C19.6744 13.2839 19.3541 12.8665 19.2235 12.3769C19.0929 11.8872 19.1629 11.3658 19.418 10.9279C19.5839 10.6383 19.8241 10.3981 20.1137 10.2322V10.2322C21.0188 9.70283 21.3291 8.54343 20.8093 7.63271V7.63271V7.62355Z" stroke="#5448B2" stroke-width="1.5" stroke-linecap="round" stroke-linejoin="round"/>
<circle cx="12.1752" cy="11.8888" r="2.63616" stroke="#5448B2" stroke-width="1.5" stroke-linecap="round" stroke-linejoin="round"/>
</svg>
