<svg width="24" height="24" viewBox="0 0 24 24" fill="none" xmlns="http://www.w3.org/2000/svg">
<path fill-rule="evenodd" clip-rule="evenodd" d="M20.8093 7.62288L20.1869 6.54279C19.6603 5.62887 18.4934 5.31359 17.5782 5.83798V5.83798C17.1426 6.09461 16.6228 6.16742 16.1334 6.04035C15.644 5.91329 15.2253 5.59678 14.9695 5.16064C14.805 4.88342 14.7166 4.56766 14.7132 4.24531V4.24531C14.7281 3.72849 14.5331 3.22767 14.1727 2.85694C13.8123 2.4862 13.3172 2.27713 12.8002 2.27734H11.5462C11.0397 2.27734 10.554 2.47918 10.1967 2.83821C9.83937 3.19724 9.63986 3.68386 9.6423 4.19039V4.19039C9.62728 5.23619 8.77517 6.07608 7.72925 6.07597C7.4069 6.07262 7.09114 5.98421 6.81392 5.81968V5.81968C5.89875 5.29528 4.7318 5.61056 4.20522 6.52448L3.53703 7.62288C3.0111 8.53566 3.32209 9.70187 4.23268 10.2316V10.2316C4.82459 10.5733 5.18922 11.2049 5.18922 11.8883C5.18922 12.5718 4.82459 13.2033 4.23268 13.5451V13.5451C3.32324 14.0712 3.01191 15.2346 3.53703 16.1446V16.1446L4.16861 17.2339C4.41533 17.679 4.82929 18.0076 5.31888 18.1467C5.80847 18.2859 6.33333 18.2242 6.77731 17.9753V17.9753C7.21377 17.7206 7.73387 17.6508 8.22203 17.7815C8.71018 17.9121 9.12592 18.2323 9.37685 18.6709C9.54138 18.9482 9.62979 19.2639 9.63314 19.5863V19.5863C9.63314 20.6428 10.4896 21.4993 11.5462 21.4993H12.8002C13.8532 21.4993 14.7082 20.6484 14.7132 19.5954V19.5954C14.7108 19.0873 14.9116 18.5993 15.2708 18.24C15.6301 17.8807 16.1182 17.6799 16.6263 17.6824C16.9479 17.691 17.2623 17.779 17.5416 17.9387V17.9387C18.4544 18.4646 19.6206 18.1536 20.1503 17.243V17.243L20.8093 16.1446C21.0644 15.7068 21.1345 15.1853 21.0039 14.6956C20.8733 14.206 20.5529 13.7886 20.1137 13.5359V13.5359C19.6744 13.2832 19.3541 12.8658 19.2235 12.3762C19.0929 11.8866 19.1629 11.3651 19.418 10.9272C19.5839 10.6376 19.8241 10.3975 20.1137 10.2316V10.2316C21.0188 9.70216 21.3291 8.54276 20.8093 7.63203V7.63203V7.62288Z" stroke="#fff" stroke-width="1.5" stroke-linecap="round" stroke-linejoin="round"/>
<circle cx="12.1752" cy="11.8881" r="2.63616" stroke="#fff" stroke-width="1.5" stroke-linecap="round" stroke-linejoin="round"/>
</svg>
