<svg width="16" height="16" viewBox="0 0 16 16" fill="none" xmlns="http://www.w3.org/2000/svg">
    <path d="M10.5184 1.81511V3.88553V4.48553H9.91836H7.9898C3.96663 4.48553 1.80037 5.61588 1.01315 7.56294C0.745893 8.23655 0.6 9.10681 0.6 10.1941C0.6 10.8433 0.802101 11.7284 1.2444 12.8684C1.25515 12.3367 1.30813 11.8444 1.40696 11.3942L1.407 11.3941C1.51658 10.8956 1.67213 10.4462 1.88097 10.0539L10.5184 1.81511ZM10.5184 1.81511L14.8022 6.07979L10.5184 10.3447V8.27433V7.67433H9.91836H7.9898C7.41573 7.67433 6.89623 7.69171 6.43258 7.72748C5.96325 7.76368 5.49712 7.8285 5.03424 7.92187C4.55828 8.01784 4.12788 8.15269 3.74988 8.33256C3.37551 8.5107 3.02785 8.73909 2.70736 9.01588L10.5184 1.81511ZM10.4931 10.4234C10.498 10.4254 10.5018 10.4275 10.5044 10.4291L10.4695 10.4642L10.4693 10.464L10.4345 10.429C10.437 10.4274 10.4408 10.4253 10.4456 10.4233C10.4516 10.4208 10.4574 10.4191 10.4625 10.4181C10.4664 10.4173 10.4688 10.4172 10.4693 10.4172C10.4698 10.4172 10.4722 10.4174 10.4761 10.4181C10.4812 10.4191 10.4871 10.4208 10.4931 10.4234ZM10.4338 10.4294L10.469 10.4647L10.4341 10.4286C10.4341 10.4287 10.434 10.4287 10.434 10.4287C10.431 10.4317 10.4305 10.4316 10.4329 10.4301C10.4332 10.4299 10.4335 10.4296 10.4338 10.4294ZM10.4694 10.4652L10.4729 10.4687L10.8569 10.8544L10.4739 10.4687L10.4699 10.4647L10.4694 10.4652ZM2.70726 9.01596C2.36888 9.30812 2.09314 9.65516 1.88104 10.0538L2.70726 9.01596Z" stroke="white" stroke-width="1.2"/>
    </svg>
    