<svg width="27" height="24" viewBox="0 0 27 24" fill="none" xmlns="http://www.w3.org/2000/svg">
<g clip-path="url(#clip0_10665_5279)">
<path d="M26.1059 8.49002L18.7589 1.17579C18.5771 0.994813 18.3619 0.904297 18.1132 0.904297C17.8644 0.904297 17.6491 0.994813 17.4675 1.17579C17.2857 1.35688 17.1947 1.57118 17.1947 1.81876V5.47588H13.9804C7.15934 5.47588 2.97431 7.39497 1.42434 11.2331C0.917473 12.5091 0.664062 14.095 0.664062 15.9902C0.664062 17.5711 1.27155 19.7186 2.48643 22.433C2.51508 22.4998 2.56514 22.6139 2.63701 22.7757C2.70046 22.9191 2.76503 23.0619 2.83071 23.2043C2.88831 23.3279 2.95053 23.4327 3.01743 23.5183C3.13212 23.6803 3.26611 23.7614 3.41921 23.7614C3.5627 23.7614 3.67513 23.7139 3.7565 23.6186C3.83767 23.5235 3.87833 23.4043 3.87833 23.2618C3.87833 23.1758 3.86637 23.0498 3.84239 22.8831C3.81847 22.7163 3.80646 22.6046 3.80646 22.5474C3.75856 21.9 3.73464 21.3139 3.73464 20.7904C3.73464 19.8286 3.81847 18.9667 3.98573 18.2048C4.15325 17.4428 4.3852 16.7834 4.68183 16.2262C4.97842 15.6688 5.36094 15.1882 5.82982 14.7834C6.29849 14.3786 6.80305 14.0478 7.34354 13.7906C7.88414 13.5333 8.52028 13.3309 9.25211 13.1834C9.98389 13.0358 10.7205 12.9334 11.4619 12.8762C12.2034 12.819 13.0429 12.7906 13.9804 12.7906H17.1947V16.4478C17.1947 16.6953 17.2855 16.9097 17.4671 17.0906C17.6491 17.2714 17.8642 17.362 18.1128 17.362C18.3615 17.362 18.5768 17.2714 18.7589 17.0906L26.1057 9.77611C26.2875 9.59513 26.3783 9.38092 26.3783 9.13329C26.3783 8.88571 26.2875 8.67135 26.1059 8.49002Z" fill="#130F26"/>
</g>
<defs>
<clipPath id="clip0_10665_5279">
<rect width="27" height="24" fill="white"/>
</clipPath>
</defs>
</svg>
