<svg width="40" height="40" viewBox="0 0 40 40" fill="none" xmlns="http://www.w3.org/2000/svg">
<circle cx="20" cy="20" r="20" fill="#EAEAEA"/>
<g clip-path="url(#clip0_1582_7553)">
<path d="M32.1078 16.4905L24.7608 9.17628C24.579 8.9953 24.3639 8.90479 24.1151 8.90479C23.8664 8.90479 23.6511 8.9953 23.4694 9.17628C23.2876 9.35736 23.1966 9.57167 23.1966 9.81925V13.4764H19.9824C13.1613 13.4764 8.97626 15.3955 7.4263 19.2336C6.91943 20.5096 6.66602 22.0955 6.66602 23.9907C6.66602 25.5716 7.27351 27.7191 8.48839 30.4335C8.51703 30.5003 8.56709 30.6143 8.63897 30.7762C8.70242 30.9196 8.76698 31.0624 8.83267 31.2048C8.89026 31.3284 8.95249 31.4332 9.01938 31.5188C9.13407 31.6808 9.26807 31.7619 9.42116 31.7619C9.56465 31.7619 9.67708 31.7143 9.75845 31.6191C9.83962 31.524 9.88028 31.4048 9.88028 31.2623C9.88028 31.1763 9.86832 31.0503 9.84435 30.8835C9.82042 30.7168 9.80841 30.6051 9.80841 30.5479C9.76051 29.9005 9.73659 29.3143 9.73659 28.7909C9.73659 27.8291 9.82042 26.9671 9.98769 26.2053C10.1552 25.4433 10.3872 24.7839 10.6838 24.2267C10.9804 23.6693 11.3629 23.1887 11.8318 22.7839C12.3004 22.3791 12.805 22.0483 13.3455 21.7911C13.8861 21.5338 14.5222 21.3314 15.2541 21.1839C15.9858 21.0363 16.7224 20.9338 17.4639 20.8767C18.2054 20.8195 19.0448 20.791 19.9824 20.791H23.1966V24.4483C23.1966 24.6958 23.2874 24.9102 23.4691 25.0911C23.651 25.2719 23.8662 25.3625 24.1148 25.3625C24.3635 25.3625 24.5788 25.2719 24.7608 25.0911L32.1077 17.7766C32.2895 17.5956 32.3803 17.3814 32.3803 17.1338C32.3802 16.8862 32.2895 16.6718 32.1078 16.4905Z" fill="#A9A9A9"/>
</g>
<defs>
<clipPath id="clip0_1582_7553">
<rect width="26.6667" height="26.6667" fill="white" transform="translate(6.66602 7)"/>
</clipPath>
</defs>
</svg>
