<svg width="16" height="16" viewBox="0 0 16 16" fill="none" xmlns="http://www.w3.org/2000/svg">
<path d="M14.2929 1.72197C13.9594 1.37972 13.4659 1.25221 13.0057 1.38643L2.2746 4.507C1.78907 4.64189 1.44493 5.02911 1.35222 5.52102C1.25752 6.02165 1.58832 6.65718 2.0205 6.92293L5.37587 8.98519C5.72001 9.19658 6.16419 9.14357 6.44898 8.85634L10.2912 4.99019C10.4846 4.78886 10.8048 4.78886 10.9982 4.99019C11.1916 5.1848 11.1916 5.50022 10.9982 5.70154L7.14926 9.56837C6.86381 9.85492 6.81046 10.3012 7.02055 10.6475L9.07072 14.0365C9.31082 14.4391 9.72432 14.6673 10.1778 14.6673C10.2312 14.6673 10.2912 14.6673 10.3446 14.6606C10.8648 14.5935 11.2783 14.2378 11.4317 13.7345L14.613 3.01718C14.753 2.56084 14.6263 2.06423 14.2929 1.72197Z" fill="white"/>
</svg>
