<svg width="25" height="24" viewBox="0 0 25 24" fill="none" xmlns="http://www.w3.org/2000/svg">
<path d="M9.79833 7.50353V8.14258L10.4373 8.15343C17.1919 8.26819 22.6313 13.6958 22.6313 20.3252V20.3253C22.6313 20.3277 22.6305 20.3315 22.627 20.336L23.1368 20.7392L22.627 20.336C22.6232 20.3407 22.6163 20.3461 22.6058 20.3488C22.5952 20.3514 22.5841 20.3504 22.5748 20.3465C22.5657 20.3426 22.5607 20.3369 22.5584 20.3328L22.5571 20.3304L22.5378 20.2962L22.5376 20.2958C20.3643 16.4414 16.228 14.0509 11.7481 14.0509H10.4483H9.79833V14.7009V18.5244C9.79832 18.527 9.79761 18.5305 9.79486 18.5346L10.3336 18.8983L9.79486 18.5346C9.79211 18.5387 9.78706 18.5435 9.7791 18.547C9.77223 18.5497 9.76301 18.551 9.75264 18.5491C9.74216 18.5472 9.7348 18.5428 9.73018 18.5385C9.73014 18.5384 9.7301 18.5384 9.73007 18.5384L1.93934 11.1149L1.93756 11.1132C1.9347 11.1105 1.93313 11.1079 1.93231 11.106C1.93149 11.1041 1.93125 11.1026 1.93125 11.1013C1.93125 11.1 1.93149 11.0985 1.93231 11.0966C1.93313 11.0947 1.9347 11.0921 1.93756 11.0894L1.93934 11.0877L9.73076 3.6636L9.73077 3.66361L9.73343 3.66104C9.73775 3.65688 9.74467 3.65278 9.75389 3.65106C9.76316 3.64932 9.7726 3.65043 9.78052 3.65372L10.0298 3.05342L9.78052 3.65372C9.78834 3.65697 9.79308 3.66161 9.79552 3.66525C9.79786 3.66874 9.79835 3.67155 9.79834 3.67343L9.79833 3.67343V3.67717V7.50353ZM10.4483 7.50353V3.67717V7.50353Z" stroke="#BABABA" stroke-width="1.3"/>
</svg>
