<svg width="48" height="48" viewBox="0 0 48 48" fill="none" xmlns="http://www.w3.org/2000/svg">
<path d="M23.83 47.66C36.9909 47.66 47.66 36.9909 47.66 23.83C47.66 10.6691 36.9909 0 23.83 0C10.6691 0 0 10.6691 0 23.83C0 36.9909 10.6691 47.66 23.83 47.66Z" fill="url(#paint0_linear_10675_8353)"/>
<path d="M25.8502 22.1597L33.7502 12.9697H31.8802L25.0202 20.9497L19.5402 12.9697H13.2202L21.5102 25.0297L13.2202 34.6597H15.0902L22.3402 26.2397L28.1302 34.6597H34.4502L25.8502 22.1597ZM23.2902 25.1397L22.4502 23.9397L15.7702 14.3797H18.6502L24.0402 22.0897L24.8802 23.2897L31.8902 33.3197H29.0102L23.2902 25.1397Z" fill="white"/>
<defs>
<linearGradient id="paint0_linear_10675_8353" x1="6.9796" y1="6.9801" x2="40.6824" y2="40.6829" gradientUnits="userSpaceOnUse">
<stop stop-color="#23004A"/>
<stop offset="0.9565" stop-color="#020003"/>
<stop offset="1"/>
</linearGradient>
</defs>
</svg>
