<svg width="42" height="42" viewBox="0 0 42 42" fill="none" xmlns="http://www.w3.org/2000/svg">
<path fill-rule="evenodd" clip-rule="evenodd" d="M14.8152 9.16343C14.4248 9.69066 14.4697 10.4427 14.9629 10.92C15.4879 11.445 16.3454 11.445 16.8704 10.92L19.6529 8.12V15.365H22.3479V8.12L25.1304 10.92L25.2813 11.0502C25.8085 11.4407 26.5606 11.3973 27.0378 10.92C27.3004 10.6575 27.4403 10.3075 27.4403 9.9575C27.4403 9.625 27.3004 9.275 27.0378 9.0125L21.9454 3.9025L21.7866 3.75984C21.5604 3.5896 21.2803 3.5 21.0004 3.5C20.6329 3.5 20.3004 3.64 20.0379 3.9025L14.9454 9.0125L14.8152 9.16343ZM10.9045 15.374C6.78634 15.5685 3.5 19.0327 3.5 23.2531V31.942L3.50847 32.3139C3.69967 36.5049 7.1055 39.8653 11.2875 39.8653H30.73L31.0955 39.8567C35.2137 39.6622 38.5 36.1975 38.5 31.9598V23.2887L38.4915 22.9154C38.2994 18.709 34.8775 15.3653 30.7125 15.3653H22.3475V26.0485L22.335 26.2363C22.2446 26.9108 21.6737 27.4195 21 27.4195C20.2475 27.4195 19.6525 26.8141 19.6525 26.0485V15.3653H11.27L10.9045 15.374Z" fill="rgb(255, 59, 92)"/>
</svg>
