<svg width="18" height="18" viewBox="0 0 18 18" fill="none" xmlns="http://www.w3.org/2000/svg">
<g id="Volume Off">
<path id="Stroke 1" fill-rule="evenodd" clip-rule="evenodd" d="M11.5331 6.46753L4.71375 13.2874C4.53651 13.1847 4.36859 13.1194 4.21933 13.1101C2.92263 13.0168 2.41888 13.1661 1.7099 12.5597C0.94494 11.9066 1.00091 10.162 1.00091 8.88386C1.00091 7.60572 0.94494 5.86112 1.7099 5.20806C2.41888 4.60164 2.92263 4.76024 4.21933 4.65762C5.51603 4.55499 8.25868 0.599309 10.3763 1.84945C11.2345 2.54916 11.4678 3.85529 11.5331 6.46753Z" stroke="white" stroke-width="1.5" stroke-linecap="round" stroke-linejoin="round"/>
<path id="Stroke 3" d="M11.5334 10.918C11.4961 13.7914 11.2722 15.1909 10.3766 15.9186C9.39713 16.497 8.28701 15.9652 7.24219 15.2095" stroke="white" stroke-width="1.5" stroke-linecap="round" stroke-linejoin="round"/>
<path id="Stroke 5" d="M1 17L4.71284 13.2869L11.5322 6.46706L16.9988 1" stroke="white" stroke-width="1.5" stroke-linecap="round" stroke-linejoin="round"/>
</g>
</svg>