<svg width="22" height="16" viewBox="0 0 22 16" fill="none" xmlns="http://www.w3.org/2000/svg">
<g id="Volume Up">
<path id="Stroke 1" fill-rule="evenodd" clip-rule="evenodd" d="M1.50185 8.00014C1.49906 9.22979 1.44419 10.907 2.20494 11.5339C2.91453 12.1187 3.41395 11.968 4.70945 12.0631C6.00587 12.1591 8.74195 15.97 10.8512 14.7646C11.9393 13.9089 12.0202 12.1151 12.0202 8.00014C12.0202 3.88515 11.9393 2.09135 10.8512 1.23571C8.74195 0.0293753 6.00587 3.84121 4.70945 3.93717C3.41395 4.03225 2.91453 3.88157 2.20494 4.46635C1.44419 5.09328 1.49906 6.77049 1.50185 8.00014Z" stroke="white" stroke-width="1.5" stroke-linecap="round" stroke-linejoin="round"/>
<path id="Stroke 3" d="M18.5859 1.9043C21.136 5.57531 21.1444 10.4177 18.5859 14.0959" stroke="white" stroke-width="1.5" stroke-linecap="round" stroke-linejoin="round"/>
<path id="Stroke 5" d="M16.0781 4.31445C17.3894 6.60514 17.3894 9.40257 16.0781 11.6861" stroke="white" stroke-width="1.5" stroke-linecap="round" stroke-linejoin="round"/>
</g>
</svg>
