<svg width="48" height="48" viewBox="0 0 48 48" fill="none" xmlns="http://www.w3.org/2000/svg">
<path d="M23.83 47.66C36.9909 47.66 47.66 36.9909 47.66 23.83C47.66 10.6691 36.9909 0 23.83 0C10.6691 0 0 10.6691 0 23.83C0 36.9909 10.6691 47.66 23.83 47.66Z" fill="url(#paint0_linear_10675_8345)"/>
<path d="M11.5601 36.1303L13.3201 29.5503C12.3201 27.7503 11.8001 25.7303 11.8001 23.6803C11.8001 16.9803 17.2501 11.5303 23.9501 11.5303C30.6501 11.5303 36.1001 16.9803 36.1001 23.6803C36.1001 30.3803 30.6501 35.8303 23.9501 35.8303C21.9401 35.8303 19.9501 35.3203 18.1701 34.3603L11.5601 36.1303ZM18.5001 31.8903L18.9201 32.1403C20.4501 33.0503 22.1901 33.5303 23.9501 33.5303C29.3801 33.5303 33.8001 29.1103 33.8001 23.6803C33.8001 18.2503 29.3801 13.8303 23.9501 13.8303C18.5201 13.8303 14.1001 18.2503 14.1001 23.6803C14.1001 25.4703 14.6001 27.2403 15.5401 28.7903L15.8001 29.2103L14.8201 32.8803L18.5001 31.8903Z" fill="white"/>
<path fill-rule="evenodd" clip-rule="evenodd" d="M28.4703 25.3701C27.9703 25.0701 27.3203 24.7401 26.7303 24.9801C26.2803 25.1601 25.9903 25.8701 25.7003 26.2301C25.5503 26.4201 25.3703 26.4401 25.1403 26.3501C23.4403 25.6701 22.1403 24.5401 21.2103 22.9801C21.0503 22.7401 21.0803 22.5501 21.2703 22.3201C21.5503 21.9901 21.9103 21.6101 21.9803 21.1601C22.0603 20.7101 21.8503 20.1901 21.6603 19.7901C21.4203 19.2801 21.1603 18.5501 20.6503 18.2601C20.1803 17.9901 19.5603 18.1401 19.1403 18.4801C18.4203 19.0701 18.0703 19.9901 18.0803 20.9101C18.0803 21.1701 18.1103 21.4301 18.1803 21.6801C18.3303 22.2801 18.6003 22.8501 18.9203 23.3801C19.1603 23.7801 19.4103 24.1801 19.6903 24.5501C20.6003 25.7801 21.7303 26.8501 23.0303 27.6601C23.6803 28.0601 24.3903 28.4101 25.1203 28.6501C25.9403 28.9201 26.6703 29.2001 27.5503 29.0301C28.4703 28.8501 29.3803 28.2801 29.7503 27.3901C29.8603 27.1301 29.9103 26.8301 29.8503 26.5501C29.7203 25.9901 28.9403 25.6501 28.4703 25.3701Z" fill="white"/>
<defs>
<linearGradient id="paint0_linear_10675_8345" x1="6.9791" y1="6.979" x2="40.6819" y2="40.6818" gradientUnits="userSpaceOnUse">
<stop stop-color="#00FB73"/>
<stop offset="1" stop-color="#00B25B"/>
</linearGradient>
</defs>
</svg>
