<svg width="17" height="16" viewBox="0 0 17 16" fill="none" xmlns="http://www.w3.org/2000/svg">
<path d="M8.72994 2.11781C10.6849 0.0778106 13.6499 0.0678105 15.5299 1.90781C15.987 2.34982 16.3506 2.87928 16.5988 3.46468C16.8471 4.05008 16.975 4.67945 16.975 5.31531C16.975 5.95118 16.8471 6.58054 16.5988 7.16594C16.3506 7.75134 15.987 8.2808 15.5299 8.72281L9.25994 14.8428C9.11974 14.9802 8.93125 15.0572 8.73494 15.0572C8.53862 15.0572 8.35013 14.9802 8.20994 14.8428L1.92994 8.72281C1.47282 8.2808 1.10932 7.75134 0.86106 7.16594C0.612801 6.58054 0.484863 5.95118 0.484863 5.31531C0.484863 4.67945 0.612801 4.05008 0.86106 3.46468C1.10932 2.87928 1.47282 2.34982 1.92994 1.90781C3.81494 0.0678105 6.77994 0.0778106 8.73494 2.11781H8.72994ZM7.77994 3.29781C6.37994 1.69781 4.28494 1.69781 2.97494 2.98281C2.66145 3.28504 2.41211 3.64736 2.24181 4.04812C2.0715 4.44888 1.98372 4.87986 1.98372 5.31531C1.98372 5.75076 2.0715 6.18174 2.24181 6.5825C2.41211 6.98326 2.66145 7.34558 2.97494 7.64781L8.72994 13.2628L14.4849 7.64781C14.7984 7.34558 15.0478 6.98326 15.2181 6.5825C15.3884 6.18174 15.4761 5.75076 15.4761 5.31531C15.4761 4.87986 15.3884 4.44888 15.2181 4.04812C15.0478 3.64736 14.7984 3.28504 14.4849 2.98281C13.1749 1.70281 11.0849 1.70281 9.68494 3.29781L9.65994 3.32281L9.25494 3.72281C9.11474 3.86023 8.92625 3.9372 8.72994 3.9372C8.53362 3.9372 8.34513 3.86023 8.20494 3.72281L7.79994 3.32281L7.77994 3.29781Z" fill="black" fill-opacity="0.48"/>
</svg>
