<svg width="21" height="20" viewBox="0 0 25 25" fill="none" xmlns="http://www.w3.org/2000/svg">
<mask id="mask0_196_21507" style="mask-type:luminance" maskUnits="userSpaceOnUse" x="0" y="0" width="25" height="25">
<path d="M24.6299 0.548828H0.629883V24.5488H24.6299V0.548828Z" fill="white"/>
</mask>
<g mask="url(#mask0_196_21507)">
<path fill-rule="evenodd" clip-rule="evenodd" d="M8.12988 2.79883C11.1299 2.79883 12.6299 4.79883 12.6299 4.79883C12.6299 4.79883 14.1299 2.79883 17.1299 2.79883C20.6299 2.79883 23.1299 5.54882 23.1299 9.04883C23.1299 13.0488 19.861 16.6145 16.8799 19.2988C15.0394 20.956 13.6299 22.0488 12.6299 22.0488C11.6299 22.0488 10.1804 20.9477 8.37988 19.2988C5.44937 16.615 2.12988 13.0488 2.12988 9.04883C2.12988 5.54882 4.62988 2.79883 8.12988 2.79883Z" fill="#FE2C55"/>
<path fill-rule="evenodd" clip-rule="evenodd" d="M3.03174 12.7477C4.21897 15.2445 6.38915 17.4748 8.37984 19.2979C10.1803 20.9468 11.6298 22.0479 12.6298 22.0479C13.6298 22.0479 15.0393 20.9551 16.8798 19.2979C19.861 16.6136 23.1298 13.0479 23.1298 9.04785C23.1298 8.96046 23.1282 8.87354 23.1251 8.78711C21.197 14.2098 14.3086 19.0479 12.3799 19.0479C10.9426 19.0479 6.24082 16.361 3.03174 12.7477Z" fill="#161823" fill-opacity="0.03"/>
</g>
</svg>
