<svg width="32" height="32" viewBox="0 0 32 32" fill="none" xmlns="http://www.w3.org/2000/svg">
<circle cx="16" cy="16" r="16" fill="#EEEDF7"/>
<path fill-rule="evenodd" clip-rule="evenodd" d="M24.0728 11.988L23.5022 10.9979C23.0195 10.1601 21.9498 9.87111 21.1109 10.3518V10.3518C20.7116 10.5871 20.2351 10.6538 19.7865 10.5373C19.3379 10.4208 18.9541 10.1307 18.7196 9.73091C18.5688 9.47679 18.4878 9.18735 18.4847 8.89186V8.89186C18.4983 8.41811 18.3196 7.95902 17.9892 7.61918C17.6589 7.27935 17.205 7.0877 16.7311 7.08789H15.5816C15.1172 7.08789 14.6721 7.27291 14.3445 7.60202C14.017 7.93113 13.8341 8.3772 13.8363 8.84151V8.84151C13.8226 9.80017 13.0415 10.5701 12.0827 10.57C11.7872 10.5669 11.4978 10.4859 11.2437 10.335V10.335C10.4047 9.85433 9.33504 10.1433 8.85235 10.9811L8.23984 11.988C7.75773 12.8247 8.0428 13.8937 8.87752 14.3793V14.3793C9.4201 14.6925 9.75434 15.2714 9.75434 15.898C9.75434 16.5245 9.4201 17.1034 8.87752 17.4166V17.4166C8.04386 17.8989 7.75848 18.9654 8.23984 19.7996V19.7996L8.81879 20.798C9.04495 21.2061 9.42441 21.5073 9.8732 21.6348C10.322 21.7624 10.8031 21.7058 11.2101 21.4777V21.4777C11.6102 21.2442 12.0869 21.1803 12.5344 21.3C12.9819 21.4197 13.363 21.7133 13.593 22.1154C13.7438 22.3695 13.8249 22.6589 13.8279 22.9544V22.9544C13.8279 23.9229 14.6131 24.708 15.5816 24.708H16.7311C17.6963 24.708 18.4801 23.928 18.4847 22.9628V22.9628C18.4824 22.497 18.6665 22.0497 18.9958 21.7203C19.3252 21.391 19.7725 21.2069 20.2383 21.2092C20.5331 21.2171 20.8213 21.2978 21.0774 21.4441V21.4441C21.9141 21.9262 22.9831 21.6411 23.4687 20.8064V20.8064L24.0728 19.7996C24.3066 19.3982 24.3708 18.9202 24.2511 18.4713C24.1314 18.0225 23.8377 17.6399 23.4351 17.4083V17.4083C23.0325 17.1766 22.7388 16.794 22.6191 16.3452C22.4994 15.8964 22.5636 15.4183 22.7974 15.017C22.9495 14.7515 23.1696 14.5313 23.4351 14.3793V14.3793C24.2648 13.894 24.5492 12.8312 24.0728 11.9964V11.9964V11.988Z" stroke="#5448B2" stroke-width="1.5" stroke-linecap="round" stroke-linejoin="round"/>
<ellipse cx="16.1609" cy="15.8979" rx="2.41648" ry="2.41648" stroke="#5448B2" stroke-width="1.5" stroke-linecap="round" stroke-linejoin="round"/>
</svg>
